<?xml version="1.0" encoding="iso-8859-1"?>
<!DOCTYPE svg PUBLIC "-//W3C//DTD SVG 1.1//EN" "http://www.w3.org/Graphics/SVG/1.1/DTD/svg11.dtd">
<svg version="1.1" id="buildings_1" xmlns="http://www.w3.org/2000/svg" xmlns:xlink="http://www.w3.org/1999/xlink"
	x="0px" y="0px" width="300px" height="398px" viewBox="0 0 300 398"
	 xml:space="preserve">
	<defs>
		<linearGradient id="paint-id-0" x1="45.867008209228516" y1="151.9674530029297" x2="45.867008209228516" y2="151.9674530029297">
			offset="0%" style="stop-color:#000000;stop-opacity:0.15686275;"/>
			offset="100%" style="stop-color:#000000;stop-opacity:0.0;"/>
		</linearGradient>
		<linearGradient id="paint-id-1" x1="45.867008209228516" y1="151.9674530029297" x2="45.867008209228516" y2="151.9674530029297">
			offset="0%" style="stop-color:#000000;stop-opacity:0.078431375;"/>
			offset="100%" style="stop-color:#000000;stop-opacity:0.0;"/>
		</linearGradient>
		<linearGradient id="paint-id-2" x1="254.1329803466797" y1="155.6179656982422" x2="254.1329803466797" y2="155.6179656982422">
			offset="0%" style="stop-color:#000000;stop-opacity:0.15686275;"/>
			offset="100%" style="stop-color:#000000;stop-opacity:0.0;"/>
		</linearGradient>
		<linearGradient id="paint-id-3" x1="254.1329803466797" y1="155.6179656982422" x2="254.1329803466797" y2="155.6179656982422">
			offset="0%" style="stop-color:#000000;stop-opacity:0.078431375;"/>
			offset="100%" style="stop-color:#000000;stop-opacity:0.0;"/>
		</linearGradient>
		<linearGradient id="paint-id-4" x1="26.120302200317383" y1="348.70843505859375" x2="26.120302200317383" y2="348.70843505859375">
			offset="0%" style="stop-color:#000000;stop-opacity:0.0;"/>
			offset="100%" style="stop-color:#000000;stop-opacity:0.15686275;"/>
		</linearGradient>
		<linearGradient id="paint-id-5" x1="26.120302200317383" y1="338.8501281738281" x2="26.120302200317383" y2="338.8501281738281">
			offset="0%" style="stop-color:#ffffff;stop-opacity:0.0;"/>
			offset="100%" style="stop-color:#ffffff;stop-opacity:0.078431375;"/>
		</linearGradient>
		<linearGradient id="paint-id-6" x1="147.50936889648438" y1="155.0630340576172" x2="147.50936889648438" y2="155.0630340576172">
			offset="0%" style="stop-color:#000000;stop-opacity:0.0;"/>
			offset="100%" style="stop-color:#000000;stop-opacity:0.3529412;"/>
		</linearGradient>
		<linearGradient id="paint-id-7" x1="26.120302200317383" y1="12.30659008026123" x2="26.120302200317383" y2="12.30659008026123">
			offset="0%" style="stop-color:#000000;stop-opacity:0.078431375;"/>
			offset="100%" style="stop-color:#000000;stop-opacity:0.0;"/>
		</linearGradient>
	</defs>
	<g>
		<path style="fill-rule:nonzero;fill:#cf5c36;fill-opacity:1;" d="M 53.708344 127.05079 L 52.176735 127.81729 L 50.668316 128.51212 L 49.1833 129.13658 L 47.721905 129.692 L 46.28434 130.1797 L 44.870823 130.601 L 43.481567 130.9572 L 42.11679 131.24965 L 40.77671 131.47964 L 39.461536 131.64851 L 38.171482 131.75758 L 36.90677 131.80815 L 35.66761 131.80156 L 34.45422 131.7391 L 33.26681 131.62212 L 33.094498 131.59686 L 33.094498 131.59686 L 33.88942 173.79878 L 33.88942 173.79878 L 34.915527 174.59575 L 38.025673 176.88412 L 53.708344 127.05079 Z"/>
		<path style="fill-rule:nonzero;fill:#df7b5a;fill-opacity:1;" d="M 52.76334 127.52372 L 52.176735 127.81729 L 50.668316 128.51212 L 49.1833 129.13658 L 47.721905 129.692 L 46.28434 130.1797 L 44.870823 130.601 L 43.481567 130.9572 L 42.11679 131.24965 L 40.77671 131.47964 L 39.461536 131.64851 L 38.171482 131.75758 L 36.90677 131.80815 L 35.66761 131.80156 L 34.45422 131.7391 L 33.26681 131.62212 L 32.105602 131.45192 L 30.970806 131.22983 L 29.862638 130.95715 L 28.781315 130.63522 L 27.72705 130.26535 L 26.70006 129.84886 L 26.29773 129.66298 L 26.29773 129.66298 L 17.62285 158.86116 L 17.62285 158.86116 L 18.537157 159.8917 L 20.972197 162.45116 L 23.531237 164.96901 L 26.20968 167.44382 L 29.00294 169.87416 L 31.906418 172.25862 L 34.915527 174.59575 L 38.025673 176.88412 L 39.322468 172.76343 L 51.959213 130.23027 L 52.76334 127.52372 Z"/>
		<path style="fill-rule:nonzero;fill:#cf5c36;fill-opacity:1;" d="M 21.16132 126.47468 L 7.765653 145.47313 L 7.765653 145.47313 L 8.382643 146.52008 L 10.128813 149.26622 L 12.021942 151.97787 L 14.057437 154.65363 L 16.230705 157.29205 L 18.537157 159.8917 L 20.972197 162.45116 L 23.531237 164.96901 L 23.97645 165.38039 L 23.97645 165.38039 L 47.23219 132.39784 L 49.678524 128.92833 L 49.678524 128.92833 L 49.1833 129.13658 L 47.721905 129.692 L 46.28434 130.1797 L 44.870823 130.601 L 43.481567 130.9572 L 42.11679 131.24965 L 40.77671 131.47964 L 39.461536 131.64851 L 38.171482 131.75758 L 36.90677 131.80815 L 35.66761 131.80156 L 34.45422 131.7391 L 33.26681 131.62212 L 32.105602 131.45192 L 30.970806 131.22983 L 29.862638 130.95715 L 28.781315 130.63522 L 27.72705 130.26535 L 26.70006 129.84886 L 25.700558 129.38708 L 24.72876 128.8813 L 23.784882 128.33287 L 22.869137 127.743095 L 21.98174 127.11329 L 21.16132 126.47468 Z"/>
		<path style="fill-rule:nonzero;fill:#df7b5a;fill-opacity:1;" d="M 16.452993 121.51666 L 2.1244934 132.66948 L 2.4666042 133.77397 L 2.9593809 135.21922 L 3.4946384 136.65762 L 4.071799 138.08902 L 4.690292 139.51323 L 5.349544 140.93005 L 6.048979 142.33932 L 6.788022 143.74088 L 7.5661016 145.13452 L 8.382643 146.52008 L 10.128813 149.26622 L 12.021942 151.97787 L 14.0549135 154.65031 L 14.0549135 154.65031 L 42.28366 132.67804 L 45.00258 130.56172 L 45.00258 130.56172 L 44.870823 130.601 L 43.481567 130.9572 L 42.11679 131.24965 L 40.77671 131.47964 L 39.461536 131.64851 L 38.171482 131.75758 L 36.90677 131.80815 L 35.66761 131.80156 L 34.45422 131.7391 L 33.26681 131.62212 L 32.105602 131.45192 L 30.970806 131.22983 L 29.862638 130.95715 L 28.781315 130.63522 L 27.72705 130.26535 L 26.70006 129.84886 L 25.700558 129.38708 L 24.72876 128.8813 L 23.784882 128.33287 L 22.869137 127.743095 L 21.98174 127.11329 L 21.12291 126.44478 L 20.292858 125.738884 L 19.4918 124.99692 L 18.719952 124.2202 L 17.977528 123.41006 L 17.264742 122.567795 L 16.581814 121.69474 L 16.452993 121.51666 Z"/>
		<path style="fill-rule:nonzero;fill:#cf5c36;fill-opacity:1;" d="M 12.506746 114.44991 L 0.025253672 119.9657 L 0.03790993 120.48847 L 0.12253933 121.987236 L 0.25481457 123.48076 L 0.4341615 124.96888 L 0.66000843 126.45141 L 0.9317765 127.92817 L 1.248894 129.39899 L 1.6107868 130.86368 L 2.0168831 132.32207 L 2.4666042 133.77397 L 2.9593809 135.21922 L 3.4946384 136.65762 L 4.071799 138.08902 L 4.690292 139.51323 L 5.349544 140.93005 L 6.048979 142.33932 L 6.788022 143.74088 L 6.8660975 143.88072 L 34.36162 131.72998 L 34.36162 131.72998 L 33.26681 131.62212 L 32.105602 131.45192 L 30.970806 131.22983 L 29.862638 130.95715 L 28.781315 130.63522 L 27.72705 130.26535 L 26.70006 129.84886 L 25.700558 129.38708 L 24.72876 128.8813 L 23.784882 128.33287 L 22.869137 127.743095 L 21.98174 127.11329 L 21.12291 126.44478 L 20.292858 125.738884 L 19.4918 124.99692 L 18.719952 124.2202 L 17.977528 123.41006 L 17.264742 122.567795 L 16.581814 121.69474 L 15.928952 120.79222 L 15.306376 119.861534 L 14.714301 118.90402 L 14.152939 117.92099 L 13.622508 116.91376 L 13.123221 115.883644 L 12.655294 114.83197 L 12.506746 114.44991 Z M 6.8660975 143.88072 L 6.8660975 143.88072 L 6.8660975 143.88072 L 6.8660975 143.88072 Z"/>
		<path style="fill-rule:nonzero;fill:#df7b5a;fill-opacity:1;" d="M 10.073767 105.83759 L 1.2915784 107.7222 L 1.2915784 107.7222 L 1.144998 108.33141 L 0.8277977 109.865616 L 0.56283617 111.39601 L 0.34953684 112.922424 L 0.18732792 114.44467 L 0.075635344 115.96258 L 0.013885016 117.47597 L 0.0015004559 118.98466 L 0.03790993 120.48847 L 0.12253933 121.987236 L 0.25481457 123.48076 L 0.4341615 124.96888 L 0.66000843 126.45141 L 0.9317765 127.92817 L 1.248894 129.39899 L 1.6107868 130.86368 L 2.0168831 132.32207 L 2.1403933 132.72081 L 23.48575 128.14021 L 23.48575 128.14021 L 22.869137 127.743095 L 21.98174 127.11329 L 21.12291 126.44478 L 20.292858 125.738884 L 19.4918 124.99692 L 18.719952 124.2202 L 17.977528 123.41006 L 17.264742 122.567795 L 16.581814 121.69474 L 15.928952 120.79222 L 15.306376 119.861534 L 14.714301 118.90402 L 14.152939 117.92099 L 13.622508 116.91376 L 13.123221 115.883644 L 12.655294 114.83197 L 11.814382 112.66922 L 11.101489 110.43605 L 10.518337 108.14302 L 10.073767 105.83759 Z"/>
		<path style="fill-rule:nonzero;fill:#cf5c36;fill-opacity:1;" d="M 9.589148 96.67579 L 5.222152 96.78726 L 5.222152 96.78726 L 4.8762684 97.500404 L 4.177332 99.05626 L 3.5346508 100.60955 L 2.947653 102.16011 L 2.415762 103.70775 L 1.9384059 105.252304 L 1.5150084 106.79358 L 1.144998 108.33141 L 0.8277977 109.865616 L 0.56283617 111.39601 L 0.34953684 112.922424 L 0.18732792 114.44467 L 0.075635344 115.96258 L 0.013885016 117.47597 L 0.0015004559 118.98466 L 0.03790993 120.48847 L 0.09725045 121.539375 L 0.09725045 121.539375 L 16.172606 121.12905 L 16.172606 121.12905 L 15.928952 120.79222 L 15.306376 119.861534 L 14.714301 118.90402 L 14.152939 117.92099 L 13.622508 116.91376 L 13.123221 115.883644 L 12.655294 114.83197 L 11.814382 112.66922 L 11.101489 110.43605 L 10.518337 108.14302 L 10.066648 105.800674 L 9.748139 103.41956 L 9.564534 101.01025 L 9.51755 98.583275 L 9.589148 96.67579 Z"/>
		<path style="fill-rule:nonzero;fill:#df7b5a;fill-opacity:1;" d="M 10.43948 87.900734 L 10.2834 88.12157 L 9.234875 89.68902 L 8.24605 91.25498 L 7.3163514 92.81928 L 6.4452033 94.38174 L 5.6320333 95.94217 L 4.8762684 97.500404 L 4.177332 99.05626 L 3.5346508 100.60955 L 2.947653 102.16011 L 2.415762 103.70775 L 1.9384059 105.252304 L 1.5150084 106.79358 L 1.144998 108.33141 L 0.8277977 109.865616 L 0.5983975 111.19061 L 11.999363 113.14497 L 11.814382 112.66922 L 11.101489 110.43605 L 10.518337 108.14302 L 10.066648 105.800674 L 9.748139 103.41956 L 9.564534 101.01025 L 9.51755 98.583275 L 9.608912 96.14919 L 9.840336 93.71855 L 10.213546 91.3019 L 10.73026 88.909805 L 10.972715 87.99214 L 10.972715 87.99214 L 10.43948 87.900734 Z"/>
		<path style="fill-rule:nonzero;fill:#cf5c36;fill-opacity:1;" d="M 11.392198 86.552795 L 10.2834 88.12157 L 9.234875 89.68902 L 8.24605 91.25498 L 7.3163514 92.81928 L 6.4452033 94.38174 L 5.6320333 95.94217 L 4.8762684 97.500404 L 4.177332 99.05626 L 3.5346508 100.60955 L 2.947653 102.16011 L 2.8097808 102.56127 L 10.063667 105.77839 L 10.063667 105.77839 L 9.748139 103.41956 L 9.564534 101.01025 L 9.51755 98.583275 L 9.608912 96.14919 L 9.840336 93.71855 L 10.213546 91.3019 L 10.73026 88.909805 L 11.042968 87.72625 L 11.392198 86.552795 Z"/>
		<path style="fill-rule:nonzero;fill:url(#paint-id-0);fill-opacity:1;" d="M 38.025673 176.88412 C 4.3282337 152.7398 -12.909171 120.03247 11.392198 86.552795 C 3.5508652 111.46947 20.788269 144.17679 53.708344 127.05079 Z"/>
		<path style="fill-rule:nonzero;fill:url(#paint-id-1);fill-opacity:1;" d="M 38.025673 176.88412 C 4.3282337 152.7398 -12.909171 120.03247 11.392198 86.552795 C -1.6203572 101.657265 4.3282337 152.7398 45.86701 151.96745 Z"/>
		<path style="fill-rule:nonzero;fill:#cf5c36;fill-opacity:1;" d="M 246.29166 130.7013 L 261.97433 180.53464 L 265.08447 178.24625 L 266.11057 177.4493 L 266.9055 135.24738 L 266.7332 135.27263 L 265.54578 135.3896 L 264.33237 135.45206 L 263.09323 135.45866 L 261.82852 135.40808 L 260.53845 135.29903 L 259.2233 135.13016 L 257.8832 134.90016 L 256.51843 134.60771 L 255.12918 134.2515 L 253.71567 133.8302 L 252.27809 133.3425 L 250.8167 132.78708 L 249.3317 132.16261 L 247.82326 131.46779 L 246.29166 130.7013 Z"/>
		<path style="fill-rule:nonzero;fill:#df7b5a;fill-opacity:1;" d="M 247.23666 131.17422 L 248.04079 133.88077 L 260.67746 176.41365 L 261.97433 180.53464 L 265.08447 178.24625 L 268.0936 175.90912 L 270.99707 173.52467 L 273.7903 171.09433 L 276.46875 168.61952 L 279.0278 166.10167 L 281.46283 163.5422 L 282.37717 162.51167 L 282.37717 162.51167 L 273.70227 133.31349 L 273.29993 133.49937 L 272.27295 133.91586 L 271.2187 134.28574 L 270.13736 134.60765 L 269.0292 134.88033 L 267.89438 135.10242 L 266.7332 135.27263 L 265.54578 135.3896 L 264.33237 135.45206 L 263.09323 135.45866 L 261.82852 135.40808 L 260.53845 135.29903 L 259.2233 135.13016 L 257.8832 134.90016 L 256.51843 134.60771 L 255.12918 134.2515 L 253.71567 133.8302 L 252.27809 133.3425 L 250.8167 132.78708 L 249.3317 132.16261 L 247.82326 131.46779 L 247.23666 131.17422 Z"/>
		<path style="fill-rule:nonzero;fill:#cf5c36;fill-opacity:1;" d="M 278.83868 130.12518 L 278.01825 130.7638 L 277.13086 131.3936 L 276.21512 131.98338 L 275.27124 132.53181 L 274.29944 133.03758 L 273.29993 133.49937 L 272.27295 133.91586 L 271.2187 134.28574 L 270.13736 134.60765 L 269.0292 134.88033 L 267.89438 135.10242 L 266.7332 135.27263 L 265.54578 135.3896 L 264.33237 135.45206 L 263.09323 135.45866 L 261.82852 135.40808 L 260.53845 135.29903 L 259.2233 135.13016 L 257.8832 134.90016 L 256.51843 134.60771 L 255.12918 134.2515 L 253.71567 133.8302 L 252.27809 133.3425 L 250.8167 132.78708 L 250.32149 132.57884 L 252.76782 136.04836 L 276.02356 169.03088 L 276.46875 168.61952 L 279.0278 166.10167 L 281.46283 163.5422 L 283.7693 160.94255 L 285.94257 158.30414 L 287.97806 155.62839 L 289.8712 152.91672 L 291.61737 150.1706 L 292.23434 149.12364 L 278.83868 130.12518 Z"/>
		<path style="fill-rule:nonzero;fill:#df7b5a;fill-opacity:1;" d="M 283.54703 125.16717 L 283.41818 125.34525 L 282.73526 126.2183 L 282.02246 127.06056 L 281.28006 127.870705 L 280.5082 128.64743 L 279.70712 129.38939 L 278.8771 130.09529 L 278.01825 130.7638 L 277.13086 131.3936 L 276.21512 131.98338 L 275.27124 132.53181 L 274.29944 133.03758 L 273.29993 133.49937 L 272.27295 133.91586 L 271.2187 134.28574 L 270.13736 134.60765 L 269.0292 134.88033 L 267.89438 135.10242 L 266.7332 135.27263 L 265.54578 135.3896 L 264.33237 135.45206 L 263.09323 135.45866 L 261.82852 135.40808 L 260.53845 135.29903 L 259.2233 135.13016 L 257.8832 134.90016 L 256.51843 134.60771 L 255.12918 134.2515 L 254.99742 134.21223 L 257.71634 136.32854 L 285.94507 158.30083 L 287.97806 155.62839 L 289.8712 152.91672 L 291.61737 150.1706 L 292.4339 148.78503 L 293.21198 147.39139 L 293.95102 145.98984 L 294.65045 144.58057 L 295.30972 143.16373 L 295.9282 141.73953 L 296.50537 140.30814 L 297.04062 138.86972 L 297.5334 137.42447 L 297.87552 136.31998 L 297.87552 136.31998 L 283.54703 125.16717 Z"/>
		<path style="fill-rule:nonzero;fill:#cf5c36;fill-opacity:1;" d="M 287.49326 118.10042 L 287.3447 118.482475 L 286.87677 119.53415 L 286.37747 120.56426 L 285.84705 121.571495 L 285.2857 122.55453 L 284.6936 123.51205 L 284.07104 124.442726 L 283.41818 125.34525 L 282.73526 126.2183 L 282.02246 127.06056 L 281.28006 127.870705 L 280.5082 128.64743 L 279.70712 129.38939 L 278.8771 130.09529 L 278.01825 130.7638 L 277.13086 131.3936 L 276.21512 131.98338 L 275.27124 132.53181 L 274.29944 133.03758 L 273.29993 133.49937 L 272.27295 133.91586 L 271.2187 134.28574 L 270.13736 134.60765 L 269.0292 134.88033 L 267.89438 135.10242 L 266.7332 135.27263 L 265.6384 135.38048 L 293.1339 147.53123 L 293.21198 147.39139 L 293.95102 145.98984 L 294.65045 144.58057 L 295.30972 143.16373 L 295.9282 141.73953 L 296.50537 140.30814 L 297.04062 138.86972 L 297.5334 137.42447 L 297.98312 135.97256 L 298.38922 134.51418 L 298.7511 133.04948 L 299.06824 131.57867 L 299.34 130.10191 L 299.56586 128.61938 L 299.74518 127.13127 L 299.87744 125.63774 L 299.9621 124.13898 L 299.97476 123.61621 L 287.49326 118.10042 Z"/>
		<path style="fill-rule:nonzero;fill:#df7b5a;fill-opacity:1;" d="M 289.92624 109.48809 L 289.48166 111.793526 L 288.8985 114.086555 L 288.1856 116.319725 L 287.3447 118.482475 L 286.87677 119.53415 L 286.37747 120.56426 L 285.84705 121.571495 L 285.2857 122.55453 L 284.6936 123.51205 L 284.07104 124.442726 L 283.41818 125.34525 L 282.73526 126.2183 L 282.02246 127.06056 L 281.28006 127.870705 L 280.5082 128.64743 L 279.70712 129.38939 L 278.8771 130.09529 L 278.01825 130.7638 L 277.13086 131.3936 L 276.51425 131.79073 L 276.51425 131.79073 L 297.8596 136.3713 L 297.8596 136.3713 L 297.98312 135.97256 L 298.38922 134.51418 L 298.7511 133.04948 L 299.06824 131.57867 L 299.34 130.10191 L 299.56586 128.61938 L 299.74518 127.13127 L 299.87744 125.63774 L 299.9621 124.13898 L 299.9985 122.63516 L 299.9861 121.12647 L 299.92438 119.61308 L 299.81265 118.09518 L 299.65045 116.57293 L 299.43716 115.04652 L 299.1722 113.51612 L 298.85498 111.98192 L 298.70844 111.372696 L 289.92624 109.48809 Z"/>
		<path style="fill-rule:nonzero;fill:#cf5c36;fill-opacity:1;" d="M 290.41086 100.326294 L 290.48245 102.23378 L 290.43546 104.66076 L 290.25186 107.070076 L 289.93335 109.45118 L 289.48166 111.793526 L 288.8985 114.086555 L 288.1856 116.319725 L 287.3447 118.482475 L 286.87677 119.53415 L 286.37747 120.56426 L 285.84705 121.571495 L 285.2857 122.55453 L 284.6936 123.51205 L 284.07104 124.442726 L 283.8274 124.77955 L 283.8274 124.77955 L 299.90274 125.18988 L 299.90274 125.18988 L 299.9621 124.13898 L 299.9985 122.63516 L 299.9861 121.12647 L 299.92438 119.61308 L 299.81265 118.09518 L 299.65045 116.57293 L 299.43716 115.04652 L 299.1722 113.51612 L 298.85498 111.98192 L 298.485 110.44409 L 298.06158 108.90281 L 297.58423 107.35826 L 297.05234 105.810616 L 296.46533 104.260056 L 295.82266 102.706764 L 295.12372 101.15091 L 294.77783 100.43777 L 290.41086 100.326294 Z"/>
		<path style="fill-rule:nonzero;fill:#df7b5a;fill-opacity:1;" d="M 289.56052 91.55125 L 289.02728 91.642654 L 289.26974 92.56031 L 289.78647 94.95241 L 290.15967 97.36906 L 290.39108 99.7997 L 290.48245 102.23378 L 290.43546 104.66076 L 290.25186 107.070076 L 289.93335 109.45118 L 289.48166 111.793526 L 288.8985 114.086555 L 288.1856 116.319725 L 288.00064 116.79548 L 299.4016 114.841125 L 299.1722 113.51612 L 298.85498 111.98192 L 298.485 110.44409 L 298.06158 108.90281 L 297.58423 107.35826 L 297.05234 105.810616 L 296.46533 104.260056 L 295.82266 102.706764 L 295.12372 101.15091 L 294.36795 99.59268 L 293.5548 98.03225 L 292.68365 96.46979 L 291.75394 94.905495 L 290.76514 93.33952 L 289.7166 91.77207 L 289.56052 91.55125 Z"/>
		<path style="fill-rule:nonzero;fill:#cf5c36;fill-opacity:1;" d="M 288.6078 90.20331 L 288.95703 91.37676 L 289.26974 92.56031 L 289.78647 94.95241 L 290.15967 97.36906 L 290.39108 99.7997 L 290.48245 102.23378 L 290.43546 104.66076 L 290.25186 107.070076 L 289.93634 109.42892 L 297.19022 106.21179 L 297.05234 105.810616 L 296.46533 104.260056 L 295.82266 102.706764 L 295.12372 101.15091 L 294.36795 99.59268 L 293.5548 98.03225 L 292.68365 96.46979 L 291.75394 94.905495 L 290.76514 93.33952 L 289.7166 91.77207 L 288.6078 90.20331 Z"/>
		<path style="fill-rule:nonzero;fill:url(#paint-id-2);fill-opacity:1;" d="M 261.97433 180.53464 C 295.67178 156.3903 312.90918 123.682976 288.6078 90.20331 C 296.44913 115.11997 279.21173 147.8273 246.29166 130.7013 Z"/>
		<path style="fill-rule:nonzero;fill:url(#paint-id-3);fill-opacity:1;" d="M 261.97433 180.53464 C 295.67178 156.3903 312.90918 123.682976 288.6078 90.20331 C 301.62036 105.30778 295.67178 156.3903 254.13298 155.61797 Z"/>
		<path style="fill-rule:nonzero;fill:#000000;fill-opacity:0.15686275;" d="M 89.91975 373.87128 L 89.31891 374.0205 L 84.36665 375.27255 L 82.35094 375.82312 L 80.61443 376.35016 L 79.13634 376.87378 L 77.895874 377.41403 L 76.872246 377.99112 L 76.43524 378.29968 L 76.04465 378.625 L 75.69786 378.96957 L 75.39229 379.33588 L 75.12533 379.72644 L 74.89438 380.1438 L 74.69684 380.59042 L 74.53011 381.06885 L 74.27872 382.13116 L 74.11938 383.3508 L 74.03131 384.7479 L 73.99372 386.3425 L 73.98582 388.15472 L 74.60515 388.15472 L 74.60515 388.77005 L 75.22448 388.77005 L 75.22448 388.15472 L 75.237045 385.0477 L 75.28687 383.78098 L 75.39607 382.6793 L 75.5874 381.72314 L 75.72097 381.29355 L 75.8836 380.89297 L 76.07814 380.51898 L 76.30743 380.16916 L 76.57432 379.84106 L 76.88164 379.5322 L 77.23225 379.24017 L 77.62898 378.9625 L 78.57221 378.4405 L 79.73408 377.9466 L 81.13734 377.4613 L 82.80473 376.965 L 84.75903 376.4381 L 89.61932 375.21442 L 90.22016 375.0652 L 89.91975 373.87128 Z M 210.05363 373.87128 L 209.75322 375.0652 L 210.35405 375.21442 L 215.21436 376.4381 L 217.16866 376.965 L 218.83606 377.4613 L 220.2393 377.9466 L 221.40117 378.4405 L 222.3444 378.9625 L 222.74112 379.24017 L 223.09175 379.5322 L 223.39908 379.84106 L 223.66595 380.16916 L 223.89525 380.51898 L 224.08977 380.89297 L 224.25241 381.29355 L 224.38599 381.72314 L 224.57732 382.6793 L 224.68652 383.78098 L 224.73634 385.0477 L 224.7489 388.15472 L 224.7489 388.77005 L 225.36824 388.77005 L 225.36824 388.15472 L 225.98758 388.15472 L 225.97966 386.3425 L 225.94206 384.7479 L 225.854 383.3508 L 225.69467 382.13116 L 225.44325 381.06885 L 225.27654 380.59042 L 225.07901 380.1438 L 224.84807 379.72644 L 224.58109 379.33588 L 224.27553 378.96957 L 223.92874 378.625 L 223.53815 378.29968 L 223.10115 377.99112 L 222.07751 377.41403 L 220.83704 376.87378 L 219.35896 376.35016 L 217.62245 375.82312 L 215.60674 375.27255 L 210.65448 374.0205 L 210.05363 373.87128 Z M 99.79367 378.77393 L 99.20046 378.9507 L 96.78384 379.66425 L 93.255455 380.7204 L 91.74719 381.2092 L 90.399185 381.69348 L 89.20367 382.18954 L 88.15286 382.71362 L 87.239006 383.28204 L 86.45433 383.91104 L 85.79107 384.6169 L 85.24145 385.41592 L 84.7977 386.32437 L 84.45206 387.35846 L 84.19675 388.53455 L 84.023994 389.8689 L 83.92605 391.37775 L 83.89513 393.07736 L 84.51446 393.07736 L 84.51446 393.6927 L 85.13379 393.6927 L 85.13379 393.07736 L 85.15614 391.53384 L 85.22974 390.16766 L 85.36439 388.9631 L 85.56991 387.9044 L 85.8561 386.9758 L 86.23279 386.16153 L 86.70978 385.44592 L 87.296875 384.81314 L 88.0039 384.2475 L 88.84065 383.73322 L 89.81695 383.25455 L 90.942604 382.79575 L 92.227425 382.3411 L 93.68122 381.87482 L 97.135 380.8444 L 99.55639 380.1295 L 100.149605 379.95267 L 99.79367 378.77393 Z M 200.1797 378.77393 L 199.82379 379.95267 L 200.41699 380.1295 L 202.83838 380.8444 L 206.29216 381.87482 L 207.74596 382.3411 L 209.03078 382.79575 L 210.15643 383.25455 L 211.13274 383.73322 L 211.96948 384.2475 L 212.67651 384.81314 L 213.2636 385.44592 L 213.74059 386.16153 L 214.11728 386.9758 L 214.40347 387.9044 L 214.609 388.9631 L 214.74364 390.16766 L 214.81725 391.53384 L 214.8396 393.07736 L 214.8396 393.6927 L 215.45892 393.6927 L 215.45892 393.07736 L 216.07826 393.07736 L 216.04733 391.37775 L 215.94939 389.8689 L 215.77663 388.53455 L 215.52132 387.35846 L 215.17569 386.32437 L 214.73193 385.41592 L 214.18231 384.6169 L 213.51906 383.91104 L 212.73439 383.28204 L 211.82053 382.71362 L 210.76971 382.18954 L 209.5742 381.69348 L 208.2262 381.2092 L 206.71791 380.7204 L 203.18954 379.66425 L 200.77293 378.9507 L 200.1797 378.77393 Z"/>
		<path style="fill-rule:nonzero;fill:#ffc145;fill-opacity:1;" d="M 150.05238 109.82508 L 74.90814 108.305595 C 50.095238 107.803856 25.704018 132.22528 26.125692 157.14844 L 28.604605 303.66507 C 29.02628 328.58826 54.265594 353.63068 79.08324 353.74997 L 149.76132 354.08966 L 220.4394 354.42935 C 245.25703 354.54865 270.56296 329.746 271.05127 304.82404 L 273.84583 162.19193 C 274.33417 137.26999 250.00955 111.846306 225.19664 111.34457 L 150.05238 109.82508 Z"/>
		<path style="fill-rule:nonzero;fill:#000000;fill-opacity:0.078431375;" d="M 267.29196 138.62842 L 257.3023 293.4086 L 257.0819 295.71027 L 256.7212 298.00665 L 256.22495 300.2934 L 255.59805 302.56595 L 254.8453 304.8199 L 253.97154 307.0507 L 252.98158 309.2539 L 251.88025 311.42505 L 250.67236 313.55966 L 249.36276 315.65326 L 247.95628 317.7014 L 246.45773 319.69952 L 244.87195 321.64325 L 243.20375 323.52805 L 241.45796 325.34946 L 239.6394 327.10303 L 237.75293 328.78427 L 235.80336 330.38867 L 233.79549 331.91183 L 231.73418 333.3492 L 229.62424 334.69635 L 227.47049 335.9488 L 225.27779 337.10208 L 223.0509 338.1517 L 220.79471 339.09317 L 218.51402 339.9221 L 216.21368 340.63388 L 213.89848 341.22412 L 211.57327 341.6884 L 209.24287 342.02213 L 206.9121 342.2209 L 204.5858 342.28018 L 48.506985 341.48038 L 48.506985 341.48038 L 50.320183 342.94373 L 52.316475 344.4219 L 54.365757 345.80908 L 56.4634 347.10068 L 58.604794 348.29205 L 60.785305 349.3787 L 63.00032 350.356 L 65.24521 351.21933 L 67.51536 351.96417 L 69.80615 352.58588 L 72.11295 353.0799 L 74.431145 353.44165 L 76.75612 353.66653 L 79.08324 353.74997 L 149.76132 354.08966 L 220.4394 354.42935 L 222.76672 354.3683 L 225.09225 354.16574 L 227.41139 353.82623 L 229.71948 353.3543 L 232.0119 352.75455 L 234.28401 352.0315 L 236.53119 351.1896 L 238.74878 350.23352 L 240.93217 349.1677 L 243.07672 347.99677 L 245.1778 346.7252 L 247.23076 345.35757 L 249.23097 343.8984 L 251.17383 342.35226 L 253.05466 340.72366 L 254.86884 339.01718 L 256.61176 337.2373 L 258.27875 335.38864 L 259.8652 333.47565 L 261.3665 331.50296 L 262.77795 329.47507 L 264.09497 327.39648 L 265.31293 325.27185 L 266.42715 323.1056 L 267.433 320.9023 L 268.32593 318.66656 L 269.10123 316.40286 L 269.75424 314.11575 L 270.28043 311.80975 L 270.67508 309.48947 L 270.93356 307.15936 L 271.05127 304.82404 L 273.84583 162.19193 L 273.81967 159.8548 L 273.65256 157.51938 L 273.34897 155.19034 L 272.91336 152.87233 L 272.3502 150.56999 L 271.66388 148.288 L 270.8589 146.03099 L 269.93973 143.80363 L 268.9108 141.61058 L 267.77655 139.45648 L 267.29196 138.62842 Z"/>
		<path style="fill-rule:nonzero;fill:#ffffff;fill-opacity:0.19607843;" d="M 74.90814 108.305595 L 72.58391 108.330826 L 70.26662 108.49763 L 67.960724 108.80151 L 65.67071 109.238014 L 63.40102 109.80267 L 61.15614 110.491 L 58.94052 111.29853 L 56.758644 112.220795 L 54.61496 113.25333 L 52.513947 114.39164 L 50.46006 115.63127 L 48.45778 116.96775 L 46.51156 118.3966 L 44.62587 119.91335 L 42.80518 121.513535 L 41.05395 123.19268 L 39.37665 124.946304 L 37.77775 126.76995 L 36.261707 128.65913 L 34.832993 130.6094 L 33.496075 132.61626 L 32.255417 134.67525 L 31.115482 136.78189 L 30.080742 138.93173 L 29.15566 141.12027 L 28.344704 143.34306 L 27.652338 145.59561 L 27.08303 147.87347 L 26.641245 150.17215 L 26.33145 152.48718 L 26.15811 154.8141 L 26.125692 157.14844 L 28.604605 303.66507 L 28.716074 306.00122 L 28.968338 308.33347 L 29.356775 310.65723 L 29.876764 312.96796 L 30.523682 315.26102 L 31.29291 317.53186 L 32.179825 319.7759 L 33.179806 321.98853 L 34.288227 324.16516 L 35.500473 326.30124 L 36.044636 327.16885 L 36.044636 327.16885 L 34.903996 167.1958 L 34.95937 164.88988 L 35.155384 162.58992 L 35.487537 160.3004 L 35.951332 158.02577 L 36.542255 155.7705 L 37.25581 153.53903 L 38.08749 151.33585 L 39.03279 149.16537 L 40.08721 147.03209 L 41.246246 144.94048 L 42.50539 142.89496 L 43.86014 140.9 L 45.305996 138.96007 L 46.83845 137.07964 L 48.453 135.26314 L 50.145138 133.51506 L 51.91037 131.83983 L 53.744183 130.24193 L 55.642075 128.72581 L 57.59955 127.29594 L 59.61209 125.956764 L 61.675205 124.71275 L 63.78438 123.56836 L 65.93513 122.528046 L 68.122925 121.596275 L 70.34328 120.777504 L 72.59168 120.07619 L 74.86363 119.49679 L 77.15463 119.04376 L 79.46016 118.72158 L 81.775734 118.53469 L 84.09683 118.48755 L 250.4111 120.22265 L 250.4111 120.22265 L 249.62381 119.66394 L 247.57335 118.34043 L 245.4755 117.116394 L 243.33469 115.99649 L 241.1554 114.985374 L 238.94206 114.08769 L 236.69913 113.30811 L 234.43109 112.65128 L 232.14235 112.12186 L 229.8374 111.724495 L 227.52069 111.463844 L 225.19664 111.34457 L 150.05238 109.82508 L 74.90814 108.305595 Z"/>
		<path style="fill-rule:nonzero;fill:#ffc145;fill-opacity:1;" d="M 96.90109 332.27792 C 88.02022 344.78336 88.02022 351.0361 96.90109 363.54153 C 69.65049 370.9255 62.218506 366.00287 64.69583 388.15472 L 74.60515 388.15472 L 74.60515 393.07736 L 84.51446 393.07736 L 84.51446 398.0 L 94.42377 398.0 C 124.1517 388.15472 124.1517 388.15472 116.71972 363.54153 C 107.838844 351.0361 107.838844 340.15414 116.71972 332.27792 M 203.0723 332.27792 C 211.95317 344.78336 211.95317 351.0361 203.0723 363.54153 C 230.32289 370.9255 237.75488 366.00287 235.27756 388.15472 L 225.36824 388.15472 L 225.36824 393.07736 L 215.45892 393.07736 L 215.45892 398.0 L 205.54962 398.0 C 175.82167 388.15472 175.82167 388.15472 183.25366 363.54153 C 192.13455 351.0361 192.13455 340.15414 183.25366 332.27792"/>
		<path style="fill-rule:nonzero;fill:url(#paint-id-4);fill-opacity:1;" d="M 183.25366 332.27792 C 187.17537 335.756 189.3653 339.8202 189.82343 344.35147 L 189.82343 344.35147 C 190.24913 339.919 189.1795 335.86264 186.61456 332.27792 Z M 113.358826 332.27792 L 113.358826 332.27792 C 110.79388 335.86264 109.72426 339.919 110.14995 344.35147 L 110.14995 344.35147 C 110.60808 339.8202 112.798004 335.756 116.71972 332.27792 Z M 90.354675 346.06375 C 89.79823 350.5766 91.27455 354.90204 94.783646 360.4095 L 94.783646 360.4095 C 95.47577 360.23093 96.18152 360.04456 96.90109 359.84958 C 93.04219 354.4157 90.860054 350.16245 90.354675 346.06375 Z M 209.61871 346.06375 C 209.11333 350.16245 206.93118 354.4157 203.0723 359.84958 C 203.79185 360.04456 204.49762 360.23093 205.18973 360.4095 L 205.18973 360.4095 C 208.69882 354.90204 210.17514 350.5766 209.61871 346.06375 Z M 64.29622 379.63742 L 64.29622 379.63742 C 64.16502 381.92065 64.310646 384.7104 64.69583 388.15472 L 74.60515 388.15472 L 74.60515 384.46274 L 64.69583 384.46274 C 64.49726 382.68707 64.36235 381.08542 64.29622 379.63742 Z M 235.67717 379.6374 L 235.67717 379.6374 C 235.61104 381.08542 235.47612 382.68707 235.27756 384.46274 L 225.36824 384.46274 L 225.36824 388.15472 L 235.27756 388.15472 C 235.66275 384.7104 235.80835 381.92062 235.67717 379.6374 Z M 74.60515 389.38538 L 74.60515 393.07736 L 84.51446 393.07736 L 84.51446 389.38538 Z M 215.45892 389.38538 L 215.45892 393.07736 L 225.36824 393.07736 L 225.36824 389.38538 Z M 120.732994 379.2548 C 119.77676 385.91162 112.7474 388.2396 94.42377 394.308 L 84.51446 394.308 L 84.51446 398.0 L 94.42377 398.0 C 115.77596 390.9286 121.79187 388.93625 120.732994 379.2548 Z M 179.24039 379.2548 L 179.24039 379.2548 C 178.1815 388.93625 184.19742 390.9286 205.54962 398.0 L 215.45892 398.0 L 215.45892 394.308 L 205.54962 394.308 C 187.22598 388.2396 180.19662 385.91162 179.24039 379.2548 Z"/>
		<path style="fill-rule:nonzero;fill:url(#paint-id-5);fill-opacity:1;" d="M 186.61456 332.27792 C 187.18515 333.07538 187.68173 333.89618 188.10434 334.73926 L 204.75621 334.73926 C 204.23573 333.94498 203.67442 333.12582 203.0723 332.27792 Z M 96.90109 332.27792 C 93.04219 337.71176 90.860054 341.9651 90.354675 346.06375 L 90.354675 346.06375 C 90.662506 348.5603 91.592445 351.11423 93.144485 353.95734 L 93.144485 353.95734 C 91.73608 347.95532 93.81406 342.57462 99.378426 334.73926 L 111.86905 334.73926 C 112.29163 333.89618 112.78822 333.07538 113.358826 332.27792 Z M 206.6185 364.46393 C 206.27779 364.96655 205.9215 365.47922 205.54962 366.00287 C 220.37077 370.01886 229.32939 370.39447 234.01976 373.46555 L 234.01976 373.46555 C 230.722 368.29868 222.36688 368.39258 206.6185 364.46393 Z M 234.01976 373.46555 C 234.01976 373.46555 234.01976 373.46555 234.01976 373.46555 L 234.01976 373.46555 C 234.01976 373.46555 234.01976 373.46555 234.01976 373.46555 Z M 189.6123 339.19675 C 189.92412 340.85016 189.99448 342.57047 189.82343 344.35147 L 189.82343 344.35147 C 190.40276 350.08148 188.21283 356.55838 183.25366 363.54153 C 181.15973 370.4762 179.65576 375.45706 179.24039 379.2548 L 179.24039 379.2548 C 179.50945 381.12775 180.25925 382.65802 181.60611 384.02533 L 181.60611 384.02533 C 181.50919 379.9846 183.18347 374.4397 185.731 366.00287 C 193.03983 355.71106 194.33359 346.51886 189.6123 339.19675 Z M 95.66032 360.181 C 95.36569 360.25858 95.07347 360.33472 94.783646 360.4095 L 94.783646 360.4095 C 95.42216 361.41162 96.127975 362.45288 96.90109 363.54153 C 73.88759 369.7774 65.00879 367.23615 64.29622 379.63742 L 64.29622 379.63742 C 64.36235 381.08542 64.49726 382.68707 64.69583 384.46274 L 66.731606 384.46274 C 66.48458 369.36588 75.00277 372.6078 99.378426 366.00287 C 97.8894 363.9061 96.650024 361.98514 95.66032 360.181 Z M 183.09084 388.98907 L 183.09084 388.98907 C 183.09084 388.98907 183.09084 388.98907 183.09084 388.98907 L 183.09084 388.98907 C 183.09084 388.98907 183.09084 388.98907 183.09084 388.98907 Z"/>
		<path style="fill-rule:nonzero;fill:#000000;fill-opacity:0.15686275;" d="M 89.91975 373.87128 L 89.31891 374.0205 L 84.36665 375.27255 L 82.35094 375.82312 L 80.61443 376.35016 L 79.13634 376.87378 L 77.895874 377.41403 L 76.872246 377.99112 L 76.43524 378.29968 L 76.04465 378.625 L 75.69786 378.96957 L 75.39229 379.33588 L 75.12533 379.72644 L 74.89438 380.1438 L 74.69684 380.59042 L 74.53011 381.06885 L 74.27872 382.13116 L 74.11938 383.3508 L 74.03131 384.7479 L 73.99372 386.3425 L 73.98582 388.15472 L 74.60515 388.15472 L 74.60515 388.77005 L 75.22448 388.77005 L 75.22448 388.15472 L 75.237045 385.0477 L 75.28687 383.78098 L 75.39607 382.6793 L 75.5874 381.72314 L 75.72097 381.29355 L 75.8836 380.89297 L 76.07814 380.51898 L 76.30743 380.16916 L 76.57432 379.84106 L 76.88164 379.5322 L 77.23225 379.24017 L 77.62898 378.9625 L 78.57221 378.4405 L 79.73408 377.9466 L 81.13734 377.4613 L 82.80473 376.965 L 84.75903 376.4381 L 89.61932 375.21442 L 90.22016 375.0652 L 89.91975 373.87128 Z M 210.05363 373.87128 L 209.75322 375.0652 L 210.35405 375.21442 L 215.21436 376.4381 L 217.16866 376.965 L 218.83606 377.4613 L 220.2393 377.9466 L 221.40117 378.4405 L 222.3444 378.9625 L 222.74112 379.24017 L 223.09175 379.5322 L 223.39908 379.84106 L 223.66595 380.16916 L 223.89525 380.51898 L 224.08977 380.89297 L 224.25241 381.29355 L 224.38599 381.72314 L 224.57732 382.6793 L 224.68652 383.78098 L 224.73634 385.0477 L 224.7489 388.15472 L 224.7489 388.77005 L 225.36824 388.77005 L 225.36824 388.15472 L 225.98758 388.15472 L 225.97966 386.3425 L 225.94206 384.7479 L 225.854 383.3508 L 225.69467 382.13116 L 225.44325 381.06885 L 225.27654 380.59042 L 225.07901 380.1438 L 224.84807 379.72644 L 224.58109 379.33588 L 224.27553 378.96957 L 223.92874 378.625 L 223.53815 378.29968 L 223.10115 377.99112 L 222.07751 377.41403 L 220.83704 376.87378 L 219.35896 376.35016 L 217.62245 375.82312 L 215.60674 375.27255 L 210.65448 374.0205 L 210.05363 373.87128 Z M 99.79367 378.77393 L 99.20046 378.9507 L 96.78384 379.66425 L 93.255455 380.7204 L 91.74719 381.2092 L 90.399185 381.69348 L 89.20367 382.18954 L 88.15286 382.71362 L 87.239006 383.28204 L 86.45433 383.91104 L 85.79107 384.6169 L 85.24145 385.41592 L 84.7977 386.32437 L 84.45206 387.35846 L 84.19675 388.53455 L 84.023994 389.8689 L 83.92605 391.37775 L 83.89513 393.07736 L 84.51446 393.07736 L 84.51446 393.6927 L 85.13379 393.6927 L 85.13379 393.07736 L 85.15614 391.53384 L 85.22974 390.16766 L 85.36439 388.9631 L 85.56991 387.9044 L 85.8561 386.9758 L 86.23279 386.16153 L 86.70978 385.44592 L 87.296875 384.81314 L 88.0039 384.2475 L 88.84065 383.73322 L 89.81695 383.25455 L 90.942604 382.79575 L 92.227425 382.3411 L 93.68122 381.87482 L 97.135 380.8444 L 99.55639 380.1295 L 100.149605 379.95267 L 99.79367 378.77393 Z M 200.1797 378.77393 L 199.82379 379.95267 L 200.41699 380.1295 L 202.83838 380.8444 L 206.29216 381.87482 L 207.74596 382.3411 L 209.03078 382.79575 L 210.15643 383.25455 L 211.13274 383.73322 L 211.96948 384.2475 L 212.67651 384.81314 L 213.2636 385.44592 L 213.74059 386.16153 L 214.11728 386.9758 L 214.40347 387.9044 L 214.609 388.9631 L 214.74364 390.16766 L 214.81725 391.53384 L 214.8396 393.07736 L 214.8396 393.6927 L 215.45892 393.6927 L 215.45892 393.07736 L 216.07826 393.07736 L 216.04733 391.37775 L 215.94939 389.8689 L 215.77663 388.53455 L 215.52132 387.35846 L 215.17569 386.32437 L 214.73193 385.41592 L 214.18231 384.6169 L 213.51906 383.91104 L 212.73439 383.28204 L 211.82053 382.71362 L 210.76971 382.18954 L 209.5742 381.69348 L 208.2262 381.2092 L 206.71791 380.7204 L 203.18954 379.66425 L 200.77293 378.9507 L 200.1797 378.77393 Z"/>
		<path style="fill-rule:nonzero;fill:#ffc145;fill-opacity:1;" d="M 135.12273 155.06303 L 135.12273 155.06303 L 135.12273 46.76504 L 135.12273 34.458454 L 159.896 34.458454 L 159.896 46.76504 L 159.896 155.06303 L 159.896 167.36963 L 135.12273 167.36963 Z"/>
		<path style="fill-rule:nonzero;fill:url(#paint-id-6);fill-opacity:1;" d="M 156.20477 155.06303 L 156.20477 155.06303 L 156.20477 46.76504 L 156.20477 44.919052 L 159.92078 44.919052 L 159.92078 46.76504 L 159.92078 155.06303 L 159.92078 156.90903 L 156.20477 156.90903 Z"/>
		<path style="fill-rule:nonzero;fill:#ffc145;fill-opacity:1;" d="M 147.50937 -1.8474111E-13 C 121.51375 -1.563194E-13 100.44013 20.937428 100.44013 46.76504 C 100.44013 72.59266 121.51375 93.53008 147.50937 93.53008 C 173.50497 93.53008 194.57858 72.59266 194.57858 46.76504 C 194.57858 20.937428 173.50497 -2.2737368E-13 147.50937 -1.8474111E-13 Z"/>
		<path style="fill-rule:nonzero;fill:#000000;fill-opacity:0.078431375;" d="M 182.46054 15.444108 L 183.04399 16.18205 L 183.62709 16.951532 L 184.1945 17.7332 L 184.74597 18.52683 L 185.28131 19.332197 L 185.80026 20.149055 L 186.30261 20.977182 L 186.78809 21.816349 L 187.25647 22.666315 L 187.70758 23.526861 L 188.1411 24.397745 L 188.55685 25.278751 L 188.95459 26.169624 L 189.33409 27.07016 L 189.69511 27.980104 L 190.03741 28.899239 L 190.36078 29.827337 L 190.66496 30.76415 L 190.94974 31.709469 L 191.21486 32.663044 L 191.46011 33.62465 L 191.68529 34.594067 L 191.89009 35.57104 L 192.07433 36.555363 L 192.23778 37.546795 L 192.38017 38.545097 L 192.50131 39.550045 L 192.60094 40.561413 L 192.67882 41.578964 L 192.73476 42.602467 L 192.76846 43.631687 L 192.77977 44.666405 L 192.7644 45.873432 L 192.71854 47.07293 L 192.64252 48.264526 L 192.53677 49.44786 L 192.40161 50.62256 L 192.23743 51.78826 L 192.0446 52.944595 L 191.8235 54.09119 L 191.57446 55.22769 L 191.29791 56.353718 L 190.99417 57.46891 L 190.66364 58.5729 L 190.30666 59.665314 L 189.92361 60.745796 L 189.5149 61.81397 L 189.08084 62.86947 L 188.62183 63.91193 L 188.13824 64.94099 L 187.63042 65.95627 L 187.09877 66.9574 L 186.54364 67.94403 L 185.96541 68.91578 L 185.36443 69.87229 L 184.74109 70.81319 L 184.09575 71.738106 L 183.42879 72.646675 L 182.74055 73.538536 L 182.03145 74.413315 L 181.30182 75.270645 L 180.55203 76.11016 L 179.78247 76.9315 L 178.99352 77.73428 L 178.1855 78.51815 L 177.35883 79.28274 L 176.51385 80.02767 L 175.65094 80.75259 L 174.77048 81.457115 L 173.87282 82.14089 L 172.95833 82.80354 L 172.0274 83.44471 L 171.08038 84.064026 L 170.11766 84.66112 L 169.13959 85.23562 L 168.14653 85.78716 L 167.13889 86.315384 L 166.117 86.81991 L 165.08125 87.30038 L 164.03201 87.756424 L 162.96964 88.18767 L 161.89452 88.59376 L 160.80702 88.97432 L 159.70749 89.32899 L 158.59631 89.65739 L 157.47388 89.95916 L 156.34052 90.23394 L 155.19664 90.481346 L 154.04259 90.70103 L 152.87872 90.89261 L 151.70544 91.055725 L 150.5231 91.19 L 149.33208 91.29509 L 148.13272 91.3706 L 146.92542 91.416176 L 145.71054 91.43145 L 144.41527 91.414085 L 143.12865 91.36229 L 141.85112 91.276505 L 140.58313 91.15717 L 139.32513 91.00475 L 138.07758 90.81968 L 136.84091 90.6024 L 135.61559 90.35336 L 134.40204 90.07301 L 133.20073 89.76179 L 132.0121 89.42014 L 130.83662 89.04852 L 129.6747 88.64736 L 128.52681 88.21712 L 127.393394 87.75823 L 126.2749 87.27115 L 125.17178 86.75632 L 124.08449 86.21417 L 123.01346 85.64517 L 121.95915 85.04976 L 120.922005 84.428375 L 119.90247 83.78146 L 118.901 83.109474 L 117.918045 82.41286 L 116.95404 81.69205 L 116.00944 80.94749 L 115.0847 80.17964 L 114.18027 79.38894 L 113.296585 78.575836 L 112.434105 77.74077 L 111.59327 76.884186 L 110.806786 76.04111 L 110.95292 76.22139 L 111.42292 76.787445 L 111.7406 77.160736 L 112.23478 77.723885 L 112.54761 78.07415 L 113.09915 78.6691 L 113.37514 78.963646 L 114.18095 79.786674 L 114.22329 79.82976 L 115.09459 80.672455 L 115.38059 80.93698 L 115.98927 81.49439 L 116.339096 81.80279 L 116.339096 81.80279 L 116.90795 82.29592 L 116.90795 82.29592 L 117.28307 82.611046 L 117.85285 83.078384 L 118.23605 83.38501 L 118.82971 83.84542 L 119.20387 84.13043 L 119.8623 84.61286 L 120.18817 84.849 L 121.15313 85.51623 L 121.18963 85.54137 L 122.210686 86.206795 L 122.54434 86.41373 L 123.25164 86.8475 L 123.656624 87.08538 L 124.31359 87.463806 L 124.745605 87.70375 L 124.745605 87.70375 L 125.39879 88.05638 L 125.83806 88.28665 L 126.514915 88.62824 L 126.940865 88.83854 L 126.940865 88.83854 L 127.68873 89.1903 L 128.05652 89.36091 L 129.15598 89.84119 L 129.15598 89.84119 L 129.18584 89.854164 L 129.18584 89.854164 L 130.33067 90.31667 L 130.70503 90.45808 L 130.70503 90.45808 L 131.4926 90.75091 L 131.94295 90.90851 L 132.67227 91.156624 L 133.15047 91.31087 L 133.87271 91.5341 L 133.87271 91.5341 L 134.35648 91.67708 L 135.10184 91.884605 L 135.56909 92.01022 L 136.38957 92.21382 L 136.79062 92.31105 L 138.00584 92.57622 L 138.00584 92.57622 L 138.02213 92.579735 L 139.26555 92.814186 L 139.26555 92.814186 L 139.67235 92.88115 L 140.52264 93.01647 L 141.0092 93.084114 L 141.0092 93.084114 L 141.79445 93.18616 L 141.79445 93.18616 L 142.30896 93.24459 L 143.08412 93.322815 L 143.08412 93.322815 L 143.60286 93.36858 L 143.60286 93.36858 L 144.4003 93.42599 L 144.89928 93.457405 L 144.89928 93.457405 L 145.77571 93.495224 L 145.77571 93.495224 L 146.2011 93.511284 L 146.2011 93.511284 L 147.50937 93.53008 L 148.72424 93.51481 L 149.93153 93.46924 L 151.13089 93.39372 L 152.32191 93.28864 L 153.50426 93.15436 L 154.67754 92.99125 L 155.8414 92.79967 L 156.99545 92.57999 L 158.13934 92.33257 L 159.27269 92.0578 L 160.39514 91.75603 L 161.5063 91.42762 L 162.60583 91.07295 L 163.69334 90.6924 L 164.76846 90.28631 L 165.83083 89.85506 L 166.88007 89.39901 L 167.91582 88.91854 L 168.9377 88.41402 L 168.9377 88.41402 L 169.94534 87.885796 L 170.9384 87.33425 L 171.91647 86.75975 L 172.8792 86.16267 L 173.82622 85.54335 L 174.75716 84.90218 L 175.67163 84.239525 L 176.56929 83.55575 L 177.44975 82.85122 L 178.31267 82.126305 L 179.15764 81.38137 L 179.98433 80.61679 L 180.79233 79.83292 L 181.5813 79.030136 L 182.35086 78.2088 L 183.10063 77.369286 L 183.83026 76.51195 L 183.83026 76.51195 L 184.53938 75.63718 L 185.2276 74.745316 L 185.89456 73.83674 L 186.5399 72.91182 L 187.16324 71.970924 L 187.76422 71.01442 L 188.34247 70.04266 L 188.89758 69.05604 L 189.42924 68.0549 L 189.93706 67.03962 L 190.42065 66.01057 L 190.87965 64.96811 L 191.31372 63.912605 L 191.31372 63.912605 L 191.72244 62.844433 L 192.10548 61.763954 L 192.46245 60.671535 L 192.79298 59.567547 L 193.09674 58.452354 L 193.37329 57.326324 L 193.62231 56.18983 L 193.84341 55.043232 L 194.03624 53.886898 L 194.20042 52.7212 L 194.33559 51.546497 L 194.44133 50.363167 L 194.51735 49.171566 L 194.56322 47.97207 L 194.57858 46.76504 L 194.56372 45.596653 L 194.54982 45.207848 L 194.52028 44.435135 L 194.49294 43.975815 L 194.44852 43.279465 L 194.40802 42.79412 L 194.34897 42.13334 L 194.29523 41.63288 L 194.22165 40.993324 L 194.15547 40.48965 L 194.06686 39.860558 L 193.98856 39.357258 L 193.88513 38.73701 L 193.79497 38.235603 L 193.67645 37.620945 L 193.57497 37.124218 L 193.4408 36.51185 L 193.32921 36.024323 L 193.17844 35.410397 L 193.05748 34.933624 L 192.88828 34.312405 L 192.76077 33.854977 L 192.56807 33.211327 L 192.43901 32.786808 L 192.21014 32.08647 L 192.09238 31.729168 L 191.74321 30.744223 L 191.72157 30.683405 L 191.32588 29.6493 L 191.19049 29.317799 L 190.90648 28.627197 L 190.73232 28.22734 L 190.46346 27.616753 L 190.26758 27.193798 L 189.99738 26.618813 L 189.78516 26.18675 L 189.78516 26.18675 L 189.50801 25.632696 L 189.28299 25.19979 L 188.99615 24.659657 L 188.75922 24.22812 L 188.46202 23.699923 L 188.21452 23.272406 L 187.90504 22.752338 L 187.6493 22.332783 L 187.32495 21.816528 L 187.06328 21.408258 L 186.72234 20.893637 L 186.45601 20.498005 L 186.09602 19.982079 L 185.82843 19.603243 L 185.441 19.075468 L 185.1812 18.724642 L 184.74263 18.156315 L 184.51404 17.861645 L 184.51404 17.861645 L 183.89523 17.098276 L 183.82736 17.01473 L 183.1212 16.184961 L 182.89111 15.926195 L 182.46054 15.444108 Z"/>
		<path style="fill-rule:nonzero;fill:#ffffff;fill-opacity:0.19607843;" d="M 147.50937 -1.8474111E-13 L 146.29448 0.015276201 L 145.08719 0.060851295 L 143.88783 0.13635911 L 142.69681 0.24144284 L 141.51447 0.37572694 L 140.34119 0.5388358 L 139.17732 0.73042214 L 138.02327 0.95010084 L 136.87938 1.1975152 L 135.74603 1.4722897 L 135.74603 1.4722897 L 135.74603 1.4722897 L 134.6236 1.774058 L 133.51242 2.1024635 L 132.41289 2.4571304 L 131.32538 2.8376927 L 130.25026 3.2437844 L 129.1879 3.6750295 L 128.13866 4.1310716 L 127.102905 4.611544 L 126.081024 5.116072 L 125.07338 5.6442885 L 124.08033 6.1958375 L 123.10226 6.7703333 L 122.13953 7.3674197 L 121.19251 7.9867396 L 120.26157 8.627908 L 119.34709 9.290559 L 118.44943 9.974336 L 118.44943 9.974336 L 118.44943 9.974336 L 117.56897 10.678863 L 116.706055 11.403783 L 115.861084 12.148711 L 115.0344 12.9133005 L 114.226395 13.6971655 L 113.43743 14.49995 L 112.66787 15.321288 L 111.91809 16.160803 L 111.18846 17.018139 L 110.47935 17.89291 L 109.79112 18.78477 L 109.12416 19.693342 L 108.47883 20.618261 L 107.85548 21.55916 L 107.25451 22.515665 L 107.25451 22.515665 L 106.67628 23.487417 L 106.12114 24.47405 L 105.589485 25.475182 L 105.08167 26.490463 L 104.598076 27.519518 L 104.13907 28.56198 L 103.70502 29.61748 L 103.29629 30.685654 L 102.913246 31.766132 L 102.556274 32.85855 L 102.22574 33.96254 L 101.922005 35.07773 L 101.64544 36.203762 L 101.396416 37.340256 L 101.1753 38.48686 L 100.98248 39.64319 L 100.8183 40.808887 L 100.68315 41.983593 L 100.577385 43.166924 L 100.50138 44.35852 L 100.455505 45.558018 L 100.44013 46.76504 L 100.45874 48.05652 L 100.47483 48.477356 L 100.51217 49.34068 L 100.54381 49.836704 L 100.600235 50.618813 L 100.64653 51.13675 L 100.72291 51.892105 L 100.78261 52.41097 L 100.8807 53.164215 L 100.951645 53.66795 L 101.07601 54.447807 L 101.153076 54.90991 L 101.321075 55.79914 L 101.38658 56.13885 L 101.38658 56.13885 L 101.652374 57.354557 L 101.713905 57.605095 L 101.95105 58.559 L 102.06772 58.987377 L 102.28129 59.753094 L 102.42233 60.224182 L 102.643135 60.937344 L 102.80053 61.419014 L 103.03715 62.113457 L 103.20581 62.589233 L 103.4656 63.28691 L 103.638954 63.739964 L 103.936516 64.475555 L 104.10016 64.87348 L 104.10016 64.87348 L 104.5016 65.79146 L 104.58914 65.99028 L 105.10725 67.09076 L 105.12404 67.12434 L 104.74267 66.132645 L 104.37956 65.11861 L 104.03943 64.09397 L 103.722565 63.05905 L 103.42929 62.01414 L 103.15991 60.959553 L 102.914734 59.895584 L 102.69405 58.822544 L 102.49819 57.740738 L 102.327446 56.650467 L 102.18213 55.55204 L 102.062546 54.445766 L 101.969 53.33194 L 101.9018 52.210873 L 101.86126 51.082867 L 101.84768 49.94823 L 101.863045 48.741203 L 101.90892 47.541706 L 101.984924 46.350113 L 102.09069 45.16678 L 102.225845 43.992073 L 102.39002 42.826374 L 102.58285 41.670044 L 102.803955 40.52344 L 103.05298 39.386948 L 103.329544 38.260918 L 103.63328 37.145725 L 103.96381 36.041737 L 104.320786 34.949318 L 104.70383 33.86884 L 105.11256 32.800667 L 105.54661 31.745167 L 106.005615 30.702703 L 106.48921 29.673649 L 106.997025 28.65837 L 107.52868 27.657238 L 108.08382 26.670605 L 108.66205 25.69885 L 109.263016 24.742348 L 109.88637 23.801447 L 110.53171 22.87653 L 111.19866 21.967957 L 111.88689 21.076097 L 112.596 20.201324 L 113.32564 19.34399 L 114.07541 18.504475 L 114.84497 17.683136 L 115.633934 16.880352 L 116.44194 16.096487 L 117.26862 15.331898 L 118.113594 14.586969 L 118.97651 13.862049 L 119.85697 13.157522 L 120.75463 12.473745 L 121.66911 11.811095 L 122.60005 11.169927 L 123.547066 10.550607 L 124.509796 9.95352 L 125.48787 9.3790245 L 126.48092 8.827476 L 127.48856 8.299258 L 128.51045 7.7947307 L 129.54619 7.314258 L 130.59544 6.8582163 L 131.6578 6.426971 L 132.73293 6.0208793 L 133.82043 5.640317 L 134.91995 5.2856503 L 136.03113 4.9572444 L 137.15358 4.655476 L 138.28693 4.380702 L 139.43082 4.1332874 L 140.58487 3.9136088 L 141.74872 3.7220225 L 142.92201 3.5589135 L 144.10435 3.4246294 L 145.29538 3.3195457 L 146.49472 3.2440379 L 147.70203 3.1984627 L 148.9169 3.1831865 L 150.65738 3.2145653 L 152.38193 3.3079782 L 154.08945 3.4623363 L 155.77885 3.67656 L 157.44907 3.9495692 L 159.09898 4.280266 L 160.72751 4.6675787 L 162.33356 5.1104198 L 163.91603 5.6077085 L 165.47386 6.1583467 L 167.00592 6.7612634 L 168.51115 7.4153705 L 169.98843 8.119587 L 171.4367 8.872816 L 172.85484 9.6739855 L 174.24178 10.522007 L 175.59642 11.415801 L 176.91766 12.354278 L 178.20442 13.336349 L 179.45563 14.360934 L 180.67014 15.426963 L 181.84691 16.533329 L 182.98483 17.678959 L 184.08281 18.862766 L 185.13976 20.08366 L 186.15457 21.34057 L 187.12617 22.63241 L 188.0535 23.958078 L 188.9354 25.316515 L 189.77081 26.706612 L 190.55865 28.127308 L 191.295 29.571964 L 191.2716 29.515085 L 190.6996 28.153034 L 190.55118 27.815943 L 189.9064 26.42917 L 189.82578 26.267986 L 189.82578 26.267986 L 189.19284 25.030005 L 189.0256 24.71509 L 188.28564 23.391949 L 188.1603 23.181282 L 187.4624 22.035286 L 187.4624 22.035286 L 187.2828 21.74947 L 186.45168 20.491808 L 186.285 20.252937 L 185.51678 19.178694 L 185.33359 18.929157 L 184.41414 17.73841 L 184.21095 17.487747 L 184.21095 17.487747 L 183.36383 16.470055 L 183.18796 16.2634 L 182.18329 15.142452 L 181.9477 14.890991 L 181.9477 14.890991 L 181.01012 13.918769 L 180.8562 13.762157 L 180.8562 13.762157 L 179.76924 12.714372 L 179.76924 12.714372 L 179.5055 12.470441 L 178.4565 11.530574 L 178.3495 11.436251 L 178.3495 11.436251 L 177.1816 10.464282 L 176.89497 10.234933 L 175.70018 9.3123045 L 175.67767 9.29516 L 174.43013 8.402671 L 174.12604 8.193227 L 172.85059 7.349674 L 172.76086 7.294034 L 172.76086 7.294034 L 171.52426 6.539951 L 171.52426 6.539951 L 171.2094 6.355003 L 169.87787 5.6089196 L 169.87787 5.6089196 L 169.70511 5.5183516 L 169.70511 5.5183516 L 168.47346 4.886863 L 168.47346 4.886863 L 168.15453 4.729407 L 166.7701 4.083271 L 166.7701 4.083271 L 166.5331 3.9802625 L 166.5331 3.9802625 L 165.28621 3.4539518 L 165.28621 3.4539518 L 164.97243 3.3265781 L 164.97243 3.3265781 L 163.53734 2.7831042 L 163.53734 2.7831042 L 163.24977 2.6824708 L 163.24977 2.6824708 L 161.97018 2.2520895 L 161.97018 2.2520895 L 161.67325 2.1563103 L 161.67325 2.1563103 L 160.1888 1.7185773 L 159.86314 1.6310326 L 159.86314 1.6310326 L 158.533 1.2929562 L 158.26683 1.2284244 L 158.26683 1.2284244 L 156.73584 0.90068555 L 156.73584 0.90068555 L 156.37958 0.8328675 L 156.37958 0.8328675 L 154.97801 0.588298 L 154.76408 0.55307925 L 154.76408 0.55307925 L 153.18771 0.33977577 L 153.18771 0.33977577 L 152.80905 0.2967733 L 152.80905 0.2967733 L 151.30603 0.1518137 L 151.30603 0.1518137 L 151.1749 0.14024623 L 151.1749 0.14024623 L 149.55449 0.046617296 L 149.55449 0.046617296 L 149.16046 0.031744827 L 149.16046 0.031744827 L 147.50937 -1.8474111E-13 Z"/>
		<path style="fill-rule:nonzero;fill:url(#paint-id-7);fill-opacity:1;" d="M 189.62393 46.76504 C 189.62393 69.87396 170.7686 88.60745 147.50937 88.60745 C 124.25013 88.60745 105.39479 69.87396 105.39479 46.76504 C 105.39479 23.65612 124.25013 4.922636 147.50937 4.922636 C 170.7686 4.922636 189.62393 23.65612 189.62393 46.76504 Z"/>
		<path style="fill-rule:nonzero;fill:#ffffff;fill-opacity:1;" d="M 147.50937 12.30659 C 128.35469 12.30659 112.826775 27.734163 112.826775 46.76504 C 112.826775 65.79592 128.35469 81.223495 147.50937 81.223495 C 166.66403 81.223495 182.19196 65.79592 182.19196 46.76504 C 182.19196 27.734163 166.66403 12.30659 147.50937 12.30659 Z"/>
		<path style="fill-rule:nonzero;fill:#7c5e21;fill-opacity:1;" d="M 148.17651 29.535816 C 138.59918 29.535816 130.83522 37.249603 130.83522 46.76504 C 130.83522 56.280483 138.59918 63.99427 148.17651 63.99427 C 157.75385 63.99427 165.5178 56.280483 165.5178 46.76504 C 165.5178 37.249603 157.75385 29.535816 148.17651 29.535816 Z"/>
		<path style="fill-rule:nonzero;fill:#000000;fill-opacity:1;" d="M 148.17651 37.288967 C 142.90898 37.288967 138.63881 41.531548 138.63881 46.76504 C 138.63881 51.998535 142.90898 56.24112 148.17651 56.24112 C 153.44405 56.24112 157.71423 51.998535 157.71423 46.76504 C 157.71423 41.531548 153.44405 37.288967 148.17651 37.288967 Z"/>
		<path style="fill-rule:nonzero;fill:#ffffff;fill-opacity:0.60784316;" d="M 159.73738 30.110125 C 156.86418 30.110125 154.53499 32.424263 154.53499 35.278893 C 154.53499 38.133526 156.86418 40.447662 159.73738 40.447662 C 162.61058 40.447662 164.93977 38.133526 164.93977 35.278893 C 164.93977 32.424263 162.61058 30.110125 159.73738 30.110125 Z"/>
		<path style="fill-rule:nonzero;fill:#000000;fill-opacity:0.19607843;" d="M 149.9867 223.97993 L 149.9867 223.97993 C 198.84972 223.97993 231.73851 249.93147 231.73851 280.59024 L 224.30652 280.59024 L 231.73851 280.59024 C 231.73851 296.36206 224.79953 305.28305 212.50325 305.28305 L 212.50325 305.28305 C 205.40485 305.28305 197.58315 302.04782 192.52885 300.03537 L 192.52885 300.03537 C 192.28844 299.93964 192.05235 299.84564 191.81842 299.7527 L 194.57858 292.89685 L 191.81842 299.7527 C 188.40895 298.3977 184.87921 296.72064 181.46802 295.10303 L 181.46802 295.10303 C 177.62323 293.27982 173.82822 291.48294 169.8858 289.91617 L 169.8858 289.91617 C 163.32248 287.30777 156.76233 285.51288 149.9867 285.51288 L 149.9867 278.12894 L 149.9867 285.51288 C 138.99004 285.51288 128.917 290.1658 118.50536 295.10303 L 118.50536 295.10303 C 115.09416 296.72064 111.564415 298.3977 108.15497 299.7527 L 105.39479 292.89685 L 108.15497 299.7527 C 107.92104 299.84564 107.684944 299.93964 107.44454 300.03537 L 107.44454 300.03537 C 107.20154 300.1321 106.95423 300.2306 106.70501 300.32965 L 106.70501 300.32965 C 100.19585 302.91647 78.075294 312.97574 70.393036 293.8942 L 70.393036 293.8942 C 68.88649 290.1522 68.23488 285.68854 68.23488 280.59024 L 75.666855 280.59024 L 68.23488 280.59024 C 68.23488 249.93147 101.12368 223.97993 149.9867 223.97993 C 154.09126 223.97993 157.41867 227.28586 157.41867 231.36389 C 157.41867 235.44194 154.09126 238.74785 149.9867 238.74785 L 149.9867 238.74785 C 104.71124 238.74785 83.09884 262.02267 83.09884 280.59024 L 83.09884 280.59024 C 83.09884 284.56177 83.624596 286.9955 84.19388 288.40955 L 84.19388 288.40955 C 85.26902 291.08005 87.89656 291.89886 101.18468 286.61798 L 101.18468 286.61798 C 101.42865 286.521 101.67146 286.42435 101.91519 286.3273 L 101.91519 286.3273 C 102.1548 286.23187 102.39543 286.13608 102.63462 286.04102 L 102.63462 286.04102 C 105.51226 284.8974 108.58872 283.44177 112.10284 281.77536 L 112.10284 281.77536 C 122.05399 277.0565 135.10268 270.745 149.9867 270.745 L 149.9867 270.745 C 159.39626 270.745 167.94229 273.23825 175.40614 276.2045 L 175.40614 276.2045 C 179.86649 277.97708 184.08699 279.98117 187.87053 281.77536 L 187.87053 281.77536 C 191.38467 283.44177 194.46112 284.8974 197.33876 286.04102 L 197.33876 286.04102 C 197.57796 286.13608 197.81857 286.23187 198.0582 286.3273 L 198.0582 286.3273 C 203.98773 288.68826 208.87955 290.51514 212.50325 290.51514 L 212.50325 290.51514 C 213.55283 290.51514 216.87454 291.59348 216.87454 280.59024 L 216.87454 280.59024 C 216.87454 262.02267 195.26213 238.74785 149.9867 238.74785 C 145.88213 238.74785 142.5547 235.44194 142.5547 231.36389 C 142.5547 227.28586 145.88213 223.97993 149.9867 223.97993 Z"/>
		<path style="fill-rule:nonzero;fill:#000000;fill-opacity:1;" d="M 149.9867 231.36389 C 197.05592 231.36389 224.30652 255.97708 224.30652 280.59024 C 224.30652 305.20343 206.96523 297.8195 194.57858 292.89685 C 182.19196 287.9742 167.32799 278.12894 149.9867 278.12894 C 132.6454 278.12894 117.78143 287.9742 105.39479 292.89685 C 93.008156 297.8195 75.666855 305.20343 75.666855 280.59024 C 75.666855 255.97708 102.917465 231.36389 149.9867 231.36389"/>
	</g>
</svg>
