<?xml version="1.0" encoding="iso-8859-1"?>
<!DOCTYPE svg PUBLIC "-//W3C//DTD SVG 1.1//EN" "http://www.w3.org/Graphics/SVG/1.1/DTD/svg11.dtd">
<svg version="1.1" id="buildings_1" xmlns="http://www.w3.org/2000/svg" xmlns:xlink="http://www.w3.org/1999/xlink"
	x="0px" y="0px" width="300px" height="461px" viewBox="0 0 300 461"
	 xml:space="preserve">
	<defs>
		<linearGradient id="paint-id-0" x1="62.559566497802734" y1="84.32534790039062" x2="62.559566497802734" y2="84.32534790039062">
			offset="0%" style="stop-color:#000000;stop-opacity:0.15686275;"/>
			offset="100%" style="stop-color:#000000;stop-opacity:0.0;"/>
		</linearGradient>
		<linearGradient id="paint-id-1" x1="62.559566497802734" y1="84.32534790039062" x2="62.559566497802734" y2="84.32534790039062">
			offset="0%" style="stop-color:#000000;stop-opacity:0.078431375;"/>
			offset="100%" style="stop-color:#000000;stop-opacity:0.0;"/>
		</linearGradient>
		<linearGradient id="paint-id-2" x1="231.77743530273438" y1="75.15564727783203" x2="231.77743530273438" y2="75.15564727783203">
			offset="0%" style="stop-color:#000000;stop-opacity:0.15686275;"/>
			offset="100%" style="stop-color:#000000;stop-opacity:0.0;"/>
		</linearGradient>
		<linearGradient id="paint-id-3" x1="231.77743530273438" y1="75.15564727783203" x2="231.77743530273438" y2="75.15564727783203">
			offset="0%" style="stop-color:#000000;stop-opacity:0.078431375;"/>
			offset="100%" style="stop-color:#000000;stop-opacity:0.0;"/>
		</linearGradient>
		<linearGradient id="paint-id-4" x1="6.081842940375282E-8" y1="335.0058898925781" x2="6.081842940375282E-8" y2="335.0058898925781">
			offset="0%" style="stop-color:#000000;stop-opacity:0.0;"/>
			offset="100%" style="stop-color:#000000;stop-opacity:0.15686275;"/>
		</linearGradient>
		<linearGradient id="paint-id-5" x1="6.081842940375282E-8" y1="309.80706787109375" x2="6.081842940375282E-8" y2="309.80706787109375">
			offset="0%" style="stop-color:#ffffff;stop-opacity:0.0;"/>
			offset="100%" style="stop-color:#ffffff;stop-opacity:0.078431375;"/>
		</linearGradient>
		<linearGradient id="paint-id-6" x1="6.081842940375282E-8" y1="99.88675689697266" x2="6.081842940375282E-8" y2="99.88675689697266">
			offset="0%" style="stop-color:#000000;stop-opacity:0.078431375;"/>
			offset="100%" style="stop-color:#000000;stop-opacity:0.0;"/>
		</linearGradient>
		<linearGradient id="paint-id-7" x1="6.081842940375282E-8" y1="105.49493408203125" x2="6.081842940375282E-8" y2="105.49493408203125">
			offset="0%" style="stop-color:#000000;stop-opacity:0.078431375;"/>
			offset="100%" style="stop-color:#000000;stop-opacity:0.0;"/>
		</linearGradient>
		<linearGradient id="paint-id-8" x1="6.081842940375282E-8" y1="65.58916473388672" x2="6.081842940375282E-8" y2="65.58916473388672">
			offset="0%" style="stop-color:#000000;stop-opacity:0.078431375;"/>
			offset="100%" style="stop-color:#000000;stop-opacity:0.0;"/>
		</linearGradient>
	</defs>
	<g>
		<path style="fill-rule:nonzero;fill:#cf5c36;fill-opacity:1;" d="M 69.82323 53.884796 L 68.04128 54.932804 L 66.28098 55.893192 L 64.54272 56.76751 L 62.826866 57.55732 L 61.1338 58.26417 L 59.4639 58.88963 L 57.817535 59.435246 L 56.19509 59.902576 L 54.596935 60.293182 L 53.023453 60.60862 L 51.47501 60.85044 L 49.951996 61.020206 L 48.454777 61.119473 L 46.98373 61.149796 L 45.539246 61.112736 L 45.32889 61.097466 L 45.32889 61.097466 L 50.026936 111.43819 L 51.336834 112.301414 L 55.2959 114.765915 L 69.82323 53.884796 Z"/>
		<path style="fill-rule:nonzero;fill:#df7b5a;fill-opacity:1;" d="M 68.72375 54.53143 L 68.04128 54.932804 L 66.28098 55.893192 L 64.54272 56.76751 L 62.826866 57.55732 L 61.1338 58.26417 L 59.4639 58.88963 L 57.817535 59.435246 L 56.19509 59.902576 L 54.596935 60.293182 L 53.023453 60.60862 L 51.47501 60.85044 L 49.951996 61.020206 L 48.454777 61.119473 L 46.98373 61.149796 L 45.539246 61.112736 L 44.12168 61.009842 L 42.731426 60.842678 L 41.36885 60.6128 L 40.034336 60.321762 L 38.728256 59.971123 L 37.450985 59.56244 L 36.94859 59.37519 L 36.94859 59.37519 L 29.057419 95.00203 L 29.057419 95.00203 L 30.252974 96.15392 L 33.42067 99.0006 L 36.73444 101.78685 L 40.188614 104.51137 L 43.77752 107.17284 L 47.495487 109.76995 L 51.336834 112.301414 L 55.2959 114.765915 L 56.497288 109.73114 L 56.497288 109.73114 L 67.99228 57.833862 L 68.72375 54.53143 Z"/>
		<path style="fill-rule:nonzero;fill:#cf5c36;fill-opacity:1;" d="M 30.462538 56.01096 L 15.966266 79.862595 L 16.804186 81.0598 L 19.15641 84.189026 L 21.683075 87.264366 L 24.378504 90.28449 L 27.23703 93.248116 L 30.252974 96.15392 L 33.42067 99.0006 L 36.73444 101.78685 L 37.3086 102.23972 L 37.3086 102.23972 L 62.475063 60.831745 L 65.122375 56.475956 L 65.122375 56.475956 L 64.54272 56.76751 L 62.826866 57.55732 L 61.1338 58.26417 L 59.4639 58.88963 L 57.817535 59.435246 L 56.19509 59.902576 L 54.596935 60.293182 L 53.023453 60.60862 L 51.47501 60.85044 L 49.951996 61.020206 L 48.454777 61.119473 L 46.98373 61.149796 L 45.539246 61.112736 L 44.12168 61.009842 L 42.731426 60.842678 L 41.36885 60.6128 L 40.034336 60.321762 L 38.728256 59.971123 L 37.450985 59.56244 L 36.202908 59.097267 L 34.98439 58.577164 L 33.795815 58.003685 L 32.637558 57.37839 L 31.509996 56.70283 L 30.462538 56.01096 Z"/>
		<path style="fill-rule:nonzero;fill:#df7b5a;fill-opacity:1;" d="M 24.336767 50.495823 L 8.018924 65.05664 L 8.018924 65.05664 L 8.529949 66.34635 L 9.253125 68.03007 L 10.027002 69.70194 L 10.850869 71.36181 L 11.724019 73.009514 L 12.645742 74.64489 L 13.615329 76.26776 L 14.632072 77.87798 L 15.69526 79.47539 L 16.804186 81.0598 L 19.15641 84.189026 L 21.683075 87.264366 L 24.375168 90.280754 L 24.375168 90.280754 L 56.52314 61.59432 L 59.619522 58.83134 L 59.4639 58.88963 L 57.817535 59.435246 L 56.19509 59.902576 L 54.596935 60.293182 L 53.023453 60.60862 L 51.47501 60.85044 L 49.951996 61.020206 L 48.454777 61.119473 L 46.98373 61.149796 L 45.539246 61.112736 L 44.12168 61.009842 L 42.731426 60.842678 L 41.36885 60.6128 L 40.034336 60.321762 L 38.728256 59.971123 L 37.450985 59.56244 L 36.202908 59.097267 L 34.98439 58.577164 L 33.795815 58.003685 L 32.637558 57.37839 L 31.509996 56.70283 L 30.413504 55.978573 L 29.34846 55.20716 L 28.31524 54.390163 L 27.31422 53.529133 L 26.345778 52.62562 L 25.41029 51.681194 L 24.50813 50.697403 L 24.336767 50.495823 Z"/>
		<path style="fill-rule:nonzero;fill:#cf5c36;fill-opacity:1;" d="M 18.944649 42.39595 L 4.358293 50.063732 L 4.358293 50.063732 L 4.419883 50.687073 L 4.6548467 52.469997 L 4.9468927 54.24255 L 5.295312 56.004574 L 5.699394 57.755898 L 6.158432 59.496365 L 6.6717153 61.225807 L 7.2385354 62.944057 L 7.8581834 64.65096 L 8.529949 66.34635 L 9.253125 68.03007 L 10.027002 69.70194 L 10.850869 71.36181 L 11.724019 73.009514 L 12.645742 74.64489 L 13.615329 76.26776 L 14.632072 77.87798 L 14.738761 78.03828 L 46.871086 61.146904 L 46.871086 61.146904 L 45.539246 61.112736 L 44.12168 61.009842 L 42.731426 60.842678 L 41.36885 60.6128 L 40.034336 60.321762 L 38.728256 59.971123 L 37.450985 59.56244 L 36.202908 59.097267 L 34.98439 58.577164 L 33.795815 58.003685 L 32.637558 57.37839 L 31.509996 56.70283 L 30.413504 55.978573 L 29.34846 55.20716 L 28.31524 54.390163 L 27.31422 53.529133 L 26.345778 52.62562 L 25.41029 51.681194 L 24.50813 50.697403 L 23.639677 49.675804 L 22.80531 48.617954 L 22.005402 47.525414 L 21.24033 46.39974 L 20.510471 45.24248 L 19.816202 44.055202 L 19.1579 42.83946 L 18.944649 42.39595 Z"/>
		<path style="fill-rule:nonzero;fill:#df7b5a;fill-opacity:1;" d="M 15.243324 32.319065 L 4.8032875 35.32959 L 4.8032875 35.32959 L 4.680213 36.069942 L 4.432994 37.92995 L 4.24853 39.78089 L 4.126111 41.62261 L 4.065029 43.454933 L 4.0645742 45.277706 L 4.1240373 47.090763 L 4.24271 48.893936 L 4.419883 50.687073 L 4.6548467 52.469997 L 4.9468927 54.24255 L 5.295312 56.004574 L 5.699394 57.755898 L 6.158432 59.496365 L 6.6717153 61.225807 L 7.2385354 62.944057 L 7.8581834 64.65096 L 8.04268 65.11659 L 8.04268 65.11659 L 33.417477 57.799435 L 33.417477 57.799435 L 32.637558 57.37839 L 31.509996 56.70283 L 30.413504 55.978573 L 29.34846 55.20716 L 28.31524 54.390163 L 27.31422 53.529133 L 26.345778 52.62562 L 25.41029 51.681194 L 24.50813 50.697403 L 23.639677 49.675804 L 22.80531 48.617954 L 22.005402 47.525414 L 21.24033 46.39974 L 20.510471 45.24248 L 19.816202 44.055202 L 19.1579 42.83946 L 17.9507 40.328804 L 16.891884 37.72297 L 15.984465 35.034405 L 15.243324 32.319065 Z"/>
		<path style="fill-rule:nonzero;fill:#cf5c36;fill-opacity:1;" d="M 13.846519 21.417358 L 8.58202 21.928118 L 8.227435 22.809856 L 7.52108 24.72873 L 6.882443 26.639685 L 6.310816 28.542555 L 5.8054876 30.437181 L 5.3657503 32.323395 L 4.9908953 34.20104 L 4.680213 36.069942 L 4.432994 37.92995 L 4.24853 39.78089 L 4.126111 41.62261 L 4.065029 43.454933 L 4.0645742 45.277706 L 4.1240373 47.090763 L 4.24271 48.893936 L 4.419883 50.687073 L 4.5846367 51.937233 L 4.5846367 51.937233 L 23.963793 50.057076 L 23.963793 50.057076 L 23.639677 49.675804 L 22.80531 48.617954 L 22.005402 47.525414 L 21.24033 46.39974 L 20.510471 45.24248 L 19.816202 44.055202 L 19.1579 42.83946 L 17.9507 40.328804 L 16.891884 37.72297 L 15.984465 35.034405 L 15.231454 32.275574 L 14.635864 29.458925 L 14.200708 26.596914 L 13.928999 23.701996 L 13.846519 21.417358 Z"/>
		<path style="fill-rule:nonzero;fill:#df7b5a;fill-opacity:1;" d="M 14.096294 10.8621855 L 13.927351 11.139443 L 12.799797 13.102406 L 11.744216 15.058428 L 10.759898 17.007347 L 9.846134 18.949001 L 9.002216 20.883224 L 8.227435 22.809856 L 7.52108 24.72873 L 6.882443 26.639685 L 6.310816 28.542555 L 5.8054876 30.437181 L 5.3657503 32.323395 L 4.9908953 34.20104 L 4.680213 36.069942 L 4.432994 37.92995 L 4.2732854 39.532494 L 4.2732854 39.532494 L 18.216263 40.881104 L 18.216263 40.881104 L 17.9507 40.328804 L 16.891884 37.72297 L 15.984465 35.034405 L 15.231454 32.275574 L 14.635864 29.458925 L 14.200708 26.596914 L 13.928999 23.701996 L 13.823749 20.786625 L 13.88797 17.863256 L 14.124674 14.944343 L 14.536876 12.042341 L 14.748428 10.925262 L 14.748428 10.925262 L 14.096294 10.8621855 Z"/>
		<path style="fill-rule:nonzero;fill:#cf5c36;fill-opacity:1;" d="M 15.127585 9.169704 L 13.927351 11.139443 L 12.799797 13.102406 L 11.744216 15.058428 L 10.759898 17.007347 L 9.846134 18.949001 L 9.002216 20.883224 L 8.227435 22.809856 L 7.52108 24.72873 L 6.882443 26.639685 L 6.310816 28.542555 L 6.179828 29.033667 L 15.225882 32.24922 L 15.225882 32.24922 L 14.635864 29.458925 L 14.200708 26.596914 L 13.928999 23.701996 L 13.823749 20.786625 L 13.88797 17.863256 L 14.124674 14.944343 L 14.536876 12.042341 L 14.809729 10.601574 L 15.127585 9.169704 Z"/>
		<path style="fill-rule:nonzero;fill:url(#paint-id-0);fill-opacity:1;" d="M 55.2959 114.765915 C 12.458248 88.83974 -11.257742 51.26191 15.127585 9.169704 C 7.8639193 39.610264 31.57991 77.18809 69.82323 53.884796 Z"/>
		<path style="fill-rule:nonzero;fill:url(#paint-id-1);fill-opacity:1;" d="M 55.2959 114.765915 C 12.458248 88.83974 -11.257742 51.26191 15.127585 9.169704 C 0.7491224 28.336916 12.458248 88.83974 62.559566 84.32535 Z"/>
		<path style="fill-rule:nonzero;fill:#cf5c36;fill-opacity:1;" d="M 224.51378 44.71509 L 239.04109 105.59621 L 243.00018 103.131714 L 244.31007 102.268486 L 249.00812 51.92776 L 249.00812 51.92776 L 248.79776 51.94303 L 247.35329 51.98009 L 245.88223 51.949768 L 244.38501 51.850502 L 242.862 51.680737 L 241.31355 51.438915 L 239.74008 51.123474 L 238.1419 50.732872 L 236.51949 50.26554 L 234.87311 49.719925 L 233.20322 49.094467 L 231.51013 48.387615 L 229.7943 47.597805 L 228.05603 46.723488 L 226.29572 45.763103 L 224.51378 44.71509 Z"/>
		<path style="fill-rule:nonzero;fill:#df7b5a;fill-opacity:1;" d="M 225.61324 45.361717 L 226.34473 48.664165 L 237.8399 100.56222 L 239.04109 105.59621 L 243.00018 103.131714 L 246.84152 100.60025 L 250.55948 98.00313 L 254.14839 95.34166 L 257.60257 92.61714 L 260.91635 89.830894 L 264.08405 86.984215 L 265.27957 85.83233 L 257.3884 50.205494 L 256.88602 50.392735 L 255.60875 50.80142 L 254.30266 51.152058 L 252.96814 51.443096 L 251.60559 51.672974 L 250.21532 51.840137 L 248.79776 51.94303 L 247.35329 51.98009 L 245.88223 51.949768 L 244.38501 51.850502 L 242.862 51.680737 L 241.31355 51.438915 L 239.74008 51.123474 L 238.1419 50.732872 L 236.51949 50.26554 L 234.87311 49.719925 L 233.20322 49.094467 L 231.51013 48.387615 L 229.7943 47.597805 L 228.05603 46.723488 L 226.29572 45.763103 L 225.61324 45.361717 Z"/>
		<path style="fill-rule:nonzero;fill:#cf5c36;fill-opacity:1;" d="M 263.87445 46.841263 L 262.82703 47.533127 L 261.69946 48.208687 L 260.5412 48.83398 L 259.35263 49.40746 L 258.1341 49.927563 L 256.88602 50.392735 L 255.60875 50.80142 L 254.30266 51.152058 L 252.96814 51.443096 L 251.60559 51.672974 L 250.21532 51.840137 L 248.79776 51.94303 L 247.35329 51.98009 L 245.88223 51.949768 L 244.38501 51.850502 L 242.862 51.680737 L 241.31355 51.438915 L 239.74008 51.123474 L 238.1419 50.732872 L 236.51949 50.26554 L 234.87311 49.719925 L 233.20322 49.094467 L 231.51013 48.387615 L 229.7943 47.597805 L 229.2146 47.306225 L 231.86192 51.66205 L 257.02838 93.07002 L 257.02838 93.07002 L 257.60257 92.61714 L 260.91635 89.830894 L 264.08405 86.984215 L 267.09998 84.07841 L 269.9585 81.11479 L 272.65393 78.09466 L 275.1806 75.019325 L 277.5328 71.8901 L 278.37073 70.692894 L 263.87445 46.841263 Z"/>
		<path style="fill-rule:nonzero;fill:#df7b5a;fill-opacity:1;" d="M 270.00024 41.32612 L 269.8289 41.5277 L 268.92673 42.51149 L 267.99124 43.455917 L 267.0228 44.35943 L 266.0218 45.22046 L 264.98853 46.03746 L 263.9235 46.808865 L 262.82703 47.533127 L 261.69946 48.208687 L 260.5412 48.83398 L 259.35263 49.40746 L 258.1341 49.927563 L 256.88602 50.392735 L 255.60875 50.80142 L 254.30266 51.152058 L 252.96814 51.443096 L 251.60559 51.672974 L 250.21532 51.840137 L 248.79776 51.94303 L 247.35329 51.98009 L 245.88223 51.949768 L 244.38501 51.850502 L 242.862 51.680737 L 241.31355 51.438915 L 239.74008 51.123474 L 238.1419 50.732872 L 236.51949 50.26554 L 234.87311 49.719925 L 234.7175 49.661636 L 237.81387 52.424618 L 269.96185 81.11104 L 272.65393 78.09466 L 275.1806 75.019325 L 277.5328 71.8901 L 278.64175 70.30568 L 279.70493 68.70828 L 280.72165 67.09806 L 281.69125 65.47518 L 282.61298 63.83981 L 283.48615 62.192104 L 284.31 60.532238 L 285.08386 58.860363 L 285.80704 57.17665 L 286.31808 55.88693 L 270.00024 41.32612 Z"/>
		<path style="fill-rule:nonzero;fill:#cf5c36;fill-opacity:1;" d="M 275.39236 33.22625 L 275.1791 33.669754 L 274.5208 34.885498 L 273.82654 36.072777 L 273.09668 37.230034 L 272.3316 38.35571 L 271.5317 39.44825 L 270.69733 40.5061 L 269.8289 41.5277 L 268.92673 42.51149 L 267.99124 43.455917 L 267.0228 44.35943 L 266.0218 45.22046 L 264.98853 46.03746 L 263.9235 46.808865 L 262.82703 47.533127 L 261.69946 48.208687 L 260.5412 48.83398 L 259.35263 49.40746 L 258.1341 49.927563 L 256.88602 50.392735 L 255.60875 50.80142 L 254.30266 51.152058 L 252.96814 51.443096 L 251.60559 51.672974 L 250.21532 51.840137 L 248.79776 51.94303 L 247.46594 51.9772 L 247.46594 51.9772 L 279.59824 68.86856 L 279.70493 68.70828 L 280.72165 67.09806 L 281.69125 65.47518 L 282.61298 63.83981 L 283.48615 62.192104 L 284.31 60.532238 L 285.08386 58.860363 L 285.80704 57.17665 L 286.47882 55.481262 L 287.09848 53.774353 L 287.66528 52.0561 L 288.17856 50.32666 L 288.6376 48.586193 L 289.0417 46.83487 L 289.3901 45.072845 L 289.68216 43.300293 L 289.9171 41.517365 L 289.97873 40.894028 L 275.39236 33.22625 Z"/>
		<path style="fill-rule:nonzero;fill:#df7b5a;fill-opacity:1;" d="M 279.09366 23.149357 L 278.35254 25.864702 L 277.44513 28.553263 L 276.3863 31.1591 L 275.1791 33.669754 L 274.5208 34.885498 L 273.82654 36.072777 L 273.09668 37.230034 L 272.3316 38.35571 L 271.5317 39.44825 L 270.69733 40.5061 L 269.8289 41.5277 L 268.92673 42.51149 L 267.99124 43.455917 L 267.0228 44.35943 L 266.0218 45.22046 L 264.98853 46.03746 L 263.9235 46.808865 L 262.82703 47.533127 L 261.69946 48.208687 L 260.91956 48.62973 L 286.2943 55.946877 L 286.2943 55.946877 L 286.47882 55.481262 L 287.09848 53.774353 L 287.66528 52.0561 L 288.17856 50.32666 L 288.6376 48.586193 L 289.0417 46.83487 L 289.3901 45.072845 L 289.68216 43.300293 L 289.9171 41.517365 L 290.09427 39.72423 L 290.21295 37.92106 L 290.27243 36.108 L 290.27197 34.28523 L 290.2109 32.452904 L 290.08847 30.611187 L 289.90402 28.760244 L 289.6568 26.90024 L 289.53372 26.159878 L 279.09366 23.149357 Z"/>
		<path style="fill-rule:nonzero;fill:#cf5c36;fill-opacity:1;" d="M 280.49048 12.247645 L 280.408 14.532291 L 280.1363 17.42721 L 279.70114 20.28922 L 279.10556 23.10587 L 278.35254 25.864702 L 277.44513 28.553263 L 276.3863 31.1591 L 275.1791 33.669754 L 274.5208 34.885498 L 273.82654 36.072777 L 273.09668 37.230034 L 272.3316 38.35571 L 271.5317 39.44825 L 270.69733 40.5061 L 270.3732 40.88737 L 289.75238 42.76752 L 289.9171 41.517365 L 290.09427 39.72423 L 290.21295 37.92106 L 290.27243 36.108 L 290.27197 34.28523 L 290.2109 32.452904 L 290.08847 30.611187 L 289.90402 28.760244 L 289.6568 26.90024 L 289.3461 25.031334 L 288.97125 23.153692 L 288.53152 21.267477 L 288.02618 19.37285 L 287.45456 17.46998 L 286.81592 15.559026 L 286.10956 13.640151 L 285.75497 12.758404 L 285.75497 12.758404 L 280.49048 12.247645 Z"/>
		<path style="fill-rule:nonzero;fill:#df7b5a;fill-opacity:1;" d="M 280.24072 1.6924767 L 279.58856 1.7555552 L 279.8001 2.8726366 L 280.21234 5.774639 L 280.44904 8.693551 L 280.51324 11.61692 L 280.408 14.532291 L 280.1363 17.42721 L 279.70114 20.28922 L 279.10556 23.10587 L 278.35254 25.864702 L 277.44513 28.553263 L 276.3863 31.1591 L 276.12073 31.711401 L 290.0637 30.362783 L 289.90402 28.760244 L 289.6568 26.90024 L 289.3461 25.031334 L 288.97125 23.153692 L 288.53152 21.267477 L 288.02618 19.37285 L 287.45456 17.46998 L 286.81592 15.559026 L 286.10956 13.640151 L 285.33478 11.713521 L 284.49088 9.779296 L 283.5771 7.837642 L 282.5928 5.8887234 L 281.5372 3.9327004 L 280.40964 1.9697391 L 280.24072 1.6924767 Z"/>
		<path style="fill-rule:nonzero;fill:#cf5c36;fill-opacity:1;" d="M 279.2094 0.0 L 279.52725 1.4318695 L 279.8001 2.8726366 L 280.21234 5.774639 L 280.44904 8.693551 L 280.51324 11.61692 L 280.408 14.532291 L 280.1363 17.42721 L 279.70114 20.28922 L 279.1111 23.079514 L 288.1572 19.863949 L 288.02618 19.37285 L 287.45456 17.46998 L 286.81592 15.559026 L 286.10956 13.640151 L 285.33478 11.713521 L 284.49088 9.779296 L 283.5771 7.837642 L 282.5928 5.8887234 L 281.5372 3.9327004 L 280.40964 1.9697391 L 279.2094 0.0 Z"/>
		<path style="fill-rule:nonzero;fill:url(#paint-id-2);fill-opacity:1;" d="M 239.04109 105.59621 C 281.87875 79.67003 305.59476 42.092205 279.2094 0.0 C 286.47308 30.44056 262.7571 68.01838 224.51378 44.71509 Z"/>
		<path style="fill-rule:nonzero;fill:url(#paint-id-3);fill-opacity:1;" d="M 239.04109 105.59621 C 281.87875 79.67003 305.59476 42.092205 279.2094 0.0 C 293.5879 19.167212 281.87875 79.67003 231.77744 75.15565 Z"/>
		<path style="fill-rule:nonzero;fill:#000000;fill-opacity:0.15686275;" d="M 77.25999 432.10223 L 76.53239 432.281 L 70.5353 433.7805 L 68.0943 434.43988 L 65.991425 435.07108 L 64.20148 435.6982 L 62.6993 436.34528 L 61.459698 437.03635 L 60.930496 437.40594 L 60.457493 437.79556 L 60.03754 438.2082 L 59.667496 438.64694 L 59.34421 439.1147 L 59.064537 439.61453 L 58.82532 440.14944 L 58.623425 440.72244 L 58.31898 441.9947 L 58.12603 443.4554 L 58.019382 445.1286 L 57.97386 447.03842 L 57.964283 449.20883 L 58.714283 449.20883 L 58.714283 449.94577 L 59.464283 449.94577 L 59.464283 449.20883 L 59.4795 445.4877 L 59.539845 443.97055 L 59.672085 442.65118 L 59.903778 441.50604 L 60.06553 440.99152 L 60.26247 440.51175 L 60.49805 440.0639 L 60.77572 439.6449 L 61.09891 439.25195 L 61.47108 438.88205 L 61.895657 438.5323 L 62.376095 438.19974 L 63.51833 437.5746 L 64.92533 436.98303 L 66.62465 436.40182 L 68.643845 435.8074 L 71.01046 435.17642 L 76.89619 433.71085 L 77.62379 433.53217 L 77.25999 432.10223 Z M 222.73999 432.10223 L 222.3762 433.53217 L 223.1038 433.71085 L 228.98955 435.17642 L 231.35616 435.8074 L 233.37535 436.40182 L 235.07466 436.98303 L 236.48167 437.5746 L 237.6239 438.19974 L 238.10432 438.5323 L 238.52893 438.88205 L 238.9011 439.25195 L 239.22427 439.6449 L 239.50195 440.0639 L 239.73752 440.51175 L 239.93446 440.99152 L 240.09622 441.50604 L 240.32791 442.65118 L 240.46016 443.97055 L 240.5205 445.4877 L 240.53572 449.20883 L 240.53572 449.94577 L 241.28572 449.94577 L 241.28572 449.20883 L 242.03572 449.20883 L 242.02612 447.03842 L 241.9806 445.1286 L 241.87396 443.4554 L 241.68102 441.9947 L 241.37656 440.72244 L 241.17467 440.14944 L 240.93546 439.61453 L 240.65579 439.1147 L 240.33249 438.64694 L 239.96246 438.2082 L 239.54251 437.79556 L 239.0695 437.40594 L 238.5403 437.03635 L 237.3007 436.34528 L 235.79851 435.6982 L 234.00858 435.07108 L 231.9057 434.43988 L 229.4647 433.7805 L 223.4676 432.281 L 222.73999 432.10223 Z M 89.21714 437.9739 L 88.49877 438.18567 L 85.57228 439.0402 L 81.29948 440.3051 L 79.47299 440.89053 L 77.84058 441.4705 L 76.39283 442.0646 L 75.12032 442.6923 L 74.013664 443.37305 L 73.06344 444.12637 L 72.26024 444.97177 L 71.59466 445.92868 L 71.05728 447.0167 L 70.63872 448.25516 L 70.32954 449.6637 L 70.120346 451.26178 L 70.00173 453.06885 L 69.96429 455.1044 L 70.71429 455.1044 L 70.71429 455.84137 L 71.46428 455.84137 L 71.46428 455.1044 L 71.491356 453.2558 L 71.580475 451.6196 L 71.74354 450.17697 L 71.99242 448.909 L 72.339 447.79688 L 72.79516 446.82166 L 73.37278 445.9646 L 74.08374 445.2068 L 74.93993 444.5293 L 75.953224 443.9134 L 77.135506 443.34012 L 78.49865 442.79065 L 80.05455 442.24612 L 81.81507 441.6877 L 85.997536 440.45358 L 88.929794 439.5974 L 89.64816 439.38565 L 89.21714 437.9739 Z M 210.78284 437.9739 L 210.35184 439.38565 L 211.0702 439.5974 L 214.00246 440.45358 L 218.18492 441.6877 L 219.94543 442.24612 L 221.50133 442.79065 L 222.86449 443.34012 L 224.04677 443.9134 L 225.06006 444.5293 L 225.91626 445.2068 L 226.62721 445.9646 L 227.20483 446.82166 L 227.661 447.79688 L 228.00757 448.909 L 228.25645 450.17697 L 228.41951 451.6196 L 228.50864 453.2558 L 228.53572 455.1044 L 228.53572 455.84137 L 229.28572 455.84137 L 229.28572 455.1044 L 230.03572 455.1044 L 229.99828 453.06885 L 229.87964 451.26178 L 229.67044 449.6637 L 229.36127 448.25516 L 228.94272 447.0167 L 228.40535 445.92868 L 227.73976 444.97177 L 226.93657 444.12637 L 225.98634 443.37305 L 224.87967 442.6923 L 223.60716 442.0646 L 222.15941 441.4705 L 220.52701 440.89053 L 218.7005 440.3051 L 214.42772 439.0402 L 211.50124 438.18567 L 210.78284 437.9739 Z"/>
		<path style="fill-rule:nonzero;fill:#ffc145;fill-opacity:1;" d="M 146.48724 27.173342 L 117.19684 29.45071 C 88.32639 31.695427 52.36589 61.86939 45.275837 89.798645 L 1.3451159 262.85117 C -5.7449393 290.78043 16.123371 318.79907 45.081734 318.88843 L 150.27203 319.2131 L 255.46234 319.53778 C 284.4207 319.62717 305.95038 291.87454 298.5217 264.0325 L 248.3759 76.09058 C 240.94722 48.24856 204.6481 22.651257 175.77763 24.895973 L 146.48724 27.173342 Z"/>
		<path style="fill-rule:nonzero;fill:#000000;fill-opacity:0.078431375;" d="M 232.79343 50.09505 L 281.6856 251.62392 L 282.2506 254.31097 L 282.64404 256.99225 L 282.87015 259.66248 L 282.9331 262.31644 L 282.83716 264.9489 L 282.58658 267.55463 L 282.1855 270.1284 L 281.63815 272.66495 L 280.9488 275.1591 L 280.12164 277.60553 L 279.16092 279.9991 L 278.0708 282.33456 L 276.85553 284.60663 L 275.51935 286.8101 L 274.06644 288.93976 L 272.50107 290.99033 L 270.8274 292.95663 L 269.0497 294.8334 L 267.17215 296.61542 L 265.199 298.29745 L 263.13446 299.87424 L 260.98273 301.34058 L 258.74805 302.69122 L 256.43463 303.921 L 254.0467 305.02457 L 251.58849 305.99677 L 249.06418 306.8323 L 246.47801 307.52603 L 243.8342 308.0727 L 241.137 308.467 L 238.39056 308.7038 L 235.59917 308.77777 L 16.171469 308.06445 L 16.171469 308.06445 L 16.647903 308.4828 L 18.620058 310.03366 L 20.677801 311.47733 L 22.81713 312.80862 L 25.034039 314.02246 L 27.324526 315.1137 L 29.684586 316.07718 L 32.110214 316.90784 L 34.597404 317.60046 L 37.14216 318.14996 L 39.740467 318.5512 L 42.38833 318.79907 L 45.081734 318.88843 L 150.27203 319.2131 L 255.46234 319.53778 L 258.15475 319.46545 L 260.7997 319.23505 L 263.39325 318.85168 L 265.93143 318.32043 L 268.41034 317.64633 L 270.82602 316.83453 L 273.17447 315.8901 L 275.4518 314.81808 L 277.6541 313.6236 L 279.77737 312.31168 L 281.81772 310.88748 L 283.77118 309.356 L 285.63376 307.7224 L 287.4016 305.99173 L 289.0707 304.16904 L 290.63718 302.25943 L 292.097 300.268 L 293.4463 298.19983 L 294.68112 296.05997 L 295.79752 293.85355 L 296.79153 291.58563 L 297.6592 289.2613 L 298.39667 286.8856 L 298.9999 284.46362 L 299.46503 282.00052 L 299.78806 279.50128 L 299.96503 276.97104 L 299.9921 274.4149 L 299.8652 271.83786 L 299.58047 269.24506 L 299.13397 266.64157 L 298.5217 264.0325 L 248.3759 76.09058 L 247.596 73.48775 L 246.65355 70.902756 L 245.55525 68.340294 L 244.30774 65.80504 L 242.91765 63.30169 L 241.39162 60.834927 L 239.7363 58.409435 L 237.95834 56.02991 L 236.06442 53.70103 L 234.06113 51.42749 L 232.79343 50.09505 Z"/>
		<path style="fill-rule:nonzero;fill:#ffffff;fill-opacity:0.19607843;" d="M 178.5049 24.76632 L 175.77763 24.895973 L 146.48724 27.173342 L 117.19684 29.45071 L 114.47056 29.742056 L 111.70933 30.191525 L 108.919716 30.79359 L 106.108315 31.542728 L 103.2817 32.433414 L 100.44647 33.460125 L 97.60922 34.617332 L 94.7765 35.899513 L 91.95492 37.30114 L 89.151054 38.816692 L 86.3715 40.44064 L 83.622826 42.16746 L 80.91162 43.99163 L 78.24448 45.907623 L 75.62797 47.909912 L 73.068695 49.992977 L 70.57322 52.151287 L 68.14815 54.37932 L 65.80005 56.67155 L 63.535515 59.02245 L 61.36113 61.426502 L 59.283474 63.878174 L 57.30914 66.37195 L 55.444706 68.90229 L 53.69676 71.46368 L 52.07188 74.05059 L 50.57666 76.6575 L 49.217674 79.278885 L 48.001514 81.90922 L 46.93477 84.54297 L 46.024017 87.17462 L 45.275837 89.798645 L 3.678054 253.66122 L 3.678054 253.66122 L 46.857227 97.01768 L 47.67882 94.34262 L 48.668427 91.65616 L 49.819134 88.964035 L 51.124054 86.271996 L 52.57628 83.5858 L 54.168903 80.91118 L 55.895027 78.25388 L 57.74775 75.61966 L 59.72017 73.01425 L 61.805378 70.44341 L 63.996483 67.91288 L 66.286575 65.4284 L 68.668755 62.995716 L 71.136116 60.620583 L 73.68176 58.30874 L 76.29879 56.065933 L 78.9803 53.89791 L 81.71938 51.810417 L 84.50914 49.809196 L 87.34267 47.899998 L 90.213066 46.088566 L 93.113434 44.380646 L 96.03687 42.781982 L 98.97647 41.29832 L 101.92532 39.93541 L 104.87655 38.698994 L 107.82322 37.594822 L 110.758446 36.62863 L 113.67534 35.806175 L 116.56698 35.133198 L 119.42645 34.61544 L 122.24689 34.258656 L 195.22684 27.103436 L 192.5615 26.40105 L 189.71628 25.785328 L 186.88138 25.309305 L 184.06342 24.97767 L 181.26904 24.795113 L 178.5049 24.76632 Z"/>
		<path style="fill-rule:nonzero;fill:#ffc145;fill-opacity:1;" d="M 85.71428 293.00784 C 70.48441 343.69705 70.48441 369.04166 85.71428 419.73087 C 52.714283 428.57425 43.714283 422.67868 46.714283 449.20883 L 58.714283 449.20883 L 58.714283 455.1044 L 70.71429 455.1044 L 70.71429 461.0 L 82.71428 461.0 C 118.71429 449.20883 118.71429 449.20883 109.71429 419.73087 C 94.48441 369.04166 94.48441 302.4408 109.71429 293.00784 M 214.28572 293.00784 C 229.51558 343.69705 229.51558 369.04166 214.28572 419.73087 C 247.28572 428.57425 256.2857 422.67868 253.28572 449.20883 L 241.28572 449.20883 L 241.28572 455.1044 L 229.28572 455.1044 L 229.28572 461.0 L 217.28572 461.0 C 181.2857 449.20883 181.2857 449.20883 190.2857 419.73087 C 205.51558 369.04166 205.51558 302.4408 190.2857 293.00784"/>
		<path style="fill-rule:nonzero;fill:url(#paint-id-4);fill-opacity:1;" d="M 190.2857 293.00784 C 197.6684 297.58047 201.47232 315.58658 201.6975 338.7018 L 201.6975 338.7018 C 201.89076 318.33746 199.44737 301.3514 194.36734 293.00784 Z M 105.63266 293.00784 C 100.55258 301.35147 98.1092 318.33768 98.302505 338.70218 L 98.302505 338.70218 C 98.52763 315.58676 102.33156 297.5805 109.71429 293.00784 Z M 225.69095 354.1585 C 225.40723 372.4393 221.60547 390.947 214.28572 415.30917 C 214.6942 415.4186 215.09903 415.52585 215.50018 415.63086 L 215.50018 415.63086 C 222.58452 391.35208 225.98145 372.8742 225.69095 354.1585 Z M 74.309044 354.1585 C 74.018555 372.8742 77.415474 391.35208 84.499794 415.63086 L 84.499794 415.63086 C 84.90096 415.52585 85.305786 415.4186 85.71428 415.30917 C 78.39452 390.947 74.59277 372.4393 74.309044 354.1585 Z M 46.230354 439.00803 C 46.071476 441.74258 46.247826 445.0837 46.714283 449.20883 L 58.714283 449.20883 L 58.714283 444.78714 L 46.714283 444.78714 C 46.473812 442.66052 46.31044 440.74222 46.230354 439.00803 Z M 253.76964 439.00803 L 253.76964 439.00803 C 253.68956 440.74222 253.52618 442.6605 253.28572 444.78714 L 241.28572 444.78714 L 241.28572 449.20883 L 253.28572 449.20883 C 253.75218 445.0837 253.92851 441.74252 253.76964 439.00803 Z M 58.714283 450.6827 L 58.714283 455.1044 L 70.71429 455.1044 L 70.71429 450.6827 Z M 229.28572 450.6827 L 229.28572 455.1044 L 241.28572 455.1044 L 241.28572 450.6827 Z M 114.57429 438.54977 C 113.416306 446.52237 104.90388 449.3105 82.71428 456.5783 L 70.71429 456.5783 L 70.71429 461.0 L 82.71428 461.0 C 108.57141 452.53094 115.856575 450.1448 114.57429 438.54977 Z M 185.4257 438.54977 L 185.4257 438.54977 C 184.14342 450.1448 191.42857 452.53094 217.28572 461.0 L 229.28572 461.0 L 229.28572 456.5783 L 217.28572 456.5783 C 195.09613 449.3105 186.5837 446.52237 185.4257 438.54977 Z"/>
		<path style="fill-rule:nonzero;fill:url(#paint-id-5);fill-opacity:1;" d="M 194.36734 293.00784 C 194.90741 293.89487 195.41768 294.8796 195.89815 295.95566 L 215.16252 295.95566 C 214.8761 294.9825 214.58382 294.00003 214.28572 293.00784 Z M 217.8871 420.6634 C 217.68935 421.33072 217.48888 422.00244 217.28572 422.67868 C 235.23387 427.4884 246.0826 427.93823 251.76256 431.61633 L 251.76256 431.61633 C 247.72093 425.3537 237.40651 425.54428 217.8871 420.6634 Z M 251.76256 431.61633 C 251.76256 431.61633 251.76256 431.61633 251.76256 431.61633 L 251.76256 431.61633 C 251.76256 431.61633 251.76256 431.61633 251.76256 431.61633 Z M 197.75372 301.0376 C 200.52664 310.2802 201.84123 323.55673 201.6975 338.7018 L 201.6975 338.7018 C 201.93683 363.2714 198.1329 393.61325 190.2857 419.73087 C 187.74998 428.03616 185.92871 434.00146 185.4257 438.54977 L 185.4257 438.54977 C 185.75153 440.79294 186.65952 442.62567 188.29056 444.26324 L 188.29056 444.26324 C 188.17319 439.4239 190.20071 432.78302 193.28572 422.67868 C 206.84244 377.55817 208.33177 319.83014 197.75374 301.0376 Z M 85.71428 293.00784 C 78.39452 317.37003 74.59277 335.87772 74.309044 354.1585 L 74.309044 354.1585 C 74.59277 372.4393 78.39452 390.947 85.71428 415.30917 C 85.305786 415.4186 84.90096 415.52585 84.499794 415.63086 L 84.499794 415.63086 C 84.89325 416.97928 85.29808 418.34564 85.71428 419.73087 C 57.845333 427.19922 47.09326 424.15567 46.230354 439.00803 L 46.230354 439.00803 C 46.31044 440.74222 46.473812 442.66052 46.714283 444.78714 L 49.179565 444.78714 C 48.88042 426.7064 59.1958 430.58905 88.71428 422.67868 C 73.48441 371.98944 73.48441 346.64484 88.71428 295.95566 L 104.101845 295.95566 C 104.58231 294.8796 105.09258 293.89487 105.63266 293.00784 Z M 190.08852 450.2081 C 190.08852 450.2081 190.08852 450.2081 190.08852 450.2081 L 190.08853 450.2081 C 190.08852 450.2081 190.08852 450.2081 190.08852 450.2081 Z"/>
		<path style="fill-rule:nonzero;fill:#000000;fill-opacity:0.15686275;" d="M 77.25999 432.10223 L 76.53239 432.281 L 70.5353 433.7805 L 68.0943 434.43988 L 65.991425 435.07108 L 64.20148 435.6982 L 62.6993 436.34528 L 61.459698 437.03635 L 60.930496 437.40594 L 60.457493 437.79556 L 60.03754 438.2082 L 59.667496 438.64694 L 59.34421 439.1147 L 59.064537 439.61453 L 58.82532 440.14944 L 58.623425 440.72244 L 58.31898 441.9947 L 58.12603 443.4554 L 58.019382 445.1286 L 57.97386 447.03842 L 57.964283 449.20883 L 58.714283 449.20883 L 58.714283 449.94577 L 59.464283 449.94577 L 59.464283 449.20883 L 59.4795 445.4877 L 59.539845 443.97055 L 59.672085 442.65118 L 59.903778 441.50604 L 60.06553 440.99152 L 60.26247 440.51175 L 60.49805 440.0639 L 60.77572 439.6449 L 61.09891 439.25195 L 61.47108 438.88205 L 61.895657 438.5323 L 62.376095 438.19974 L 63.51833 437.5746 L 64.92533 436.98303 L 66.62465 436.40182 L 68.643845 435.8074 L 71.01046 435.17642 L 76.89619 433.71085 L 77.62379 433.53217 L 77.25999 432.10223 Z M 222.73999 432.10223 L 222.3762 433.53217 L 223.1038 433.71085 L 228.98955 435.17642 L 231.35616 435.8074 L 233.37535 436.40182 L 235.07466 436.98303 L 236.48167 437.5746 L 237.6239 438.19974 L 238.10432 438.5323 L 238.52893 438.88205 L 238.9011 439.25195 L 239.22427 439.6449 L 239.50195 440.0639 L 239.73752 440.51175 L 239.93446 440.99152 L 240.09622 441.50604 L 240.32791 442.65118 L 240.46016 443.97055 L 240.5205 445.4877 L 240.53572 449.20883 L 240.53572 449.94577 L 241.28572 449.94577 L 241.28572 449.20883 L 242.03572 449.20883 L 242.02612 447.03842 L 241.9806 445.1286 L 241.87396 443.4554 L 241.68102 441.9947 L 241.37656 440.72244 L 241.17467 440.14944 L 240.93546 439.61453 L 240.65579 439.1147 L 240.33249 438.64694 L 239.96246 438.2082 L 239.54251 437.79556 L 239.0695 437.40594 L 238.5403 437.03635 L 237.3007 436.34528 L 235.79851 435.6982 L 234.00858 435.07108 L 231.9057 434.43988 L 229.4647 433.7805 L 223.4676 432.281 L 222.73999 432.10223 Z M 89.21714 437.9739 L 88.49877 438.18567 L 85.57228 439.0402 L 81.29948 440.3051 L 79.47299 440.89053 L 77.84058 441.4705 L 76.39283 442.0646 L 75.12032 442.6923 L 74.013664 443.37305 L 73.06344 444.12637 L 72.26024 444.97177 L 71.59466 445.92868 L 71.05728 447.0167 L 70.63872 448.25516 L 70.32954 449.6637 L 70.120346 451.26178 L 70.00173 453.06885 L 69.96429 455.1044 L 70.71429 455.1044 L 70.71429 455.84137 L 71.46428 455.84137 L 71.46428 455.1044 L 71.491356 453.2558 L 71.580475 451.6196 L 71.74354 450.17697 L 71.99242 448.909 L 72.339 447.79688 L 72.79516 446.82166 L 73.37278 445.9646 L 74.08374 445.2068 L 74.93993 444.5293 L 75.953224 443.9134 L 77.135506 443.34012 L 78.49865 442.79065 L 80.05455 442.24612 L 81.81507 441.6877 L 85.997536 440.45358 L 88.929794 439.5974 L 89.64816 439.38565 L 89.21714 437.9739 Z M 210.78284 437.9739 L 210.35184 439.38565 L 211.0702 439.5974 L 214.00246 440.45358 L 218.18492 441.6877 L 219.94543 442.24612 L 221.50133 442.79065 L 222.86449 443.34012 L 224.04677 443.9134 L 225.06006 444.5293 L 225.91626 445.2068 L 226.62721 445.9646 L 227.20483 446.82166 L 227.661 447.79688 L 228.00757 448.909 L 228.25645 450.17697 L 228.41951 451.6196 L 228.50864 453.2558 L 228.53572 455.1044 L 228.53572 455.84137 L 229.28572 455.84137 L 229.28572 455.1044 L 230.03572 455.1044 L 229.99828 453.06885 L 229.87964 451.26178 L 229.67044 449.6637 L 229.36127 448.25516 L 228.94272 447.0167 L 228.40535 445.92868 L 227.73976 444.97177 L 226.93657 444.12637 L 225.98634 443.37305 L 224.87967 442.6923 L 223.60716 442.0646 L 222.15941 441.4705 L 220.52701 440.89053 L 218.7005 440.3051 L 214.42772 439.0402 L 211.50124 438.18567 L 210.78284 437.9739 Z"/>
		<path style="fill-rule:nonzero;fill:url(#paint-id-6);fill-opacity:1;" d="M 128.925 131.81137 C 128.925 154.32692 110.34929 172.57938 87.435 172.57938 C 64.520706 172.57938 45.945 154.32692 45.945 131.81137 C 45.945 109.29582 64.520706 91.043365 87.435 91.043365 C 110.34929 91.043365 128.925 109.29582 128.925 131.81137 Z"/>
		<path style="fill-rule:nonzero;fill:url(#paint-id-7);fill-opacity:1;" d="M 245.055 134.47176 C 245.055 155.35928 227.82243 172.29196 206.565 172.29196 C 185.30756 172.29196 168.075 155.35928 168.075 134.47176 C 168.075 113.584236 185.30756 96.65155 206.565 96.65155 C 227.82243 96.65155 245.055 113.584236 245.055 134.47176 Z"/>
		<path style="fill-rule:nonzero;fill:url(#paint-id-8);fill-opacity:1;" d="M 174.65999 89.24522 C 174.65999 107.19416 159.8518 121.74465 141.58499 121.74465 C 123.31818 121.74465 108.509995 107.19416 108.509995 89.24522 C 108.509995 71.29627 123.31818 56.74578 141.58499 56.74578 C 159.8518 56.74578 174.65999 71.29627 174.65999 89.24522 Z"/>
		<path style="fill-rule:nonzero;fill:#ffffff;fill-opacity:1;" d="M 87.435 99.88676 C 69.49127 99.88676 54.945 114.17989 54.945 131.81137 C 54.945 149.44286 69.49127 163.73598 87.435 163.73598 C 105.37873 163.73598 119.924995 149.44286 119.924995 131.81137 C 119.924995 114.17989 105.37873 99.88676 87.435 99.88676 Z"/>
		<path style="fill-rule:nonzero;fill:#7c5e21;fill-opacity:1;" d="M 83.13057 115.84906 C 74.1587 115.84906 66.88557 122.99563 66.88557 131.81137 C 66.88557 140.6271 74.1587 147.77367 83.13057 147.77367 C 92.10243 147.77367 99.37557 140.6271 99.37557 131.81137 C 99.37557 122.99563 92.10243 115.84906 83.13057 115.84906 Z"/>
		<path style="fill-rule:nonzero;fill:#000000;fill-opacity:1;" d="M 83.13057 123.032104 C 78.19604 123.032104 74.195816 126.96272 74.195816 131.81137 C 74.195816 136.66003 78.19604 140.59065 83.13057 140.59065 C 88.065094 140.59065 92.065315 136.66003 92.065315 131.81137 C 92.065315 126.96272 88.065094 123.032104 83.13057 123.032104 Z"/>
		<path style="fill-rule:nonzero;fill:#ffffff;fill-opacity:0.60784316;" d="M 93.96057 116.381134 C 91.26901 116.381134 89.08707 118.52511 89.08707 121.16983 C 89.08707 123.81455 91.26901 125.95853 93.96057 125.95853 C 96.65213 125.95853 98.83407 123.81455 98.83407 121.16983 C 98.83407 118.52511 96.65213 116.381134 93.96057 116.381134 Z"/>
		<path style="fill-rule:nonzero;fill:#ffffff;fill-opacity:1;" d="M 206.565 105.494934 C 190.27812 105.494934 177.075 118.4683 177.075 134.47176 C 177.075 150.47522 190.27812 163.4486 206.565 163.4486 C 222.85187 163.4486 236.055 150.47522 236.055 134.47176 C 236.055 118.4683 222.85187 105.494934 206.565 105.494934 Z"/>
		<path style="fill-rule:nonzero;fill:#7c5e21;fill-opacity:1;" d="M 202.26056 119.983345 C 194.11713 119.983345 187.51556 126.470024 187.51556 134.47176 C 187.51556 142.47348 194.11713 148.96017 202.26056 148.96017 C 210.40402 148.96017 217.00557 142.47348 217.00557 134.47176 C 217.00557 126.470024 210.40402 119.983345 202.26056 119.983345 Z"/>
		<path style="fill-rule:nonzero;fill:#000000;fill-opacity:1;" d="M 202.26059 126.50313 C 197.78171 126.50313 194.15085 130.0708 194.15085 134.47176 C 194.15085 138.8727 197.78171 142.44037 202.26059 142.44037 C 206.73949 142.44037 210.37035 138.8727 210.37035 134.47176 C 210.37035 130.0708 206.73949 126.50313 202.26059 126.50313 Z"/>
		<path style="fill-rule:nonzero;fill:#ffffff;fill-opacity:0.60784316;" d="M 212.09058 120.46629 C 209.64754 120.46629 207.66707 122.41229 207.66707 124.81281 C 207.66707 127.21333 209.64754 129.15935 212.09058 129.15935 C 214.5336 129.15935 216.51407 127.21333 216.51407 124.81281 C 216.51407 122.41229 214.5336 120.46629 212.09058 120.46629 Z"/>
		<path style="fill-rule:nonzero;fill:#ffffff;fill-opacity:1;" d="M 141.58499 65.589165 C 128.28874 65.589165 117.509995 76.18034 117.509995 89.24522 C 117.509995 102.3101 128.28874 112.90127 141.58499 112.90127 C 154.88124 112.90127 165.65999 102.3101 165.65999 89.24522 C 165.65999 76.18034 154.88124 65.589165 141.58499 65.589165 Z"/>
		<path style="fill-rule:nonzero;fill:#7c5e21;fill-opacity:1;" d="M 137.28056 77.41719 C 130.63245 77.41719 125.243065 82.712776 125.243065 89.24522 C 125.243065 95.77766 130.63245 101.07324 137.28056 101.07324 C 143.92868 101.07324 149.31807 95.77766 149.31807 89.24522 C 149.31807 82.712776 143.92868 77.41719 137.28056 77.41719 Z"/>
		<path style="fill-rule:nonzero;fill:#000000;fill-opacity:1;" d="M 137.28056 82.7398 C 133.6241 82.7398 130.65994 85.65238 130.65994 89.24522 C 130.65994 92.83806 133.6241 95.75063 137.28056 95.75063 C 140.93703 95.75063 143.90118 92.83806 143.90118 89.24522 C 143.90118 85.65238 140.93703 82.7398 137.28056 82.7398 Z"/>
		<path style="fill-rule:nonzero;fill:#ffffff;fill-opacity:0.60784316;" d="M 145.30556 77.811455 C 143.31111 77.811455 141.6943 79.40013 141.6943 81.35987 C 141.6943 83.319595 143.31111 84.90827 145.30556 84.90827 C 147.3 84.90827 148.91681 83.319595 148.91681 81.35987 C 148.91681 79.40013 147.3 77.811455 145.30556 77.811455 Z"/>
		<path style="fill-rule:nonzero;fill:#000000;fill-opacity:0.19607843;" d="M 120.0 222.26077 L 120.0 222.26077 C 177.43092 222.26077 211.64964 199.74315 220.00769 194.26807 C 222.76941 192.45897 226.3203 192.29031 229.24672 193.82922 C 232.17313 195.36813 234.0 198.36482 234.0 201.6262 L 234.0 201.6262 C 234.0 244.71513 187.84978 272.08353 154.25497 272.08353 L 154.25497 272.08353 C 131.7003 272.08353 111.0 259.73718 111.0 231.10416 C 111.0 226.2201 115.02944 222.26077 120.0 222.26077 C 124.97056 222.26077 129.0 226.2201 129.0 231.10416 L 129.0 231.10416 C 129.0 247.50943 138.9383 254.39676 154.25497 254.39676 L 154.25497 254.39676 C 181.93735 254.39676 216.0 231.41078 216.0 201.6262 L 225.0 201.6262 L 229.9923 208.98434 C 220.35036 215.30045 182.56906 239.94754 120.0 239.94754 C 115.02944 239.94754 111.0 235.98822 111.0 231.10416 C 111.0 226.2201 115.02944 222.26077 120.0 222.26077 Z"/>
		<path style="fill-rule:nonzero;fill:#000000;fill-opacity:1;" d="M 120.0 231.10416 C 180.0 231.10416 216.0 207.5218 225.0 201.6262 C 225.0 260.5821 120.0 290.06006 120.0 231.10416"/>
		<path style="fill-rule:nonzero;fill:#ffffff;fill-opacity:1;" d="M 152.8125 246.75633 L 152.14151 246.77916 L 151.48993 246.84616 L 150.86101 246.95512 L 150.25807 247.1038 L 149.68442 247.29002 L 149.14334 247.5115 L 148.63814 247.76604 L 148.1721 248.05142 L 147.74855 248.36542 L 147.37077 248.70583 L 147.04205 249.07039 L 146.76572 249.4569 L 146.54503 249.86316 L 146.38332 250.28691 L 146.28387 250.72594 L 146.25 251.17802 L 146.25 258.81842 L 146.28387 259.2705 L 146.38332 259.70953 L 146.54503 260.1333 L 146.76572 260.53955 L 147.04205 260.92606 L 147.37077 261.29062 L 147.74855 261.63104 L 148.1721 261.94504 L 148.63814 262.2304 L 149.14334 262.48495 L 149.68442 262.70642 L 150.25807 262.89264 L 150.86101 263.04132 L 151.48993 263.1503 L 151.65819 263.1676 L 151.65819 263.1676 L 153.16405 263.22815 L 153.16405 263.22815 L 153.48347 263.2173 L 154.13507 263.1503 L 154.76399 263.04132 L 155.36691 262.89264 L 155.94058 262.70642 L 156.48166 262.48495 L 156.98685 262.2304 L 157.45288 261.94504 L 157.87643 261.63104 L 158.25421 261.29062 L 158.58293 260.92606 L 158.85928 260.53955 L 159.07996 260.1333 L 159.24167 259.70953 L 159.34111 259.2705 L 159.375 258.81842 L 159.375 251.17802 L 159.34111 250.72594 L 159.24167 250.28691 L 159.07996 249.86316 L 158.85928 249.4569 L 158.58293 249.07039 L 158.25421 248.70583 L 157.87643 248.36542 L 157.45288 248.05142 L 156.98685 247.76604 L 156.48166 247.5115 L 155.94058 247.29002 L 155.36691 247.1038 L 154.76399 246.95512 L 154.13507 246.84616 L 153.48347 246.77916 L 152.8125 246.75633 Z"/>
		<path style="fill-rule:nonzero;fill:#ffffff;fill-opacity:1;" d="M 173.22917 243.87112 L 172.55818 243.89395 L 171.9066 243.96098 L 171.27768 244.06995 L 170.67474 244.21863 L 170.10109 244.40482 L 169.56001 244.6263 L 169.05481 244.88083 L 168.58878 245.16623 L 168.16522 245.48021 L 167.78745 245.82062 L 167.45872 246.18518 L 167.18239 246.57172 L 166.9617 246.97795 L 166.79999 247.4017 L 166.70055 247.84073 L 166.66667 248.29282 L 166.66667 261.96603 L 166.66667 261.96603 L 167.58453 261.78937 L 170.03986 261.22958 L 172.5 260.5821 L 174.96013 259.84827 L 177.41547 259.02942 L 179.79167 258.15256 L 179.79167 258.15256 L 179.79167 248.29282 L 179.75778 247.84073 L 179.65834 247.4017 L 179.49663 246.97795 L 179.27596 246.57172 L 178.9996 246.18518 L 178.67088 245.82062 L 178.2931 245.48021 L 177.86955 245.16623 L 177.40352 244.88083 L 176.89833 244.6263 L 176.35725 244.40482 L 175.78358 244.21863 L 175.18066 244.06995 L 174.55174 243.96098 L 173.90015 243.89395 L 173.22917 243.87112 Z"/>
	</g>
</svg>
