<?xml version="1.0" encoding="iso-8859-1"?>
<!DOCTYPE svg PUBLIC "-//W3C//DTD SVG 1.1//EN" "http://www.w3.org/Graphics/SVG/1.1/DTD/svg11.dtd">
<svg version="1.1" id="buildings_1" xmlns="http://www.w3.org/2000/svg" xmlns:xlink="http://www.w3.org/1999/xlink"
	x="0px" y="0px" width="300px" height="472px" viewBox="0 0 300 472"
	 xml:space="preserve">
	<defs>
		<linearGradient id="paint-id-0" x1="57.01947784423828" y1="80.05963134765625" x2="57.01947784423828" y2="80.05963134765625">
			offset="0%" style="stop-color:#000000;stop-opacity:0.15686275;"/>
			offset="100%" style="stop-color:#000000;stop-opacity:0.0;"/>
		</linearGradient>
		<linearGradient id="paint-id-1" x1="57.01947784423828" y1="80.05963134765625" x2="57.01947784423828" y2="80.05963134765625">
			offset="0%" style="stop-color:#000000;stop-opacity:0.078431375;"/>
			offset="100%" style="stop-color:#000000;stop-opacity:0.0;"/>
		</linearGradient>
		<linearGradient id="paint-id-2" x1="230.79981994628906" y1="85.04772186279297" x2="230.79981994628906" y2="85.04772186279297">
			offset="0%" style="stop-color:#000000;stop-opacity:0.15686275;"/>
			offset="100%" style="stop-color:#000000;stop-opacity:0.0;"/>
		</linearGradient>
		<linearGradient id="paint-id-3" x1="230.79981994628906" y1="85.04772186279297" x2="230.79981994628906" y2="85.04772186279297">
			offset="0%" style="stop-color:#000000;stop-opacity:0.078431375;"/>
			offset="100%" style="stop-color:#000000;stop-opacity:0.0;"/>
		</linearGradient>
		<linearGradient id="paint-id-4" x1="0.0" y1="343.1418151855469" x2="0.0" y2="343.1418151855469">
			offset="0%" style="stop-color:#000000;stop-opacity:0.0;"/>
			offset="100%" style="stop-color:#000000;stop-opacity:0.15686275;"/>
		</linearGradient>
		<linearGradient id="paint-id-5" x1="0.0" y1="317.3702087402344" x2="0.0" y2="317.3702087402344">
			offset="0%" style="stop-color:#ffffff;stop-opacity:0.0;"/>
			offset="100%" style="stop-color:#ffffff;stop-opacity:0.078431375;"/>
		</linearGradient>
		<linearGradient id="paint-id-6" x1="0.0" y1="84.53977966308594" x2="0.0" y2="84.53977966308594">
			offset="0%" style="stop-color:#000000;stop-opacity:0.078431375;"/>
			offset="100%" style="stop-color:#000000;stop-opacity:0.0;"/>
		</linearGradient>
		<linearGradient id="paint-id-7" x1="0.0" y1="96.52029418945312" x2="0.0" y2="96.52029418945312">
			offset="0%" style="stop-color:#000000;stop-opacity:0.078431375;"/>
			offset="100%" style="stop-color:#000000;stop-opacity:0.0;"/>
		</linearGradient>
	</defs>
	<g>
		<path style="fill-rule:nonzero;fill:#cf5c36;fill-opacity:1;" d="M 66.85177 49.84614 L 64.986755 50.75827 L 63.1508 51.58349 L 61.34413 52.323406 L 59.567 52.97963 L 57.81964 53.553772 L 56.102303 54.047432 L 54.415226 54.462227 L 52.758648 54.79976 L 51.13282 55.061638 L 49.537983 55.249466 L 47.974373 55.364857 L 46.442234 55.40942 L 44.94182 55.384754 L 43.47336 55.29248 L 42.0371 55.134193 L 41.828793 55.10115 L 41.828793 55.10115 L 42.220314 106.46334 L 42.220314 106.46334 L 43.452053 107.44686 L 47.187187 110.273125 L 66.85177 49.84614 Z"/>
		<path style="fill-rule:nonzero;fill:#df7b5a;fill-opacity:1;" d="M 65.70104 50.408928 L 64.986755 50.75827 L 63.1508 51.58349 L 61.34413 52.323406 L 59.567 52.97963 L 57.81964 53.553772 L 56.102303 54.047432 L 54.415226 54.462227 L 52.758648 54.79976 L 51.13282 55.061638 L 49.537983 55.249466 L 47.974373 55.364857 L 46.442234 55.40942 L 44.94182 55.384754 L 43.47336 55.29248 L 42.0371 55.134193 L 40.633286 54.911507 L 39.262157 54.62603 L 37.92396 54.27937 L 36.618935 53.87313 L 35.34732 53.40892 L 34.109367 52.888355 L 33.62469 52.65677 L 22.72513 88.06885 L 22.72513 88.06885 L 23.818321 89.335075 L 26.7323 92.48213 L 29.796988 95.58021 L 33.006847 98.627525 L 36.356342 101.62227 L 39.83992 104.562645 L 43.452053 107.44686 L 47.187187 110.273125 L 48.813343 105.27614 L 64.69071 53.691463 L 65.70104 50.408928 Z"/>
		<path style="fill-rule:nonzero;fill:#cf5c36;fill-opacity:1;" d="M 27.448118 48.708282 L 10.970131 71.64591 L 10.970131 71.64591 L 11.70308 72.928116 L 13.780373 76.293076 L 16.036083 79.61804 L 18.464674 82.90123 L 21.0606 86.14085 L 23.818321 89.335075 L 26.7323 92.48213 L 29.796988 95.58021 L 30.33054 96.08675 L 58.937393 56.26555 L 61.946617 52.07666 L 61.946617 52.07666 L 61.34413 52.323406 L 59.567 52.97963 L 57.81964 53.553772 L 56.102303 54.047432 L 54.415226 54.462227 L 52.758648 54.79976 L 51.13282 55.061638 L 49.537983 55.249466 L 47.974373 55.364857 L 46.442234 55.40942 L 44.94182 55.384754 L 43.47336 55.29248 L 42.0371 55.134193 L 40.633286 54.911507 L 39.262157 54.62603 L 37.92396 54.27937 L 36.618935 53.87313 L 35.34732 53.40892 L 34.109367 52.888355 L 32.90531 52.31303 L 31.735395 51.684563 L 30.599867 51.004555 L 29.498966 50.27462 L 28.432934 49.49636 L 27.448118 48.708282 Z"/>
		<path style="fill-rule:nonzero;fill:#df7b5a;fill-opacity:1;" d="M 21.81386 42.61215 L 4.312457 55.990635 L 4.312457 55.990635 L 4.711778 57.339176 L 5.288929 59.104378 L 5.9176106 60.861828 L 6.5971313 62.6113 L 7.326798 64.35258 L 8.105918 66.085434 L 8.9338 67.80964 L 9.809748 69.52497 L 10.733073 71.2312 L 11.70308 72.928116 L 13.780373 76.293076 L 16.036083 79.61804 L 18.461668 82.89717 L 18.461668 82.89717 L 52.941387 56.540062 L 56.262375 54.00142 L 56.102303 54.047432 L 54.415226 54.462227 L 52.758648 54.79976 L 51.13282 55.061638 L 49.537983 55.249466 L 47.974373 55.364857 L 46.442234 55.40942 L 44.94182 55.384754 L 43.47336 55.29248 L 42.0371 55.134193 L 40.633286 54.911507 L 39.262157 54.62603 L 37.92396 54.27937 L 36.618935 53.87313 L 35.34732 53.40892 L 34.109367 52.888355 L 32.90531 52.31303 L 31.735395 51.684563 L 30.599867 51.004555 L 29.498966 50.27462 L 28.432934 49.49636 L 27.402014 48.671387 L 26.406448 47.801308 L 25.446482 46.887726 L 24.522354 45.932255 L 23.63431 44.9365 L 22.78259 43.90207 L 21.96744 42.830566 L 21.81386 42.61215 Z"/>
		<path style="fill-rule:nonzero;fill:#cf5c36;fill-opacity:1;" d="M 17.130943 33.96033 L 1.9423711 40.504448 L 1.9423711 40.504448 L 1.950624 41.140717 L 2.0328226 42.96555 L 2.1727862 44.78466 L 2.3698227 46.597816 L 2.6232393 48.404797 L 2.932343 50.20537 L 3.2964413 51.999325 L 3.7148418 53.786427 L 4.1868515 55.566452 L 4.711778 57.339176 L 5.288929 59.104378 L 5.9176106 60.861828 L 6.5971313 62.6113 L 7.326798 64.35258 L 8.105918 66.085434 L 8.9338 67.80964 L 9.809748 69.52497 L 9.902402 69.69619 L 9.902402 69.69619 L 43.36136 55.280136 L 43.36136 55.280136 L 42.0371 55.134193 L 40.633286 54.911507 L 39.262157 54.62603 L 37.92396 54.27937 L 36.618935 53.87313 L 35.34732 53.40892 L 34.109367 52.888355 L 32.90531 52.31303 L 31.735395 51.684563 L 30.599867 51.004555 L 29.498966 50.27462 L 28.432934 49.49636 L 27.402014 48.671387 L 26.406448 47.801308 L 25.446482 46.887726 L 24.522354 45.932255 L 23.63431 44.9365 L 22.78259 43.90207 L 21.96744 42.830566 L 21.189098 41.723606 L 20.44781 40.582794 L 19.743816 39.409733 L 19.07736 38.20604 L 18.448687 36.973312 L 17.858036 35.713165 L 17.30565 34.427204 L 17.130943 33.96033 Z"/>
		<path style="fill-rule:nonzero;fill:#df7b5a;fill-opacity:1;" d="M 14.301367 23.448153 L 3.6414416 25.62348 L 3.6414416 25.62348 L 3.4557054 26.362795 L 3.050846 28.225363 L 2.709293 30.084002 L 2.4303539 31.938484 L 2.2133362 33.78859 L 2.0575469 35.634087 L 1.9622935 37.47476 L 1.9268833 39.310375 L 1.950624 41.140717 L 2.0328226 42.96555 L 2.1727862 44.78466 L 2.3698227 46.597816 L 2.6232393 48.404797 L 2.932343 50.20537 L 3.2964413 51.999325 L 3.7148418 53.786427 L 4.1868515 55.566452 L 4.331018 56.053314 L 4.331018 56.053314 L 30.24026 50.766125 L 30.24026 50.766125 L 29.498966 50.27462 L 28.432934 49.49636 L 27.402014 48.671387 L 26.406448 47.801308 L 25.446482 46.887726 L 24.522354 45.932255 L 23.63431 44.9365 L 22.78259 43.90207 L 21.96744 42.830566 L 21.189098 41.723606 L 20.44781 40.582794 L 19.743816 39.409733 L 19.07736 38.20604 L 18.448687 36.973312 L 17.858036 35.713165 L 17.30565 34.427204 L 16.316648 31.784267 L 15.483619 29.05737 L 14.808504 26.259369 L 14.301367 23.448153 Z"/>
		<path style="fill-rule:nonzero;fill:#cf5c36;fill-opacity:1;" d="M 13.838506 12.293519 L 8.54897 12.370542 L 8.54897 12.370542 L 8.120488 13.233649 L 7.2530885 15.117436 L 6.453844 16.998867 L 5.722062 18.877716 L 5.0570498 20.753757 L 4.4581146 22.626768 L 3.9245641 24.496523 L 3.4557054 26.362795 L 3.050846 28.225363 L 2.709293 30.084002 L 2.4303539 31.938484 L 2.2133362 33.78859 L 2.0575469 35.634087 L 1.9622935 37.47476 L 1.9268833 39.310375 L 1.950624 41.140717 L 2.0082605 42.420265 L 2.0082605 42.420265 L 21.479584 42.136734 L 21.479584 42.136734 L 21.189098 41.723606 L 20.44781 40.582794 L 19.743816 39.409733 L 19.07736 38.20604 L 18.448687 36.973312 L 17.858036 35.713165 L 17.30565 34.427204 L 16.316648 31.784267 L 15.483619 29.05737 L 14.808504 26.259369 L 14.293244 23.403128 L 13.93978 20.501509 L 13.7500515 17.567375 L 13.726001 14.613585 L 13.838506 12.293519 Z"/>
		<path style="fill-rule:nonzero;fill:#df7b5a;fill-opacity:1;" d="M 14.986914 1.6273987 L 14.794933 1.8939987 L 13.504057 3.7872133 L 12.285491 5.679417 L 11.138545 7.570388 L 10.062524 9.459899 L 9.056736 11.347729 L 8.120488 13.233649 L 7.2530885 15.117436 L 6.453844 16.998867 L 5.722062 18.877716 L 5.0570498 20.753757 L 4.4581146 22.626768 L 3.9245641 24.496523 L 3.4557054 26.362795 L 3.050846 28.225363 L 2.7551303 29.834568 L 2.7551303 29.834568 L 16.534208 32.36566 L 16.534208 32.36566 L 16.316648 31.784267 L 15.483619 29.05737 L 14.808504 26.259369 L 14.293244 23.403128 L 13.93978 20.501509 L 13.7500515 17.567375 L 13.726001 14.613585 L 13.869567 11.653006 L 14.18269 8.698495 L 14.667313 5.762916 L 15.325374 2.859129 L 15.63138 1.7457813 L 14.986914 1.6273987 Z"/>
		<path style="fill-rule:nonzero;fill:#cf5c36;fill-opacity:1;" d="M 16.158813 0.0 L 14.794933 1.8939987 L 13.504057 3.7872133 L 12.285491 5.679417 L 11.138545 7.570388 L 10.062524 9.459899 L 9.056736 11.347729 L 8.120488 13.233649 L 7.2530885 15.117436 L 6.453844 16.998867 L 5.722062 18.877716 L 5.54968 19.364016 L 5.54968 19.364016 L 14.289938 23.375986 L 14.289938 23.375986 L 13.93978 20.501509 L 13.7500515 17.567375 L 13.726001 14.613585 L 13.869567 11.653006 L 14.18269 8.698495 L 14.667313 5.762916 L 15.325374 2.859129 L 15.720049 1.423179 L 16.158813 0.0 Z"/>
		<path style="fill-rule:nonzero;fill:url(#paint-id-0);fill-opacity:1;" d="M 47.187187 110.273125 C 6.7094035 80.441895 -13.720928 40.412075 16.158813 0.0 C 6.3265257 30.213491 26.756855 70.24331 66.85177 49.84614 Z"/>
		<path style="fill-rule:nonzero;fill:url(#paint-id-1);fill-opacity:1;" d="M 47.187187 110.273125 C 6.7094035 80.441895 -13.720928 40.412075 16.158813 0.0 C 0.19742659 18.204546 6.7094035 80.441895 57.019478 80.05963 Z"/>
		<path style="fill-rule:nonzero;fill:#cf5c36;fill-opacity:1;" d="M 220.96751 54.834236 L 240.6321 115.261215 L 244.36722 112.43496 L 245.59897 111.45142 L 245.9905 60.08924 L 245.7822 60.122284 L 244.34592 60.28057 L 242.87746 60.372845 L 241.37704 60.397507 L 239.84491 60.352947 L 238.2813 60.237556 L 236.68645 60.04973 L 235.06064 59.78785 L 233.40405 59.450317 L 231.71696 59.035522 L 229.99965 58.541862 L 228.25227 57.96772 L 226.47514 57.311497 L 224.66849 56.57158 L 222.83253 55.746357 L 220.96751 54.834236 Z"/>
		<path style="fill-rule:nonzero;fill:#df7b5a;fill-opacity:1;" d="M 222.11824 55.397015 L 223.12857 58.679558 L 239.00633 110.26538 L 240.6321 115.261215 L 244.36722 112.43496 L 247.97937 109.55074 L 251.46295 106.61036 L 254.81242 103.615616 L 258.02228 100.568306 L 261.08698 97.47022 L 264.00095 94.323166 L 265.09418 93.05692 L 254.19458 57.644863 L 253.70993 57.876442 L 252.47195 58.39701 L 251.20035 58.86122 L 249.89531 59.26746 L 248.55713 59.61412 L 247.18599 59.899597 L 245.7822 60.122284 L 244.34592 60.28057 L 242.87746 60.372845 L 241.37704 60.397507 L 239.84491 60.352947 L 238.2813 60.237556 L 236.68645 60.04973 L 235.06064 59.78785 L 233.40405 59.450317 L 231.71696 59.035522 L 229.99965 58.541862 L 228.25227 57.96772 L 226.47514 57.311497 L 224.66849 56.57158 L 222.83253 55.746357 L 222.11824 55.397015 Z"/>
		<path style="fill-rule:nonzero;fill:#cf5c36;fill-opacity:1;" d="M 260.37115 53.696377 L 259.38635 54.48445 L 258.3203 55.26271 L 257.21942 55.992645 L 256.0839 56.672653 L 254.91396 57.30112 L 253.70993 57.876442 L 252.47195 58.39701 L 251.20035 58.86122 L 249.89531 59.26746 L 248.55713 59.61412 L 247.18599 59.899597 L 245.7822 60.122284 L 244.34592 60.28057 L 242.87746 60.372845 L 241.37704 60.397507 L 239.84491 60.352947 L 238.2813 60.237556 L 236.68645 60.04973 L 235.06064 59.78785 L 233.40405 59.450317 L 231.71696 59.035522 L 229.99965 58.541862 L 228.25227 57.96772 L 226.47514 57.311497 L 225.87263 57.06474 L 228.88188 61.25365 L 257.48877 101.074814 L 258.02228 100.568306 L 261.08698 97.47022 L 264.00095 94.323166 L 266.7587 91.12894 L 269.3546 87.88933 L 271.7832 84.60614 L 274.0389 81.281166 L 276.1162 77.91621 L 276.84915 76.63398 L 260.37115 53.696377 Z"/>
		<path style="fill-rule:nonzero;fill:#df7b5a;fill-opacity:1;" d="M 266.0054 47.600235 L 265.85184 47.818657 L 265.03668 48.890156 L 264.18497 49.924587 L 263.2969 50.920345 L 262.3728 51.875816 L 261.41284 52.789394 L 260.41727 53.659477 L 259.38635 54.48445 L 258.3203 55.26271 L 257.21942 55.992645 L 256.0839 56.672653 L 254.91396 57.30112 L 253.70993 57.876442 L 252.47195 58.39701 L 251.20035 58.86122 L 249.89531 59.26746 L 248.55713 59.61412 L 247.18599 59.899597 L 245.7822 60.122284 L 244.34592 60.28057 L 242.87746 60.372845 L 241.37704 60.397507 L 239.84491 60.352947 L 238.2813 60.237556 L 236.68645 60.04973 L 235.06064 59.78785 L 233.40405 59.450317 L 231.71696 59.035522 L 231.55688 58.98951 L 234.8779 61.528164 L 269.35764 87.885254 L 271.7832 84.60614 L 274.0389 81.281166 L 276.1162 77.91621 L 277.0862 76.2193 L 278.00952 74.51306 L 278.8855 72.79773 L 279.71335 71.073524 L 280.4925 69.34067 L 281.22214 67.59939 L 281.90167 65.849915 L 282.53036 64.09247 L 283.1075 62.327267 L 283.50684 60.978706 L 266.0054 47.600235 Z"/>
		<path style="fill-rule:nonzero;fill:#cf5c36;fill-opacity:1;" d="M 270.68832 38.94842 L 270.51364 39.415295 L 269.96124 40.701256 L 269.3706 41.961403 L 268.7419 43.19413 L 268.07547 44.397823 L 267.37146 45.57088 L 266.6302 46.711697 L 265.85184 47.818657 L 265.03668 48.890156 L 264.18497 49.924587 L 263.2969 50.920345 L 262.3728 51.875816 L 261.41284 52.789394 L 260.41727 53.659477 L 259.38635 54.48445 L 258.3203 55.26271 L 257.21942 55.992645 L 256.0839 56.672653 L 254.91396 57.30112 L 253.70993 57.876442 L 252.47195 58.39701 L 251.20035 58.86122 L 249.89531 59.26746 L 248.55713 59.61412 L 247.18599 59.899597 L 245.7822 60.122284 L 244.4579 60.268227 L 244.4579 60.268227 L 277.91687 74.684265 L 278.00952 74.51306 L 278.8855 72.79773 L 279.71335 71.073524 L 280.4925 69.34067 L 281.22214 67.59939 L 281.90167 65.849915 L 282.53036 64.09247 L 283.1075 62.327267 L 283.63242 60.55454 L 284.10446 58.774517 L 284.52286 56.987415 L 284.88693 55.193462 L 285.19604 53.392887 L 285.44946 51.585907 L 285.64648 49.77275 L 285.78647 47.95364 L 285.86865 46.128807 L 285.87692 45.492523 L 285.87692 45.492523 L 270.68832 38.94842 Z"/>
		<path style="fill-rule:nonzero;fill:#df7b5a;fill-opacity:1;" d="M 273.5179 28.436226 L 273.01077 31.247458 L 272.33566 34.04546 L 271.50262 36.772358 L 270.51364 39.415295 L 269.96124 40.701256 L 269.3706 41.961403 L 268.7419 43.19413 L 268.07547 44.397823 L 267.37146 45.57088 L 266.6302 46.711697 L 265.85184 47.818657 L 265.03668 48.890156 L 264.18497 49.924587 L 263.2969 50.920345 L 262.3728 51.875816 L 261.41284 52.789394 L 260.41727 53.659477 L 259.38635 54.48445 L 258.3203 55.26271 L 257.57904 55.75421 L 283.48828 61.04138 L 283.63242 60.55454 L 284.10446 58.774517 L 284.52286 56.987415 L 284.88693 55.193462 L 285.19604 53.392887 L 285.44946 51.585907 L 285.64648 49.77275 L 285.78647 47.95364 L 285.86865 46.128807 L 285.8924 44.298466 L 285.857 42.46285 L 285.76175 40.622177 L 285.60593 38.77668 L 285.38895 36.926575 L 285.11 35.07209 L 284.76843 33.213455 L 284.36356 31.350885 L 284.17783 30.611544 L 273.5179 28.436226 Z"/>
		<path style="fill-rule:nonzero;fill:#cf5c36;fill-opacity:1;" d="M 273.98077 17.2816 L 274.09326 19.601677 L 274.06924 22.555466 L 273.8795 25.4896 L 273.52603 28.391218 L 273.01077 31.247458 L 272.33566 34.04546 L 271.50262 36.772358 L 270.51364 39.415295 L 269.96124 40.701256 L 269.3706 41.961403 L 268.7419 43.19413 L 268.07547 44.397823 L 267.37146 45.57088 L 266.6302 46.711697 L 266.3397 47.124825 L 266.3397 47.124825 L 285.811 47.408337 L 285.811 47.408337 L 285.86865 46.128807 L 285.8924 44.298466 L 285.857 42.46285 L 285.76175 40.622177 L 285.60593 38.77668 L 285.38895 36.926575 L 285.11 35.07209 L 284.76843 33.213455 L 284.36356 31.350885 L 283.8947 29.484613 L 283.36115 27.614859 L 282.76224 25.741848 L 282.09723 23.865807 L 281.36545 21.986958 L 280.5662 20.105528 L 279.6988 18.221739 L 279.2703 17.358618 L 279.2703 17.358618 L 273.98077 17.2816 Z"/>
		<path style="fill-rule:nonzero;fill:#df7b5a;fill-opacity:1;" d="M 272.83237 6.6154695 L 272.1879 6.733852 L 272.1879 6.733852 L 272.49393 7.847221 L 273.15198 10.751007 L 273.6366 13.686585 L 273.9497 16.641096 L 274.09326 19.601677 L 274.06924 22.555466 L 273.8795 25.4896 L 273.52603 28.391218 L 273.01077 31.247458 L 272.33566 34.04546 L 271.50262 36.772358 L 271.28506 37.35374 L 271.28506 37.35374 L 285.06415 34.822628 L 284.76843 33.213455 L 284.36356 31.350885 L 283.8947 29.484613 L 283.36115 27.614859 L 282.76224 25.741848 L 282.09723 23.865807 L 281.36545 21.986958 L 280.5662 20.105528 L 279.6988 18.221739 L 278.76254 16.33582 L 277.75674 14.44799 L 276.68073 12.558478 L 275.53378 10.667507 L 274.31522 8.775303 L 273.02435 6.882089 L 272.83237 6.6154695 Z"/>
		<path style="fill-rule:nonzero;fill:#cf5c36;fill-opacity:1;" d="M 271.66046 4.9880905 L 272.09924 6.4112697 L 272.49393 7.847221 L 273.15198 10.751007 L 273.6366 13.686585 L 273.9497 16.641096 L 274.09326 19.601677 L 274.06924 22.555466 L 273.8795 25.4896 L 273.52936 28.36403 L 282.2696 24.352053 L 282.09723 23.865807 L 281.36545 21.986958 L 280.5662 20.105528 L 279.6988 18.221739 L 278.76254 16.33582 L 277.75674 14.44799 L 276.68073 12.558478 L 275.53378 10.667507 L 274.31522 8.775303 L 273.02435 6.882089 L 271.66046 4.9880905 Z"/>
		<path style="fill-rule:nonzero;fill:url(#paint-id-2);fill-opacity:1;" d="M 240.6321 115.261215 C 281.10986 85.42998 301.54022 45.400166 271.66046 4.9880905 C 281.49274 35.20158 261.06244 75.2314 220.96751 54.834236 Z"/>
		<path style="fill-rule:nonzero;fill:url(#paint-id-3);fill-opacity:1;" d="M 240.6321 115.261215 C 281.10986 85.42998 301.54022 45.400166 271.66046 4.9880905 C 287.62186 23.192636 281.10986 85.42998 230.79982 85.04772 Z"/>
		<path style="fill-rule:nonzero;fill:#000000;fill-opacity:0.15686275;" d="M 77.25999 442.6382 L 76.53239 442.81982 L 70.5353 444.34344 L 68.0943 445.0134 L 65.991425 445.65472 L 64.20148 446.2919 L 62.6993 446.94937 L 61.459698 447.65158 L 60.930496 448.02707 L 60.457493 448.42294 L 60.03754 448.84225 L 59.667496 449.288 L 59.34421 449.7633 L 59.064537 450.27115 L 58.82532 450.81464 L 58.623425 451.39682 L 58.31898 452.68954 L 58.12603 454.17368 L 58.019382 455.8738 L 57.97386 457.8142 L 57.964283 460.01947 L 58.714283 460.01947 L 58.714283 460.76825 L 59.464283 460.76825 L 59.464283 460.01947 L 59.4795 456.2386 L 59.539845 454.69714 L 59.672085 453.35654 L 59.903778 452.19305 L 60.06553 451.67026 L 60.26247 451.1828 L 60.49805 450.7277 L 60.77572 450.30203 L 61.09891 449.90274 L 61.47108 449.52692 L 61.895657 449.17154 L 62.376095 448.83362 L 63.51833 448.19843 L 64.92533 447.59744 L 66.62465 447.00687 L 68.643845 446.40292 L 71.01046 445.76178 L 76.89619 444.2727 L 77.623795 444.0911 L 77.25999 442.6382 Z M 222.73999 442.6382 L 222.3762 444.0911 L 223.1038 444.2727 L 228.98955 445.76178 L 231.35616 446.40292 L 233.37535 447.00687 L 235.07466 447.59744 L 236.48167 448.19843 L 237.6239 448.83362 L 238.10432 449.17154 L 238.52893 449.52692 L 238.9011 449.90274 L 239.22427 450.30203 L 239.50195 450.7277 L 239.73752 451.1828 L 239.93446 451.67026 L 240.09622 452.19305 L 240.32791 453.35654 L 240.46016 454.69714 L 240.5205 456.2386 L 240.53572 460.01947 L 240.53572 460.76825 L 241.28572 460.76825 L 241.28572 460.01947 L 242.03572 460.01947 L 242.02612 457.8142 L 241.9806 455.8738 L 241.87396 454.17368 L 241.68102 452.68954 L 241.37656 451.39682 L 241.17467 450.81464 L 240.93546 450.27115 L 240.65579 449.7633 L 240.33249 449.288 L 239.96246 448.84225 L 239.54251 448.42294 L 239.0695 448.02707 L 238.5403 447.65158 L 237.3007 446.94937 L 235.79851 446.2919 L 234.00858 445.65472 L 231.9057 445.0134 L 229.4647 444.34344 L 223.4676 442.81982 L 222.73999 442.6382 Z M 89.21714 448.60416 L 88.49877 448.81934 L 85.57229 449.68756 L 81.29948 450.9728 L 79.473 451.56763 L 77.84058 452.15695 L 76.39283 452.7606 L 75.12033 453.39832 L 74.013664 454.09 L 73.06344 454.85544 L 72.26025 455.7144 L 71.59466 456.6867 L 71.05729 457.79214 L 70.63872 459.05054 L 70.32954 460.48172 L 70.120346 462.1054 L 70.00173 463.9415 L 69.96429 466.00974 L 70.71429 466.00974 L 70.71429 466.7585 L 71.46429 466.7585 L 71.46429 466.00974 L 71.491356 464.13147 L 71.580475 462.46902 L 71.74354 461.00317 L 71.99242 459.71487 L 72.339 458.58484 L 72.79516 457.59402 L 73.37278 456.72318 L 74.08375 455.9532 L 74.93993 455.26486 L 75.95323 454.63904 L 77.135506 454.05655 L 78.49865 453.49826 L 80.05455 452.94498 L 81.81508 452.3776 L 85.997536 451.12372 L 88.929794 450.25372 L 89.64817 450.03857 L 89.21714 448.60416 Z M 210.78284 448.60416 L 210.35184 450.03857 L 211.0702 450.25372 L 214.00246 451.12372 L 218.18492 452.3776 L 219.94543 452.94498 L 221.50133 453.49826 L 222.86449 454.05655 L 224.04677 454.63904 L 225.06006 455.26486 L 225.91626 455.9532 L 226.62721 456.72318 L 227.20483 457.59402 L 227.661 458.58484 L 228.00757 459.71487 L 228.25645 461.00317 L 228.41951 462.46902 L 228.50864 464.13147 L 228.53572 466.00974 L 228.53572 466.7585 L 229.28572 466.7585 L 229.28572 466.00974 L 230.03572 466.00974 L 229.99828 463.9415 L 229.87964 462.1054 L 229.67044 460.48172 L 229.36127 459.05054 L 228.94272 457.79214 L 228.40535 456.6867 L 227.73976 455.7144 L 226.93657 454.85544 L 225.98634 454.09 L 224.87967 453.39832 L 223.60716 452.7606 L 222.15941 452.15695 L 220.52701 451.56763 L 218.7005 450.9728 L 214.42772 449.68756 L 211.50124 448.81934 L 210.78284 448.60416 Z"/>
		<path style="fill-rule:nonzero;fill:#baa5ff;fill-opacity:1;" d="M 142.22955 29.048756 L 110.449066 27.674767 C 81.10248 26.406002 45.818302 53.779736 39.880722 82.42223 L 0.9259676 270.33746 C -5.0116115 298.97995 18.424074 327.38312 47.79734 327.14377 L 151.56337 326.2983 L 255.3294 325.45282 C 284.70267 325.2135 306.22284 296.7925 298.36972 268.61087 L 248.40944 89.32359 C 240.55634 61.141933 203.35663 31.69151 174.01004 30.422747 L 142.22955 29.048756 Z"/>
		<path style="fill-rule:nonzero;fill:#000000;fill-opacity:0.078431375;" d="M 242.47215 75.723145 L 286.86752 253.08847 L 287.46222 255.8125 L 287.88528 258.5327 L 288.1409 261.2437 L 288.23322 263.94012 L 288.16638 266.6166 L 287.94464 269.26776 L 287.57202 271.88824 L 287.0528 274.47272 L 286.39108 277.01575 L 285.59103 279.512 L 284.65683 281.9561 L 283.59262 284.34265 L 282.4026 286.66635 L 281.09085 288.92178 L 279.66162 291.10358 L 278.11902 293.20636 L 276.46722 295.22482 L 274.7104 297.15353 L 272.8527 298.98712 L 270.89825 300.72028 L 268.85132 302.3476 L 266.71594 303.86368 L 264.49634 305.26318 L 262.19672 306.54077 L 259.82114 307.69104 L 257.37384 308.70862 L 254.85893 309.58817 L 252.28062 310.32428 L 249.64307 310.91162 L 246.95038 311.34482 L 244.20677 311.61844 L 241.41638 311.72723 L 14.95193 313.70245 L 14.95193 313.70245 L 16.509766 315.15845 L 18.4932 316.8273 L 20.562918 318.39075 L 22.71463 319.8436 L 24.944046 321.18063 L 27.246872 322.3966 L 29.618816 323.4864 L 32.05559 324.44476 L 34.552906 325.26648 L 37.106464 325.94638 L 39.71198 326.47928 L 42.365158 326.85995 L 45.06171 327.0832 L 47.79734 327.14377 L 151.56337 326.2983 L 255.3294 325.45282 L 258.05948 325.3487 L 260.7396 325.08466 L 263.36584 324.66586 L 265.93423 324.09756 L 268.44086 323.38498 L 270.88174 322.53326 L 273.253 321.54767 L 275.55063 320.43335 L 277.77075 319.19556 L 279.90936 317.83945 L 281.9626 316.37027 L 283.92645 314.7932 L 285.797 313.11346 L 287.57028 311.33627 L 289.24243 309.46677 L 290.80945 307.51022 L 292.2674 305.4718 L 293.61234 303.35672 L 294.84033 301.1702 L 295.94745 298.91745 L 296.92978 296.6036 L 297.7833 294.23395 L 298.50415 291.81366 L 299.08832 289.3479 L 299.53192 286.84192 L 299.831 284.30093 L 299.9816 281.73013 L 299.9798 279.13467 L 299.82166 276.51984 L 299.5032 273.89078 L 299.02054 271.25272 L 298.36972 268.61087 L 248.40944 89.32359 L 247.58836 86.67874 L 246.60216 84.03185 L 245.45761 81.38831 L 244.16158 78.75352 L 242.72081 76.13286 L 242.47215 75.723145 Z"/>
		<path style="fill-rule:nonzero;fill:#ffffff;fill-opacity:0.19607843;" d="M 107.68151 27.638897 L 104.88561 27.765844 L 102.06785 28.050592 L 99.23468 28.488132 L 96.39256 29.07345 L 93.547966 29.801533 L 90.70734 30.66737 L 87.877144 31.665947 L 85.06384 32.79225 L 82.273895 34.041275 L 79.51377 35.408005 L 76.789925 36.887424 L 74.10881 38.47452 L 71.4769 40.16429 L 68.90065 41.951714 L 66.38651 43.831776 L 63.94096 45.799473 L 61.570454 47.849785 L 59.28145 49.977707 L 57.080406 52.17822 L 54.97378 54.446316 L 52.968052 56.77698 L 51.06966 59.1652 L 49.28508 61.60597 L 47.62076 64.09427 L 46.083176 66.625084 L 44.678772 69.19341 L 43.41402 71.794235 L 42.29538 74.42254 L 41.32931 77.07331 L 40.52227 79.741554 L 39.880722 82.42223 L 0.9259676 270.33746 L 0.45465878 273.02112 L 0.15116784 275.69818 L 0.0112034455 278.36343 L 0.030474428 281.0117 L 0.20468958 283.63776 L 0.5295577 286.2364 L 1.0007876 288.80243 L 1.614088 291.33066 L 2.3651679 293.8159 L 3.2497358 296.2529 L 3.5711827 297.0087 L 3.5711827 297.0087 L 50.473537 86.57181 L 51.17117 83.83429 L 52.03783 81.10698 L 53.06683 78.395065 L 54.251488 75.703766 L 55.58512 73.03826 L 57.061043 70.40376 L 58.67257 67.80545 L 60.413017 65.24853 L 62.275696 62.738197 L 64.25394 60.279644 L 66.34104 57.87808 L 68.53033 55.53868 L 70.81512 53.266663 L 73.18873 51.06721 L 75.64447 48.94553 L 78.17565 46.90681 L 80.77561 44.95625 L 83.43764 43.09905 L 86.15507 41.340397 L 88.92121 39.685497 L 91.72938 38.13954 L 94.57289 36.707733 L 97.44507 35.39526 L 100.33921 34.207325 L 103.24865 33.149124 L 106.1667 32.225853 L 109.08667 31.442707 L 112.001884 30.804884 L 114.90565 30.317581 L 117.79129 29.985994 L 120.652115 29.81532 L 123.48144 29.810755 L 182.40573 31.492159 L 179.59547 30.983704 L 176.78316 30.623358 L 174.01004 30.422747 L 142.22955 29.048756 L 110.449066 27.674767 L 107.68151 27.638897 Z"/>
		<path style="fill-rule:nonzero;fill:#baa5ff;fill-opacity:1;" d="M 85.71429 300.18912 C 88.16852 352.14075 88.16852 378.11655 85.71429 430.06818 C 52.714283 439.05356 43.714283 433.06332 46.714283 460.01947 L 58.714283 460.01947 L 58.714283 466.00974 L 70.71429 466.00974 L 70.71429 472.0 L 82.71429 472.0 C 118.71429 460.01947 118.71429 460.01947 109.71429 430.06818 C 112.16852 378.11655 112.16852 309.77353 109.71429 300.18912 M 214.28572 300.18912 C 211.83148 352.14075 211.83148 378.11655 214.28572 430.06818 C 247.28572 439.05356 256.2857 433.06332 253.28572 460.01947 L 241.28572 460.01947 L 241.28572 466.00974 L 229.28572 466.00974 L 229.28572 472.0 L 217.28572 472.0 C 181.2857 460.01947 181.2857 460.01947 190.2857 430.06818 C 187.83148 378.11655 187.83148 309.77353 190.2857 300.18912"/>
		<path style="fill-rule:nonzero;fill:url(#paint-id-4);fill-opacity:1;" d="M 85.71429 300.18912 C 86.89424 325.16672 87.5069 344.1399 87.55224 362.8823 L 87.55224 362.8823 C 87.59845 343.78192 87.05547 324.92114 85.92331 300.18912 Z M 214.07668 300.18912 C 212.94452 324.92114 212.40154 343.78192 212.44775 362.8823 L 212.44775 362.8823 C 212.49309 344.1399 213.10574 325.16672 214.28572 300.18912 Z M 111.553276 347.00925 C 111.5173 371.3402 110.90431 400.3848 109.71429 425.5755 C 109.77412 425.77463 109.83355 425.97235 109.89258 426.16885 L 109.89258 426.16885 C 111.03607 400.3217 111.589645 370.983 111.553276 347.00925 Z M 188.44672 347.00912 L 188.44672 347.00912 C 188.41035 370.98288 188.96393 400.32162 190.10742 426.16885 L 190.10742 426.16885 C 190.16644 425.97235 190.22588 425.77463 190.2857 425.5755 C 189.09569 400.38474 188.4827 371.34012 188.44672 347.00912 Z M 46.230354 449.65494 L 46.230354 449.65494 C 46.07148 452.43335 46.247826 455.82816 46.714283 460.01947 L 58.714283 460.01947 L 58.714283 455.5268 L 46.714283 455.5268 C 46.473812 453.36603 46.310444 451.417 46.230354 449.65494 Z M 253.76964 449.6549 L 253.76964 449.6549 C 253.68956 451.417 253.52618 453.36603 253.28572 455.5268 L 241.28572 455.5268 L 241.28572 460.01947 L 253.28572 460.01947 C 253.75218 455.82816 253.92851 452.43335 253.76964 449.6549 Z M 58.714283 461.51706 L 58.714283 466.00974 L 70.71429 466.00974 L 70.71429 461.51706 Z M 229.28572 461.51706 L 229.28572 466.00974 L 241.28572 466.00974 L 241.28572 461.51706 Z M 114.57429 449.18933 C 113.416306 457.28992 104.90388 460.12277 82.71429 467.5073 L 70.71429 467.5073 L 70.71429 472.0 L 82.71429 472.0 C 108.57141 463.39496 115.856575 460.9705 114.57429 449.18933 Z M 185.4257 449.18933 L 185.4257 449.18933 C 184.14342 460.9705 191.42859 463.39496 217.28572 472.0 L 229.28572 472.0 L 229.28572 467.5073 L 217.28572 467.5073 C 195.09613 460.12277 186.5837 457.28992 185.4257 449.18933 Z"/>
		<path style="fill-rule:nonzero;fill:url(#paint-id-5);fill-opacity:1;" d="M 217.18121 430.83514 C 217.21555 431.5726 217.25038 432.31528 217.28572 433.06332 C 235.23387 437.95032 246.0826 438.40738 251.76256 442.1445 L 251.76256 442.1445 C 247.67249 435.70508 237.15834 435.98056 217.18121 430.83514 Z M 251.76256 442.1445 C 251.76256 442.1445 251.76256 442.1445 251.76256 442.1445 L 251.76256 442.1445 C 251.76256 442.1445 251.76256 442.1445 251.76256 442.1445 Z M 190.2857 300.18912 C 189.09569 304.8365 188.4827 323.299 188.44672 347.00912 L 188.44672 347.00912 C 188.4827 371.34012 189.09569 400.38474 190.2857 425.5755 C 190.22588 425.77463 190.16644 425.97235 190.10742 426.16885 L 190.10742 426.16885 C 190.16534 427.47797 190.22476 428.77814 190.2857 430.06818 C 187.75 438.50684 185.92871 444.56793 185.4257 449.18933 L 185.4257 449.18933 C 185.75153 451.46848 186.65952 453.33066 188.29056 454.9945 L 188.29056 454.9945 C 188.17319 450.07742 190.20071 443.32996 193.28572 433.06332 C 190.83148 381.1117 190.83148 312.76865 193.28572 303.18423 L 213.94118 303.18423 C 213.98538 302.19534 214.03053 301.1971 214.07668 300.18912 Z M 85.92331 300.18912 C 87.05547 324.92114 87.59845 343.78192 87.55224 362.8823 L 87.55224 362.8823 C 87.60121 383.12277 86.988556 403.09415 85.71429 430.06818 C 57.845333 437.65646 47.093266 434.5641 46.230354 449.65494 L 46.230354 449.65494 C 46.310444 451.417 46.473812 453.36603 46.714283 455.5268 L 49.179565 455.5268 C 48.88042 437.1557 59.1958 441.10074 88.71429 433.06332 C 91.16852 381.1117 91.16852 355.13586 88.71429 303.18423 L 110.21087 303.18423 C 110.058334 301.8943 109.89279 300.88626 109.71429 300.18912 Z M 190.08853 461.0348 C 190.08853 461.0348 190.08853 461.0348 190.08853 461.0348 L 190.08853 461.0348 C 190.08853 461.0348 190.08853 461.0348 190.08853 461.0348 Z"/>
		<path style="fill-rule:nonzero;fill:#000000;fill-opacity:0.15686275;" d="M 77.25999 442.6382 L 76.53239 442.81982 L 70.5353 444.34344 L 68.0943 445.0134 L 65.991425 445.65472 L 64.20148 446.2919 L 62.6993 446.94937 L 61.459698 447.65158 L 60.930496 448.02707 L 60.457493 448.42294 L 60.03754 448.84225 L 59.667496 449.288 L 59.34421 449.7633 L 59.064537 450.27115 L 58.82532 450.81464 L 58.623425 451.39682 L 58.31898 452.68954 L 58.12603 454.17368 L 58.019382 455.8738 L 57.97386 457.8142 L 57.964283 460.01947 L 58.714283 460.01947 L 58.714283 460.76825 L 59.464283 460.76825 L 59.464283 460.01947 L 59.4795 456.2386 L 59.539845 454.69714 L 59.672085 453.35654 L 59.903778 452.19305 L 60.06553 451.67026 L 60.26247 451.1828 L 60.49805 450.7277 L 60.77572 450.30203 L 61.09891 449.90274 L 61.47108 449.52692 L 61.895657 449.17154 L 62.376095 448.83362 L 63.51833 448.19843 L 64.92533 447.59744 L 66.62465 447.00687 L 68.643845 446.40292 L 71.01046 445.76178 L 76.89619 444.2727 L 77.623795 444.0911 L 77.25999 442.6382 Z M 222.73999 442.6382 L 222.3762 444.0911 L 223.1038 444.2727 L 228.98955 445.76178 L 231.35616 446.40292 L 233.37535 447.00687 L 235.07466 447.59744 L 236.48167 448.19843 L 237.6239 448.83362 L 238.10432 449.17154 L 238.52893 449.52692 L 238.9011 449.90274 L 239.22427 450.30203 L 239.50195 450.7277 L 239.73752 451.1828 L 239.93446 451.67026 L 240.09622 452.19305 L 240.32791 453.35654 L 240.46016 454.69714 L 240.5205 456.2386 L 240.53572 460.01947 L 240.53572 460.76825 L 241.28572 460.76825 L 241.28572 460.01947 L 242.03572 460.01947 L 242.02612 457.8142 L 241.9806 455.8738 L 241.87396 454.17368 L 241.68102 452.68954 L 241.37656 451.39682 L 241.17467 450.81464 L 240.93546 450.27115 L 240.65579 449.7633 L 240.33249 449.288 L 239.96246 448.84225 L 239.54251 448.42294 L 239.0695 448.02707 L 238.5403 447.65158 L 237.3007 446.94937 L 235.79851 446.2919 L 234.00858 445.65472 L 231.9057 445.0134 L 229.4647 444.34344 L 223.4676 442.81982 L 222.73999 442.6382 Z M 89.21714 448.60416 L 88.49877 448.81934 L 85.57229 449.68756 L 81.29948 450.9728 L 79.473 451.56763 L 77.84058 452.15695 L 76.39283 452.7606 L 75.12033 453.39832 L 74.013664 454.09 L 73.06344 454.85544 L 72.26025 455.7144 L 71.59466 456.6867 L 71.05729 457.79214 L 70.63872 459.05054 L 70.32954 460.48172 L 70.120346 462.1054 L 70.00173 463.9415 L 69.96429 466.00974 L 70.71429 466.00974 L 70.71429 466.7585 L 71.46429 466.7585 L 71.46429 466.00974 L 71.491356 464.13147 L 71.580475 462.46902 L 71.74354 461.00317 L 71.99242 459.71487 L 72.339 458.58484 L 72.79516 457.59402 L 73.37278 456.72318 L 74.08375 455.9532 L 74.93993 455.26486 L 75.95323 454.63904 L 77.135506 454.05655 L 78.49865 453.49826 L 80.05455 452.94498 L 81.81508 452.3776 L 85.997536 451.12372 L 88.929794 450.25372 L 89.64817 450.03857 L 89.21714 448.60416 Z M 210.78284 448.60416 L 210.35184 450.03857 L 211.0702 450.25372 L 214.00246 451.12372 L 218.18492 452.3776 L 219.94543 452.94498 L 221.50133 453.49826 L 222.86449 454.05655 L 224.04677 454.63904 L 225.06006 455.26486 L 225.91626 455.9532 L 226.62721 456.72318 L 227.20483 457.59402 L 227.661 458.58484 L 228.00757 459.71487 L 228.25645 461.00317 L 228.41951 462.46902 L 228.50864 464.13147 L 228.53572 466.00974 L 228.53572 466.7585 L 229.28572 466.7585 L 229.28572 466.00974 L 230.03572 466.00974 L 229.99828 463.9415 L 229.87964 462.1054 L 229.67044 460.48172 L 229.36127 459.05054 L 228.94272 457.79214 L 228.40535 456.6867 L 227.73976 455.7144 L 226.93657 454.85544 L 225.98634 454.09 L 224.87967 453.39832 L 223.60716 452.7606 L 222.15941 452.15695 L 220.52701 451.56763 L 218.7005 450.9728 L 214.42772 449.68756 L 211.50124 448.81934 L 210.78284 448.60416 Z"/>
		<path style="fill-rule:nonzero;fill:url(#paint-id-6);fill-opacity:1;" d="M 246.0 120.48133 C 246.0 145.29381 225.85281 165.40828 201.0 165.40828 C 176.14719 165.40828 156.0 145.29381 156.0 120.48133 C 156.0 95.66887 176.14719 75.55439 201.0 75.55439 C 225.85281 75.55439 246.0 95.66887 246.0 120.48133 Z"/>
		<path style="fill-rule:nonzero;fill:url(#paint-id-7);fill-opacity:1;" d="M 141.0 129.46672 C 141.0 152.62503 122.19596 171.39854 99.0 171.39854 C 75.80404 171.39854 57.0 152.62503 57.0 129.46672 C 57.0 106.30842 75.80404 87.534904 99.0 87.534904 C 122.19596 87.534904 141.0 106.30842 141.0 129.46672 Z"/>
		<path style="fill-rule:nonzero;fill:#ffffff;fill-opacity:1;" d="M 201.0 84.53978 C 181.11774 84.53978 165.0 100.63136 165.0 120.48133 C 165.0 125.689064 166.10938 130.6381 168.10507 135.10573 L 168.10507 135.10573 C 177.21347 130.4424 188.62024 127.66965 201.0 127.66965 C 213.37976 127.66965 224.78651 130.4424 233.89491 135.10573 L 233.89491 135.10573 C 235.89061 130.63809 237.0 125.689064 237.0 120.48133 C 237.0 100.63136 220.88225 84.53978 201.0 84.53978 Z"/>
		<path style="fill-rule:nonzero;fill:#5b507c;fill-opacity:1;" d="M 197.3373 93.52517 C 187.39615 93.52517 179.33728 101.57095 179.33728 111.49595 C 179.33728 119.16672 184.15112 125.71497 190.92729 128.29382 L 190.92728 128.29382 C 194.19063 127.884026 197.55771 127.66965 201.0 127.66965 C 202.34209 127.66965 203.67274 127.70223 204.99028 127.76629 L 204.99023 127.76629 C 211.10458 124.89468 215.3373 118.68881 215.3373 111.49595 C 215.3373 101.57095 207.27841 93.52517 197.3373 93.52517 Z"/>
		<path style="fill-rule:nonzero;fill:#000000;fill-opacity:1;" d="M 197.3373 101.61202 C 191.86966 101.61202 187.43729 106.03721 187.43729 111.49595 C 187.43729 116.95469 191.86966 121.379875 197.3373 121.379875 C 202.80492 121.379875 207.23727 116.95469 207.23727 111.49595 C 207.23727 106.03721 202.80492 101.61202 197.3373 101.61202 Z"/>
		<path style="fill-rule:nonzero;fill:#ffffff;fill-opacity:0.60784316;" d="M 209.3373 94.12419 C 206.35493 94.12419 203.93729 96.53793 203.93729 99.51543 C 203.93729 102.49293 206.35493 104.90666 209.3373 104.90666 C 212.31963 104.90666 214.73727 102.49293 214.73727 99.51543 C 214.73727 96.53793 212.31963 94.12419 209.3373 94.12419 Z"/>
		<path style="fill-rule:nonzero;fill:#ffffff;fill-opacity:1;" d="M 99.0 96.520294 C 80.774605 96.520294 66.0 111.27091 66.0 129.46672 C 66.0 134.24048 67.01693 138.77708 68.84631 142.87242 L 68.84631 142.87242 C 77.19567 138.5977 87.651886 136.05602 99.0 136.05602 C 110.34811 136.05602 120.80432 138.5977 129.15369 142.87242 L 129.15369 142.87242 C 130.98306 138.77708 132.0 134.24048 132.0 129.46672 C 132.0 111.27091 117.22539 96.520294 99.0 96.520294 Z"/>
		<path style="fill-rule:nonzero;fill:#5b507c;fill-opacity:1;" d="M 95.33729 107.00325 C 86.224594 107.00325 78.83729 114.37856 78.83729 123.47646 C 78.83729 129.18675 81.74747 134.21843 86.16787 137.17384 L 86.16786 137.17384 C 90.26038 136.44475 94.56199 136.05602 99.0 136.05602 C 101.249504 136.05602 103.46396 136.15588 105.63392 136.34933 L 105.633896 136.34933 C 109.41516 133.33069 111.837296 128.68597 111.837296 123.47646 C 111.837296 114.37856 104.44998 107.00325 95.33729 107.00325 Z"/>
		<path style="fill-rule:nonzero;fill:#000000;fill-opacity:1;" d="M 95.33729 114.4162 C 90.32531 114.4162 86.26229 118.47262 86.26229 123.47646 C 86.26229 128.48032 90.32531 132.53674 95.33729 132.53674 C 100.349266 132.53674 104.412285 128.48032 104.412285 123.47646 C 104.412285 118.47262 100.349266 114.4162 95.33729 114.4162 Z"/>
		<path style="fill-rule:nonzero;fill:#ffffff;fill-opacity:0.60784316;" d="M 106.337296 107.55235 C 103.603485 107.55235 101.38729 109.764946 101.38729 112.494316 C 101.38729 115.223694 103.603485 117.43629 106.337296 117.43629 C 109.071106 117.43629 111.28729 115.223694 111.28729 112.494316 C 111.28729 109.764946 109.071106 107.55235 106.337296 107.55235 Z"/>
		<path style="fill-rule:nonzero;fill:#000000;fill-opacity:0.19607843;" d="M 120.0 228.306 L 120.0 228.306 C 177.43092 228.306 211.64964 205.42679 220.00769 199.8638 C 222.76941 198.02565 226.3203 197.85428 229.24672 199.41791 C 232.17313 200.98154 234.0 204.02634 234.0 207.3401 L 234.0 207.3401 C 234.0 251.12093 187.84978 278.9288 154.25497 278.9288 L 154.25497 278.9288 C 131.7003 278.9288 111.0 266.38422 111.0 237.2914 C 111.0 232.3289 115.02944 228.306 120.0 228.306 C 124.97056 228.306 129.0 232.3289 129.0 237.2914 L 129.0 237.2914 C 129.0 253.9601 138.9383 260.958 154.25497 260.958 L 154.25497 260.958 C 181.93736 260.958 216.0 237.60295 216.0 207.3401 L 225.0 207.3401 L 229.9923 214.81639 C 220.35036 221.2339 182.56908 246.27678 120.0 246.27678 C 115.02944 246.27678 111.0 242.25388 111.0 237.2914 C 111.0 232.3289 115.02944 228.306 120.0 228.306 Z"/>
		<path style="fill-rule:nonzero;fill:#ffffff;fill-opacity:1;" d="M 120.0 237.2914 C 180.0 237.2914 216.0 213.33035 225.0 207.3401 C 225.0 267.2427 120.0 297.194 120.0 237.2914"/>
		<path style="fill-rule:nonzero;fill:#000000;fill-opacity:1;" d="M 223.72752 218.58273 L 223.04535 219.23753 L 220.77989 221.19733 L 218.29579 223.16148 L 215.60783 225.125 L 212.73076 227.08295 L 209.67943 229.03036 L 206.46855 230.96223 L 203.11296 232.87363 L 199.62746 234.75955 L 196.02678 236.61507 L 192.32574 238.43518 L 188.53914 240.21495 L 184.68175 241.94939 L 180.76833 243.63353 L 176.8137 245.2624 L 172.83266 246.83105 L 168.83995 248.3345 L 164.8504 249.76778 L 160.87877 251.12593 L 156.93985 252.40399 L 153.04845 253.59695 L 149.21933 254.6999 L 145.46729 255.70781 L 141.8071 256.61578 L 138.25356 257.4188 L 134.82146 258.11188 L 131.52557 258.69012 L 128.3807 259.1485 L 127.13219 259.2883 L 127.13219 259.2883 L 128.23917 260.51968 L 129.68994 261.9047 L 129.76363 261.96518 L 129.76363 261.96518 L 131.78302 261.6737 L 135.1465 261.0887 L 138.64732 260.38718 L 142.2706 259.57397 L 146.00146 258.65405 L 149.82504 257.63223 L 153.72644 256.51352 L 157.69081 255.30273 L 161.70325 254.00484 L 165.7489 252.62471 L 169.81288 251.16725 L 173.8803 249.63734 L 177.93628 248.03995 L 181.96597 246.37991 L 185.95448 244.66217 L 189.88695 242.89163 L 193.74847 241.0732 L 197.52417 239.21173 L 201.19919 237.3122 L 204.75867 235.37943 L 208.18768 233.4184 L 211.47139 231.43398 L 214.59491 229.43108 L 217.54335 227.41458 L 220.30185 225.38942 L 222.21771 223.86726 L 222.40448 223.34862 L 223.17752 220.80278 L 223.72752 218.58273 Z"/>
		<path style="fill-rule:nonzero;fill:#000000;fill-opacity:1;" d="M 147.75 235.50761 L 146.35574 235.6964 L 144.75 235.8747 L 144.75 235.8747 L 144.75 269.02747 L 144.75 269.02747 L 146.49593 269.35162 L 147.75 269.52008 L 147.75 269.52008 L 147.75 235.50761 Z"/>
		<path style="fill-rule:nonzero;fill:#000000;fill-opacity:1;" d="M 174.0 230.29034 L 173.24533 230.50061 L 171.0 231.07344 L 171.0 231.07344 L 171.0 267.64383 L 172.5 267.2427 L 174.0 266.78806 L 174.0 266.78806 L 174.0 230.29034 Z"/>
		<path style="fill-rule:nonzero;fill:#000000;fill-opacity:1;" d="M 200.25 220.996 L 197.93481 222.01009 L 197.25 222.2949 L 197.25 255.40019 L 198.50406 254.51627 L 200.25 253.19608 L 200.25 253.19608 L 200.25 220.996 Z"/>
	</g>
</svg>
