<?xml version="1.0" encoding="iso-8859-1"?>
<!DOCTYPE svg PUBLIC "-//W3C//DTD SVG 1.1//EN" "http://www.w3.org/Graphics/SVG/1.1/DTD/svg11.dtd">
<svg version="1.1" id="buildings_1" xmlns="http://www.w3.org/2000/svg" xmlns:xlink="http://www.w3.org/1999/xlink"
	x="0px" y="0px" width="300px" height="326px" viewBox="0 0 300 326"
	 xml:space="preserve">
	<defs>
		<linearGradient id="paint-id-0" x1="59.91336441040039" y1="87.44017791748047" x2="59.91336441040039" y2="87.44017791748047">
			offset="0%" style="stop-color:#000000;stop-opacity:0.15686275;"/>
			offset="100%" style="stop-color:#000000;stop-opacity:0.0;"/>
		</linearGradient>
		<linearGradient id="paint-id-1" x1="59.91336441040039" y1="87.44017791748047" x2="59.91336441040039" y2="87.44017791748047">
			offset="0%" style="stop-color:#000000;stop-opacity:0.078431375;"/>
			offset="100%" style="stop-color:#000000;stop-opacity:0.0;"/>
		</linearGradient>
		<linearGradient id="paint-id-2" x1="243.5792999267578" y1="87.44017791748047" x2="243.5792999267578" y2="87.44017791748047">
			offset="0%" style="stop-color:#000000;stop-opacity:0.15686275;"/>
			offset="100%" style="stop-color:#000000;stop-opacity:0.0;"/>
		</linearGradient>
		<linearGradient id="paint-id-3" x1="243.5792999267578" y1="87.44017791748047" x2="243.5792999267578" y2="87.44017791748047">
			offset="0%" style="stop-color:#000000;stop-opacity:0.078431375;"/>
			offset="100%" style="stop-color:#000000;stop-opacity:0.0;"/>
		</linearGradient>
		<linearGradient id="paint-id-4" x1="20.556381225585938" y1="265.7167663574219" x2="20.556381225585938" y2="265.7167663574219">
			offset="0%" style="stop-color:#000000;stop-opacity:0.0;"/>
			offset="100%" style="stop-color:#000000;stop-opacity:0.15686275;"/>
		</linearGradient>
		<linearGradient id="paint-id-5" x1="20.556381225585938" y1="253.6601104736328" x2="20.556381225585938" y2="253.6601104736328">
			offset="0%" style="stop-color:#ffffff;stop-opacity:0.0;"/>
			offset="100%" style="stop-color:#ffffff;stop-opacity:0.078431375;"/>
		</linearGradient>
		<linearGradient id="paint-id-6" x1="20.556381225585938" y1="71.62196350097656" x2="20.556381225585938" y2="71.62196350097656">
			offset="0%" style="stop-color:#000000;stop-opacity:0.078431375;"/>
			offset="100%" style="stop-color:#000000;stop-opacity:0.0;"/>
		</linearGradient>
		<linearGradient id="paint-id-7" x1="20.556381225585938" y1="53.16737747192383" x2="20.556381225585938" y2="53.16737747192383">
			offset="0%" style="stop-color:#000000;stop-opacity:0.078431375;"/>
			offset="100%" style="stop-color:#000000;stop-opacity:0.0;"/>
		</linearGradient>
		<linearGradient id="paint-id-8" x1="20.556381225585938" y1="76.89470672607422" x2="20.556381225585938" y2="76.89470672607422">
			offset="0%" style="stop-color:#000000;stop-opacity:0.078431375;"/>
			offset="100%" style="stop-color:#000000;stop-opacity:0.0;"/>
		</linearGradient>
	</defs>
	<g>
		<path style="fill-rule:nonzero;fill:#cf5c36;fill-opacity:1;" d="M 67.7485 60.60837 L 66.141 61.45801 L 64.55671 62.23045 L 62.995884 62.927097 L 61.458763 63.549362 L 59.94561 64.09865 L 58.456673 64.57638 L 56.992207 64.98394 L 55.552464 65.322754 L 54.13769 65.59423 L 52.74815 65.79977 L 51.38409 65.94079 L 50.04576 66.01869 L 48.733418 66.03488 L 47.447308 65.990776 L 46.18769 65.88778 L 46.004745 65.86397 L 46.004745 65.86397 L 47.64009 111.04539 L 48.741684 111.87963 L 52.078236 114.27199 L 67.7485 60.60837 Z"/>
		<path style="fill-rule:nonzero;fill:#df7b5a;fill-opacity:1;" d="M 66.75666 61.132603 L 66.141 61.45801 L 64.55671 62.23045 L 62.995884 62.927097 L 61.458763 63.549362 L 59.94561 64.09865 L 58.456673 64.57638 L 56.992207 64.98394 L 55.552464 65.322754 L 54.13769 65.59423 L 52.74815 65.79977 L 51.38409 65.94079 L 50.04576 66.01869 L 48.733418 66.03488 L 47.447308 65.990776 L 46.18769 65.88778 L 44.95482 65.7273 L 43.74894 65.51075 L 42.570305 65.23953 L 41.419174 64.91506 L 40.295795 64.53874 L 39.200424 64.111984 L 38.770874 63.920456 L 30.133562 95.353226 L 31.121153 96.43972 L 33.747894 99.13508 L 36.505157 101.78355 L 39.388058 104.383675 L 42.391705 106.93402 L 45.51121 109.43315 L 48.741684 111.87963 L 52.078236 114.27199 L 53.37399 109.83461 L 65.956024 64.04628 L 66.75666 61.132603 Z"/>
		<path style="fill-rule:nonzero;fill:#cf5c36;fill-opacity:1;" d="M 33.271667 60.60235 L 19.443438 81.20029 L 19.443438 81.20029 L 20.116493 82.30994 L 22.017256 85.218155 L 24.072992 88.08668 L 26.278814 90.91407 L 28.629831 93.698906 L 31.121153 96.43972 L 33.747894 99.13508 L 36.505157 101.78355 L 36.984352 102.21574 L 36.984352 102.21574 L 60.99105 66.4564 L 63.516376 62.69479 L 62.995884 62.927097 L 61.458763 63.549362 L 59.94561 64.09865 L 58.456673 64.57638 L 56.992207 64.98394 L 55.552464 65.322754 L 54.13769 65.59423 L 52.74815 65.79977 L 51.38409 65.94079 L 50.04576 66.01869 L 48.733418 66.03488 L 47.447308 65.990776 L 46.18769 65.88778 L 44.95482 65.7273 L 43.74894 65.51075 L 42.570305 65.23953 L 41.419174 64.91506 L 40.295795 64.53874 L 39.200424 64.111984 L 38.13331 63.63619 L 37.094704 63.112774 L 36.084858 62.543144 L 35.10403 61.928707 L 34.152473 61.270874 L 33.271667 60.60235 Z"/>
		<path style="fill-rule:nonzero;fill:#df7b5a;fill-opacity:1;" d="M 28.192507 55.38092 L 13.228917 67.59405 L 13.228917 67.59405 L 13.611973 68.77049 L 14.160979 70.30904 L 14.754841 71.83946 L 15.392948 73.36159 L 16.074688 74.87523 L 16.79945 76.38021 L 17.566622 77.87636 L 18.375595 79.36348 L 19.225756 80.8414 L 20.116493 82.30994 L 22.017256 85.218155 L 24.072992 88.08668 L 26.27608 90.91056 L 26.27608 90.91056 L 55.756027 66.84935 L 58.595432 64.53185 L 58.595432 64.53185 L 58.456673 64.57638 L 56.992207 64.98394 L 55.552464 65.322754 L 54.13769 65.59423 L 52.74815 65.79977 L 51.38409 65.94079 L 50.04576 66.01869 L 48.733418 66.03488 L 47.447308 65.990776 L 46.18769 65.88778 L 44.95482 65.7273 L 43.74894 65.51075 L 42.570305 65.23953 L 41.419174 64.91506 L 40.295795 64.53874 L 39.200424 64.111984 L 38.13331 63.63619 L 37.094704 63.112774 L 36.084858 62.543144 L 35.10403 61.928707 L 34.152473 61.270874 L 33.230434 60.571053 L 32.33817 59.83065 L 31.47593 59.051075 L 30.643967 58.233738 L 29.842535 57.380047 L 29.071888 56.491405 L 28.332275 55.569225 L 28.192507 55.38092 Z"/>
		<path style="fill-rule:nonzero;fill:#cf5c36;fill-opacity:1;" d="M 23.880713 47.88684 L 10.767031 54.028297 L 10.767031 54.028297 L 10.790264 54.58792 L 10.908066 56.19144 L 11.076224 57.788456 L 11.294127 59.378796 L 11.561166 60.962276 L 11.876726 62.538715 L 12.240198 64.10794 L 12.65097 65.66976 L 13.108432 67.22401 L 13.611973 68.77049 L 14.160979 70.30904 L 14.754841 71.83946 L 15.392948 73.36159 L 16.074688 74.87523 L 16.79945 76.38021 L 17.566622 77.87636 L 18.375595 79.36348 L 18.460901 79.51177 L 18.460901 79.51177 L 47.349075 65.98274 L 47.349075 65.98274 L 46.18769 65.88778 L 44.95482 65.7273 L 43.74894 65.51075 L 42.570305 65.23953 L 41.419174 64.91506 L 40.295795 64.53874 L 39.200424 64.111984 L 38.13331 63.63619 L 37.094704 63.112774 L 36.084858 62.543144 L 35.10403 61.928707 L 34.152473 61.270874 L 33.230434 60.571053 L 32.33817 59.83065 L 31.47593 59.051075 L 30.643967 58.233738 L 29.842535 57.380047 L 29.071888 56.491405 L 28.332275 55.569225 L 27.623951 54.614918 L 26.947168 53.62989 L 26.30218 52.615547 L 25.689236 51.5733 L 25.10859 50.504555 L 24.560495 49.410725 L 24.045204 48.293217 L 23.880713 47.88684 Z"/>
		<path style="fill-rule:nonzero;fill:#df7b5a;fill-opacity:1;" d="M 21.14234 38.709103 L 11.877794 40.89229 L 11.877794 40.89229 L 11.734025 41.54748 L 11.426972 43.1965 L 11.175165 44.840454 L 10.977993 46.47918 L 10.834845 48.112484 L 10.745109 49.74019 L 10.708175 51.362118 L 10.72343 52.97809 L 10.790264 54.58792 L 10.908066 56.19144 L 11.076224 57.788456 L 11.294127 59.378796 L 11.561166 60.962276 L 11.876726 62.538715 L 12.240198 64.10794 L 12.65097 65.66976 L 13.108432 67.22401 L 13.246719 67.64872 L 13.246719 67.64872 L 35.76446 62.342434 L 35.76446 62.342434 L 35.10403 61.928707 L 34.152473 61.270874 L 33.230434 60.571053 L 32.33817 59.83065 L 31.47593 59.051075 L 30.643967 58.233738 L 29.842535 57.380047 L 29.071888 56.491405 L 28.332275 55.569225 L 27.623951 54.614918 L 26.947168 53.62989 L 26.30218 52.615547 L 25.689236 51.5733 L 25.10859 50.504555 L 24.560495 49.410725 L 24.045204 48.293217 L 23.114042 45.99279 L 22.317125 43.614555 L 21.656475 41.16977 L 21.14234 38.709103 Z"/>
		<path style="fill-rule:nonzero;fill:#cf5c36;fill-opacity:1;" d="M 20.456871 28.906334 L 15.8344965 29.107687 L 15.8344965 29.107687 L 15.481627 29.877926 L 14.770738 31.557293 L 14.119373 33.232864 L 13.526922 34.90446 L 12.992773 36.5719 L 12.5163145 38.235004 L 12.096935 39.893593 L 11.734025 41.54748 L 11.426972 43.1965 L 11.175165 44.840454 L 10.977993 46.47918 L 10.834845 48.112484 L 10.745109 49.74019 L 10.708175 51.362118 L 10.72343 52.97809 L 10.790264 54.58792 L 10.872864 55.712276 L 10.872864 55.712276 L 27.888304 54.971073 L 27.888304 54.971073 L 27.623951 54.614918 L 26.947168 53.62989 L 26.30218 52.615547 L 25.689236 51.5733 L 25.10859 50.504555 L 24.560495 49.410725 L 24.045204 48.293217 L 23.114042 45.99279 L 22.317125 43.614555 L 21.656475 41.16977 L 21.134108 38.669704 L 20.752047 36.125626 L 20.512312 33.548805 L 20.416922 30.950504 L 20.456871 28.906334 Z"/>
		<path style="fill-rule:nonzero;fill:#df7b5a;fill-opacity:1;" d="M 21.19233 19.492695 L 21.031204 19.732113 L 19.950333 21.43047 L 18.932653 23.12611 L 17.977554 24.818855 L 17.084425 26.508528 L 16.252653 28.194944 L 15.481627 29.877926 L 14.770738 31.557293 L 14.119373 33.232864 L 13.526922 34.90446 L 12.992773 36.5719 L 12.5163145 38.235004 L 12.096935 39.893593 L 11.734025 41.54748 L 11.426972 43.1965 L 11.208959 44.619827 L 11.208959 44.619827 L 23.31888 46.49884 L 23.31888 46.49884 L 23.114042 45.99279 L 22.317125 43.614555 L 21.656475 41.16977 L 21.134108 38.669704 L 20.752047 36.125626 L 20.512312 33.548805 L 20.416922 30.950504 L 20.4679 28.341997 L 20.667263 25.734547 L 21.017035 23.139423 L 21.519234 20.567894 L 21.758728 19.58058 L 21.758728 19.58058 L 21.19233 19.492695 Z"/>
		<path style="fill-rule:nonzero;fill:#cf5c36;fill-opacity:1;" d="M 22.175879 18.031225 L 21.031204 19.732113 L 19.950333 21.43047 L 18.932653 23.12611 L 17.977554 24.818855 L 17.084425 26.508528 L 16.252653 28.194944 L 15.481627 29.877926 L 14.770738 31.557293 L 14.119373 33.232864 L 13.526922 34.90446 L 13.388467 35.336674 L 13.388467 35.336674 L 21.130531 38.645893 L 21.130531 38.645893 L 20.752047 36.125626 L 20.512312 33.548805 L 20.416922 30.950504 L 20.4679 28.341997 L 20.667263 25.734547 L 21.017035 23.139423 L 21.519234 20.567894 L 21.828123 19.294497 L 22.175879 18.031225 Z"/>
		<path style="fill-rule:nonzero;fill:url(#paint-id-0);fill-opacity:1;" d="M 52.078236 114.27199 C 15.939991 89.04709 -2.9287531 54.342606 22.175879 18.031225 C 14.340749 44.863037 33.20949 79.56751 67.7485 60.60837 Z"/>
		<path style="fill-rule:nonzero;fill:url(#paint-id-1);fill-opacity:1;" d="M 52.078236 114.27199 C 15.939991 89.04709 -2.9287531 54.342606 22.175879 18.031225 C 8.680126 34.45169 15.939991 89.04709 59.913364 87.44018 Z"/>
		<path style="fill-rule:nonzero;fill:#cf5c36;fill-opacity:1;" d="M 235.74417 60.60837 L 251.41441 114.27199 L 254.75098 111.87963 L 255.85257 111.04537 L 257.48788 65.863976 L 257.48788 65.863976 L 257.30496 65.88778 L 256.04535 65.990776 L 254.75925 66.03488 L 253.4469 66.01869 L 252.10857 65.94079 L 250.74452 65.79977 L 249.35497 65.59423 L 247.9402 65.322754 L 246.50046 64.98394 L 245.03598 64.57638 L 243.54704 64.09865 L 242.0339 63.549362 L 240.49678 62.927097 L 238.93596 62.23045 L 237.35165 61.45801 L 235.74417 60.60837 Z"/>
		<path style="fill-rule:nonzero;fill:#df7b5a;fill-opacity:1;" d="M 236.73601 61.132607 L 237.53664 64.04628 L 250.11897 109.83566 L 251.41441 114.27199 L 254.75098 111.87963 L 257.98145 109.43315 L 261.10095 106.93402 L 264.1046 104.383675 L 266.9875 101.78355 L 269.74475 99.13508 L 272.3715 96.43972 L 273.3591 95.35321 L 273.3591 95.35321 L 264.72177 63.920456 L 264.29224 64.111984 L 263.19687 64.53874 L 262.0735 64.91506 L 260.92233 65.23953 L 259.7437 65.51075 L 258.53784 65.7273 L 257.30496 65.88778 L 256.04535 65.990776 L 254.75925 66.03488 L 253.4469 66.01869 L 252.10857 65.94079 L 250.74452 65.79977 L 249.35497 65.59423 L 247.9402 65.322754 L 246.50046 64.98394 L 245.03598 64.57638 L 243.54704 64.09865 L 242.0339 63.549362 L 240.49678 62.927097 L 238.93596 62.23045 L 237.35165 61.45801 L 236.73601 61.132607 Z"/>
		<path style="fill-rule:nonzero;fill:#cf5c36;fill-opacity:1;" d="M 270.22098 60.602345 L 269.3402 61.270874 L 268.3886 61.928707 L 267.4078 62.543144 L 266.39795 63.112774 L 265.35934 63.63619 L 264.29224 64.111984 L 263.19687 64.53874 L 262.0735 64.91506 L 260.92233 65.23953 L 259.7437 65.51075 L 258.53784 65.7273 L 257.30496 65.88778 L 256.04535 65.990776 L 254.75925 66.03488 L 253.4469 66.01869 L 252.10857 65.94079 L 250.74452 65.79977 L 249.35497 65.59423 L 247.9402 65.322754 L 246.50046 64.98394 L 245.03598 64.57638 L 243.54704 64.09865 L 242.0339 63.549362 L 240.49678 62.927097 L 239.97629 62.694794 L 242.50163 66.4564 L 266.5083 102.21573 L 266.9875 101.78355 L 269.74475 99.13508 L 272.3715 96.43972 L 274.86282 93.698906 L 277.21387 90.91407 L 279.41968 88.08668 L 281.4754 85.218155 L 283.37616 82.30994 L 284.04922 81.20028 L 270.22098 60.602345 Z"/>
		<path style="fill-rule:nonzero;fill:#df7b5a;fill-opacity:1;" d="M 275.30014 55.380924 L 275.1604 55.569225 L 274.42078 56.491405 L 273.65012 57.380047 L 272.8487 58.233738 L 272.01675 59.051075 L 271.15448 59.83065 L 270.26224 60.571053 L 269.3402 61.270874 L 268.3886 61.928707 L 267.4078 62.543144 L 266.39795 63.112774 L 265.35934 63.63619 L 264.29224 64.111984 L 263.19687 64.53874 L 262.0735 64.91506 L 260.92233 65.23953 L 259.7437 65.51075 L 258.53784 65.7273 L 257.30496 65.88778 L 256.04535 65.990776 L 254.75925 66.03488 L 253.4469 66.01869 L 252.10857 65.94079 L 250.74452 65.79977 L 249.35497 65.59423 L 247.9402 65.322754 L 246.50046 64.98394 L 245.03598 64.57638 L 244.89722 64.531845 L 244.89722 64.531845 L 247.73663 66.84935 L 277.21658 90.91057 L 279.41968 88.08668 L 281.4754 85.218155 L 283.37616 82.30994 L 284.2669 80.8414 L 285.11707 79.36348 L 285.92606 77.87636 L 286.6932 76.38021 L 287.41797 74.87523 L 288.09973 73.36159 L 288.73782 71.83946 L 289.3317 70.30904 L 289.88068 68.77049 L 290.26373 67.59405 L 275.30014 55.380924 Z"/>
		<path style="fill-rule:nonzero;fill:#cf5c36;fill-opacity:1;" d="M 279.61194 47.88684 L 279.44745 48.293217 L 278.93216 49.410725 L 278.38406 50.504555 L 277.80344 51.5733 L 277.19046 52.615547 L 276.5455 53.62989 L 275.8687 54.614918 L 275.1604 55.569225 L 274.42078 56.491405 L 273.65012 57.380047 L 272.8487 58.233738 L 272.01675 59.051075 L 271.15448 59.83065 L 270.26224 60.571053 L 269.3402 61.270874 L 268.3886 61.928707 L 267.4078 62.543144 L 266.39795 63.112774 L 265.35934 63.63619 L 264.29224 64.111984 L 263.19687 64.53874 L 262.0735 64.91506 L 260.92233 65.23953 L 259.7437 65.51075 L 258.53784 65.7273 L 257.30496 65.88778 L 256.1436 65.98274 L 256.1436 65.98274 L 285.03177 79.51177 L 285.11707 79.36348 L 285.92606 77.87636 L 286.6932 76.38021 L 287.41797 74.87523 L 288.09973 73.36159 L 288.73782 71.83946 L 289.3317 70.30904 L 289.88068 68.77049 L 290.38425 67.22401 L 290.84167 65.66976 L 291.25244 64.10794 L 291.61594 62.538715 L 291.9315 60.962276 L 292.19852 59.378796 L 292.41644 57.788456 L 292.5846 56.19144 L 292.7024 54.58792 L 292.72565 54.028297 L 279.61194 47.88684 Z"/>
		<path style="fill-rule:nonzero;fill:#df7b5a;fill-opacity:1;" d="M 282.35034 38.709106 L 281.83618 41.16977 L 281.17554 43.614555 L 280.37863 45.99279 L 279.44745 48.293217 L 278.93216 49.410725 L 278.38406 50.504555 L 277.80344 51.5733 L 277.19046 52.615547 L 276.5455 53.62989 L 275.8687 54.614918 L 275.1604 55.569225 L 274.42078 56.491405 L 273.65012 57.380047 L 272.8487 58.233738 L 272.01675 59.051075 L 271.15448 59.83065 L 270.26224 60.571053 L 269.3402 61.270874 L 268.3886 61.928707 L 267.7282 62.34243 L 290.24594 67.64872 L 290.38425 67.22401 L 290.84167 65.66976 L 291.25244 64.10794 L 291.61594 62.538715 L 291.9315 60.962276 L 292.19852 59.378796 L 292.41644 57.788456 L 292.5846 56.19144 L 292.7024 54.58792 L 292.76923 52.97809 L 292.7845 51.362118 L 292.74756 49.74019 L 292.6578 48.112484 L 292.51468 46.47918 L 292.3175 44.840454 L 292.06567 43.1965 L 291.75864 41.54748 L 291.61487 40.892284 L 282.35034 38.709106 Z"/>
		<path style="fill-rule:nonzero;fill:#cf5c36;fill-opacity:1;" d="M 283.0358 28.906334 L 283.07574 30.950504 L 282.98035 33.548805 L 282.74063 36.125626 L 282.35855 38.669704 L 281.83618 41.16977 L 281.17554 43.614555 L 280.37863 45.99279 L 279.44745 48.293217 L 278.93216 49.410725 L 278.38406 50.504555 L 277.80344 51.5733 L 277.19046 52.615547 L 276.5455 53.62989 L 275.8687 54.614918 L 275.60434 54.971073 L 275.60434 54.971073 L 292.6198 55.712276 L 292.6198 55.712276 L 292.7024 54.58792 L 292.76923 52.97809 L 292.7845 51.362118 L 292.74756 49.74019 L 292.6578 48.112484 L 292.51468 46.47918 L 292.3175 44.840454 L 292.06567 43.1965 L 291.75864 41.54748 L 291.39572 39.893593 L 290.97635 38.235004 L 290.49988 36.5719 L 289.96573 34.90446 L 289.3733 33.232864 L 288.72192 31.557293 L 288.01105 29.877926 L 287.65817 29.107687 L 283.0358 28.906334 Z"/>
		<path style="fill-rule:nonzero;fill:#df7b5a;fill-opacity:1;" d="M 282.30032 19.492695 L 281.73395 19.580578 L 281.97342 20.567894 L 282.47562 23.139423 L 282.8254 25.734547 L 283.02475 28.341997 L 283.07574 30.950504 L 282.98035 33.548805 L 282.74063 36.125626 L 282.35855 38.669704 L 281.83618 41.16977 L 281.17554 43.614555 L 280.37863 45.99279 L 280.17377 46.498837 L 292.2837 44.619827 L 292.06567 43.1965 L 291.75864 41.54748 L 291.39572 39.893593 L 290.97635 38.235004 L 290.49988 36.5719 L 289.96573 34.90446 L 289.3733 33.232864 L 288.72192 31.557293 L 288.01105 29.877926 L 287.24002 28.194944 L 286.40823 26.508528 L 285.5151 24.818855 L 284.56 23.12611 L 283.54233 21.43047 L 282.46146 19.732113 L 282.30032 19.492695 Z"/>
		<path style="fill-rule:nonzero;fill:#cf5c36;fill-opacity:1;" d="M 281.31677 18.031225 L 281.66452 19.294497 L 281.97342 20.567894 L 282.47562 23.139423 L 282.8254 25.734547 L 283.02475 28.341997 L 283.07574 30.950504 L 282.98035 33.548805 L 282.74063 36.125626 L 282.36215 38.64589 L 290.1042 35.33667 L 289.96573 34.90446 L 289.3733 33.232864 L 288.72192 31.557293 L 288.01105 29.877926 L 287.24002 28.194944 L 286.40823 26.508528 L 285.5151 24.818855 L 284.56 23.12611 L 283.54233 21.43047 L 282.46146 19.732113 L 281.31677 18.031225 Z"/>
		<path style="fill-rule:nonzero;fill:url(#paint-id-2);fill-opacity:1;" d="M 251.41441 114.27199 C 287.55267 89.04709 306.42142 54.342606 281.31677 18.031225 C 289.15192 44.863037 270.28317 79.56751 235.74417 60.60837 Z"/>
		<path style="fill-rule:nonzero;fill:url(#paint-id-3);fill-opacity:1;" d="M 251.41441 114.27199 C 287.55267 89.04709 306.42142 54.342606 281.31677 18.031225 C 294.81253 34.45169 287.55267 89.04709 243.5793 87.44018 Z"/>
		<path style="fill-rule:nonzero;fill:#000000;fill-opacity:0.15686275;" d="M 88.127945 300.1552 L 87.49158 300.3151 L 82.24653 301.6562 L 80.11163 302.2459 L 78.27246 302.81042 L 76.70698 303.37128 L 75.393166 303.94998 L 74.30901 304.56808 L 73.846176 304.8986 L 73.43249 305.24707 L 73.06519 305.61612 L 72.741554 306.00848 L 72.45881 306.42685 L 72.2142 306.87387 L 72.00499 307.35226 L 71.82841 307.86472 L 71.56214 309.0026 L 71.39339 310.30896 L 71.30011 311.8054 L 71.2603 313.5134 L 71.25192 315.45453 L 71.907875 315.45453 L 71.907875 316.11362 L 72.56383 316.11362 L 72.56383 315.45453 L 72.57713 312.12653 L 72.629906 310.76968 L 72.74557 309.5897 L 72.948204 308.56555 L 73.089676 308.10538 L 73.26192 307.6763 L 73.46796 307.27576 L 73.71081 306.90103 L 73.99347 306.5496 L 74.31897 306.21875 L 74.6903 305.90598 L 75.1105 305.60855 L 76.10949 305.0494 L 77.34006 304.52042 L 78.82628 304.00058 L 80.59226 303.46896 L 82.66211 302.90463 L 87.80976 301.5939 L 88.44612 301.43405 L 88.127945 300.1552 Z M 215.3647 300.1552 L 215.04654 301.43405 L 215.68289 301.5939 L 220.83057 302.90463 L 222.9004 303.46896 L 224.6664 304.00058 L 226.1526 304.52042 L 227.38318 305.0494 L 228.38217 305.60855 L 228.80235 305.90598 L 229.1737 306.21875 L 229.49919 306.5496 L 229.78185 306.90103 L 230.0247 307.27576 L 230.23073 307.6763 L 230.40298 308.10538 L 230.54445 308.56555 L 230.7471 309.5897 L 230.86276 310.76968 L 230.91553 312.12653 L 230.92883 315.45453 L 230.92883 316.11362 L 231.5848 316.11362 L 231.5848 315.45453 L 232.24074 315.45453 L 232.23235 313.5134 L 232.19254 311.8054 L 232.09927 310.30896 L 231.93053 309.0026 L 231.66425 307.86472 L 231.48766 307.35226 L 231.27846 306.87387 L 231.03386 306.42685 L 230.7511 306.00848 L 230.42747 305.61612 L 230.06018 305.24707 L 229.64648 304.8986 L 229.18365 304.56808 L 228.0995 303.94998 L 226.78568 303.37128 L 225.22021 302.81042 L 223.38103 302.2459 L 221.24614 301.6562 L 216.00108 300.3151 L 215.3647 300.1552 Z M 98.58566 305.40656 L 97.95738 305.59595 L 95.39787 306.36017 L 91.66088 307.4915 L 90.06344 308.01505 L 88.63573 308.53378 L 87.36953 309.0651 L 86.25659 309.62646 L 85.28871 310.23532 L 84.45764 310.90903 L 83.755165 311.6651 L 83.17305 312.52094 L 82.703064 313.494 L 82.33698 314.60165 L 82.066574 315.8614 L 81.88361 317.29062 L 81.77988 318.90674 L 81.74712 320.72726 L 82.40307 320.72726 L 82.40307 321.38635 L 83.05902 321.38635 L 83.05902 320.72726 L 83.082695 319.07397 L 83.160645 317.61063 L 83.30325 316.3204 L 83.52093 315.1864 L 83.82404 314.19174 L 84.223 313.31958 L 84.72819 312.55307 L 85.35 311.8753 L 86.09882 311.2694 L 86.985054 310.71857 L 88.01907 310.20587 L 89.21127 309.71445 L 90.57207 309.22745 L 92.11182 308.728 L 95.7698 307.6243 L 98.33435 306.85852 L 98.96264 306.66916 L 98.58566 305.40656 Z M 204.90698 305.40656 L 204.53003 306.66916 L 205.15831 306.85852 L 207.72285 307.6243 L 211.38084 308.728 L 212.9206 309.22745 L 214.28137 309.71445 L 215.47359 310.20587 L 216.50761 310.71857 L 217.39383 311.2694 L 218.14267 311.8753 L 218.76447 312.55307 L 219.26965 313.31958 L 219.66861 314.19174 L 219.97173 315.1864 L 220.1894 316.3204 L 220.33202 317.61063 L 220.40996 319.07397 L 220.43364 320.72726 L 220.43364 321.38635 L 221.0896 321.38635 L 221.0896 320.72726 L 221.74554 320.72726 L 221.7128 318.90674 L 221.60904 317.29062 L 221.42607 315.8614 L 221.15567 314.60165 L 220.78961 313.494 L 220.31963 312.52094 L 219.7375 311.6651 L 219.03503 310.90903 L 218.20396 310.23532 L 217.23607 309.62646 L 216.12312 309.0651 L 214.85693 308.53378 L 213.42923 308.01505 L 211.83177 307.4915 L 208.09479 306.36017 L 205.5353 305.59595 L 204.90698 305.40656 Z"/>
		<path style="fill-rule:nonzero;fill:#faa317;fill-opacity:1;" d="M 151.74632 21.530945 L 151.74632 21.530945 C 150.11041 9.976861 126.84299 1.8056242 105.359795 5.2405596 L 115.2683 26.693647 L 115.2683 26.693647 C 110.472984 14.594574 89.742226 9.271083 73.93895 16.0806 L 91.7555 36.089302 L 91.7555 36.089302 C 85.99891 26.9939 69.09984 25.023022 58.06508 32.160107 L 71.74405 48.869812 L 71.74405 48.869812 C 64.27857 41.494694 41.425037 50.54235 26.182655 66.90745 L 46.411446 74.7602 L 46.411446 74.7602 C 39.50976 70.89072 23.715889 83.10876 14.924382 99.1184 L 29.70865 104.881355 L 29.70865 104.881355 C 19.50423 102.22889 4.602408 119.73266 -2.4868996E-14 139.77731 L 21.636042 136.35912 L 21.636042 136.35912 C 12.747651 136.52127 5.314682 162.60098 6.817487 188.3523 L 22.323837 175.03923 L 22.323837 175.03923 C 14.438188 177.55473 13.86137 201.5951 21.17388 222.96666 L 33.464077 210.43755 L 33.464077 210.43755 C 23.151278 216.95972 21.230844 236.96556 29.635456 250.32172 L 49.181892 235.54987 L 49.181892 235.54987 C 41.67461 243.06836 43.117683 259.97458 52.058846 269.2545 L 69.59887 256.1323 L 69.59887 256.1323 C 64.71635 263.71906 68.54755 277.343 77.23685 283.2933 L 92.42483 270.95352 L 92.42483 270.95352 C 88.92468 280.86105 95.922874 295.1023 106.37659 299.3452 L 124.21855 282.26114 L 124.21855 282.26114 C 123.00378 293.78726 129.68112 306.58386 137.53067 307.77277 L 151.74632 285.16785 L 151.74632 285.16788 L 151.74632 285.16785 L 169.73918 307.76807 C 180.67995 305.5758 190.02196 291.62967 188.36366 279.96466 L 188.36366 279.96466 L 203.14899 294.041 C 211.07751 290.53107 215.7015 278.6131 212.36751 270.2811 L 212.36751 270.2811 L 226.06114 287.83307 C 234.98433 281.94418 238.03403 266.74118 232.14108 257.524 L 232.14108 257.524 L 251.9722 271.97366 C 259.81198 264.1801 259.51193 247.69823 251.37401 239.11497 L 251.37401 239.11497 L 269.23166 254.45699 C 277.22348 243.10442 275.62027 224.87602 266.03543 218.1164 L 266.03543 218.1164 L 279.43472 227.89876 C 286.7209 210.28989 286.3965 189.45569 278.78806 186.36314 L 278.78806 186.36314 L 297.88892 196.12325 C 300.59656 181.21368 292.92953 164.50285 282.60373 162.80812 L 282.60373 162.80812 L 298.54376 171.60072 C 298.65033 154.63 290.37628 137.74129 282.04837 137.93094 L 282.04837 137.93094 L 300.0 135.64417 C 295.5966 117.883316 282.36832 102.25468 273.62784 104.48651 L 273.62784 104.48651 L 299.83215 102.59145 C 289.2135 82.15 267.50238 67.83129 256.5483 74.045296 L 256.5483 74.045296 L 285.12762 73.81501 C 267.55243 53.419296 241.30544 41.31977 232.80092 49.693096 L 232.80092 49.693096 L 246.78053 34.65102 C 234.78506 26.74893 217.17482 27.453537 211.67227 36.05574 L 211.67227 36.05574 L 226.90965 20.141325 C 208.297 12.665676 185.87054 15.153343 182.19969 25.100801 L 182.19969 25.100801 L 189.46574 0.2895614 C 172.16359 -1.9107136 153.24359 8.743938 151.74632 21.530945 L 151.74632 21.530945 Z"/>
		<path style="fill-rule:nonzero;fill:#ffffff;fill-opacity:0.19607843;" d="M 115.4714 4.4491253 L 113.453896 4.4804363 L 111.429695 4.573731 L 109.40309 4.730511 L 107.37836 4.952286 L 105.359795 5.2405596 L 107.08802 8.982364 L 108.92126 8.750404 L 110.909584 8.563282 L 112.874084 8.440872 L 114.812164 8.380737 L 116.72124 8.380441 L 118.59874 8.437547 L 120.44205 8.549617 L 122.2486 8.714215 L 124.015785 8.928907 L 125.74105 9.191254 L 127.42178 9.498818 L 129.0554 9.849165 L 130.63933 10.239858 L 132.17096 10.66846 L 133.64772 11.132533 L 135.06702 11.629642 L 136.42625 12.15735 L 137.72287 12.71322 L 138.95425 13.294816 L 140.11784 13.8997 L 141.21101 14.525437 L 142.23122 15.169591 L 143.17584 15.829723 L 144.04231 16.503399 L 144.82803 17.188179 L 145.53043 17.881628 L 146.14688 18.581312 L 146.67485 19.28479 L 147.11171 19.989628 L 147.4549 20.693388 L 147.7018 21.393635 L 147.84872 22.08257 L 151.74632 21.530945 L 151.5303 20.45791 L 151.19182 19.406204 L 150.73517 18.37733 L 150.16461 17.372795 L 149.48448 16.394104 L 148.69904 15.442763 L 147.81256 14.520278 L 146.82936 13.628155 L 146.75105 13.565522 L 145.75371 12.767899 L 144.58989 11.941015 L 143.34221 11.149011 L 142.01495 10.393391 L 140.6124 9.675661 L 139.13881 8.997328 L 137.59853 8.359896 L 137.19337 8.20948 L 135.99579 7.7648697 L 134.33492 7.2137585 L 132.62018 6.708065 L 130.85588 6.249297 L 129.0463 5.8389597 L 127.19572 5.4785576 L 125.30842 5.1695976 L 123.38872 4.9135857 L 121.440865 4.712025 L 119.46917 4.566426 L 117.47792 4.4782906 L 115.4714 4.4491253 Z"/>
		<path style="fill-rule:nonzero;fill:#000000;fill-opacity:0.1764706;" d="M 111.224266 8.5436735 L 110.909584 8.563282 L 108.92126 8.750404 L 107.08802 8.982364 L 115.2683 26.693647 L 119.147644 26.144608 L 119.099655 25.785688 L 118.98926 25.404297 L 118.838295 25.028942 L 111.224266 8.5436735 Z"/>
		<path style="fill-rule:nonzero;fill:#ffffff;fill-opacity:0.16078432;" d="M 89.56143 13.087774 L 87.978134 13.095101 L 86.38933 13.164692 L 84.79883 13.297526 L 83.210464 13.494586 L 81.62805 13.756851 L 80.055405 14.085302 L 78.49635 14.480923 L 76.95471 14.944693 L 75.4343 15.4775915 L 73.93895 16.0806 L 76.73398 19.219532 L 77.61121 18.891476 L 79.010376 18.438822 L 80.4176 18.051115 L 81.82996 17.726818 L 83.244545 17.464397 L 84.65843 17.262318 L 86.068695 17.11904 L 87.47242 17.033031 L 88.8667 17.002756 L 90.248604 17.026676 L 91.61521 17.10326 L 92.96361 17.230968 L 94.29088 17.408268 L 95.59409 17.633621 L 96.870346 17.905495 L 98.11671 18.222351 L 99.33026 18.582655 L 100.50809 18.98487 L 101.64727 19.427465 L 102.744896 19.9089 L 103.798035 20.427639 L 104.803764 20.982147 L 105.759186 21.57089 L 106.66137 22.192333 L 107.50738 22.844938 L 108.29433 23.52717 L 109.019264 24.237495 L 109.6793 24.974375 L 110.27149 25.736275 L 110.79293 26.521662 L 111.2407 27.328995 L 111.611115 28.15505 L 115.2683 26.693647 L 114.7727 25.579372 L 114.18753 24.50578 L 113.51664 23.47385 L 112.76383 22.484564 L 111.93294 21.538902 L 111.02777 20.637846 L 110.052155 19.782375 L 109.00991 18.973473 L 107.90485 18.21212 L 106.74078 17.499294 L 105.52157 16.835981 L 104.251 16.223158 L 102.9329 15.661808 L 101.57108 15.152911 L 100.16938 14.69745 L 98.73161 14.296403 L 97.26159 13.950751 L 95.76314 13.661478 L 94.240074 13.429562 L 92.69623 13.255986 L 91.1354 13.141729 L 89.56143 13.087774 Z"/>
		<path style="fill-rule:nonzero;fill:#000000;fill-opacity:0.1764706;" d="M 80.88004 17.944931 L 80.4176 18.051115 L 79.010376 18.438822 L 77.61121 18.891476 L 76.73398 19.219532 L 91.7555 36.089302 L 95.40037 34.63282 L 95.15788 34.099995 L 94.941765 33.767414 L 94.68859 33.452473 L 80.88004 17.944931 Z"/>
		<path style="fill-rule:nonzero;fill:#ffffff;fill-opacity:0.13725491;" d="M 73.276955 27.83831 L 72.05635 27.868713 L 70.832726 27.948126 L 69.609215 28.076908 L 68.38893 28.255428 L 67.17497 28.484045 L 65.97047 28.763124 L 64.77853 29.093027 L 63.602264 29.47412 L 62.444786 29.906763 L 61.309216 30.39132 L 60.19867 30.928154 L 59.11625 31.51763 L 58.06508 32.160107 L 58.06508 32.160107 L 60.58945 35.243782 L 61.225155 34.8601 L 62.184326 34.345146 L 63.163063 33.879925 L 64.15878 33.463596 L 65.1689 33.095306 L 66.19083 32.774208 L 67.221985 32.49945 L 68.25978 32.27019 L 69.30162 32.08558 L 70.34493 31.944767 L 71.38712 31.846905 L 72.42561 31.791145 L 73.45781 31.77664 L 74.481125 31.802544 L 75.49298 31.868004 L 76.49078 31.972174 L 77.47195 32.11421 L 78.43388 32.293255 L 79.37402 32.508465 L 80.289764 32.758995 L 81.17852 33.043995 L 82.03771 33.362617 L 82.86475 33.714012 L 83.65705 34.097332 L 84.412025 34.511726 L 85.12708 34.956352 L 85.799644 35.43036 L 86.427124 35.932896 L 87.006935 36.46312 L 87.53648 37.020176 L 88.01319 37.60322 L 88.433945 38.210644 L 91.7555 36.089302 L 91.1837 35.25754 L 90.54972 34.467888 L 89.856674 33.720707 L 89.1077 33.01636 L 88.30588 32.355213 L 87.454346 31.737627 L 86.556206 31.163963 L 85.61457 30.63459 L 84.63257 30.149866 L 83.613304 29.710155 L 82.55989 29.315823 L 81.47544 28.967228 L 80.363075 28.66474 L 79.22591 28.408716 L 78.06704 28.199522 L 76.8896 28.037521 L 75.69669 27.923079 L 74.49144 27.856552 L 73.276955 27.83831 Z"/>
		<path style="fill-rule:nonzero;fill:#000000;fill-opacity:0.1764706;" d="M 64.21225 33.444103 L 64.15878 33.463596 L 63.163063 33.879925 L 62.184326 34.345146 L 61.225155 34.8601 L 60.58945 35.243782 L 71.74405 48.869812 L 75.06327 46.749966 L 75.02354 46.682896 L 74.7836 46.357662 L 64.21225 33.444103 Z"/>
		<path style="fill-rule:nonzero;fill:#ffffff;fill-opacity:0.11372549;" d="M 63.61905 46.27547 L 62.30507 46.341686 L 60.938828 46.489124 L 59.524536 46.716118 L 58.066402 47.021 L 56.56864 47.4021 L 55.03546 47.857754 L 53.471077 48.38629 L 51.879692 48.98605 L 51.879692 48.98605 L 51.879692 48.98605 L 50.26553 49.65536 L 49.53185 49.98662 L 49.53185 49.98662 L 48.63279 50.392555 L 46.98569 51.195965 L 46.98569 51.195965 L 46.98569 51.195965 L 45.32844 52.063923 L 43.665257 52.994766 L 42.00034 53.986824 L 42.00034 53.986824 L 40.337906 55.03843 L 38.68217 56.14792 L 37.037342 57.313618 L 35.407627 58.533867 L 35.407627 58.533867 L 35.407627 58.533867 L 33.797245 59.80699 L 33.331608 60.195595 L 32.2104 61.13133 L 30.651308 62.50521 L 29.12418 63.926968 L 27.633224 65.39494 L 26.182655 66.90745 L 30.16148 68.45202 L 30.16148 68.45202 L 30.212997 68.398056 L 31.70333 66.91667 L 33.207657 65.50187 L 34.72279 64.15318 L 36.24552 62.870136 L 37.77266 61.652267 L 39.301003 60.499104 L 40.82736 59.41018 L 42.34852 58.38502 L 43.861294 57.423157 L 45.362488 56.52412 L 46.848892 55.68744 L 48.317318 54.912647 L 49.764565 54.199272 L 51.187435 53.546844 L 52.582726 52.9549 L 53.947247 52.422955 L 55.277794 51.950554 L 56.57117 51.53722 L 57.824184 51.182484 L 59.033627 50.88588 L 60.196312 50.646935 L 61.309032 50.46518 L 62.36859 50.34014 L 63.371796 50.271355 L 64.315445 50.25835 L 65.196335 50.300655 L 66.01128 50.397804 L 66.75707 50.54932 L 67.43051 50.75474 L 68.02842 51.01359 L 68.54758 51.325405 L 68.98479 51.68971 L 68.984856 51.689766 L 71.74405 48.869812 L 70.99979 48.22623 L 70.16956 47.677208 L 69.2576 47.22108 L 68.268105 46.856174 L 67.20529 46.58083 L 66.07337 46.39338 L 64.87655 46.292145 L 63.61905 46.27547 Z"/>
		<path style="fill-rule:nonzero;fill:#000000;fill-opacity:0.1764706;" d="M 33.291176 65.42753 L 33.207657 65.50187 L 31.70333 66.91667 L 30.212997 68.398056 L 30.16148 68.45202 L 30.16148 68.45202 L 45.033688 74.22536 L 45.033688 74.22536 L 45.033688 74.22536 L 45.033688 74.22536 L 46.411446 74.7602 L 49.169167 71.94176 L 49.147358 71.916 L 48.54088 71.43354 L 48.197853 71.23614 L 47.82981 71.07137 L 33.291176 65.42753 Z"/>
		<path style="fill-rule:nonzero;fill:#ffffff;fill-opacity:0.078431375;" d="M 43.43754 74.03923 L 42.585632 74.07776 L 41.696175 74.199295 L 40.77208 74.40159 L 39.81625 74.68237 L 38.831604 75.03941 L 37.82105 75.47047 L 36.787495 75.97325 L 35.73385 76.54554 L 34.66303 77.185074 L 33.577938 77.889595 L 32.48149 78.65687 L 31.376598 79.48463 L 30.266169 80.37063 L 29.153112 81.312614 L 28.04034 82.30834 L 26.930761 83.35555 L 25.82729 84.451996 L 24.732832 85.59542 L 23.6503 86.78358 L 22.582603 88.01421 L 21.532656 89.28508 L 20.503363 90.593925 L 19.497637 91.93849 L 18.518389 93.31653 L 17.56853 94.72579 L 16.650969 96.164024 L 15.768616 97.62898 L 14.924382 99.1184 L 18.631836 100.563576 L 18.631836 100.563576 L 19.39379 99.233665 L 20.30419 97.73844 L 21.234133 96.29813 L 22.180904 94.91267 L 23.141785 93.582016 L 24.11406 92.30613 L 25.095013 91.08498 L 26.081926 89.9185 L 28.062773 87.74941 L 30.034868 85.79852 L 31.976484 84.06548 L 33.865887 82.549934 L 35.681343 81.25155 L 37.401127 80.169945 L 39.003506 79.3048 L 40.466743 78.655754 L 41.76912 78.22245 L 42.35319 78.08659 L 42.888893 78.00455 L 43.37352 77.97626 L 43.80434 78.00169 L 44.17865 78.0808 L 44.49373 78.21354 L 44.495903 78.214615 L 46.411446 74.7602 L 45.738846 74.44419 L 45.017056 74.2202 L 44.24898 74.08596 L 43.43754 74.03923 Z"/>
		<path style="fill-rule:nonzero;fill:#000000;fill-opacity:0.1764706;" d="M 20.698639 97.12752 L 20.30419 97.73844 L 19.39379 99.233665 L 18.631836 100.563576 L 18.631836 100.563576 L 29.70865 104.881355 L 31.622265 101.43042 L 31.499931 101.359795 L 31.13212 101.19452 L 20.698639 97.12752 Z"/>
		<path style="fill-rule:nonzero;fill:#ffffff;fill-opacity:0.043137256;" d="M 27.743935 104.61593 L 26.727156 104.6523 L 25.691092 104.797104 L 24.638489 105.047104 L 23.57209 105.39908 L 22.494644 105.849815 L 21.408897 106.396065 L 20.317595 107.034615 L 19.22348 107.762245 L 18.129303 108.57572 L 17.03781 109.47182 L 15.951742 110.44731 L 14.87385 111.49897 L 13.806877 112.62358 L 12.753571 113.81792 L 11.716677 115.07874 L 10.69894 116.40285 L 10.604695 116.53384 L 9.703108 117.786995 L 8.911188 118.961975 L 8.911188 118.961975 L 8.731927 119.22795 L 7.788141 120.7225 L 6.874497 122.26743 L 5.993741 123.8595 L 5.14862 125.49548 L 4.34188 127.17216 L 3.7430553 128.51288 L 3.7430553 128.51288 L 3.5762653 128.88629 L 2.8545215 130.63467 L 2.1793969 132.41408 L 1.5536368 134.22127 L 0.9799861 136.05302 L 0.46119213 137.90611 L -2.4868996E-14 139.77731 L -2.4868996E-14 139.77731 L 4.21706 139.11108 L 4.21706 139.11108 L 4.6906247 137.38055 L 5.240389 135.5858 L 5.8332334 133.83838 L 6.4662538 132.13937 L 7.13655 130.48988 L 7.841221 128.89104 L 8.577364 127.34393 L 9.342078 125.84966 L 10.1324625 124.40933 L 10.945616 123.02405 L 11.778636 121.69492 L 12.628622 120.42305 L 13.492672 119.20954 L 14.367886 118.05549 L 15.25136 116.96201 L 16.140194 115.93021 L 17.031487 114.96118 L 17.922338 114.05602 L 18.809845 113.215866 L 19.691105 112.441795 L 20.56322 111.73492 L 21.423283 111.096344 L 22.268398 110.52716 L 23.095663 110.028496 L 23.902174 109.60144 L 24.68503 109.24709 L 25.441332 108.96656 L 26.168177 108.76097 L 26.862663 108.63139 L 27.52189 108.57895 L 28.142956 108.604744 L 28.722958 108.70988 L 28.726616 108.71063 L 29.70865 104.881355 L 28.738682 104.6912 L 27.743935 104.61593 Z"/>
		<path style="fill-rule:nonzero;fill:#000000;fill-opacity:0.1764706;" d="M 21.820704 132.40813 L 21.425406 132.40993 L 21.02473 132.45255 L 5.469651 134.91005 L 5.240389 135.5858 L 4.6906247 137.38055 L 4.21706 139.11108 L 4.21706 139.11108 L 20.499382 136.5387 L 20.499382 136.5387 L 20.499378 136.5387 L 20.499378 136.5387 L 21.636042 136.35912 L 22.617601 132.5317 L 22.586128 132.52046 L 21.820704 132.40813 Z"/>
		<path style="fill-rule:nonzero;fill:#ffffff;fill-opacity:0.011764706;" d="M 21.636042 136.35912 L 20.807247 136.44945 L 19.98835 136.68683 L 19.180721 137.06647 L 19.180721 137.06647 L 19.180721 137.06647 L 18.385729 137.58354 L 17.604742 138.23326 L 16.839132 139.0108 L 16.09027 139.91139 L 15.359521 140.93018 L 14.648258 142.0624 L 13.95785 143.3032 L 13.289668 144.64783 L 12.64508 146.09145 L 12.025456 147.62926 L 11.432166 149.25645 L 10.866579 150.96823 L 10.330066 152.75978 L 9.823997 154.62628 L 9.349738 156.56297 L 8.908663 158.565 L 8.502139 160.6276 L 8.131538 162.74593 L 7.7982273 164.91519 L 7.5035787 167.1306 L 7.248961 169.38733 L 7.035743 171.68059 L 6.865295 174.00555 L 6.7389874 176.35744 L 6.65819 178.73143 L 6.6242704 181.12271 L 6.6242704 181.12271 L 6.638601 183.52647 L 6.70255 185.93794 L 6.817487 188.3523 L 10.6169615 185.09024 L 10.577487 183.67882 L 10.557561 181.25903 L 10.584634 178.89282 L 10.656379 176.5817 L 10.770468 174.32715 L 10.924574 172.1307 L 11.116369 169.99387 L 11.343527 167.91815 L 11.60372 165.90508 L 12.213898 162.07286 L 12.928287 158.50934 L 13.728266 155.2266 L 14.595217 152.23672 L 15.51052 149.55185 L 16.455555 147.18402 L 17.411705 145.14537 L 18.360352 143.44798 L 18.82604 142.73103 L 19.282871 142.10396 L 19.728516 141.56824 L 20.160646 141.12538 L 20.576937 140.77693 L 20.97506 140.52437 L 21.352688 140.36923 L 21.706352 140.3132 L 21.636042 136.35912 Z"/>
		<path style="fill-rule:nonzero;fill:#000000;fill-opacity:0.1764706;" d="M 22.25385 171.10333 L 21.876736 171.10988 L 21.132748 171.26904 L 20.422113 171.57608 L 20.086277 171.78558 L 19.767145 172.03273 L 10.572806 179.92657 L 10.557561 181.25903 L 10.577487 183.67882 L 10.6169615 185.09024 L 22.323837 175.03923 L 22.25385 171.10333 Z"/>
		<path style="fill-rule:nonzero;fill:#000000;fill-opacity:0.007843138;" d="M 22.323837 175.03923 L 21.605988 175.33737 L 20.93107 175.75722 L 20.299189 176.29433 L 19.710453 176.94426 L 19.164968 177.7026 L 18.66284 178.56493 L 18.66284 178.56493 L 18.66284 178.56493 L 18.204172 179.52678 L 17.789076 180.58374 L 17.417654 181.7314 L 17.090015 182.96529 L 16.806265 184.28102 L 16.566507 185.67413 L 16.370852 187.14021 L 16.219402 188.67482 L 16.112265 190.27353 L 16.112265 190.27353 L 16.04955 191.93193 L 16.031359 193.64555 L 16.0578 195.40999 L 16.12898 197.22081 L 16.245005 199.0736 L 16.40598 200.96387 L 16.612013 202.88727 L 16.612013 202.88727 L 16.612013 202.88727 L 16.863209 204.83932 L 17.159676 206.81561 L 17.501518 208.81169 L 17.888844 210.82315 L 18.321758 212.84557 L 18.800367 214.87447 L 19.324778 216.90547 L 19.895094 218.93411 L 20.511427 220.956 L 21.17388 222.96666 L 24.277819 219.80237 L 24.235977 219.67517 L 23.601059 217.58688 L 23.024263 215.53014 L 22.503725 213.50706 L 22.037584 211.51968 L 21.62398 209.57011 L 21.26105 207.66042 L 20.946934 205.79266 L 20.679771 203.96895 L 20.27886 200.46188 L 20.043428 197.15588 L 19.958584 194.06752 L 20.009438 191.21344 L 20.181103 188.61023 L 20.458689 186.27454 L 20.827309 184.22295 L 21.272068 182.47209 L 21.51835 181.71463 L 21.778084 181.0386 L 22.049408 180.44606 L 22.330463 179.93907 L 22.619387 179.51974 L 22.914318 179.19012 L 23.213396 178.95232 L 23.510653 178.81035 L 22.323837 175.03923 Z"/>
		<path style="fill-rule:nonzero;fill:#000000;fill-opacity:0.1764706;" d="M 32.28272 206.68375 L 31.956717 206.7834 L 31.274792 207.15034 L 30.958 207.38794 L 30.661055 207.66156 L 23.007277 215.46413 L 23.024263 215.53014 L 23.601059 217.58688 L 24.235977 219.67517 L 24.277819 219.80237 L 33.464077 210.43755 L 32.28272 206.68375 Z"/>
		<path style="fill-rule:nonzero;fill:#000000;fill-opacity:0.019607844;" d="M 33.464077 210.43755 L 32.521896 211.08789 L 31.629248 211.81355 L 30.786478 212.61086 L 29.993944 213.47609 L 29.252 214.4056 L 28.561 215.39566 L 27.921297 216.44263 L 27.333244 217.54279 L 26.797197 218.69244 L 26.313509 219.88795 L 25.882534 221.12561 L 25.504625 222.40169 L 25.180138 223.71255 L 24.909426 225.05449 L 24.69284 226.42384 L 24.530737 227.8169 L 24.423471 229.22997 L 24.371395 230.65936 L 24.374863 232.10143 L 24.434227 233.55241 L 24.549845 235.00873 L 24.722067 236.4666 L 24.95125 237.92236 L 25.237745 239.37238 L 25.581907 240.8129 L 25.98409 242.24026 L 26.44465 243.65079 L 26.963938 245.04077 L 27.542309 246.40656 L 28.180117 247.74443 L 28.877714 249.0507 L 29.635456 250.32172 L 32.796795 247.93259 L 32.237892 246.99068 L 31.602495 245.79395 L 31.026024 244.5754 L 30.507504 243.33818 L 30.045961 242.0854 L 29.640423 240.82018 L 29.289913 239.54562 L 28.993456 238.26486 L 28.750078 236.98105 L 28.558805 235.69727 L 28.418663 234.41666 L 28.328674 233.14233 L 28.287867 231.87741 L 28.295265 230.62505 L 28.349894 229.38832 L 28.45078 228.17036 L 28.596949 226.97433 L 28.787424 225.8033 L 29.021233 224.6604 L 29.2974 223.54878 L 29.61495 222.47154 L 29.972908 221.43182 L 30.370302 220.43272 L 30.806154 219.47739 L 31.279491 218.56891 L 31.789341 217.71045 L 32.334724 216.90509 L 32.91467 216.15596 L 33.528202 215.46622 L 34.174343 214.83894 L 34.852127 214.27727 L 35.55936 213.78519 L 33.464077 210.43755 Z"/>
		<path style="fill-rule:nonzero;fill:#000000;fill-opacity:0.1764706;" d="M 47.08817 232.20473 L 46.816193 232.38945 L 30.945553 244.38339 L 31.026024 244.5754 L 31.602495 245.79395 L 32.237892 246.99068 L 32.796795 247.93259 L 49.181892 235.54987 L 49.181892 235.54987 L 47.08817 232.20473 Z"/>
		<path style="fill-rule:nonzero;fill:#000000;fill-opacity:0.03137255;" d="M 49.181892 235.54987 L 48.50426 236.28171 L 47.878807 237.06546 L 47.305267 237.89795 L 46.783375 238.77612 L 46.31286 239.69684 L 45.893456 240.657 L 45.524902 241.65343 L 45.20693 242.68309 L 44.939274 243.74283 L 44.721672 244.82954 L 44.55385 245.9401 L 44.435547 247.0714 L 44.366497 248.2203 L 44.34643 249.38373 L 44.375088 250.55855 L 44.4522 251.74164 L 44.577503 252.92989 L 44.750725 254.1202 L 44.750725 254.1202 L 44.971607 255.3094 L 45.23988 256.49445 L 45.555275 257.67218 L 45.91753 258.8395 L 46.32638 259.99332 L 46.78156 261.13046 L 47.282795 262.24783 L 47.82983 263.34235 L 48.422394 264.41086 L 49.06022 265.45026 L 49.743042 266.45743 L 50.4706 267.42926 L 51.242622 268.36264 L 52.058846 269.2545 L 55.212856 266.89487 L 55.212856 266.89487 L 55.151817 266.80853 L 54.88652 266.50385 L 54.162888 265.71265 L 53.482708 264.88834 L 52.84572 264.0336 L 52.251648 263.15125 L 51.70023 262.24393 L 51.1912 261.31448 L 50.724293 260.36557 L 50.299236 259.4 L 49.915768 258.42047 L 49.573616 257.42975 L 49.272522 256.43054 L 49.01221 255.42564 L 48.792423 254.41776 L 48.612885 253.40965 L 48.373505 251.4037 L 48.29193 249.42975 L 48.36603 247.50972 L 48.460793 246.5768 L 48.593674 245.66557 L 48.764404 244.7788 L 48.97272 243.91922 L 49.218353 243.08958 L 49.501038 242.29262 L 49.820507 241.53108 L 50.17649 240.80772 L 50.56873 240.12526 L 50.99695 239.48645 L 51.460888 238.89403 L 51.96027 238.35075 L 49.181892 235.54987 Z"/>
		<path style="fill-rule:nonzero;fill:#000000;fill-opacity:0.1764706;" d="M 66.79154 253.30225 L 52.712227 263.83533 L 52.84572 264.0336 L 53.482708 264.88834 L 54.162888 265.71265 L 54.88652 266.50385 L 55.151817 266.80853 L 55.212856 266.89487 L 55.212856 266.89487 L 69.59887 256.1323 L 66.79154 253.30225 Z"/>
		<path style="fill-rule:nonzero;fill:#000000;fill-opacity:0.043137256;" d="M 69.59887 256.1323 L 69.16654 256.86084 L 68.78457 257.62222 L 68.45224 258.41397 L 68.168846 259.23355 L 67.93369 260.07846 L 67.74606 260.9462 L 67.605255 261.83426 L 67.51056 262.7401 L 67.46127 263.66125 L 67.456696 264.59518 L 67.49611 265.53937 L 67.57881 266.4913 L 67.70411 267.44852 L 67.87128 268.40842 L 67.98256 268.9213 L 68.07962 269.3686 L 68.32843 270.32648 L 68.617004 271.27954 L 68.944626 272.2253 L 69.3106 273.1613 L 69.3106 273.1613 L 69.3106 273.1613 L 69.714226 274.0849 L 70.15478 274.9937 L 70.63156 275.88516 L 71.143875 276.75677 L 71.69101 277.606 L 72.272255 278.43033 L 72.88691 279.22733 L 73.53426 279.9944 L 74.213615 280.729 L 74.924255 281.42877 L 75.665474 282.09103 L 76.43658 282.7134 L 77.23685 283.2933 L 80.28323 280.8182 L 80.28323 280.8182 L 80.06372 280.54074 L 79.77439 280.2701 L 79.453316 280.0255 L 78.773506 279.5323 L 78.12218 279.00452 L 77.49955 278.4445 L 76.90584 277.85443 L 75.80604 276.59326 L 74.82449 275.239 L 73.962975 273.80966 L 73.2232 272.32324 L 72.60691 270.79776 L 72.11584 269.2512 L 71.75173 267.7015 L 71.51631 266.16678 L 71.41134 264.66495 L 71.43853 263.21405 L 71.59964 261.83206 L 71.89639 260.53702 L 72.096176 259.9277 L 72.33053 259.34686 L 72.59966 258.79678 L 72.90379 258.27963 L 72.90438 258.27863 L 69.59887 256.1323 Z"/>
		<path style="fill-rule:nonzero;fill:#000000;fill-opacity:0.1764706;" d="M 88.945786 268.69452 L 77.250305 278.19678 L 77.49955 278.4445 L 78.12218 279.00452 L 78.773506 279.5323 L 79.453316 280.0255 L 79.77439 280.2701 L 80.06372 280.54074 L 80.28323 280.8182 L 80.28323 280.8182 L 92.42483 270.95352 L 88.945786 268.69452 Z"/>
		<path style="fill-rule:nonzero;fill:#000000;fill-opacity:0.05490196;" d="M 92.42483 270.95352 L 92.127235 271.8946 L 91.88986 272.85846 L 91.711426 273.84247 L 91.59063 274.844 L 91.52619 275.8604 L 91.51682 276.8891 L 91.561226 277.92743 L 91.65812 278.97278 L 91.806206 280.02255 L 92.004196 281.0741 L 92.25081 282.1248 L 92.544754 283.172 L 92.544754 283.172 L 92.884735 284.21307 L 93.26946 285.24548 L 93.69765 286.2665 L 94.168015 287.2736 L 94.67925 288.26407 L 95.23008 289.23532 L 95.819214 290.18472 L 96.44536 291.10968 L 97.10722 292.00754 L 97.80352 292.87567 L 98.53296 293.71146 L 98.53296 293.71146 L 98.53296 293.71146 L 99.29426 294.51227 L 100.08611 295.2755 L 100.90725 295.99854 L 101.75636 296.6787 L 101.75636 296.6787 L 101.75636 296.6787 L 102.63218 297.31345 L 103.5334 297.9001 L 104.45873 298.436 L 104.45873 298.436 L 104.45873 298.436 L 105.40689 298.91858 L 106.37659 299.3452 L 109.220245 296.62234 L 109.155266 296.54318 L 108.55616 296.0515 L 108.21616 295.84888 L 107.85066 295.67853 L 107.040016 295.3209 L 106.24828 294.9151 L 105.47645 294.4635 L 104.72549 293.96857 L 103.99637 293.43265 L 103.29007 292.85822 L 102.60757 292.2476 L 101.94984 291.60324 L 101.31786 290.92758 L 100.712616 290.223 L 99.58618 288.73663 L 98.57837 287.16348 L 97.696976 285.5228 L 96.94981 283.83383 L 96.34467 282.11578 L 95.88937 280.388 L 95.591736 278.66968 L 95.50447 277.8201 L 95.45954 276.9801 L 95.45793 276.15213 L 95.50062 275.33853 L 95.58856 274.54175 L 95.72276 273.76422 L 95.904175 273.0083 L 96.13379 272.2764 L 96.1348 272.27298 L 92.42483 270.95352 Z"/>
		<path style="fill-rule:nonzero;fill:#000000;fill-opacity:0.1764706;" d="M 120.05871 280.78168 L 105.65861 294.5701 L 106.24828 294.9151 L 107.040016 295.3209 L 107.85066 295.67853 L 108.21616 295.84888 L 108.55616 296.0515 L 109.155266 296.54318 L 109.220245 296.62234 L 124.21855 282.26114 L 120.05871 280.78168 Z"/>
		<path style="fill-rule:nonzero;fill:#000000;fill-opacity:0.06666667;" d="M 124.21855 282.26114 L 124.12758 283.34506 L 124.08163 284.43405 L 124.07945 285.52576 L 124.119835 286.61783 L 124.20152 287.70795 L 124.32332 288.79367 L 124.68225 290.94275 L 125.18677 293.04608 L 125.82705 295.0849 L 126.59324 297.04028 L 127.47549 298.89343 L 128.46397 300.6254 L 128.99496 301.44006 L 129.54883 302.21738 L 130.12431 302.955 L 130.72021 303.65048 L 131.33528 304.30157 L 131.96829 304.90585 L 132.61803 305.461 L 133.28323 305.96466 L 133.96268 306.41443 L 134.65517 306.80798 L 135.35942 307.14294 L 136.07426 307.417 L 136.79842 307.6277 L 137.53067 307.77277 L 139.63087 304.43317 L 139.63087 304.43317 L 139.58604 304.39917 L 138.88972 304.06064 L 138.51219 303.94287 L 138.11731 303.86243 L 137.67795 303.77057 L 137.22942 303.62753 L 136.77345 303.43478 L 136.31183 303.1937 L 135.37843 302.5724 L 134.44315 301.77515 L 133.51988 300.81348 L 132.62253 299.6989 L 131.76497 298.44293 L 130.96114 297.0571 L 130.22493 295.55295 L 129.57022 293.94193 L 129.01094 292.23563 L 128.56099 290.44553 L 128.23424 288.58316 L 128.04462 286.66003 L 128.00558 285.6793 L 128.00604 284.68768 L 128.04771 283.6866 L 128.13237 282.6776 L 128.13254 282.67444 L 124.21855 282.26114 Z"/>
		<path style="fill-rule:nonzero;fill:#000000;fill-opacity:0.1764706;" d="M 147.38065 284.70688 L 135.91914 302.9323 L 136.31183 303.1937 L 136.77345 303.43478 L 137.22942 303.62753 L 137.67795 303.77057 L 138.11731 303.86243 L 138.51219 303.94287 L 138.88972 304.06064 L 139.58604 304.39917 L 139.63087 304.43317 L 139.63087 304.43317 L 151.74632 285.16785 L 147.38065 284.70688 Z"/>
		<path style="fill-rule:nonzero;fill:#ffffff;fill-opacity:0.19607843;" d="M 184.57254 8.46442E-4 L 184.57254 8.46442E-4 L 184.57254 8.46442E-4 L 182.9388 0.046090152 L 181.3095 0.15880091 L 179.68816 0.33701766 L 178.07826 0.5787767 L 176.48329 0.88211447 L 174.90674 1.245066 L 173.35208 1.6656692 L 171.82278 2.1419601 L 170.32239 2.6719766 L 168.85434 3.2537537 L 167.42213 3.8853302 L 166.02927 4.56474 L 164.6792 5.2900224 L 163.37544 6.059213 L 162.12149 6.8703475 L 160.92079 7.7214637 L 159.77687 8.610598 L 158.69319 9.535787 L 157.67326 10.495067 L 156.72054 11.486474 L 155.83853 12.508046 L 155.03072 13.55782 L 154.30058 14.633831 L 153.65161 15.734117 L 153.08731 16.856714 L 152.61115 17.999659 L 152.2266 19.160986 L 151.93716 20.338737 L 151.74632 21.530945 L 155.65569 21.989214 L 155.8015 21.101007 L 156.03058 20.206984 L 156.3398 19.313316 L 156.72658 18.422369 L 157.18839 17.536507 L 157.72266 16.65809 L 158.32684 15.789489 L 158.99841 14.933063 L 159.73479 14.091179 L 160.53345 13.2662 L 161.39182 12.460491 L 162.30736 11.676415 L 163.27751 10.91634 L 164.29974 10.182625 L 165.37149 9.477639 L 166.49022 8.803742 L 167.65335 8.163303 L 168.85835 7.5586834 L 170.10268 6.9922466 L 171.38377 6.4663587 L 172.69908 5.983385 L 174.04608 5.5456862 L 175.42218 5.15563 L 176.82484 4.8155794 L 178.25154 4.527899 L 179.6997 4.2949524 L 181.16678 4.1191053 L 182.65022 4.00272 L 184.14748 3.948162 L 185.65602 3.9577954 L 187.17328 4.0339847 L 188.33672 4.144806 L 189.46574 0.2895614 L 189.46574 0.2895614 L 187.83951 0.12061971 L 186.20728 0.025035925 L 184.57254 8.46442E-4 Z"/>
		<path style="fill-rule:nonzero;fill:#000000;fill-opacity:0.1764706;" d="M 184.29149 3.9490824 L 178.42406 23.984474 L 178.32996 24.378124 L 178.29424 24.642988 L 182.19969 25.100801 L 188.33672 4.144806 L 187.17328 4.0339847 L 185.65602 3.9577954 L 184.29149 3.9490824 Z"/>
		<path style="fill-rule:nonzero;fill:#ffffff;fill-opacity:0.16470589;" d="M 203.85042 15.795532 L 202.18056 15.841013 L 200.5462 15.938454 L 198.95149 16.087399 L 197.40056 16.287386 L 195.89755 16.53796 L 194.44656 16.838661 L 193.05174 17.189032 L 191.71722 17.588614 L 190.44716 18.036947 L 189.24567 18.533573 L 188.11687 19.078035 L 187.0649 19.669876 L 186.0939 20.308634 L 186.08492 20.315588 L 185.20801 20.993853 L 184.41817 21.718819 L 184.41135 21.725073 L 183.70805 22.501835 L 183.10226 23.323685 L 182.59808 24.190159 L 182.19969 25.100801 L 185.89111 26.472906 L 186.13739 25.929895 L 186.47166 25.395435 L 186.8902 24.874027 L 187.39038 24.367428 L 187.96971 23.877392 L 188.62561 23.40568 L 189.3555 22.954046 L 190.15689 22.524248 L 191.02716 22.118044 L 191.9638 21.737186 L 192.96426 21.383434 L 194.02599 21.058546 L 195.1464 20.764277 L 196.32295 20.502382 L 197.55312 20.27462 L 198.8343 20.082748 L 200.164 19.92852 L 201.53961 19.813696 L 202.95863 19.740032 L 204.41849 19.709284 L 205.91661 19.723207 L 207.45047 19.78356 L 209.0175 19.8921 L 210.61516 20.050581 L 212.24088 20.260763 L 213.8921 20.5244 L 215.56631 20.843252 L 217.26091 21.219072 L 218.97339 21.653618 L 220.70117 22.14865 L 222.4417 22.705917 L 223.9438 23.238955 L 226.90965 20.141325 L 225.15424 19.469597 L 223.3806 18.855787 L 221.59286 18.29944 L 219.79521 17.800098 L 217.99173 17.3573 L 216.18657 16.970589 L 214.38385 16.639505 L 212.5877 16.363592 L 210.8023 16.142391 L 209.03174 15.975443 L 207.28014 15.862289 L 205.55165 15.802472 L 203.85042 15.795532 Z"/>
		<path style="fill-rule:nonzero;fill:#000000;fill-opacity:0.1764706;" d="M 219.7793 21.88452 L 208.836 33.314056 L 208.57166 33.61959 L 208.34372 33.944103 L 207.99678 34.6388 L 207.98415 34.68487 L 211.67227 36.05574 L 214.74316 32.8484 L 214.74316 32.848404 L 223.9438 23.238955 L 222.4417 22.705917 L 220.70117 22.14865 L 219.7793 21.88452 Z"/>
		<path style="fill-rule:nonzero;fill:#ffffff;fill-opacity:0.13725491;" d="M 228.03612 29.13903 L 226.79156 29.16427 L 225.56602 29.237862 L 224.36273 29.359676 L 223.18498 29.529585 L 222.03598 29.747454 L 220.91898 30.013159 L 219.83723 30.326565 L 218.79398 30.687544 L 217.79245 31.095968 L 216.83594 31.551704 L 215.92761 32.054626 L 215.07079 32.6046 L 214.26866 33.2015 L 213.52449 33.845192 L 212.84155 34.535553 L 212.22307 35.272446 L 211.67227 36.05574 L 214.98369 38.19307 L 215.35834 37.66731 L 215.7943 37.164005 L 216.28833 36.684994 L 216.83795 36.23126 L 217.4406 35.803802 L 218.09367 35.403614 L 218.79468 35.03169 L 219.54102 34.689022 L 220.33015 34.37661 L 221.15956 34.095444 L 222.02666 33.84652 L 222.9289 33.63083 L 223.86371 33.449368 L 224.82858 33.303135 L 225.82092 33.19312 L 226.83823 33.120316 L 227.87788 33.08572 L 228.93736 33.090324 L 230.01414 33.135124 L 231.10562 33.221115 L 232.20929 33.349293 L 233.32257 33.52065 L 234.4429 33.736176 L 235.56775 33.996872 L 236.69458 34.30373 L 237.8208 34.65774 L 238.94386 35.059906 L 240.06125 35.511215 L 241.1704 36.012665 L 242.26869 36.565247 L 243.35367 37.169956 L 244.04448 37.595028 L 246.78053 34.65102 L 245.64005 33.93539 L 244.46991 33.270065 L 243.27336 32.654907 L 242.05365 32.08979 L 240.81403 31.574583 L 240.81403 31.574583 L 239.55772 31.109158 L 238.288 30.693382 L 237.00807 30.32713 L 235.72122 30.010265 L 234.43066 29.742664 L 233.13966 29.524193 L 231.85147 29.354725 L 230.56932 29.234129 L 229.29645 29.162273 L 228.03612 29.13903 Z"/>
		<path style="fill-rule:nonzero;fill:#000000;fill-opacity:0.1764706;" d="M 240.43793 35.681515 L 229.9244 46.994083 L 229.66463 47.30353 L 229.49193 47.55732 L 232.80092 49.693096 L 244.04448 37.595028 L 243.35367 37.169956 L 242.26869 36.565247 L 241.1704 36.012665 L 240.43793 35.681515 Z"/>
		<path style="fill-rule:nonzero;fill:#ffffff;fill-opacity:0.10980392;" d="M 240.65253 47.009613 L 239.28188 47.06208 L 237.98615 47.221127 L 236.77022 47.488983 L 235.63887 47.867878 L 234.597 48.36004 L 233.64938 48.967705 L 232.80092 49.693096 L 235.5554 52.517715 L 235.55547 52.517654 L 236.0451 52.110126 L 236.62091 51.765076 L 237.27979 51.482876 L 238.01857 51.263916 L 238.83415 51.10857 L 239.72337 51.017227 L 240.6831 50.990257 L 241.71024 51.028057 L 242.80164 51.130993 L 243.95415 51.299446 L 245.16466 51.53381 L 246.43004 51.834454 L 247.74716 52.201767 L 249.11287 52.636124 L 250.52406 53.13791 L 251.97758 53.7075 L 253.47032 54.345284 L 254.99915 55.051636 L 256.5609 55.82694 L 258.15247 56.671574 L 259.77072 57.585926 L 261.41254 58.570366 L 263.07477 59.625282 L 264.7543 60.751057 L 266.448 61.94807 L 268.1527 63.216698 L 269.8653 64.55732 L 271.58267 65.97034 L 273.30167 67.4561 L 275.0192 69.015015 L 276.73206 70.647446 L 278.4372 72.35378 L 279.85986 73.85746 L 285.12762 73.81501 L 285.12762 73.81501 L 285.12762 73.81501 L 283.45535 71.9276 L 281.7371 70.09101 L 279.97772 68.3075 L 278.18204 66.579285 L 276.3549 64.9086 L 274.5011 63.297676 L 272.62552 61.74874 L 270.99417 60.468918 L 270.733 60.264023 L 268.82834 58.845753 L 266.9164 57.496155 L 265.00204 56.21747 L 263.09006 55.011917 L 261.1853 53.88173 L 259.2926 52.82914 L 257.4168 51.856373 L 255.56277 50.965664 L 253.73529 50.159237 L 251.93922 49.439323 L 250.17941 48.808155 L 248.46066 48.26796 L 246.78786 47.820965 L 245.1658 47.469406 L 243.59933 47.215508 L 242.09329 47.0615 L 240.65253 47.009613 Z"/>
		<path style="fill-rule:nonzero;fill:#000000;fill-opacity:0.1764706;" d="M 275.9835 69.93401 L 256.51675 70.090866 L 256.11453 70.114525 L 255.72423 70.1776 L 254.98734 70.41397 L 254.32173 70.78395 L 253.79819 71.22513 L 256.5483 74.045296 L 279.85986 73.85746 L 278.4372 72.35378 L 276.73206 70.647446 L 275.9835 69.93401 Z"/>
		<path style="fill-rule:nonzero;fill:#ffffff;fill-opacity:0.078431375;" d="M 262.38757 72.581375 L 261.11768 72.649376 L 259.89478 72.827126 L 258.72293 73.11727 L 257.6061 73.522446 L 256.5483 74.045296 L 258.48102 77.490036 L 258.48325 77.48893 L 259.1863 77.1488 L 259.95367 76.887856 L 260.78183 76.70544 L 261.66724 76.600914 L 262.6064 76.57364 L 263.5958 76.62298 L 264.63187 76.74829 L 265.71112 76.94894 L 266.83005 77.224266 L 267.9851 77.57365 L 269.17273 77.99643 L 270.3895 78.49198 L 271.63184 79.059654 L 272.8962 79.698814 L 274.1791 80.40882 L 275.47702 81.18903 L 276.7864 82.038795 L 278.10376 82.95749 L 279.42557 83.94446 L 280.7483 84.99907 L 282.0684 86.12068 L 283.3824 87.30865 L 284.68677 88.562325 L 285.97797 89.88108 L 287.25247 91.264275 L 288.50674 92.71126 L 289.7373 94.221405 L 290.94064 95.79405 L 292.1132 97.42857 L 293.25143 99.12433 L 294.35187 100.88067 L 295.41098 102.69696 L 295.52243 102.90313 L 295.52243 102.90313 L 299.83215 102.59145 L 298.80484 100.69345 L 297.71652 98.833954 L 296.57117 97.01561 L 295.3729 95.24106 L 294.12558 93.51293 L 292.83328 91.833885 L 291.5 90.206535 L 290.12973 88.63354 L 288.72647 87.117516 L 287.29422 85.661125 L 285.83698 84.26698 L 284.35876 82.93775 L 282.86356 81.676056 L 281.35535 80.484535 L 279.83817 79.36583 L 278.316 78.32258 L 276.79288 77.35742 L 275.27274 76.47299 L 273.75964 75.67193 L 272.25757 74.95688 L 270.77048 74.330475 L 269.30243 73.79535 L 267.85742 73.35416 L 266.43942 73.00952 L 265.05243 72.764084 L 263.70047 72.62049 L 262.38757 72.581375 Z"/>
		<path style="fill-rule:nonzero;fill:#000000;fill-opacity:0.1764706;" d="M 293.23752 99.103584 L 273.3453 100.54216 L 272.9454 100.59155 L 272.5599 100.67951 L 271.8395 100.96263 L 271.70074 101.05183 L 273.62784 104.48651 L 276.06348 104.31037 L 276.06348 104.31037 L 276.06348 104.31037 L 276.06348 104.31037 L 295.52243 102.90313 L 295.52243 102.90313 L 295.41098 102.69696 L 294.35187 100.88067 L 293.25143 99.12433 L 293.23752 99.103584 Z"/>
		<path style="fill-rule:nonzero;fill:#ffffff;fill-opacity:0.043137256;" d="M 275.316 104.273506 L 274.46 104.329124 L 273.62784 104.48651 L 274.59305 108.32008 L 274.59717 108.319244 L 275.05612 108.24316 L 275.55673 108.23756 L 276.0962 108.301544 L 276.67175 108.43422 L 277.28058 108.63467 L 277.91992 108.902 L 278.58698 109.2353 L 279.279 109.63366 L 279.99313 110.09619 L 280.72665 110.62199 L 282.2406 111.85973 L 283.79855 113.3397 L 285.37823 115.05463 L 286.95734 116.99731 L 288.51358 119.1605 L 289.27615 120.32254 L 290.02463 121.53699 L 290.75626 122.802956 L 291.46826 124.11953 L 292.15778 125.48582 L 292.8221 126.9009 L 293.4584 128.36389 L 294.06393 129.87389 L 294.63586 131.42996 L 295.17145 133.03123 L 295.66788 134.6768 L 296.0631 136.14566 L 300.0 135.64417 L 300.0 135.64417 L 299.56174 133.98581 L 299.0742 132.34283 L 298.5398 130.7181 L 298.066 129.40529 L 297.96106 129.11452 L 297.34033 127.534935 L 296.68008 125.98224 L 295.98276 124.45933 L 295.2508 122.96907 L 294.4866 121.514336 L 293.69266 120.09803 L 292.87137 118.723 L 292.0252 117.39216 L 292.0252 117.39216 L 291.15656 116.10835 L 290.26794 114.8745 L 289.3617 113.69344 L 288.4403 112.56808 L 287.50623 111.5013 L 286.5619 110.49596 L 286.5619 110.49596 L 286.5619 110.49596 L 285.6097 109.554955 L 284.65213 108.68117 L 283.6916 107.877464 L 282.73056 107.146736 L 281.77142 106.49186 L 280.81665 105.91572 L 279.86865 105.42119 L 278.92993 105.01115 L 278.00284 104.688484 L 277.08987 104.45606 L 276.19345 104.31678 L 275.316 104.273506 Z"/>
		<path style="fill-rule:nonzero;fill:#000000;fill-opacity:0.1764706;" d="M 294.92822 132.30402 L 281.55338 134.00778 L 281.15674 134.0789 L 281.08377 134.0998 L 282.04837 137.93094 L 296.0631 136.14566 L 295.66788 134.6768 L 295.17145 133.03123 L 294.92822 132.30402 Z"/>
		<path style="fill-rule:nonzero;fill:#ffffff;fill-opacity:0.011764706;" d="M 282.04837 137.93094 L 282.13663 141.88446 L 282.13757 141.88449 L 282.51392 141.90927 L 282.91327 141.99956 L 283.33344 142.15436 L 283.77216 142.37263 L 284.22726 142.65341 L 284.69647 142.99565 L 285.6685 143.86058 L 286.67044 144.9594 L 287.68466 146.28404 L 288.69333 147.82648 L 289.6787 149.5787 L 290.62314 151.53265 L 291.50888 153.6803 L 292.3181 156.01358 L 293.03314 158.52452 L 293.6363 161.20502 L 293.89032 162.60635 L 294.10974 164.04707 L 294.2923 165.52617 L 294.4358 167.04265 L 294.538 168.59549 L 294.56802 169.40768 L 294.56802 169.40768 L 298.54376 171.60072 L 298.54376 171.60072 L 298.52945 170.01048 L 298.46756 168.42383 L 298.35962 166.84387 L 298.20712 165.27374 L 298.01166 163.71655 L 297.7747 162.17538 L 297.49777 160.65338 L 297.1824 159.15363 L 296.83014 157.67926 L 296.83014 157.67926 L 296.4425 156.23338 L 296.021 154.81912 L 295.56717 153.43956 L 295.08252 152.09782 L 294.5686 150.79703 L 294.02692 149.54028 L 293.45898 148.3307 L 292.86633 147.17139 L 292.25052 146.06548 L 292.10147 145.82008 L 292.10147 145.82008 L 291.61304 145.01604 L 290.9554 144.02623 L 290.2792 143.09914 L 289.58588 142.23788 L 288.877 141.44557 L 288.15408 140.72533 L 287.41867 140.08026 L 286.67224 139.51346 L 285.91635 139.02806 L 285.15256 138.62718 L 284.38232 138.31392 L 283.6072 138.09137 L 282.8287 137.96269 L 282.04837 137.93094 Z"/>
		<path style="fill-rule:nonzero;fill:#000000;fill-opacity:0.1764706;" d="M 282.51584 158.8709 L 282.60373 162.80812 L 289.9595 166.86562 L 289.9595 166.8656 L 289.9595 166.8656 L 294.56802 169.40768 L 294.56802 169.40768 L 294.538 168.59549 L 294.4358 167.04265 L 294.2923 165.52617 L 294.18875 164.68721 L 284.4977 159.34158 L 284.1352 159.1649 L 283.76395 159.02847 L 283.00598 158.87325 L 282.51584 158.8709 Z"/>
		<path style="fill-rule:nonzero;fill:#000000;fill-opacity:0.0;" d="M 282.60373 162.80812 L 281.97147 166.71143 L 282.61163 166.85052 L 283.25653 167.05766 L 283.90198 167.33041 L 284.54605 167.66678 L 285.18677 168.06479 L 285.82224 168.52248 L 286.45047 169.03784 L 287.0695 169.60892 L 287.67743 170.23373 L 288.27225 170.91031 L 288.85208 171.63666 L 289.41492 172.4108 L 289.95886 173.23077 L 290.48193 174.09459 L 290.98218 175.00026 L 291.45767 175.94583 L 291.90643 176.9293 L 292.32657 177.94872 L 292.71606 179.00208 L 293.07303 180.08742 L 293.39548 181.20276 L 293.6815 182.34613 L 293.92905 183.51552 L 294.13632 184.709 L 294.30127 185.92455 L 294.42197 187.16022 L 294.49646 188.414 L 294.52283 189.68396 L 294.4991 190.9681 L 294.42334 192.2644 L 294.2936 193.57095 L 294.1994 194.23799 L 297.88892 196.12325 L 298.1126 194.7207 L 298.27692 193.3107 L 298.38324 191.89629 L 298.38495 191.84798 L 298.43304 190.48056 L 298.42767 189.0666 L 298.36862 187.6575 L 298.25723 186.2563 L 298.09497 184.86612 L 297.8832 183.48999 L 297.62335 182.13104 L 297.31683 180.79233 L 296.9651 179.47693 L 296.56952 178.18794 L 296.1315 176.92842 L 295.6525 175.70146 L 295.13385 174.51013 L 294.57706 173.35751 L 293.98352 172.24669 L 293.35455 171.18076 L 292.6917 170.16277 L 291.9963 169.1958 L 291.26978 168.28296 L 290.51352 167.4273 L 289.729 166.63191 L 288.9176 165.89989 L 288.08072 165.23428 L 287.2198 164.63818 L 286.3362 164.11469 L 285.4314 163.66684 L 284.5068 163.29774 L 283.56375 163.01048 L 282.60373 162.80812 Z"/>
		<path style="fill-rule:nonzero;fill:#000000;fill-opacity:0.1764706;" d="M 279.41745 182.47781 L 278.78806 186.36314 L 279.55286 186.75394 L 279.55286 186.75394 L 279.55286 186.75394 L 279.55286 186.75394 L 279.55286 186.75394 L 279.55286 186.75394 L 279.55286 186.75394 L 279.55286 186.75394 L 294.1994 194.23799 L 294.2936 193.57095 L 294.42334 192.2644 L 294.4991 190.9681 L 294.51764 189.96408 L 280.57208 182.83821 L 280.2042 182.67313 L 279.82886 182.54855 L 279.41745 182.47781 Z"/>
		<path style="fill-rule:nonzero;fill:#000000;fill-opacity:0.011764706;" d="M 278.78806 186.36314 L 277.3151 190.03072 L 277.633 190.20256 L 277.94785 190.45872 L 278.25497 190.79536 L 278.5526 191.21039 L 278.83908 191.70158 L 279.11264 192.26677 L 279.37155 192.9038 L 279.61407 193.61047 L 280.0431 195.22417 L 280.38586 197.09045 L 280.62854 199.19202 L 280.7573 201.51146 L 280.75833 204.03142 L 280.61777 206.73457 L 280.32175 209.6035 L 279.8565 212.62088 L 279.5561 214.17981 L 279.20816 215.76935 L 278.81104 217.38731 L 278.3629 219.03152 L 277.86212 220.69983 L 277.30692 222.39006 L 276.69556 224.10004 L 276.1523 225.50237 L 279.43472 227.89876 L 280.0955 226.23912 L 280.71176 224.56442 L 281.28354 222.8785 L 281.8109 221.18518 L 282.29395 219.48836 L 282.73267 217.79181 L 283.12714 216.09941 L 283.47748 214.41496 L 283.78366 212.74236 L 284.0458 211.08539 L 284.26395 209.44792 L 284.43817 207.83377 L 284.5685 206.24681 L 284.65503 204.69086 L 284.6978 203.16974 L 284.69687 201.68733 L 284.6523 200.24744 L 284.56415 198.85393 L 284.4325 197.5106 L 284.2574 196.22134 L 284.03888 194.98994 L 283.777 193.82028 L 283.4719 192.71619 L 283.12354 191.6815 L 282.73203 190.72005 L 282.29742 189.83568 L 281.81976 189.03223 L 281.29913 188.31354 L 280.73563 187.68344 L 280.1292 187.14578 L 279.55286 186.75394 L 279.55286 186.75394 L 279.55286 186.75394 L 279.55286 186.75394 L 279.48 186.7044 L 278.78806 186.36314 Z"/>
		<path style="fill-rule:nonzero;fill:#000000;fill-opacity:0.1764706;" d="M 267.50378 214.4603 L 266.03543 218.1164 L 276.1523 225.50237 L 276.69556 224.10004 L 277.30692 222.39006 L 277.5541 221.63759 L 268.34888 214.91714 L 268.0114 214.696 L 267.66022 214.51369 L 267.50378 214.4603 Z"/>
		<path style="fill-rule:nonzero;fill:#000000;fill-opacity:0.023529412;" d="M 266.03543 218.1164 L 263.7751 221.35374 L 264.44305 221.8656 L 265.08023 222.4358 L 265.68524 223.06097 L 266.25735 223.73819 L 266.7959 224.46455 L 267.3001 225.23723 L 267.76935 226.0533 L 268.20288 226.90984 L 268.59998 227.80405 L 268.95996 228.73294 L 269.28214 229.69373 L 269.5658 230.68343 L 269.8102 231.69922 L 270.01465 232.7382 L 270.1785 233.79747 L 270.30096 234.87415 L 270.38138 235.96532 L 270.41907 237.06815 L 270.41327 238.17972 L 270.36328 239.29715 L 270.26843 240.41754 L 270.128 241.538 L 269.94128 242.65567 L 269.70755 243.76765 L 269.42615 244.87105 L 269.09634 245.96298 L 268.71744 247.04054 L 268.2887 248.10086 L 267.80945 249.14105 L 267.27896 250.15823 L 266.69656 251.1495 L 266.22092 251.87039 L 266.22092 251.87039 L 269.23166 254.45699 L 269.95282 253.37308 L 270.61807 252.25227 L 271.2277 251.09787 L 271.78198 249.91328 L 272.28122 248.70184 L 272.7257 247.46689 L 273.11578 246.21182 L 273.45166 244.93997 L 273.7337 243.65471 L 273.7337 243.65471 L 273.96216 242.35938 L 274.1374 241.05736 L 274.25964 239.75198 L 274.3292 238.44666 L 274.34637 237.14468 L 274.3115 235.84947 L 274.2248 234.56433 L 274.0866 233.29266 L 273.89722 232.0378 L 273.65692 230.80313 L 273.36603 229.59196 L 273.02484 228.4077 L 272.6336 227.25371 L 272.19266 226.1333 L 271.7023 225.04987 L 271.16278 224.00676 L 270.57446 223.00737 L 269.9376 222.055 L 269.25244 221.15302 L 268.5194 220.30482 L 267.73868 219.51373 L 266.91058 218.78314 L 266.03543 218.1164 Z"/>
		<path style="fill-rule:nonzero;fill:#000000;fill-opacity:0.1764706;" d="M 253.63377 235.87845 L 251.37401 239.11497 L 266.22092 251.87039 L 266.22092 251.87039 L 266.69656 251.1495 L 267.27896 250.15823 L 267.80945 249.14105 L 268.17548 248.34657 L 253.93169 236.10931 L 253.63377 235.87845 Z"/>
		<path style="fill-rule:nonzero;fill:#000000;fill-opacity:0.03137255;" d="M 251.37401 239.11497 L 248.52432 241.84259 L 248.52441 241.84268 L 249.14465 242.53745 L 249.72498 243.26938 L 250.26552 244.03581 L 250.7664 244.83403 L 251.22775 245.66138 L 251.64969 246.5151 L 252.03235 247.39255 L 252.37589 248.29105 L 252.68036 249.20786 L 252.94595 250.14032 L 253.17276 251.08572 L 253.36095 252.0414 L 253.62186 253.97273 L 253.72972 255.91278 L 253.68552 257.84003 L 253.49031 259.7329 L 253.33638 260.65973 L 253.14508 261.5699 L 252.91653 262.4607 L 252.65085 263.32944 L 252.34816 264.17343 L 252.0086 264.99 L 251.63234 265.77643 L 251.21942 266.53006 L 250.77002 267.24817 L 250.28426 267.92807 L 249.76227 268.56708 L 249.20418 269.16248 L 248.9324 269.46136 L 248.78944 269.65457 L 251.9722 271.97366 L 252.68333 271.21808 L 253.34683 270.4146 L 253.96277 269.5663 L 254.53116 268.6762 L 255.05206 267.74738 L 255.52557 266.78278 L 255.95172 265.78552 L 256.33054 264.7586 L 256.6621 263.70508 L 256.9465 262.628 L 257.18375 261.53036 L 257.3739 260.41522 L 257.517 259.28564 L 257.61316 258.14462 L 257.66238 256.9952 L 257.66476 255.84045 L 257.6203 254.68338 L 257.52908 253.52704 L 257.3912 252.37445 L 257.20663 251.22865 L 256.97552 250.09271 L 256.69785 248.96962 L 256.3737 247.86246 L 256.0031 246.77423 L 255.58618 245.708 L 255.12296 244.66678 L 254.61343 243.65363 L 254.05774 242.67154 L 253.45589 241.72362 L 252.80794 240.81285 L 252.11397 239.94229 L 251.37401 239.11497 Z"/>
		<path style="fill-rule:nonzero;fill:#000000;fill-opacity:0.1764706;" d="M 235.03877 254.75044 L 232.14108 257.524 L 232.14108 257.524 L 232.14108 257.524 L 248.78944 269.65457 L 248.9324 269.46136 L 249.20418 269.16248 L 249.76227 268.56708 L 250.28426 267.92807 L 250.77002 267.24817 L 251.21504 266.53708 L 235.03877 254.75044 Z"/>
		<path style="fill-rule:nonzero;fill:#000000;fill-opacity:0.043137256;" d="M 232.14108 257.524 L 228.82935 259.66058 L 228.82979 259.66138 L 229.2552 260.37567 L 229.63774 261.11856 L 229.97795 261.88754 L 230.2764 262.68018 L 230.5336 263.49405 L 230.75015 264.32666 L 230.92656 265.1756 L 231.0634 266.0384 L 231.1612 266.91257 L 231.22052 267.79572 L 231.2259 269.57904 L 231.08395 271.36877 L 230.79906 273.1453 L 230.37561 274.88895 L 229.81796 276.58017 L 229.13057 278.19934 L 228.31778 279.7268 L 227.86572 280.45004 L 227.38397 281.143 L 226.87308 281.80322 L 226.33357 282.42828 L 225.76602 283.01572 L 225.17096 283.56305 L 224.54895 284.06787 L 223.90053 284.5277 L 223.63478 284.72305 L 223.63478 284.72305 L 226.06114 287.83307 L 226.88039 287.25415 L 227.66467 286.62347 L 228.4134 285.94382 L 229.12602 285.21802 L 229.80199 284.44882 L 230.44073 283.63907 L 231.04169 282.79156 L 231.6043 281.90906 L 232.128 280.99442 L 232.61221 280.0504 L 233.05641 279.07983 L 233.45999 278.0855 L 233.82245 277.07022 L 234.14314 276.03677 L 234.42159 274.98798 L 234.65715 273.92664 L 234.84935 272.85556 L 234.99756 271.7775 L 235.10123 270.69528 L 235.15982 269.61176 L 235.17276 268.52966 L 235.13947 267.45184 L 235.05942 266.38107 L 234.932 265.32016 L 234.7567 264.2719 L 234.70798 264.04706 L 234.53291 263.2391 L 234.33385 262.4987 L 234.26013 262.2246 L 233.93774 261.23114 L 233.56522 260.26154 L 233.14197 259.31863 L 232.66745 258.40518 L 232.14108 257.524 Z"/>
		<path style="fill-rule:nonzero;fill:#000000;fill-opacity:0.1764706;" d="M 215.694 268.135 L 212.36751 270.2811 L 223.63478 284.72305 L 223.63478 284.72305 L 223.90053 284.5277 L 224.54895 284.06787 L 225.17096 283.56305 L 225.76602 283.01572 L 226.33357 282.42828 L 226.60236 282.11685 L 215.694 268.135 Z"/>
		<path style="fill-rule:nonzero;fill:#000000;fill-opacity:0.050980393;" d="M 212.36751 270.2811 L 208.71529 271.7545 L 208.71591 271.75632 L 208.93935 272.37042 L 209.12592 273.00113 L 209.39156 274.3049 L 209.51929 275.6528 L 209.51555 277.02985 L 209.38678 278.42126 L 209.13943 279.8122 L 208.77995 281.18768 L 208.31479 282.53296 L 207.75038 283.8331 L 207.09317 285.07327 L 206.34962 286.2386 L 205.52614 287.31418 L 204.62924 288.28522 L 203.66528 289.13678 L 202.6408 289.85403 L 202.10783 290.15765 L 201.56216 290.42212 L 201.20209 290.60382 L 200.86853 290.817 L 200.29198 291.32098 L 200.29198 291.32098 L 203.14899 294.041 L 203.88246 293.68768 L 204.59572 293.2873 L 205.28793 292.842 L 205.95819 292.35406 L 206.6057 291.82565 L 207.22957 291.25894 L 207.829 290.65613 L 208.40306 290.01944 L 208.95096 289.35107 L 209.47183 288.65317 L 210.42908 287.1777 L 211.26796 285.61053 L 211.98169 283.96933 L 212.56343 282.2716 L 213.00636 280.53494 L 213.3037 278.7769 L 213.44858 277.01508 L 213.46176 276.1382 L 213.43423 275.267 L 213.3652 274.40363 L 213.25381 273.5503 L 213.09921 272.70917 L 212.90051 271.88245 L 212.65689 271.07236 L 212.36751 270.2811 Z"/>
		<path style="fill-rule:nonzero;fill:#000000;fill-opacity:0.1764706;" d="M 192.38278 278.3433 L 188.36366 279.96466 L 200.29198 291.32098 L 200.29198 291.32098 L 200.86853 290.817 L 201.20209 290.60382 L 201.56216 290.42212 L 202.10783 290.15765 L 202.6408 289.85403 L 203.66528 289.13678 L 203.69363 289.11176 L 192.38278 278.3433 Z"/>
		<path style="fill-rule:nonzero;fill:#000000;fill-opacity:0.0627451;" d="M 188.36366 279.96466 L 184.46701 280.51837 L 184.46751 280.52386 L 184.56987 281.4445 L 184.61795 282.37518 L 184.61336 283.31372 L 184.55779 284.25784 L 184.45285 285.20535 L 184.30019 286.15396 L 184.10147 287.1015 L 183.8583 288.0457 L 183.57239 288.9843 L 183.24532 289.9151 L 182.87875 290.83582 L 182.47433 291.7443 L 181.55853 293.5154 L 180.51105 295.2105 L 179.34506 296.8118 L 178.07372 298.3013 L 177.40263 298.99857 L 176.71014 299.6612 L 175.9979 300.28693 L 175.26752 300.87354 L 174.52066 301.4188 L 173.75899 301.92047 L 172.98412 302.3763 L 172.1977 302.7841 L 171.4014 303.14157 L 170.59682 303.44653 L 169.78563 303.6967 L 168.96948 303.88986 L 168.57883 303.98898 L 168.20726 304.1245 L 167.5276 304.4957 L 167.29126 304.69333 L 167.29126 304.69333 L 169.73918 307.76807 L 170.7599 307.5285 L 171.76955 307.2227 L 172.76637 306.85312 L 172.76637 306.85312 L 172.76637 306.85312 L 173.74866 306.42242 L 174.7147 305.9331 L 175.66277 305.3878 L 176.59114 304.78897 L 177.49808 304.1393 L 178.3819 303.44135 L 179.24084 302.69763 L 180.07321 301.91074 L 180.87727 301.08325 L 181.65132 300.2177 L 182.39362 299.31674 L 183.10243 298.38284 L 183.77606 297.41864 L 184.4128 296.4267 L 185.01088 295.40955 L 185.56862 294.3698 L 186.08427 293.31003 L 186.55614 292.23276 L 186.98248 291.1406 L 187.36159 290.0361 L 187.69173 288.92184 L 187.97119 287.80038 L 188.19824 286.67432 L 188.37117 285.54617 L 188.48825 284.41855 L 188.54776 283.294 L 188.54797 282.17517 L 188.48718 281.0645 L 188.36366 279.96466 Z"/>
		<path style="fill-rule:nonzero;fill:#000000;fill-opacity:0.1764706;" d="M 156.27414 284.52448 L 151.74632 285.16785 L 167.29126 304.69333 L 167.29126 304.69333 L 167.5276 304.4957 L 168.20726 304.1245 L 168.57883 303.98898 L 168.96948 303.88986 L 169.78563 303.6967 L 170.59682 303.44653 L 171.16672 303.23053 L 156.27414 284.52448 Z"/>
		<path style="fill-rule:nonzero;fill:#faa216;fill-opacity:1;" d="M 95.522064 245.62234 C 94.40497 263.00977 94.40497 271.70343 95.522064 289.09082 C 66.66028 296.99994 58.78888 291.7272 61.412678 315.45453 L 71.907875 315.45453 L 71.907875 320.72726 L 82.40307 320.72726 L 82.40307 326.0 L 92.89827 326.0 C 124.38386 315.45453 124.38386 315.45453 116.51246 289.09082 C 115.39537 271.70343 115.39537 254.05873 116.51246 245.62234 M 207.9706 245.62234 C 209.08768 263.00977 209.08768 271.70343 207.9706 289.09082 C 236.83238 296.99994 244.70378 291.7272 242.07999 315.45453 L 231.5848 315.45453 L 231.5848 320.72726 L 221.0896 320.72726 L 221.0896 326.0 L 210.59439 326.0 C 179.1088 315.45453 179.1088 315.45453 186.9802 289.09082 C 188.09729 271.70343 188.09729 254.05873 186.9802 245.62234"/>
		<path style="fill-rule:nonzero;fill:url(#paint-id-4);fill-opacity:1;" d="M 186.9802 245.62234 C 187.49054 249.47646 187.76773 255.25243 187.81178 262.0477 L 187.81178 262.0477 C 187.85097 255.68922 187.70567 250.00238 187.3759 245.62234 Z M 116.11676 245.62234 C 115.78699 250.00238 115.6417 255.68924 115.680885 262.0477 L 115.680885 262.0477 C 115.72492 255.25243 116.00212 249.47646 116.51246 245.62234 Z M 94.69279 265.3793 L 94.69279 265.3793 C 94.63943 271.56958 94.83608 277.56335 95.28275 285.2017 L 95.28275 285.2017 C 95.362366 285.18 95.44213 285.15817 95.522064 285.13626 C 95.01991 277.32037 94.74349 271.26117 94.69279 265.3793 Z M 208.79987 265.3793 L 208.79987 265.3793 C 208.74918 271.26117 208.47275 277.32037 207.9706 285.13626 C 208.05054 285.15817 208.13031 285.18 208.2099 285.2017 L 208.2099 285.2017 C 208.65657 277.56335 208.85323 271.56958 208.79987 265.3793 Z M 60.989433 306.33145 L 60.989433 306.33145 C 60.850483 308.7771 61.004715 311.76526 61.412678 315.45453 L 71.907875 315.45453 L 71.907875 311.49997 L 61.412678 311.49997 C 61.202362 309.59802 61.05948 307.88245 60.989433 306.33145 Z M 242.50322 306.33145 L 242.50322 306.33145 C 242.43318 307.88242 242.2903 309.59802 242.07999 311.49997 L 231.5848 311.49997 L 231.5848 315.45453 L 242.07999 315.45453 C 242.48795 311.76526 242.64217 308.77707 242.50322 306.33145 Z M 71.907875 316.7727 L 71.907875 320.72726 L 82.40307 320.72726 L 82.40307 316.7727 Z M 221.0896 316.7727 L 221.0896 320.72726 L 231.5848 320.72726 L 231.5848 316.7727 Z M 120.763016 305.92163 L 120.763016 305.92163 C 119.750244 313.0519 112.30528 315.54547 92.89827 322.04544 L 82.40307 322.04544 L 82.40307 326.0 L 92.89827 326.0 C 115.5129 318.4257 121.8845 316.29166 120.763016 305.92163 Z M 182.72964 305.92163 L 182.72964 305.92163 C 181.60815 316.29166 187.97975 318.4257 210.59439 326.0 L 221.0896 326.0 L 221.0896 322.04544 L 210.59439 322.04544 C 191.1874 315.54547 183.74242 313.0519 182.72964 305.92163 Z"/>
		<path style="fill-rule:nonzero;fill:url(#paint-id-5);fill-opacity:1;" d="M 210.71451 289.82062 C 210.67601 290.4447 210.63597 291.07993 210.59439 291.7272 C 226.29185 296.02884 235.78014 296.43115 240.74783 299.72064 L 240.74783 299.72064 C 237.1851 294.07544 228.04926 294.29318 210.71451 289.82062 Z M 240.74783 299.72064 C 240.74783 299.72064 240.74783 299.72064 240.74783 299.72064 L 240.74783 299.72064 C 240.74783 299.72064 240.74783 299.72064 240.74783 299.72064 Z M 187.3759 245.62234 C 187.70567 250.00238 187.85097 255.68922 187.81178 262.0477 L 187.81178 262.0477 C 187.86415 270.1268 187.58696 279.64676 186.9802 289.09082 C 184.76247 296.5187 183.16957 301.8538 182.72964 305.92163 L 182.72964 305.92163 C 183.0146 307.92776 183.80873 309.5669 185.23524 311.03146 L 185.23524 311.03146 C 185.13258 306.70334 186.90585 300.7641 189.604 291.7272 C 190.72108 274.3398 190.72108 256.6951 189.604 248.25871 L 208.13531 248.25871 C 208.0834 247.40169 208.02852 246.5237 207.9706 245.62234 Z M 95.522064 245.62234 C 95.01991 253.43825 94.74349 259.49747 94.69279 265.3793 L 94.69279 265.3793 C 94.74349 271.26117 95.01991 277.32037 95.522064 285.13626 C 95.44213 285.15817 95.362366 285.18 95.28275 285.2017 L 95.28275 285.2017 C 95.355835 286.45135 95.4356 287.74506 95.522064 289.09082 C 71.14789 295.7702 61.744133 293.0482 60.989433 306.33145 L 60.989433 306.33145 C 61.05948 307.88245 61.202362 309.59802 61.412678 311.49997 L 63.568813 311.49997 C 63.307182 295.3294 72.32901 298.8019 98.14587 291.7272 C 97.02877 274.3398 97.02877 265.64612 98.14587 248.25871 L 115.94862 248.25871 C 115.998 247.33557 116.05404 246.45532 116.11676 245.62234 Z M 186.80774 316.34824 C 186.80774 316.34824 186.80774 316.34824 186.80774 316.34824 L 186.80775 316.34824 C 186.80774 316.34824 186.80774 316.34824 186.80774 316.34824 Z"/>
		<path style="fill-rule:nonzero;fill:#000000;fill-opacity:0.15686275;" d="M 88.127945 300.1552 L 87.49158 300.3151 L 82.24653 301.6562 L 80.11163 302.2459 L 78.27246 302.81042 L 76.70698 303.37128 L 75.393166 303.94998 L 74.30901 304.56808 L 73.846176 304.8986 L 73.43249 305.24707 L 73.06519 305.61612 L 72.741554 306.00848 L 72.45881 306.42685 L 72.2142 306.87387 L 72.00499 307.35226 L 71.82841 307.86472 L 71.56214 309.0026 L 71.39339 310.30896 L 71.30011 311.8054 L 71.2603 313.5134 L 71.25192 315.45453 L 71.907875 315.45453 L 71.907875 316.11362 L 72.56383 316.11362 L 72.56383 315.45453 L 72.57713 312.12653 L 72.629906 310.76968 L 72.74557 309.5897 L 72.948204 308.56555 L 73.089676 308.10538 L 73.26192 307.6763 L 73.46796 307.27576 L 73.71081 306.90103 L 73.99347 306.5496 L 74.31897 306.21875 L 74.6903 305.90598 L 75.1105 305.60855 L 76.10949 305.0494 L 77.34006 304.52042 L 78.82628 304.00058 L 80.59226 303.46896 L 82.66211 302.90463 L 87.80976 301.5939 L 88.44612 301.43405 L 88.127945 300.1552 Z M 215.3647 300.1552 L 215.04654 301.43405 L 215.68289 301.5939 L 220.83057 302.90463 L 222.9004 303.46896 L 224.6664 304.00058 L 226.1526 304.52042 L 227.38318 305.0494 L 228.38217 305.60855 L 228.80235 305.90598 L 229.1737 306.21875 L 229.49919 306.5496 L 229.78185 306.90103 L 230.0247 307.27576 L 230.23073 307.6763 L 230.40298 308.10538 L 230.54445 308.56555 L 230.7471 309.5897 L 230.86276 310.76968 L 230.91553 312.12653 L 230.92883 315.45453 L 230.92883 316.11362 L 231.5848 316.11362 L 231.5848 315.45453 L 232.24074 315.45453 L 232.23235 313.5134 L 232.19254 311.8054 L 232.09927 310.30896 L 231.93053 309.0026 L 231.66425 307.86472 L 231.48766 307.35226 L 231.27846 306.87387 L 231.03386 306.42685 L 230.7511 306.00848 L 230.42747 305.61612 L 230.06018 305.24707 L 229.64648 304.8986 L 229.18365 304.56808 L 228.0995 303.94998 L 226.78568 303.37128 L 225.22021 302.81042 L 223.38103 302.2459 L 221.24614 301.6562 L 216.00108 300.3151 L 215.3647 300.1552 Z M 98.58566 305.40656 L 97.95738 305.59595 L 95.39787 306.36017 L 91.66088 307.4915 L 90.06344 308.01505 L 88.63573 308.53378 L 87.36953 309.0651 L 86.25659 309.62646 L 85.28871 310.23532 L 84.45764 310.90903 L 83.755165 311.6651 L 83.17305 312.52094 L 82.703064 313.494 L 82.33698 314.60165 L 82.066574 315.8614 L 81.88361 317.29062 L 81.77988 318.90674 L 81.74712 320.72726 L 82.40307 320.72726 L 82.40307 321.38635 L 83.05902 321.38635 L 83.05902 320.72726 L 83.082695 319.07397 L 83.160645 317.61063 L 83.30325 316.3204 L 83.52093 315.1864 L 83.82404 314.19174 L 84.223 313.31958 L 84.72819 312.55307 L 85.35 311.8753 L 86.09882 311.2694 L 86.985054 310.71857 L 88.01907 310.20587 L 89.21127 309.71445 L 90.57207 309.22745 L 92.11182 308.728 L 95.7698 307.6243 L 98.33435 306.85852 L 98.96264 306.66916 L 98.58566 305.40656 Z M 204.90698 305.40656 L 204.53003 306.66916 L 205.15831 306.85852 L 207.72285 307.6243 L 211.38084 308.728 L 212.9206 309.22745 L 214.28137 309.71445 L 215.47359 310.20587 L 216.50761 310.71857 L 217.39383 311.2694 L 218.14267 311.8753 L 218.76447 312.55307 L 219.26965 313.31958 L 219.66861 314.19174 L 219.97173 315.1864 L 220.1894 316.3204 L 220.33202 317.61063 L 220.40996 319.07397 L 220.43364 320.72726 L 220.43364 321.38635 L 221.0896 321.38635 L 221.0896 320.72726 L 221.74554 320.72726 L 221.7128 318.90674 L 221.60904 317.29062 L 221.42607 315.8614 L 221.15567 314.60165 L 220.78961 313.494 L 220.31963 312.52094 L 219.7375 311.6651 L 219.03503 310.90903 L 218.20396 310.23532 L 217.23607 309.62646 L 216.12312 309.0651 L 214.85693 308.53378 L 213.42923 308.01505 L 211.83177 307.4915 L 208.09479 306.36017 L 205.5353 305.59595 L 204.90698 305.40656 Z"/>
		<path style="fill-rule:nonzero;fill:url(#paint-id-6);fill-opacity:1;" d="M 130.75594 103.2584 C 130.75594 125.0988 113.135216 142.80394 91.39896 142.80394 C 69.66269 142.80394 52.04197 125.0988 52.04197 103.2584 C 52.04197 81.418 69.66269 63.712856 91.39896 63.712856 C 113.135216 63.712856 130.75594 81.418 130.75594 103.2584 Z"/>
		<path style="fill-rule:nonzero;fill:url(#paint-id-7);fill-opacity:1;" d="M 180.60812 76.89471 C 180.60812 94.36702 166.51154 108.531136 149.12253 108.531136 C 131.73352 108.531136 117.63694 94.36702 117.63694 76.89471 C 117.63694 59.422382 131.73352 45.25827 149.12253 45.25827 C 166.51154 45.25827 180.60812 59.422382 180.60812 76.89471 Z"/>
		<path style="fill-rule:nonzero;fill:url(#paint-id-8);fill-opacity:1;" d="M 248.82689 108.531136 C 248.82689 130.37154 231.20618 148.07668 209.46991 148.07668 C 187.73364 148.07668 170.11293 130.37154 170.11293 108.531136 C 170.11293 86.690735 187.73364 68.985596 209.46991 68.985596 C 231.20618 68.985596 248.82689 86.690735 248.82689 108.531136 Z"/>
		<path style="fill-rule:nonzero;fill:#ffffff;fill-opacity:1;" d="M 91.39896 71.62196 C 74.00994 71.62196 59.913364 85.78608 59.913364 103.2584 C 59.913364 107.84234 60.883633 112.19858 62.62906 116.131065 L 62.62906 116.131065 C 70.59526 112.026306 80.57162 109.585686 91.39896 109.585686 C 102.22629 109.585686 112.202644 112.026306 120.168846 116.131065 L 120.168846 116.131065 C 121.914276 112.19856 122.884544 107.84234 122.884544 103.2584 C 122.884544 85.78608 108.787964 71.62196 91.39896 71.62196 Z"/>
		<path style="fill-rule:nonzero;fill:#7a4f0b;fill-opacity:1;" d="M 91.357 79.531075 C 82.6625 79.531075 75.61421 86.61313 75.61421 95.34929 C 75.61421 101.848236 79.514786 107.43179 85.091965 109.86533 L 85.091965 109.86533 C 87.15514 109.6809 89.26045 109.585686 91.39896 109.585686 C 93.51338 109.585686 95.59536 109.678764 97.63625 109.85914 L 97.63622 109.85914 C 103.20584 107.42232 107.0998 101.84273 107.0998 95.34929 C 107.0998 86.61313 100.05151 79.531075 91.357 79.531075 Z"/>
		<path style="fill-rule:nonzero;fill:#000000;fill-opacity:1;" d="M 91.357 86.64927 C 86.575035 86.64927 82.69847 90.5444 82.69847 95.34929 C 82.69847 100.15418 86.575035 104.04931 91.357 104.04931 C 96.138985 104.04931 100.01555 100.15418 100.01555 95.34929 C 100.01555 90.5444 96.138985 86.64927 91.357 86.64927 Z"/>
		<path style="fill-rule:nonzero;fill:#ffffff;fill-opacity:0.60784316;" d="M 101.8522 80.05835 C 99.24385 80.05835 97.129364 82.18297 97.129364 84.80381 C 97.129364 87.42466 99.24385 89.54928 101.8522 89.54928 C 104.460556 89.54928 106.575035 87.42466 106.575035 84.80381 C 106.575035 82.18297 104.460556 80.05835 101.8522 80.05835 Z"/>
		<path style="fill-rule:nonzero;fill:#ffffff;fill-opacity:1;" d="M 149.12253 53.167377 C 136.08078 53.167377 125.50834 63.790466 125.50834 76.89471 C 125.50834 80.33266 126.23604 83.59983 127.54511 86.5492 L 127.545105 86.5492 C 133.51976 83.470634 141.00203 81.64017 149.12253 81.64017 C 157.24303 81.64017 164.7253 83.470634 170.69995 86.5492 L 170.69995 86.5492 C 172.00903 83.59983 172.73672 80.33266 172.73672 76.89471 C 172.73672 63.790466 162.16429 53.167377 149.12253 53.167377 Z"/>
		<path style="fill-rule:nonzero;fill:#7a4f0b;fill-opacity:1;" d="M 149.08058 59.7583 C 142.55971 59.7583 137.27348 65.06985 137.27348 71.62196 C 137.27348 76.05806 139.69666 79.92548 143.28557 81.96079 L 143.28554 81.96079 C 145.18443 81.74989 147.13435 81.64017 149.12253 81.64017 C 151.0862 81.64017 153.01254 81.7472 154.88928 81.95304 L 154.88925 81.95304 C 158.47066 79.91567 160.88768 76.05244 160.88768 71.62196 C 160.88768 65.06985 155.60147 59.7583 149.08058 59.7583 Z"/>
		<path style="fill-rule:nonzero;fill:#000000;fill-opacity:1;" d="M 149.08058 65.09695 C 145.49411 65.09695 142.58669 68.018295 142.58669 71.62196 C 142.58669 75.22563 145.49411 78.14698 149.08058 78.14698 C 152.66707 78.14698 155.5745 75.22563 155.5745 71.62196 C 155.5745 68.018295 152.66707 65.09695 149.08058 65.09695 Z"/>
		<path style="fill-rule:nonzero;fill:#ffffff;fill-opacity:0.60784316;" d="M 156.95198 60.153755 C 154.99573 60.153755 153.40985 61.74722 153.40985 63.712856 C 153.40985 65.67849 154.99573 67.27196 156.95198 67.27196 C 158.90825 67.27196 160.49411 65.67849 160.49411 63.712856 C 160.49411 61.74722 158.90825 60.153755 156.95198 60.153755 Z"/>
		<path style="fill-rule:nonzero;fill:#ffffff;fill-opacity:1;" d="M 209.46991 76.89471 C 192.08089 76.89471 177.98431 91.058815 177.98431 108.531136 C 177.98431 113.115074 178.95457 117.47131 180.70001 121.4038 L 180.70001 121.4038 C 188.6662 117.29905 198.64258 114.85843 209.46991 114.85843 C 220.29724 114.85843 230.27359 117.29905 238.23979 121.4038 L 238.23979 121.4038 C 239.98523 117.471306 240.95549 113.115074 240.95549 108.531136 C 240.95549 91.058815 226.85892 76.89471 209.46991 76.89471 Z"/>
		<path style="fill-rule:nonzero;fill:#7a4f0b;fill-opacity:1;" d="M 209.42795 84.80381 C 200.73346 84.80381 193.68515 91.885864 193.68515 100.62203 C 193.68515 107.12097 197.58572 112.70453 203.16292 115.13807 L 203.16292 115.13807 C 205.22609 114.953636 207.3314 114.85843 209.46991 114.85843 C 211.58434 114.85843 213.6663 114.95151 215.7072 115.131874 L 215.70717 115.131874 C 221.27678 112.69505 225.17075 107.11546 225.17075 100.62203 C 225.17075 91.885864 218.12245 84.80381 209.42795 84.80381 Z"/>
		<path style="fill-rule:nonzero;fill:#000000;fill-opacity:1;" d="M 209.42795 91.92201 C 204.64597 91.92201 200.76941 95.81715 200.76941 100.62203 C 200.76941 105.42692 204.64597 109.32206 209.42795 109.32206 C 214.20993 109.32206 218.08647 105.42692 218.08647 100.62203 C 218.08647 95.81715 214.20993 91.92201 209.42795 91.92201 Z"/>
		<path style="fill-rule:nonzero;fill:#ffffff;fill-opacity:0.60784316;" d="M 219.92314 85.331085 C 217.31477 85.331085 215.2003 87.4557 215.2003 90.07655 C 215.2003 92.6974 217.31477 94.82202 219.92314 94.82202 C 222.5315 94.82202 224.64597 92.6974 224.64597 90.07655 C 224.64597 87.4557 222.5315 85.331085 219.92314 85.331085 Z"/>
		<path style="fill-rule:nonzero;fill:#000000;fill-opacity:0.19607843;" d="M 136.98746 198.1677 L 136.98746 198.1677 C 173.37204 198.1677 195.12825 178.71806 200.63272 173.80177 C 202.94945 171.73257 206.25908 171.22221 209.08675 172.49811 C 211.9144 173.774 213.73358 176.59857 213.73358 179.71312 L 213.73358 179.71312 C 213.73358 216.21051 184.34384 242.72684 159.457 242.72684 L 159.457 242.72684 C 141.73447 242.72684 129.11606 229.55989 129.11606 206.07681 C 129.11606 201.70872 132.64021 198.1677 136.98746 198.1677 C 141.33472 198.1677 144.85886 201.70872 144.85886 206.07681 L 144.85886 206.07681 C 144.85886 222.87387 152.33783 226.90862 159.457 226.90862 L 159.457 226.90862 C 174.76491 226.90862 197.99078 208.39035 197.99078 179.71312 L 205.86218 179.71312 L 211.09164 185.62445 C 204.78902 191.25365 179.31686 213.98592 136.98746 213.98592 C 132.64021 213.98592 129.11606 210.44489 129.11606 206.07681 C 129.11606 201.70872 132.64021 198.1677 136.98746 198.1677 Z"/>
		<path style="fill-rule:nonzero;fill:#000000;fill-opacity:1;" d="M 136.98746 206.07681 C 176.34445 206.07681 199.95863 184.98586 205.86218 179.71312 C 205.86218 232.4405 136.98746 258.8042 136.98746 206.07681"/>
	</g>
</svg>
