<?xml version="1.0" encoding="iso-8859-1"?>
<!DOCTYPE svg PUBLIC "-//W3C//DTD SVG 1.1//EN" "http://www.w3.org/Graphics/SVG/1.1/DTD/svg11.dtd">
<svg version="1.1" id="buildings_1" xmlns="http://www.w3.org/2000/svg" xmlns:xlink="http://www.w3.org/1999/xlink"
	x="0px" y="0px" width="300px" height="386px" viewBox="0 0 300 386"
	 xml:space="preserve">
	<defs>
		<linearGradient id="paint-id-0" x1="45.98692321777344" y1="275.5071105957031" x2="45.98692321777344" y2="275.5071105957031">
			offset="0%" style="stop-color:#000000;stop-opacity:0.0;"/>
			offset="100%" style="stop-color:#000000;stop-opacity:0.15686275;"/>
		</linearGradient>
		<linearGradient id="paint-id-1" x1="45.98692321777344" y1="267.395263671875" x2="45.98692321777344" y2="267.395263671875">
			offset="0%" style="stop-color:#ffffff;stop-opacity:0.0;"/>
			offset="100%" style="stop-color:#ffffff;stop-opacity:0.078431375;"/>
		</linearGradient>
		<linearGradient id="paint-id-2" x1="45.98692321777344" y1="298.7392883300781" x2="45.98692321777344" y2="298.7392883300781">
			offset="0%" style="stop-color:#000000;stop-opacity:0.0;"/>
			offset="100%" style="stop-color:#000000;stop-opacity:0.15686275;"/>
		</linearGradient>
		<linearGradient id="paint-id-3" x1="45.98692321777344" y1="288.343505859375" x2="45.98692321777344" y2="288.343505859375">
			offset="0%" style="stop-color:#ffffff;stop-opacity:0.0;"/>
			offset="100%" style="stop-color:#ffffff;stop-opacity:0.078431375;"/>
		</linearGradient>
		<linearGradient id="paint-id-4" x1="45.98692321777344" y1="311.08837890625" x2="45.98692321777344" y2="311.08837890625">
			offset="0%" style="stop-color:#000000;stop-opacity:0.0;"/>
			offset="100%" style="stop-color:#000000;stop-opacity:0.15686275;"/>
		</linearGradient>
		<linearGradient id="paint-id-5" x1="45.98692321777344" y1="296.1060485839844" x2="45.98692321777344" y2="296.1060485839844">
			offset="0%" style="stop-color:#ffffff;stop-opacity:0.0;"/>
			offset="100%" style="stop-color:#ffffff;stop-opacity:0.078431375;"/>
		</linearGradient>
		<linearGradient id="paint-id-6" x1="148.94935607910156" y1="147.0076141357422" x2="148.94935607910156" y2="147.0076141357422">
			offset="0%" style="stop-color:#000000;stop-opacity:0.0;"/>
			offset="100%" style="stop-color:#000000;stop-opacity:0.3529412;"/>
		</linearGradient>
		<linearGradient id="paint-id-7" x1="45.98692321777344" y1="10.500543594360352" x2="45.98692321777344" y2="10.500543594360352">
			offset="0%" style="stop-color:#000000;stop-opacity:0.078431375;"/>
			offset="100%" style="stop-color:#000000;stop-opacity:0.0;"/>
		</linearGradient>
	</defs>
	<g>
		<path style="fill-rule:nonzero;fill:#ffbc38;fill-opacity:1;" d="M 54.394363 264.08746 C 53.96437 264.08746 53.527187 264.14655 53.093174 264.27048 L 23.675337 272.67093 C 21.592869 273.2656 20.180971 275.19843 20.248621 277.36197 L 20.769344 294.01587 L 20.769344 294.01587 C 3.4357026 298.7402 -1.2916795 295.59094 0.28420803 309.76605 L 6.588031 309.76605 L 6.588031 312.9162 L 12.891853 312.9162 L 12.891853 316.06638 L 19.195677 316.06638 C 34.955185 309.76605 34.955235 309.76605 30.227411 294.01538 L 30.227411 294.01538 C 30.227385 293.9663 30.226604 293.91705 30.22506 293.8676 L 29.814795 280.74643 L 29.814795 280.74643 L 55.690865 273.35736 C 58.201527 272.64044 59.65531 270.02505 58.937977 267.51578 C 58.34465 265.4403 56.451797 264.08746 54.394363 264.08746 Z M 245.60564 261.98737 C 246.03563 261.98737 246.47281 262.04645 246.90683 262.17038 L 276.32468 270.5708 C 278.40714 271.16547 279.81903 273.0983 279.75137 275.26184 L 279.23065 291.91574 L 279.23065 291.91574 C 296.5643 296.6401 301.2917 293.4908 299.7158 307.66592 L 293.41196 307.66592 L 293.41196 310.8161 L 287.10815 310.8161 L 287.10815 313.96625 L 280.80432 313.96625 C 265.0448 307.66595 265.04477 307.66592 269.77258 291.91525 L 269.77258 291.91525 C 269.7726 291.86618 269.7734 291.81693 269.77493 291.76752 L 270.1852 278.6463 L 270.1852 278.6463 L 244.30913 271.25726 C 241.79848 270.5403 240.3447 267.92496 241.06203 265.41568 C 241.65535 263.34018 243.5482 261.98737 245.60564 261.98737 Z"/>
		<path style="fill-rule:nonzero;fill:url(#paint-id-0);fill-opacity:1;" d="M 241.15022 265.13907 C 241.11824 265.22977 241.0888 265.322 241.06203 265.41568 C 240.3447 267.92496 241.79848 270.5403 244.30913 271.25726 L 270.0876 278.61844 L 270.0876 278.61844 L 270.1852 275.49615 L 244.30913 268.1071 C 242.78062 267.67062 241.64384 266.5305 241.15022 265.13907 Z M 58.849777 267.23917 C 58.35615 268.6306 57.21937 269.77072 55.690865 270.20718 L 29.814795 277.59625 L 29.814795 277.59625 L 29.91242 280.71854 L 29.91242 280.71854 L 55.690865 273.35736 C 58.201527 272.64044 59.65531 270.02505 58.937977 267.51578 C 58.91119 267.4221 58.881756 267.32986 58.849777 267.23917 Z M 279.683 274.298 L 279.23065 288.7656 L 279.23065 288.7656 C 279.26324 288.77444 279.2958 288.78333 279.3283 288.79214 L 279.3283 288.79214 L 279.75137 275.26184 C 279.76163 274.934 279.7379 274.61142 279.683 274.298 Z M 20.31698 276.3981 C 20.262094 276.71152 20.23837 277.0341 20.248621 277.36197 L 20.671679 290.89224 L 20.671679 290.89224 C 20.704187 290.88342 20.736744 290.87457 20.769344 290.8657 L 20.769344 290.8657 L 20.31698 276.3981 Z M 299.94684 301.87402 C 299.89984 302.68082 299.82217 303.55884 299.7158 304.51578 L 293.41196 304.51578 L 293.41196 307.66592 L 299.7158 307.66592 C 299.98026 305.2871 300.0672 303.39618 299.94684 301.87402 Z M 0.05316678 303.97412 L 0.05316678 303.97412 C -0.06719735 305.49625 0.019745214 307.38718 0.28420803 309.76605 L 6.588031 309.76605 L 6.588031 306.61588 L 0.28420803 306.61588 C 0.17781933 305.65894 0.10015897 304.78094 0.05316678 303.97412 Z M 287.10815 307.66592 L 287.10815 310.8161 L 293.41196 310.8161 L 293.41196 307.66592 Z M 6.588031 309.76605 L 6.588031 312.9162 L 12.891853 312.9162 L 12.891853 309.76605 Z M 267.14804 301.9783 C 266.29843 308.1671 269.4897 309.44293 280.80432 313.96625 L 287.10815 313.96625 L 287.10815 310.8161 L 280.80432 310.8161 C 271.72046 307.18457 267.8726 305.64627 267.14804 301.9783 Z M 32.851974 304.07843 C 32.12742 307.7464 28.279526 309.28467 19.195677 312.9162 L 12.891853 312.9162 L 12.891853 316.06638 L 19.195677 316.06638 C 30.510315 311.54303 33.701565 310.26724 32.851974 304.07843 Z"/>
		<path style="fill-rule:nonzero;fill:url(#paint-id-1);fill-opacity:1;" d="M 245.60564 261.98737 C 243.6411 261.98737 241.8266 263.2208 241.15022 265.13907 L 241.15022 265.13907 C 241.50795 266.14746 242.20348 267.02386 243.1411 267.59607 L 243.1411 267.59607 C 243.14824 267.5693 243.15565 267.54254 243.1633 267.51578 C 243.75662 265.4403 245.64949 264.08746 247.70691 264.08746 C 248.1369 264.08746 248.57408 264.14655 249.0081 264.27048 L 278.42593 272.67093 C 278.71426 272.75323 278.98972 272.86124 279.25018 272.9919 L 279.25018 272.9919 C 278.67084 271.8412 277.62936 270.94336 276.32468 270.5708 L 246.90683 262.17038 C 246.47281 262.04645 246.03563 261.98737 245.60564 261.98737 Z M 279.25018 272.9919 L 279.25018 272.9919 C 279.25018 272.9919 279.25018 272.9919 279.25018 272.9919 L 279.25018 272.9919 C 279.25018 272.9919 279.25018 272.9919 279.25018 272.9919 Z M 270.1387 280.13312 L 270.1387 280.13312 L 270.1387 280.13312 L 270.1387 280.13312 Z M 281.37997 292.47916 L 281.33194 294.01587 L 281.33194 294.01587 C 290.41165 296.49057 296.03238 296.80484 299.1 298.5804 L 299.1 298.5804 C 297.13348 294.94107 291.77472 295.09775 281.37997 292.47916 Z M 299.1 298.5804 C 299.10004 298.5804 299.10004 298.5804 299.10004 298.5804 L 299.10004 298.5804 C 299.10004 298.5804 299.10004 298.5804 299.1 298.5804 Z M 270.1387 280.13312 L 269.77493 291.76752 C 269.7734 291.81693 269.7726 291.86618 269.77258 291.91525 L 269.77258 291.91525 C 268.43915 296.35764 267.48178 299.5471 267.14804 301.9783 L 267.14804 301.9783 C 267.4008 303.2579 268.03366 304.2783 269.13632 305.21878 L 269.13632 305.21878 C 269.2783 302.66254 270.32108 299.18848 271.87387 294.01538 L 271.87387 294.01538 C 271.8739 293.9663 271.87466 293.91705 271.87622 293.8676 L 272.28647 280.74643 L 270.1387 280.13312 Z M 54.394363 264.08746 C 53.96437 264.08746 53.527187 264.14655 53.093174 264.27048 L 23.675337 272.67093 C 21.908447 273.17548 20.624287 274.64334 20.31698 276.3981 L 20.31698 276.3981 L 20.769344 290.8657 L 20.769344 290.8657 C 20.736744 290.87457 20.704187 290.88342 20.671679 290.89224 L 20.671679 290.89224 L 20.769344 294.01587 L 20.769344 294.01587 C 6.3446093 297.94736 0.6500377 296.42618 0.05316678 303.97412 L 0.05316678 303.97412 C 0.10015897 304.78094 0.17781933 305.65894 0.28420803 306.61588 L 2.1210194 306.61588 C 2.4911056 298.45258 8.110341 300.13892 22.870619 296.11597 L 22.870619 296.11597 L 22.349894 279.46207 C 22.282246 277.29852 23.694143 275.3657 25.776611 274.77103 L 55.19445 266.3706 C 55.62846 266.24667 56.065643 266.18756 56.49564 266.18756 C 57.242798 266.18756 57.96825 266.36597 58.617645 266.69263 L 58.617645 266.69263 C 57.81438 265.0898 56.165344 264.08746 54.394363 264.08746 Z M 269.9227 308.97266 L 269.9227 308.97266 C 269.9227 308.97266 269.9227 308.97266 269.9227 308.97266 L 269.9227 308.97266 C 269.9227 308.97266 269.9227 308.97266 269.9227 308.97266 Z"/>
		<path style="fill-rule:nonzero;fill:#ffbe3e;fill-opacity:1;" d="M 71.19473 281.413 C 69.834755 281.413 68.45542 281.7436 67.177414 282.4403 L 44.0634 295.04095 C 41.36317 296.513 39.6831 299.34158 39.6831 302.41565 L 39.6831 321.31665 C 16.569084 327.61697 10.265261 323.41675 12.366535 342.31772 L 20.771631 342.31772 L 20.771631 346.51794 L 29.17673 346.51794 L 29.17673 350.71817 L 37.581825 350.71817 C 62.79712 342.31772 62.79712 342.31772 56.493294 321.31665 L 56.493294 307.40244 L 56.493294 307.40244 L 75.22701 297.18973 C 79.30221 294.9681 80.80385 289.8654 78.58101 285.79245 C 77.05527 282.9968 74.171364 281.413 71.19473 281.413 Z M 230.90654 281.413 C 232.26653 281.413 233.64586 281.7436 234.92384 282.4403 L 258.03787 295.04095 C 260.7381 296.513 262.41818 299.34158 262.41818 302.41565 L 262.41818 321.31665 C 285.5322 327.61697 291.836 323.41675 289.73474 342.31772 L 281.32965 342.31772 L 281.32965 346.51794 L 272.92453 346.51794 L 272.92453 350.71817 L 264.51944 350.71817 C 239.30415 342.31772 239.30415 342.31772 245.60797 321.31665 L 245.60797 307.40244 L 245.60797 307.40244 L 226.87427 297.18973 C 222.79906 294.9681 221.29742 289.8654 223.52026 285.79245 C 225.046 282.9968 227.9299 281.413 230.90654 281.413 Z"/>
		<path style="fill-rule:nonzero;fill:url(#paint-id-2);fill-opacity:1;" d="M 79.45952 288.23456 L 79.45952 288.23456 C 79.00448 290.61816 77.524864 292.78687 75.22701 294.03955 L 56.493294 304.2523 L 56.493294 304.2523 L 56.493294 307.40244 L 56.493294 307.40244 L 75.22701 297.18973 C 78.51666 295.39636 80.1293 291.72556 79.45952 288.23456 Z M 222.64175 288.23456 L 222.64175 288.23456 C 221.97198 291.72556 223.58461 295.39636 226.87427 297.18973 L 245.60797 307.40244 L 245.60797 307.40244 L 245.60797 304.2523 L 245.60797 304.2523 L 226.87427 294.03955 C 224.5764 292.78687 223.09679 290.61816 222.64175 288.23456 Z M 12.027578 335.05035 C 11.916296 336.99854 12.039814 339.37888 12.366535 342.31772 L 20.771631 342.31772 L 20.771631 339.16757 L 12.366535 339.16757 C 12.198101 337.6525 12.083673 336.2859 12.027578 335.05035 Z M 290.0737 335.05035 L 290.0737 335.05035 C 290.0176 336.28586 289.90317 337.6525 289.73474 339.16757 L 281.32965 339.16757 L 281.32965 342.31772 L 289.73474 342.31772 C 290.06146 339.37888 290.18497 336.99854 290.0737 335.05035 Z M 20.771631 343.3678 L 20.771631 346.51794 L 29.17673 346.51794 L 29.17673 343.3678 Z M 272.92453 343.3678 L 272.92453 346.51794 L 281.32965 346.51794 L 281.32965 343.3678 Z M 59.897358 334.72388 C 59.08628 340.4038 53.123966 342.39017 37.581825 347.568 L 29.17673 347.568 L 29.17673 350.71817 L 37.581825 350.71817 C 55.692802 344.6845 60.7955 342.9846 59.897358 334.72388 Z M 242.2039 334.72388 C 241.30577 342.9846 246.40848 344.6845 264.51944 350.71817 L 272.92453 350.71817 L 272.92453 347.568 L 264.51944 347.568 C 248.97731 342.39017 243.01498 340.4038 242.2039 334.72388 Z"/>
		<path style="fill-rule:nonzero;fill:url(#paint-id-3);fill-opacity:1;" d="M 78.10123 285.01544 C 78.10123 285.01544 78.10123 285.01544 78.10123 285.01544 L 78.10123 285.01544 C 78.10123 285.01544 78.10123 285.01544 78.10123 285.01544 Z M 230.90654 281.413 C 227.9299 281.413 225.046 282.9968 223.52026 285.79245 C 223.0918 286.57755 222.8017 287.4009 222.64175 288.23456 L 222.64175 288.23456 C 222.92197 289.7024 223.59074 291.08875 224.59984 292.2299 L 224.59984 292.2299 C 224.54358 290.7672 224.86928 289.2709 225.62154 287.89255 C 227.14728 285.09692 230.03117 283.5131 233.00781 283.5131 C 234.3678 283.5131 235.74713 283.84372 237.02513 284.5404 L 260.13913 297.14108 C 260.40747 297.28735 260.66574 297.44702 260.91327 297.61902 L 260.91327 297.61902 C 260.18073 296.56616 259.2045 295.67697 258.03787 295.04095 L 234.92384 282.4403 C 233.64586 281.7436 232.26653 281.413 230.90654 281.413 Z M 260.91327 297.61902 C 260.91327 297.61902 260.91327 297.61902 260.91327 297.61902 L 260.91327 297.61902 C 260.91327 297.61902 260.91327 297.61902 260.91327 297.61902 Z M 264.51944 321.87326 L 264.51944 323.41675 C 277.0908 326.8434 284.6895 327.16388 288.66788 329.78427 L 288.66788 329.78427 C 285.8081 325.27695 278.46442 325.4616 264.51944 321.87326 Z M 288.66788 329.78427 C 288.66788 329.78427 288.66788 329.78427 288.66788 329.78427 L 288.66788 329.78427 C 288.66788 329.78427 288.66788 329.78427 288.66788 329.78427 Z M 245.60797 308.35703 L 245.60797 321.31665 C 243.83191 327.23364 242.55623 331.48352 242.2039 334.72388 L 242.2039 334.72388 C 242.43211 336.322 243.0681 337.6277 244.21051 338.79434 L 244.21051 338.79434 C 244.12831 335.34662 245.54843 330.61545 247.70926 323.41675 L 247.70926 309.50256 L 247.70926 309.50256 L 245.60797 308.35703 Z M 71.19473 281.413 C 69.834755 281.413 68.45542 281.7436 67.177414 282.4403 L 44.0634 295.04095 C 41.36317 296.513 39.6831 299.34158 39.6831 302.41565 L 39.6831 321.31665 C 20.162998 326.63736 12.631982 324.46906 12.027578 335.05035 L 12.027578 335.05035 C 12.083673 336.2859 12.198101 337.6525 12.366535 339.16757 L 14.093279 339.16757 C 13.883752 326.28622 21.108898 329.0524 41.784374 323.41675 L 41.784374 304.51578 C 41.784374 301.44168 43.464443 298.6131 46.164673 297.14108 L 69.278694 284.5404 C 70.556694 283.84372 71.93603 283.5131 73.29601 283.5131 C 75.00881 283.5131 76.69092 284.0375 78.10123 285.01544 L 78.10123 285.01544 C 76.49642 282.7052 73.88341 281.413 71.19473 281.413 Z M 245.46986 343.02963 L 245.46986 343.02963 C 245.46986 343.02966 245.46986 343.02966 245.46986 343.02966 L 245.46986 343.02966 C 245.46986 343.02966 245.46986 343.02966 245.46986 343.02963 Z"/>
		<path style="fill-rule:nonzero;fill:#000000;fill-opacity:0.15686275;" d="M 283.574 298.3663 L 283.31918 299.385 L 283.82883 299.51236 L 286.91095 300.2924 L 288.14767 300.62704 L 289.20108 300.94138 L 290.08582 301.24783 L 290.8166 301.55893 L 291.4081 301.88712 L 291.87503 302.24484 L 292.23203 302.6446 L 292.4938 303.09882 L 292.675 303.61993 L 292.79034 304.2205 L 292.8545 304.9129 L 292.88214 305.70963 L 292.88666 307.66592 L 292.88666 308.19095 L 293.41196 308.19095 L 293.41196 307.66592 L 293.9373 307.66592 L 293.90485 305.45383 L 293.84476 304.54587 L 293.7381 303.7528 L 293.5718 303.06168 L 293.33286 302.45956 L 293.00827 301.9336 L 292.58496 301.4708 L 292.05 301.0583 L 291.39026 300.68314 L 290.59283 300.33243 L 289.6446 299.9933 L 288.5326 299.65274 L 287.24377 299.2979 L 284.08365 298.49362 L 283.574 298.3663 Z M 16.425991 300.4664 L 15.916357 300.59375 L 12.756226 301.398 L 11.467411 301.75284 L 10.355406 302.09338 L 9.407182 302.43256 L 8.609725 302.78326 L 7.9500146 303.1584 L 7.415025 303.5709 L 6.9917426 304.0337 L 6.667142 304.55966 L 6.428201 305.16177 L 6.261903 305.8529 L 6.1552258 306.646 L 6.095148 307.55392 L 6.062712 309.76605 L 6.588031 309.76605 L 6.588031 310.29108 L 7.1133494 310.29108 L 7.1133494 309.76605 L 7.1178503 307.80975 L 7.1454964 307.013 L 7.2096505 306.3206 L 7.3249927 305.72003 L 7.506204 305.1989 L 7.7679696 304.7447 L 8.12497 304.34497 L 8.591882 303.98724 L 9.183394 303.65906 L 9.914184 303.34796 L 10.798932 303.04147 L 11.852326 302.72714 L 13.089043 302.3925 L 16.171173 301.61246 L 16.680807 301.4851 L 16.425991 300.4664 Z M 277.3002 301.4994 L 276.9983 302.50516 L 277.50146 302.65604 L 279.04233 303.11368 L 281.23157 303.77032 L 282.96124 304.35413 L 283.66992 304.64374 L 284.2831 304.94522 L 284.80722 305.26855 L 285.24878 305.62378 L 285.61417 306.0209 L 285.9099 306.46997 L 286.14246 306.98096 L 286.3182 307.56396 L 286.44366 308.22894 L 286.52527 308.98596 L 286.56952 309.845 L 286.58282 310.8161 L 286.58282 311.34113 L 287.10815 311.34113 L 287.10815 310.8161 L 287.63345 310.8161 L 287.61288 309.7118 L 287.54797 308.73102 L 287.43405 307.8633 L 287.26636 307.09818 L 287.04016 306.42514 L 286.75076 305.83377 L 286.39343 305.31354 L 285.9634 304.85403 L 285.45602 304.44476 L 284.8665 304.07526 L 284.19012 303.73502 L 283.42218 303.4136 L 282.55795 303.10052 L 281.59268 302.78534 L 279.3402 302.10672 L 277.80338 301.65027 L 277.3002 301.4994 Z M 22.699802 303.59952 L 22.196638 303.75037 L 20.659805 304.20682 L 18.407312 304.88547 L 17.442053 305.20065 L 16.577814 305.51373 L 15.809876 305.83514 L 15.133508 306.17535 L 14.5439825 306.5449 L 14.036577 306.95416 L 13.606567 307.41367 L 13.249225 307.93387 L 12.959823 308.52527 L 12.733637 309.19827 L 12.56594 309.9634 L 12.452009 310.83112 L 12.3871155 311.8119 L 12.366535 312.9162 L 12.891853 312.9162 L 12.891853 313.44122 L 13.417172 313.44122 L 13.417172 312.9162 L 13.430482 311.9451 L 13.474719 311.08606 L 13.556339 310.32907 L 13.681802 309.66406 L 13.857564 309.0811 L 14.090082 308.57007 L 14.385817 308.121 L 14.751225 307.72388 L 15.192763 307.36865 L 15.716892 307.04532 L 16.330065 306.74387 L 17.038742 306.45422 L 18.768446 305.87045 L 20.95766 305.2138 L 22.498537 304.75613 L 23.001701 304.6053 L 22.699802 303.59952 Z"/>
		<path style="fill-rule:nonzero;fill:#000000;fill-opacity:0.15686275;" d="M 33.761505 330.13043 L 33.25187 330.25778 L 29.051361 331.3261 L 27.341625 331.79584 L 25.868717 332.24554 L 24.615 332.69232 L 23.562836 333.15332 L 22.694588 333.64566 L 22.32392 333.90897 L 21.992617 334.18655 L 21.698475 334.48056 L 21.439285 334.7931 L 21.212847 335.12637 L 21.016958 335.48245 L 20.849407 335.86353 L 20.70799 336.27176 L 20.494753 337.17816 L 20.359604 338.2188 L 20.284906 339.41086 L 20.253023 340.77145 L 20.246313 342.31772 L 20.771631 342.31772 L 20.771631 342.84277 L 21.296951 342.84277 L 21.296951 342.31772 L 21.307606 339.6667 L 21.349874 338.58585 L 21.442501 337.64584 L 21.604782 336.83002 L 21.718075 336.46347 L 21.85602 336.12167 L 22.021029 335.80258 L 22.215513 335.5041 L 22.441885 335.22412 L 22.702559 334.9606 L 22.999945 334.71143 L 23.336456 334.47452 L 24.136505 334.0291 L 25.122004 333.6077 L 26.312248 333.19363 L 27.72654 332.77014 L 29.384178 332.3206 L 33.506687 331.2765 L 34.01632 331.14914 L 33.761505 330.13043 Z M 268.33978 330.13043 L 268.08496 331.14914 L 268.5946 331.2765 L 272.7171 332.3206 L 274.37473 332.77014 L 275.78903 333.19363 L 276.97928 333.6077 L 277.96478 334.0291 L 278.76483 334.47452 L 279.10132 334.71143 L 279.3987 334.9606 L 279.6594 335.22412 L 279.88574 335.5041 L 280.08026 335.80258 L 280.24527 336.12167 L 280.38318 336.46347 L 280.4965 336.83002 L 280.65878 337.64584 L 280.7514 338.58585 L 280.79367 339.6667 L 280.80432 342.31772 L 280.80432 342.84277 L 281.32965 342.84277 L 281.32965 342.31772 L 281.85495 342.31772 L 281.84827 340.77145 L 281.81638 339.41086 L 281.74167 338.2188 L 281.6065 337.17816 L 281.39328 336.27176 L 281.25186 335.86353 L 281.08432 335.48245 L 280.88843 335.12637 L 280.662 334.7931 L 280.4028 334.48056 L 280.10864 334.18655 L 279.77734 333.90897 L 279.40668 333.64566 L 278.53845 333.15332 L 277.48627 332.69232 L 276.23254 332.24554 L 274.75964 331.79584 L 273.0499 331.3261 L 268.8494 330.25778 L 268.33978 330.13043 Z M 42.13659 334.3136 L 41.633427 334.46448 L 39.583637 335.07327 L 36.590862 335.97446 L 35.31155 336.3915 L 34.168167 336.80472 L 33.15412 337.22797 L 32.26283 337.67514 L 31.487698 338.16013 L 30.822136 338.69684 L 30.259556 339.2991 L 29.793365 339.98087 L 29.416977 340.75598 L 29.123802 341.63834 L 28.907244 342.64185 L 28.760721 343.78033 L 28.67764 345.06775 L 28.651411 346.51794 L 29.17673 346.51794 L 29.17673 347.04297 L 29.702047 347.04297 L 29.702047 346.51794 L 29.721006 345.20093 L 29.783432 344.03528 L 29.897644 343.00748 L 30.071966 342.10413 L 30.314718 341.31183 L 30.634224 340.61707 L 31.038807 340.00647 L 31.536783 339.46655 L 32.13648 338.9839 L 32.846214 338.5451 L 33.674313 338.1367 L 34.629093 337.74524 L 35.718884 337.3573 L 36.951996 336.95944 L 39.881496 336.08023 L 41.935326 335.47025 L 42.438488 335.31937 L 42.13659 334.3136 Z M 259.9647 334.3136 L 259.66278 335.31937 L 260.16595 335.47025 L 262.2198 336.08023 L 265.14926 336.95944 L 266.3824 337.3573 L 267.4722 337.74524 L 268.42694 338.1367 L 269.25507 338.5451 L 269.9648 338.9839 L 270.56448 339.46655 L 271.06247 340.00647 L 271.46704 340.61707 L 271.78656 341.31183 L 272.0293 342.10413 L 272.2036 343.00748 L 272.31784 344.03528 L 272.38025 345.20093 L 272.39923 346.51794 L 272.39923 347.04297 L 272.92453 347.04297 L 272.92453 346.51794 L 273.44986 346.51794 L 273.42365 345.06775 L 273.34055 343.78033 L 273.19403 342.64185 L 272.97748 341.63834 L 272.6843 340.75598 L 272.30792 339.98087 L 271.8417 339.2991 L 271.27914 338.69684 L 270.6136 338.16013 L 269.83844 337.67514 L 268.94714 337.22797 L 267.9331 336.80472 L 266.78973 336.3915 L 265.5104 335.97446 L 262.51764 335.07327 L 260.46786 334.46448 L 259.9647 334.3136 Z"/>
		<path style="fill-rule:nonzero;fill:#000000;fill-opacity:0.15686275;" d="M 63.599598 359.32196 L 63.089966 359.44928 L 58.057156 360.72885 L 56.01068 361.29053 L 54.249054 361.82755 L 52.75094 362.3604 L 51.49501 362.90964 L 50.9512 363.1968 L 50.45993 363.49576 L 50.018547 363.8091 L 49.624374 364.13934 L 49.27475 364.4891 L 48.967007 364.8609 L 48.698475 365.25732 L 48.46649 365.68094 L 48.268394 366.1343 L 48.10151 366.62003 L 47.963173 367.14062 L 47.85072 367.69864 L 47.69279 368.93738 L 47.606396 370.35672 L 47.5702 371.9772 L 47.562878 373.81937 L 48.088196 373.81937 L 48.088196 374.3444 L 48.613518 374.3444 L 48.613518 373.81937 L 48.629097 370.61252 L 48.68306 369.3044 L 48.798462 368.16632 L 48.9983 367.17828 L 49.137062 366.73422 L 49.305557 366.32016 L 49.506657 365.93356 L 49.743233 365.5719 L 50.01816 365.2327 L 50.334316 364.9134 L 50.69457 364.61154 L 51.1018 364.32462 L 51.558876 364.05008 L 52.068676 363.78543 L 53.257942 363.2758 L 54.69258 362.77563 L 56.395596 362.26483 L 58.389973 361.72333 L 63.34478 360.468 L 63.854412 360.34067 L 63.599598 359.32196 Z M 238.7118 361.42206 L 238.45699 362.44077 L 238.96661 362.56808 L 243.92142 363.82346 L 245.9158 364.36493 L 247.61882 364.87573 L 249.05345 365.3759 L 250.24272 365.88553 L 250.75252 366.15018 L 251.20961 366.4247 L 251.61682 366.71167 L 251.97708 367.01352 L 252.29324 367.3328 L 252.56816 367.672 L 252.80475 368.03366 L 253.00584 368.4203 L 253.17435 368.83435 L 253.3131 369.27838 L 253.51294 370.26645 L 253.62834 371.4045 L 253.6823 372.71265 L 253.69788 375.91946 L 253.69788 376.4445 L 254.2232 376.4445 L 254.2232 375.91946 L 254.74852 375.91946 L 254.7412 374.0773 L 254.705 372.45682 L 254.61862 371.03748 L 254.4607 369.79877 L 254.34824 369.24072 L 254.2099 368.72012 L 254.043 368.23444 L 253.84491 367.78107 L 253.61293 367.35742 L 253.3444 366.96103 L 253.03665 366.5892 L 252.68703 366.23947 L 252.29285 365.9092 L 251.85147 365.5959 L 251.36021 365.2969 L 250.81639 365.00974 L 249.56047 364.4605 L 248.06235 363.92764 L 246.30072 363.39066 L 244.25426 362.82895 L 239.22144 361.5494 L 238.7118 361.42206 Z M 73.6557 364.34515 L 73.15254 364.49603 L 70.69239 365.22668 L 67.10738 366.3059 L 65.576836 366.80447 L 64.21013 367.2978 L 62.999207 367.80252 L 61.935974 368.33527 L 61.012356 368.91263 L 60.600376 369.22324 L 60.22027 369.55127 L 59.87102 369.89874 L 59.551632 370.26776 L 59.26108 370.6604 L 58.998363 371.07877 L 58.76247 371.52487 L 58.552387 372.00085 L 58.367107 372.50876 L 58.205616 373.0507 L 57.949974 374.24484 L 57.777374 375.59998 L 57.679745 377.1327 L 57.648994 378.85962 L 58.174313 378.85962 L 58.174313 379.38464 L 58.699635 379.38464 L 58.699635 378.85962 L 58.72311 377.2659 L 58.800087 375.85492 L 58.940372 374.6105 L 59.15378 373.51648 L 59.450127 372.55667 L 59.63247 372.12207 L 59.839222 371.71494 L 60.071617 371.33328 L 60.330883 370.9751 L 60.618237 370.63834 L 60.934914 370.32095 L 61.28214 370.021 L 61.661137 369.7364 L 62.51936 369.2052 L 63.519398 368.71124 L 64.67106 368.2383 L 65.98416 367.77026 L 67.46852 367.2909 L 70.99025 366.23367 L 73.45444 365.5018 L 73.9576 365.35092 L 73.6557 364.34515 Z M 228.6557 366.44528 L 228.35379 367.45105 L 228.85695 367.6019 L 231.32115 368.33377 L 234.84288 369.39102 L 236.32724 369.87036 L 237.64035 370.3384 L 238.79199 370.81134 L 239.79204 371.3053 L 240.65027 371.83652 L 241.02927 372.12112 L 241.3765 372.42108 L 241.69316 372.73843 L 241.98053 373.07523 L 242.23979 373.43338 L 242.47218 373.81506 L 242.67894 374.22217 L 242.86128 374.6568 L 243.15762 375.61658 L 243.37103 376.7106 L 243.51132 377.95505 L 243.58829 379.36603 L 243.61177 380.95972 L 243.61177 381.48474 L 244.1371 381.48474 L 244.1371 380.95972 L 244.66241 380.95972 L 244.63167 379.23282 L 244.53403 377.7001 L 244.36142 376.34497 L 244.10579 375.1508 L 243.9443 374.60886 L 243.759 374.10095 L 243.54893 373.62497 L 243.31303 373.17886 L 243.05032 372.7605 L 242.75977 372.36786 L 242.44037 371.99884 L 242.09113 371.65137 L 241.71103 371.32336 L 241.29904 371.01273 L 240.37543 370.43536 L 239.3122 369.90262 L 238.10127 369.39792 L 236.73457 368.90457 L 235.20401 368.40604 L 231.61902 367.3268 L 229.15886 366.59613 L 228.6557 366.44528 Z"/>
		<path style="fill-rule:nonzero;fill:#ffc145;fill-opacity:1;" d="M 152.60117 105.15864 L 88.86974 105.311745 C 68.16818 105.36148 47.278374 126.03194 47.09013 146.65266 L 45.98821 267.36047 C 45.79997 287.98117 66.2972 309.41635 86.98267 310.2308 L 147.44548 312.61142 L 207.90831 314.992 C 228.59377 315.80646 250.10226 296.01566 250.92531 275.41037 L 256.08963 146.11661 C 256.9127 125.51134 237.03415 104.955795 216.33258 105.00553 L 152.60117 105.15864 Z"/>
		<path style="fill-rule:nonzero;fill:#000000;fill-opacity:0.078431375;" d="M 252.30113 129.17563 L 240.93414 266.41373 L 240.7108 268.37262 L 240.36862 270.32263 L 239.91176 272.2601 L 239.34438 274.18127 L 238.67061 276.08258 L 237.89465 277.9603 L 237.02065 279.8108 L 236.05278 281.63034 L 234.99518 283.41534 L 233.85202 285.16205 L 232.62747 286.86688 L 231.32568 288.5261 L 229.95084 290.13608 L 228.50706 291.6931 L 226.99857 293.19354 L 225.42944 294.63373 L 223.80392 296.00998 L 222.12611 297.31863 L 220.40022 298.556 L 218.63039 299.71844 L 216.82076 300.80228 L 214.97551 301.8038 L 213.09883 302.71942 L 211.19484 303.5454 L 209.2677 304.27814 L 207.32161 304.91388 L 205.36069 305.44904 L 203.38911 305.87988 L 201.41109 306.20276 L 199.4307 306.414 L 197.45215 306.50998 L 195.4796 306.48697 L 63.77519 300.88556 L 63.77519 300.88556 L 64.87184 301.74554 L 66.55009 302.9517 L 68.27071 304.08017 L 70.02998 305.12708 L 71.824135 306.0885 L 73.64941 306.96048 L 75.50206 307.73914 L 77.378334 308.4205 L 79.274475 309.00064 L 81.18674 309.47568 L 83.11136 309.84167 L 85.04459 310.0947 L 86.98267 310.2308 L 147.44548 312.61142 L 207.90831 314.992 L 209.84932 315.0086 L 211.79121 314.90808 L 213.73007 314.6941 L 215.66191 314.3702 L 217.58284 313.94012 L 219.48889 313.4074 L 221.37616 312.77567 L 223.24066 312.0486 L 225.07848 311.22977 L 226.88567 310.3228 L 228.6583 309.3314 L 230.39243 308.25906 L 232.08414 307.10953 L 233.72946 305.88635 L 235.32446 304.59314 L 236.8652 303.23358 L 238.34778 301.81128 L 239.76822 300.32983 L 241.12259 298.79288 L 242.40695 297.20404 L 243.61737 295.56696 L 244.7499 293.88522 L 245.80061 292.1625 L 246.76558 290.40237 L 247.64082 288.6085 L 248.42245 286.7845 L 249.1065 284.93396 L 249.68904 283.06052 L 250.16612 281.16782 L 250.53381 279.2595 L 250.7882 277.3391 L 250.92531 275.41037 L 256.08963 146.11661 L 256.10678 144.18562 L 256.00623 142.25871 L 255.79167 140.33961 L 255.46672 138.4321 L 255.03505 136.53993 L 254.50027 134.66689 L 253.86603 132.8167 L 253.13599 130.99315 L 252.31374 129.20001 L 252.30113 129.17563 Z"/>
		<path style="fill-rule:nonzero;fill:#ffffff;fill-opacity:0.19607843;" d="M 216.33258 105.00553 L 152.60117 105.15864 L 88.86974 105.311745 L 86.92906 105.37619 L 84.9911 105.55768 L 83.05968 105.85241 L 81.13864 106.25662 L 79.23179 106.76652 L 77.342964 107.37831 L 75.47599 108.08822 L 73.63468 108.892456 L 71.822876 109.78724 L 70.04439 110.76878 L 68.30305 111.833305 L 66.602684 112.97702 L 64.94711 114.19614 L 63.340168 115.48688 L 61.785667 116.84545 L 60.28744 118.26808 L 58.849316 119.75098 L 57.47511 121.29035 L 56.16865 122.88242 L 54.933765 124.52341 L 53.774277 126.20952 L 52.694016 127.93697 L 51.696796 129.70198 L 50.786453 131.50076 L 49.96681 133.32954 L 49.241684 135.18451 L 48.61491 137.0619 L 48.090305 138.95793 L 47.671703 140.8688 L 47.362923 142.79074 L 47.16779 144.71996 L 47.09013 146.65266 L 45.98821 267.36047 L 46.03054 269.29538 L 46.19032 271.23114 L 46.463795 273.16385 L 46.847218 275.08954 L 47.33683 277.0043 L 47.928883 278.9042 L 48.619617 280.78534 L 49.405285 282.64377 L 50.173607 284.24887 L 50.173607 284.24887 L 52.800343 151.97073 L 52.900333 150.00215 L 53.119514 148.03589 L 53.453957 146.07587 L 53.899742 144.12598 L 54.452946 142.1901 L 55.109642 140.27214 L 55.865906 138.37598 L 56.71782 136.50552 L 57.661453 134.66464 L 58.69289 132.85727 L 59.8082 131.08727 L 61.003464 129.35852 L 62.274757 127.67496 L 63.618153 126.04044 L 65.02973 124.45888 L 66.50557 122.934166 L 68.04174 121.470184 L 69.63432 120.07084 L 71.27939 118.74001 L 72.97302 117.481606 L 74.711296 116.29951 L 76.49028 115.19762 L 78.30606 114.17982 L 80.15472 113.25001 L 82.03231 112.41209 L 83.93493 111.66994 L 85.85864 111.027466 L 87.79954 110.48855 L 89.75368 110.05709 L 91.71715 109.736984 L 93.68603 109.53211 L 95.65638 109.44639 L 229.67993 107.75459 L 229.67993 107.75459 L 229.59175 107.715706 L 227.75938 107.01527 L 225.90033 106.41298 L 224.01826 105.912605 L 222.11682 105.51791 L 220.19962 105.23265 L 218.27032 105.06061 L 216.33258 105.00553 Z"/>
		<path style="fill-rule:nonzero;fill:#ffc145;fill-opacity:1;" d="M 110.69573 286.11783 C 108.283264 286.11783 105.847145 286.8367 103.72638 288.3329 L 68.004715 313.5342 C 63.70951 316.56442 61.86287 322.01944 63.434856 327.03363 L 70.247154 348.76294 L 70.247154 348.76294 C 42.947865 356.1145 35.496834 351.28464 38.002083 373.81937 L 48.088196 373.81937 L 48.088196 378.85962 L 58.174313 378.85962 L 58.174313 383.8999 L 68.26043 383.8999 C 102.54834 373.8208 102.55323 373.81937 94.991875 348.62885 L 94.991875 348.62885 C 94.9926 347.42834 94.8131 346.2074 94.43495 345.00116 L 89.172134 328.21423 L 117.68597 308.098 C 123.14697 304.2453 124.44904 296.6975 120.59421 291.23953 C 118.23639 287.90112 114.4954 286.11783 110.69573 286.11783 Z M 191.61568 288.21793 C 194.02814 288.21793 196.46426 288.93683 198.58502 290.433 L 234.30669 315.6343 C 238.60188 318.66452 240.44853 324.11954 238.87656 329.13376 L 232.06424 350.86307 L 232.06424 350.86307 C 259.36353 358.21463 266.81458 353.38477 264.30933 375.91946 L 254.2232 375.91946 L 254.2232 380.95972 L 244.1371 380.95972 L 244.1371 386.0 L 234.05096 386.0 C 199.76306 375.9209 199.75818 375.91946 207.31952 350.72894 L 207.31952 350.72894 C 207.3188 349.52847 207.49829 348.3075 207.87645 347.1013 L 213.13927 330.31436 L 213.13927 330.31436 L 184.62543 310.19812 C 179.16443 306.34543 177.86235 298.79764 181.71718 293.33963 C 184.07501 290.00125 187.816 288.21793 191.61568 288.21793 Z"/>
		<path style="fill-rule:nonzero;fill:url(#paint-id-4);fill-opacity:1;" d="M 122.70774 296.6312 C 122.284515 299.86493 120.562 302.91882 117.68597 304.94785 L 89.172134 325.0641 L 89.98086 327.6437 L 89.98086 327.6437 L 117.68597 308.098 C 121.48768 305.41592 123.273834 300.94308 122.70774 296.6312 Z M 179.60367 298.73132 L 179.60367 298.73132 C 179.03757 303.0432 180.82372 307.51602 184.62543 310.19812 L 212.33054 329.7438 L 212.33054 329.7438 L 213.13927 327.16418 L 213.13927 327.16418 L 184.62543 307.04794 C 181.7494 305.01892 180.02689 301.96506 179.60367 298.73132 Z M 62.98362 321.84247 L 62.98362 321.84247 C 62.75912 323.54782 62.896545 325.3166 63.434856 327.03363 L 69.33571 345.8557 L 69.33571 345.8557 C 69.63704 345.77625 69.94085 345.69528 70.247154 345.6128 L 70.247154 345.6128 L 63.434856 323.88348 C 63.22334 323.2088 63.073715 322.52612 62.98362 321.84247 Z M 239.32779 323.94257 L 239.32779 323.94257 C 239.23769 324.62625 239.08807 325.3089 238.87656 325.98358 L 232.06424 347.7129 L 232.06424 347.7129 C 232.37056 347.79538 232.67436 347.87634 232.9757 347.9558 L 232.9757 347.9558 L 238.87656 329.13376 C 239.41486 327.4167 239.55228 325.64795 239.32779 323.94257 Z M 37.580708 365.3805 L 37.580708 365.3805 C 37.473995 367.66504 37.62564 370.4333 38.002083 373.81937 L 48.088196 373.81937 L 48.088196 370.6692 L 38.002083 370.6692 C 37.78401 368.70764 37.641376 366.95343 37.580708 365.3805 Z M 264.73068 367.48062 L 264.73068 367.48062 C 264.67 369.05356 264.52737 370.80777 264.30933 372.76932 L 254.2232 372.76932 L 254.2232 375.91946 L 264.30933 375.91946 C 264.68576 372.5334 264.8374 369.76517 264.73068 367.48062 Z M 48.088196 375.70944 L 48.088196 378.85962 L 58.174313 378.85962 L 58.174313 375.70944 Z M 244.1371 377.80957 L 244.1371 380.95972 L 254.2232 380.95972 L 254.2232 377.80957 Z M 98.96885 364.54523 C 98.100334 371.97815 90.19595 374.30167 68.26043 380.74973 L 58.174313 380.74973 L 58.174313 383.8999 L 68.26043 383.8999 C 93.02458 376.62036 99.90559 374.59766 98.96885 364.54523 Z M 203.34254 366.64536 C 202.40584 376.69775 209.28683 378.72046 234.05096 386.0 L 244.1371 386.0 L 244.1371 382.84982 L 234.05096 382.84982 C 212.11548 376.4018 204.21109 374.07825 203.34254 366.64536 Z"/>
		<path style="fill-rule:nonzero;fill:url(#paint-id-5);fill-opacity:1;" d="M 120.24318 290.7669 L 120.24318 290.7669 C 120.24318 290.7669 120.24318 290.7669 120.24318 290.7669 L 120.24318 290.7669 C 120.24318 290.7669 120.24318 290.7669 120.24318 290.7669 Z M 191.61568 288.21793 C 187.816 288.21793 184.07501 290.00125 181.71718 293.33963 C 180.54593 294.99802 179.85074 296.84933 179.60367 298.73132 L 179.60367 298.73132 C 179.8571 300.6678 180.57648 302.53976 181.73048 304.1658 L 181.73048 304.1658 C 181.29675 301.20438 181.95518 298.07794 183.81845 295.43976 C 186.17628 292.10135 189.91727 290.31805 193.71695 290.31805 C 196.12941 290.31805 198.56554 291.03693 200.6863 292.5331 L 236.40796 317.7344 C 236.56656 317.8463 236.72182 317.96152 236.87369 318.07986 L 236.87369 318.07986 C 236.1559 317.15933 235.29628 316.33246 234.30669 315.6343 L 198.58502 290.433 C 196.46426 288.93683 194.02814 288.21793 191.61568 288.21793 Z M 236.87369 318.07986 C 236.87369 318.07986 236.87369 318.07986 236.87369 318.07986 L 236.87369 318.07986 C 236.87369 318.07986 236.87369 318.07986 236.87369 318.07986 Z M 234.61475 351.53024 L 234.16551 352.96317 L 234.16551 352.96317 C 249.2079 357.014 258.22397 357.36633 262.86862 360.63614 L 262.86862 360.63614 C 259.3678 355.5354 250.7312 355.6238 234.61475 351.53024 Z M 110.69573 286.11783 C 108.283264 286.11783 105.847145 286.8367 103.72638 288.3329 L 68.004715 313.5342 C 65.18035 315.52676 63.41472 318.56778 62.98362 321.84247 L 62.98362 321.84247 C 63.073715 322.52612 63.22334 323.2088 63.434856 323.88348 L 70.247154 345.6128 L 70.247154 345.6128 C 69.94085 345.69528 69.63704 345.77625 69.33571 345.8557 L 69.33571 345.8557 L 70.247154 348.76294 L 70.247154 348.76294 C 47.049873 355.00986 38.184166 352.4611 37.580708 365.3805 L 37.580708 365.3805 C 37.641376 366.95343 37.78401 368.70764 38.002083 370.6692 L 39.68348 370.6692 C 39.032665 354.12796 47.406086 357.5799 72.34843 350.86307 L 72.34843 350.86307 L 65.53613 329.13376 C 63.96414 324.11954 65.81078 318.66452 70.10599 315.6343 L 105.82765 290.433 C 107.948425 288.93683 110.384544 288.21793 112.797005 288.21793 C 115.45984 288.21793 118.093864 289.09378 120.24318 290.7669 L 120.24318 290.7669 C 117.87502 287.7331 114.31196 286.11783 110.69573 286.11783 Z M 212.9807 330.82016 L 207.87645 347.1013 C 207.49829 348.3075 207.3188 349.52847 207.31952 350.72894 L 207.31952 350.72894 C 205.21928 357.72583 203.70279 362.7794 203.34254 366.64536 L 203.34254 366.64536 C 203.55803 368.48944 204.20659 370.019 205.39502 371.37512 L 205.39502 371.37512 C 205.09853 367.2308 206.8079 361.53384 209.42079 352.82907 L 209.42079 352.82907 C 209.42007 351.62857 209.59956 350.4076 209.97772 349.2014 L 215.24055 332.41446 L 215.24055 332.41446 L 212.9807 330.82016 Z M 207.00931 376.019 C 207.00931 376.019 207.00931 376.019 207.00931 376.019 L 207.00931 376.019 C 207.00931 376.019 207.00931 376.019 207.00931 376.019 Z"/>
		<path style="fill-rule:nonzero;fill:#000000;fill-opacity:0.15686275;" d="M 283.574 298.3663 L 283.31918 299.385 L 283.82883 299.51236 L 286.91095 300.2924 L 288.14767 300.62704 L 289.20108 300.94138 L 290.08582 301.24783 L 290.8166 301.55893 L 291.4081 301.88712 L 291.87503 302.24484 L 292.23203 302.6446 L 292.4938 303.09882 L 292.675 303.61993 L 292.79034 304.2205 L 292.8545 304.9129 L 292.88214 305.70963 L 292.88666 307.66592 L 292.88666 308.19095 L 293.41196 308.19095 L 293.41196 307.66592 L 293.9373 307.66592 L 293.90485 305.45383 L 293.84476 304.54587 L 293.7381 303.7528 L 293.5718 303.06168 L 293.33286 302.45956 L 293.00827 301.9336 L 292.58496 301.4708 L 292.05 301.0583 L 291.39026 300.68314 L 290.59283 300.33243 L 289.6446 299.9933 L 288.5326 299.65274 L 287.24377 299.2979 L 284.08365 298.49362 L 283.574 298.3663 Z M 16.425991 300.4664 L 15.916357 300.59375 L 12.756226 301.398 L 11.467411 301.75284 L 10.355406 302.09338 L 9.407182 302.43256 L 8.609725 302.78326 L 7.9500146 303.1584 L 7.415025 303.5709 L 6.9917426 304.0337 L 6.667142 304.55966 L 6.428201 305.16177 L 6.261903 305.8529 L 6.1552258 306.646 L 6.095148 307.55392 L 6.062712 309.76605 L 6.588031 309.76605 L 6.588031 310.29108 L 7.1133494 310.29108 L 7.1133494 309.76605 L 7.1178503 307.80975 L 7.1454964 307.013 L 7.2096505 306.3206 L 7.3249927 305.72003 L 7.506204 305.1989 L 7.7679696 304.7447 L 8.12497 304.34497 L 8.591882 303.98724 L 9.183394 303.65906 L 9.914184 303.34796 L 10.798932 303.04147 L 11.852326 302.72714 L 13.089043 302.3925 L 16.171173 301.61246 L 16.680807 301.4851 L 16.425991 300.4664 Z M 277.3002 301.4994 L 276.9983 302.50516 L 277.50146 302.65604 L 279.04233 303.11368 L 281.23157 303.77032 L 282.96124 304.35413 L 283.66992 304.64374 L 284.2831 304.94522 L 284.80722 305.26855 L 285.24878 305.62378 L 285.61417 306.0209 L 285.9099 306.46997 L 286.14246 306.98096 L 286.3182 307.56396 L 286.44366 308.22894 L 286.52527 308.98596 L 286.56952 309.845 L 286.58282 310.8161 L 286.58282 311.34113 L 287.10815 311.34113 L 287.10815 310.8161 L 287.63345 310.8161 L 287.61288 309.7118 L 287.54797 308.73102 L 287.43405 307.8633 L 287.26636 307.09818 L 287.04016 306.42514 L 286.75076 305.83377 L 286.39343 305.31354 L 285.9634 304.85403 L 285.45602 304.44476 L 284.8665 304.07526 L 284.19012 303.73502 L 283.42218 303.4136 L 282.55795 303.10052 L 281.59268 302.78534 L 279.3402 302.10672 L 277.80338 301.65027 L 277.3002 301.4994 Z M 22.699802 303.59952 L 22.196638 303.75037 L 20.659805 304.20682 L 18.407312 304.88547 L 17.442053 305.20065 L 16.577814 305.51373 L 15.809876 305.83514 L 15.133508 306.17535 L 14.5439825 306.5449 L 14.036577 306.95416 L 13.606567 307.41367 L 13.249225 307.93387 L 12.959823 308.52527 L 12.733637 309.19827 L 12.56594 309.9634 L 12.452009 310.83112 L 12.3871155 311.8119 L 12.366535 312.9162 L 12.891853 312.9162 L 12.891853 313.44122 L 13.417172 313.44122 L 13.417172 312.9162 L 13.430482 311.9451 L 13.474719 311.08606 L 13.556339 310.32907 L 13.681802 309.66406 L 13.857564 309.0811 L 14.090082 308.57007 L 14.385817 308.121 L 14.751225 307.72388 L 15.192763 307.36865 L 15.716892 307.04532 L 16.330065 306.74387 L 17.038742 306.45422 L 18.768446 305.87045 L 20.95766 305.2138 L 22.498537 304.75613 L 23.001701 304.6053 L 22.699802 303.59952 Z"/>
		<path style="fill-rule:nonzero;fill:#000000;fill-opacity:0.15686275;" d="M 33.761505 330.13043 L 33.25187 330.25778 L 29.051361 331.3261 L 27.341625 331.79584 L 25.868717 332.24554 L 24.615 332.69232 L 23.562836 333.15332 L 22.694588 333.64566 L 22.32392 333.90897 L 21.992617 334.18655 L 21.698475 334.48056 L 21.439285 334.7931 L 21.212847 335.12637 L 21.016958 335.48245 L 20.849407 335.86353 L 20.70799 336.27176 L 20.494753 337.17816 L 20.359604 338.2188 L 20.284906 339.41086 L 20.253023 340.77145 L 20.246313 342.31772 L 20.771631 342.31772 L 20.771631 342.84277 L 21.296951 342.84277 L 21.296951 342.31772 L 21.307606 339.6667 L 21.349874 338.58585 L 21.442501 337.64584 L 21.604782 336.83002 L 21.718075 336.46347 L 21.85602 336.12167 L 22.021029 335.80258 L 22.215513 335.5041 L 22.441885 335.22412 L 22.702559 334.9606 L 22.999945 334.71143 L 23.336456 334.47452 L 24.136505 334.0291 L 25.122004 333.6077 L 26.312248 333.19363 L 27.72654 332.77014 L 29.384178 332.3206 L 33.506687 331.2765 L 34.01632 331.14914 L 33.761505 330.13043 Z M 268.33978 330.13043 L 268.08496 331.14914 L 268.5946 331.2765 L 272.7171 332.3206 L 274.37473 332.77014 L 275.78903 333.19363 L 276.97928 333.6077 L 277.96478 334.0291 L 278.76483 334.47452 L 279.10132 334.71143 L 279.3987 334.9606 L 279.6594 335.22412 L 279.88574 335.5041 L 280.08026 335.80258 L 280.24527 336.12167 L 280.38318 336.46347 L 280.4965 336.83002 L 280.65878 337.64584 L 280.7514 338.58585 L 280.79367 339.6667 L 280.80432 342.31772 L 280.80432 342.84277 L 281.32965 342.84277 L 281.32965 342.31772 L 281.85495 342.31772 L 281.84827 340.77145 L 281.81638 339.41086 L 281.74167 338.2188 L 281.6065 337.17816 L 281.39328 336.27176 L 281.25186 335.86353 L 281.08432 335.48245 L 280.88843 335.12637 L 280.662 334.7931 L 280.4028 334.48056 L 280.10864 334.18655 L 279.77734 333.90897 L 279.40668 333.64566 L 278.53845 333.15332 L 277.48627 332.69232 L 276.23254 332.24554 L 274.75964 331.79584 L 273.0499 331.3261 L 268.8494 330.25778 L 268.33978 330.13043 Z M 42.13659 334.3136 L 41.633427 334.46448 L 39.583637 335.07327 L 36.590862 335.97446 L 35.31155 336.3915 L 34.168167 336.80472 L 33.15412 337.22797 L 32.26283 337.67514 L 31.487698 338.16013 L 30.822136 338.69684 L 30.259556 339.2991 L 29.793365 339.98087 L 29.416977 340.75598 L 29.123802 341.63834 L 28.907244 342.64185 L 28.760721 343.78033 L 28.67764 345.06775 L 28.651411 346.51794 L 29.17673 346.51794 L 29.17673 347.04297 L 29.702047 347.04297 L 29.702047 346.51794 L 29.721006 345.20093 L 29.783432 344.03528 L 29.897644 343.00748 L 30.071966 342.10413 L 30.314718 341.31183 L 30.634224 340.61707 L 31.038807 340.00647 L 31.536783 339.46655 L 32.13648 338.9839 L 32.846214 338.5451 L 33.674313 338.1367 L 34.629093 337.74524 L 35.718884 337.3573 L 36.951996 336.95944 L 39.881496 336.08023 L 41.935326 335.47025 L 42.438488 335.31937 L 42.13659 334.3136 Z M 259.9647 334.3136 L 259.66278 335.31937 L 260.16595 335.47025 L 262.2198 336.08023 L 265.14926 336.95944 L 266.3824 337.3573 L 267.4722 337.74524 L 268.42694 338.1367 L 269.25507 338.5451 L 269.9648 338.9839 L 270.56448 339.46655 L 271.06247 340.00647 L 271.46704 340.61707 L 271.78656 341.31183 L 272.0293 342.10413 L 272.2036 343.00748 L 272.31784 344.03528 L 272.38025 345.20093 L 272.39923 346.51794 L 272.39923 347.04297 L 272.92453 347.04297 L 272.92453 346.51794 L 273.44986 346.51794 L 273.42365 345.06775 L 273.34055 343.78033 L 273.19403 342.64185 L 272.97748 341.63834 L 272.6843 340.75598 L 272.30792 339.98087 L 271.8417 339.2991 L 271.27914 338.69684 L 270.6136 338.16013 L 269.83844 337.67514 L 268.94714 337.22797 L 267.9331 336.80472 L 266.78973 336.3915 L 265.5104 335.97446 L 262.51764 335.07327 L 260.46786 334.46448 L 259.9647 334.3136 Z"/>
		<path style="fill-rule:nonzero;fill:#000000;fill-opacity:0.15686275;" d="M 63.599598 359.32196 L 63.089966 359.44928 L 58.057156 360.72885 L 56.01068 361.29053 L 54.249054 361.82755 L 52.75094 362.3604 L 51.49501 362.90964 L 50.9512 363.1968 L 50.45993 363.49576 L 50.018547 363.8091 L 49.624374 364.13934 L 49.27475 364.4891 L 48.967007 364.8609 L 48.698475 365.25732 L 48.46649 365.68094 L 48.268394 366.1343 L 48.10151 366.62003 L 47.963173 367.14062 L 47.85072 367.69864 L 47.69279 368.93738 L 47.606396 370.35672 L 47.5702 371.9772 L 47.562878 373.81937 L 48.088196 373.81937 L 48.088196 374.3444 L 48.613518 374.3444 L 48.613518 373.81937 L 48.629097 370.61252 L 48.68306 369.3044 L 48.798462 368.16632 L 48.9983 367.17828 L 49.137062 366.73422 L 49.305557 366.32016 L 49.506657 365.93356 L 49.743233 365.5719 L 50.01816 365.2327 L 50.334316 364.9134 L 50.69457 364.61154 L 51.1018 364.32462 L 51.558876 364.05008 L 52.068676 363.78543 L 53.257942 363.2758 L 54.69258 362.77563 L 56.395596 362.26483 L 58.389973 361.72333 L 63.34478 360.468 L 63.854412 360.34067 L 63.599598 359.32196 Z M 238.7118 361.42206 L 238.45699 362.44077 L 238.96661 362.56808 L 243.92142 363.82346 L 245.9158 364.36493 L 247.61882 364.87573 L 249.05345 365.3759 L 250.24272 365.88553 L 250.75252 366.15018 L 251.20961 366.4247 L 251.61682 366.71167 L 251.97708 367.01352 L 252.29324 367.3328 L 252.56816 367.672 L 252.80475 368.03366 L 253.00584 368.4203 L 253.17435 368.83435 L 253.3131 369.27838 L 253.51294 370.26645 L 253.62834 371.4045 L 253.6823 372.71265 L 253.69788 375.91946 L 253.69788 376.4445 L 254.2232 376.4445 L 254.2232 375.91946 L 254.74852 375.91946 L 254.7412 374.0773 L 254.705 372.45682 L 254.61862 371.03748 L 254.4607 369.79877 L 254.34824 369.24072 L 254.2099 368.72012 L 254.043 368.23444 L 253.84491 367.78107 L 253.61293 367.35742 L 253.3444 366.96103 L 253.03665 366.5892 L 252.68703 366.23947 L 252.29285 365.9092 L 251.85147 365.5959 L 251.36021 365.2969 L 250.81639 365.00974 L 249.56047 364.4605 L 248.06235 363.92764 L 246.30072 363.39066 L 244.25426 362.82895 L 239.22144 361.5494 L 238.7118 361.42206 Z M 73.6557 364.34515 L 73.15254 364.49603 L 70.69239 365.22668 L 67.10738 366.3059 L 65.576836 366.80447 L 64.21013 367.2978 L 62.999207 367.80252 L 61.935974 368.33527 L 61.012356 368.91263 L 60.600376 369.22324 L 60.22027 369.55127 L 59.87102 369.89874 L 59.551632 370.26776 L 59.26108 370.6604 L 58.998363 371.07877 L 58.76247 371.52487 L 58.552387 372.00085 L 58.367107 372.50876 L 58.205616 373.0507 L 57.949974 374.24484 L 57.777374 375.59998 L 57.679745 377.1327 L 57.648994 378.85962 L 58.174313 378.85962 L 58.174313 379.38464 L 58.699635 379.38464 L 58.699635 378.85962 L 58.72311 377.2659 L 58.800087 375.85492 L 58.940372 374.6105 L 59.15378 373.51648 L 59.450127 372.55667 L 59.63247 372.12207 L 59.839222 371.71494 L 60.071617 371.33328 L 60.330883 370.9751 L 60.618237 370.63834 L 60.934914 370.32095 L 61.28214 370.021 L 61.661137 369.7364 L 62.51936 369.2052 L 63.519398 368.71124 L 64.67106 368.2383 L 65.98416 367.77026 L 67.46852 367.2909 L 70.99025 366.23367 L 73.45444 365.5018 L 73.9576 365.35092 L 73.6557 364.34515 Z M 228.6557 366.44528 L 228.35379 367.45105 L 228.85695 367.6019 L 231.32115 368.33377 L 234.84288 369.39102 L 236.32724 369.87036 L 237.64035 370.3384 L 238.79199 370.81134 L 239.79204 371.3053 L 240.65027 371.83652 L 241.02927 372.12112 L 241.3765 372.42108 L 241.69316 372.73843 L 241.98053 373.07523 L 242.23979 373.43338 L 242.47218 373.81506 L 242.67894 374.22217 L 242.86128 374.6568 L 243.15762 375.61658 L 243.37103 376.7106 L 243.51132 377.95505 L 243.58829 379.36603 L 243.61177 380.95972 L 243.61177 381.48474 L 244.1371 381.48474 L 244.1371 380.95972 L 244.66241 380.95972 L 244.63167 379.23282 L 244.53403 377.7001 L 244.36142 376.34497 L 244.10579 375.1508 L 243.9443 374.60886 L 243.759 374.10095 L 243.54893 373.62497 L 243.31303 373.17886 L 243.05032 372.7605 L 242.75977 372.36786 L 242.44037 371.99884 L 242.09113 371.65137 L 241.71103 371.32336 L 241.29904 371.01273 L 240.37543 370.43536 L 239.3122 369.90262 L 238.10127 369.39792 L 236.73457 368.90457 L 235.20401 368.40604 L 231.61902 367.3268 L 229.15886 366.59613 L 228.6557 366.44528 Z"/>
		<path style="fill-rule:nonzero;fill:#ffc145;fill-opacity:1;" d="M 138.443 147.00761 L 138.443 147.00761 L 138.443 39.902065 L 138.443 29.401524 L 159.45573 29.401524 L 159.45573 39.902065 L 159.45573 147.00761 L 159.45573 157.50816 L 138.443 157.50816 Z"/>
		<path style="fill-rule:nonzero;fill:url(#paint-id-6);fill-opacity:1;" d="M 156.32483 147.00761 L 156.32483 147.00761 L 156.32483 39.902065 L 156.32483 38.326984 L 159.47675 38.326984 L 159.47675 39.902065 L 159.47675 147.00761 L 159.47675 148.5827 L 156.32483 148.5827 Z"/>
		<path style="fill-rule:nonzero;fill:#ffc145;fill-opacity:1;" d="M 148.94936 5.684342E-14 C 126.89983 4.2632564E-14 109.025154 17.864769 109.025154 39.902065 C 109.025154 61.93937 126.89983 79.80413 148.94936 79.80413 C 170.99889 79.80413 188.87358 61.93937 188.87358 39.902065 C 188.87358 17.864769 170.99889 7.1054274E-14 148.94936 5.684342E-14 Z"/>
		<path style="fill-rule:nonzero;fill:#000000;fill-opacity:0.078431375;" d="M 177.37216 11.883691 L 177.92041 12.522935 L 178.47589 13.199968 L 179.01668 13.889267 L 179.54256 14.590607 L 180.05327 15.303746 L 180.54857 16.028439 L 181.02823 16.76446 L 181.49202 17.51155 L 181.93968 18.269482 L 182.37099 19.03802 L 182.78569 19.816917 L 183.18356 20.60594 L 183.56436 21.404848 L 183.92784 22.213402 L 184.27376 23.031363 L 184.6019 23.858486 L 184.91197 24.694544 L 185.20381 25.539286 L 185.47711 26.392479 L 185.73167 27.253883 L 185.96725 28.123259 L 186.1836 29.000366 L 186.38046 29.884972 L 186.55763 30.776827 L 186.71484 31.675701 L 186.85188 32.581352 L 186.96849 33.49354 L 187.06442 34.412025 L 187.13947 35.336575 L 187.19336 36.26694 L 187.22588 37.20288 L 187.23676 38.144173 L 187.22372 39.17406 L 187.18481 40.197525 L 187.12035 41.21425 L 187.03064 42.223923 L 186.916 43.226234 L 186.77673 44.220863 L 186.61319 45.207497 L 186.42564 46.18583 L 186.21442 47.15554 L 185.97984 48.11632 L 185.72221 49.067852 L 185.44185 50.009827 L 185.13907 50.941925 L 184.81416 51.86384 L 184.46748 52.775253 L 184.0993 53.675854 L 183.70999 54.56533 L 183.2998 55.443363 L 182.86908 56.309647 L 182.41812 57.16386 L 181.94727 58.0057 L 181.4568 58.834843 L 180.94705 59.650978 L 180.41833 60.453793 L 179.87096 61.242977 L 179.30524 62.01821 L 178.72148 62.779186 L 178.12001 63.52559 L 177.50113 64.2571 L 176.86517 64.97342 L 176.21243 65.67422 L 175.54323 66.35919 L 174.85786 67.02802 L 174.1567 67.6804 L 173.43997 68.31602 L 172.70805 68.93454 L 171.96123 69.53568 L 171.19984 70.11911 L 170.42416 70.68452 L 169.63455 71.23159 L 168.83128 71.76002 L 168.0147 72.26948 L 167.1851 72.75967 L 166.3428 73.23027 L 165.4881 73.68097 L 164.62134 74.11146 L 163.74281 74.521416 L 162.85284 74.91053 L 161.95174 75.278496 L 161.03983 75.62499 L 160.1174 75.9497 L 159.18478 76.25232 L 158.2423 76.532524 L 157.29022 76.790016 L 156.32892 77.02447 L 155.35866 77.23557 L 154.37979 77.42301 L 153.39261 77.58647 L 152.39742 77.725655 L 151.39456 77.840225 L 150.38432 77.929886 L 149.36703 77.994316 L 148.343 78.0332 L 147.31255 78.046234 L 146.27397 78.033 L 145.24194 77.9935 L 144.21677 77.928055 L 143.19878 77.83699 L 142.18826 77.72063 L 141.18558 77.579285 L 140.19102 77.413284 L 139.20494 77.222946 L 138.22763 77.00859 L 137.25943 76.77054 L 136.30064 76.50911 L 135.35161 76.22463 L 134.41263 75.91742 L 133.48404 75.58779 L 132.56616 75.23608 L 131.6593 74.86259 L 130.7638 74.46765 L 129.87997 74.05158 L 129.00812 73.61471 L 128.14859 73.15735 L 127.3017 72.679825 L 126.46774 72.18245 L 125.64708 71.66555 L 124.84001 71.12945 L 124.04685 70.57447 L 123.267944 70.00092 L 122.50358 69.409134 L 121.754105 68.79943 L 121.01983 68.17212 L 120.30108 67.527534 L 119.598175 66.866 L 118.933945 66.21005 L 118.933945 66.21005 L 119.11755 66.416855 L 119.50946 66.85234 L 119.803696 67.168236 L 120.19668 67.58277 L 120.503235 67.89657 L 120.90293 68.2969 L 121.21823 68.60459 L 121.62834 68.994606 L 121.62834 68.994606 L 121.94937 69.2933 L 121.94937 69.2933 L 122.37338 69.67612 L 122.69673 69.96287 L 122.69673 69.96287 L 123.14077 70.34335 L 123.459946 70.61308 L 123.93664 71.00056 L 124.23926 71.24414 L 124.78871 71.66754 L 125.03398 71.855484 L 125.844315 72.446976 L 125.95221 72.52172 L 126.67025 73.0177 L 126.96195 73.2096 L 127.51143 73.56833 L 127.51143 73.56833 L 127.853355 73.781654 L 128.36734 74.098366 L 128.73471 74.31543 L 129.2382 74.60774 L 129.62085 74.821526 L 130.12373 75.09607 L 130.51628 75.30308 L 131.02437 75.56332 L 131.42271 75.76116 L 131.94023 76.00919 L 132.34071 76.196075 L 132.87317 76.43413 L 132.87317 76.43413 L 133.2703 76.607765 L 133.8269 76.83906 L 134.21149 76.9961 L 134.21149 76.9961 L 134.81503 77.228226 L 135.16393 77.36079 L 135.91199 77.62575 L 136.12744 77.70159 L 137.10211 78.01764 L 137.36702 78.096405 L 137.36702 78.096405 L 138.08797 78.308914 L 138.46184 78.41003 L 139.08453 78.57543 L 139.08453 78.57543 L 139.49852 78.6764 L 139.49852 78.6764 L 140.09177 78.81691 L 140.09177 78.81691 L 140.52666 78.91153 L 140.52666 78.91153 L 141.10953 79.03297 L 141.10953 79.03297 L 141.55678 79.11861 L 142.13792 79.22327 L 142.59207 79.29847 L 143.17728 79.38744 L 143.6341 79.45133 L 143.6341 79.45133 L 144.2284 79.52512 L 144.2284 79.52512 L 144.68314 79.57708 L 144.68314 79.57708 L 145.29433 79.63602 L 145.29433 79.63602 L 145.73915 79.6755 L 145.73915 79.6755 L 146.38164 79.71971 L 146.38164 79.71971 L 146.80249 79.74636 L 146.80249 79.74636 L 147.51733 79.77585 L 147.51733 79.77585 L 147.8726 79.789345 L 147.8726 79.789345 L 148.94936 79.80413 L 149.97983 79.7911 L 151.00386 79.75221 L 152.02115 79.68778 L 153.03137 79.59812 L 154.03424 79.48355 L 155.02942 79.344376 L 156.01662 79.18091 L 156.99548 78.99347 L 157.96573 78.782364 L 158.92705 78.54791 L 159.8791 78.29043 L 160.8216 78.010216 L 161.75421 77.707596 L 162.67665 77.38289 L 163.58856 77.03639 L 164.48967 76.668434 L 165.37964 76.27931 L 166.25816 75.869354 L 167.12492 75.43887 L 167.97961 74.98817 L 168.82191 74.51756 L 169.65152 74.027374 L 170.46811 73.517914 L 171.27136 72.98949 L 172.06099 72.44241 L 172.83665 71.87701 L 173.59805 71.29358 L 173.88411 71.063324 L 174.34486 70.692444 L 175.07678 70.07391 L 175.7935 69.4383 L 176.49469 68.78592 L 177.18004 68.11709 L 177.84924 67.43211 L 178.50198 66.731316 L 179.13794 66.015 L 179.75682 65.283485 L 179.75682 65.283485 L 180.35829 64.53709 L 180.94205 63.776108 L 181.50777 63.000874 L 182.05515 62.21169 L 182.58386 61.408875 L 183.09361 60.59274 L 183.58408 59.7636 L 184.05493 58.92176 L 184.50589 58.067547 L 184.93661 57.201263 L 185.3468 56.323227 L 185.73613 55.43375 L 186.1043 54.53315 L 186.1043 54.53315 L 186.45097 53.621735 L 186.77588 52.69982 L 187.07866 51.76772 L 187.35902 50.825745 L 187.61665 49.874214 L 187.85123 48.913433 L 188.06247 47.943726 L 188.25 46.965397 L 188.41354 45.97876 L 188.55281 44.98413 L 188.66745 43.981823 L 188.75716 42.97215 L 188.82162 41.95542 L 188.86053 40.931957 L 188.87358 39.902065 L 188.86061 38.87669 L 188.84624 38.49593 L 188.82195 37.85718 L 188.79602 37.444622 L 188.75789 36.84355 L 188.7202 36.41609 L 188.66888 35.83836 L 188.6178 35.388096 L 188.55507 34.839756 L 188.49269 34.39069 L 188.41678 33.848335 L 188.34325 33.401337 L 188.25443 32.865433 L 188.16843 32.413177 L 188.06833 31.891045 L 187.9703 31.437397 L 187.85861 30.924587 L 187.7486 30.470356 L 187.62595 29.967936 L 187.50388 29.513369 L 187.3701 29.019264 L 187.23813 28.572187 L 187.09174 28.080383 L 186.94806 27.634338 L 186.79137 27.151997 L 186.63612 26.707787 L 186.46881 26.232958 L 186.3035 25.794636 L 186.12462 25.324375 L 185.94833 24.88945 L 185.75931 24.42707 L 185.57182 23.994959 L 185.3728 23.540295 L 185.17542 23.114054 L 184.96558 22.66483 L 184.7588 22.245256 L 184.53775 21.800694 L 184.53775 21.800694 L 184.32082 21.386005 L 184.09041 20.949568 L 183.8628 20.538845 L 183.62282 20.1098 L 183.38626 19.70613 L 183.13579 19.282692 L 182.88977 18.885029 L 182.62978 18.468771 L 182.37393 18.07649 L 182.10497 17.668083 L 181.83937 17.281363 L 181.56151 16.880726 L 181.287 16.500744 L 180.99974 16.107086 L 180.71649 15.734 L 180.4201 15.347616 L 180.12782 14.981036 L 179.82301 14.602792 L 179.5222 14.243318 L 179.20828 13.872259 L 179.20828 13.872259 L 178.89919 13.520195 L 178.57687 13.157165 L 178.57687 13.157165 L 178.25961 12.812599 L 177.92847 12.457083 L 177.92847 12.457083 L 177.60342 12.120408 L 177.37216 11.883691 Z"/>
		<path style="fill-rule:nonzero;fill:#ffffff;fill-opacity:0.19607843;" d="M 148.94936 5.684342E-14 L 147.9189 0.013034351 L 146.89487 0.0519211 L 145.87758 0.116347805 L 144.86734 0.20601004 L 143.86449 0.32058737 L 142.8693 0.4597593 L 141.88211 0.62322944 L 140.90324 0.81066936 L 139.933 1.0217745 L 138.97168 1.2562246 L 138.97168 1.2562246 L 138.97168 1.2562246 L 138.01962 1.5137072 L 137.07713 1.7939177 L 136.1445 2.0965357 L 135.22208 2.421249 L 134.31017 2.7677448 L 133.40906 3.1357028 L 132.51909 3.5248187 L 131.64056 3.93478 L 130.7738 4.365266 L 129.91911 4.8159647 L 129.07681 5.286571 L 128.24721 5.7767572 L 127.43062 6.2862186 L 126.62736 6.8146505 L 125.83773 7.361725 L 125.062065 7.927129 L 124.300674 8.510558 L 124.300674 8.510558 L 124.300674 8.510558 L 123.55386 9.111692 L 122.82194 9.730227 L 122.105225 10.365834 L 121.40404 11.018217 L 120.71868 11.687046 L 120.049484 12.372019 L 119.396736 13.072822 L 119.396736 13.072822 L 119.396736 13.072822 L 118.76078 13.789134 L 118.1419 14.520652 L 117.540436 15.267047 L 116.95668 16.028023 L 116.39096 16.803257 L 115.84358 17.592442 L 115.31486 18.39526 L 114.805115 19.211391 L 114.805115 19.211391 L 114.31466 20.040535 L 113.84379 20.882376 L 113.39284 21.736588 L 112.96211 22.60287 L 112.551926 23.480907 L 112.1626 24.370384 L 111.794426 25.270987 L 111.44775 26.182398 L 111.12285 27.104313 L 110.82006 28.036417 L 110.5397 28.978392 L 110.282074 29.929922 L 110.047485 30.8907 L 109.83627 31.860409 L 109.64872 32.838737 L 109.48517 33.825375 L 109.34591 34.820007 L 109.23128 35.822315 L 109.14157 36.831985 L 109.0771 37.848713 L 109.038185 38.872177 L 109.025154 39.902065 L 109.04263 41.048893 L 109.056496 41.41342 L 109.092255 42.19444 L 109.11875 42.612347 L 109.17487 43.34702 L 109.211494 43.759205 L 109.295044 44.539345 L 109.334305 44.882652 L 109.48711 45.990467 L 109.50275 46.08481 L 109.67247 47.08929 L 109.67247 47.08929 L 109.74121 47.447834 L 109.88877 48.18475 L 109.9759 48.584778 L 110.13837 49.285645 L 110.233406 49.67488 L 110.43223 50.428814 L 110.51678 50.741066 L 110.51678 50.741066 L 110.8273 51.790005 L 110.876175 51.940445 L 111.16799 52.827915 L 111.29004 53.174236 L 111.29004 53.174236 L 111.53856 53.860497 L 111.68209 54.237812 L 111.94311 54.896847 L 111.94311 54.896847 L 112.09095 55.258503 L 112.40122 55.97892 L 112.52194 56.25473 L 112.97757 57.232357 L 112.97757 57.232357 L 113.06819 57.41461 L 113.06819 57.41461 L 113.46102 58.196693 L 113.634026 58.524414 L 113.973694 59.154007 L 114.16869 59.50264 L 114.52123 60.112827 L 114.71591 60.441936 L 115.13456 61.120205 L 115.28175 61.355873 L 115.86964 62.249252 L 116.00584 62.44562 L 116.48375 63.128036 L 116.704025 63.429886 L 117.12569 63.99642 L 117.36797 64.31226 L 117.36797 64.31226 L 117.80437 64.86462 L 118.04003 65.15707 L 118.56599 65.78476 L 118.727974 65.97623 L 119.43566 66.7731 L 119.43566 66.7731 L 119.61742 66.96825 L 119.61742 66.96825 L 120.16741 67.55282 L 120.43231 67.82397 L 120.92653 68.31992 L 121.211266 68.59779 L 121.72443 69.084 L 121.99544 69.33616 L 122.62797 69.901886 L 122.62797 69.901886 L 122.79269 70.047966 L 123.60745 70.73559 L 123.83244 70.91669 L 124.44467 71.403915 L 124.74916 71.63723 L 125.30854 72.05667 L 125.44947 72.15939 L 124.66081 71.48673 L 123.86282 70.768364 L 123.08449 70.029076 L 122.32625 69.26931 L 121.58853 68.4895 L 120.8718 67.6901 L 120.176476 66.871544 L 119.50302 66.03427 L 118.85185 65.17873 L 118.223434 64.30535 L 117.6182 63.41458 L 117.03659 62.50687 L 116.47905 61.582645 L 115.94601 60.64236 L 115.43791 59.686447 L 114.955215 58.71535 L 114.49836 57.729515 L 114.06777 56.729374 L 113.663895 55.715378 L 113.28718 54.687965 L 112.938065 53.647575 L 112.61699 52.59465 L 112.324394 51.52963 L 112.06073 50.452957 L 111.82642 49.365078 L 111.62193 48.266426 L 111.447685 47.157444 L 111.30413 46.03858 L 111.19171 44.91027 L 111.11086 43.772957 L 111.06203 42.62708 L 111.045654 41.473083 L 111.058685 40.44319 L 111.0976 39.419727 L 111.16207 38.403 L 111.25178 37.393326 L 111.36641 36.391018 L 111.50567 35.396397 L 111.66922 34.40976 L 111.85677 33.43142 L 112.067986 32.46171 L 112.302574 31.500935 L 112.5602 30.549402 L 112.84056 29.60743 L 113.14335 28.675325 L 113.46825 27.75341 L 113.81493 26.842 L 114.1831 25.941395 L 114.572426 25.05192 L 114.98261 24.173883 L 115.41334 23.307608 L 115.86429 22.453388 L 116.33516 21.611555 L 116.825615 20.782412 L 117.33536 19.96627 L 117.86408 19.163452 L 118.41146 18.374277 L 118.97718 17.599043 L 119.560936 16.838066 L 120.1624 16.091663 L 120.78128 15.360146 L 121.41724 14.643833 L 122.069984 13.94303 L 122.73918 13.258059 L 123.42454 12.589229 L 124.125725 11.936846 L 124.84244 11.301239 L 125.57436 10.682704 L 126.32117 10.08157 L 127.082565 9.49814 L 127.85823 8.932736 L 128.64786 8.385662 L 129.45113 7.85723 L 130.2677 7.3477693 L 131.0973 6.857583 L 131.93962 6.3869762 L 132.7943 5.936278 L 133.66107 5.5057917 L 134.5396 5.0958304 L 135.42957 4.7067146 L 136.33066 4.3387566 L 137.24258 3.9922607 L 138.16501 3.6675477 L 139.09763 3.3649294 L 140.04013 3.084719 L 140.99219 2.8272364 L 141.95349 2.5927863 L 142.92374 2.3816812 L 143.90262 2.1942413 L 144.8898 2.0307713 L 145.88498 1.8915992 L 146.88785 1.7770219 L 147.89807 1.6873597 L 148.91537 1.6229329 L 149.9394 1.5840462 L 150.96986 1.5710119 L 151.79028 1.5792714 L 152.60667 1.6039382 L 153.41888 1.6448518 L 154.22675 1.701868 L 155.0301 1.7748188 L 155.82878 1.8635437 L 156.62267 1.9678906 L 157.41156 2.0876994 L 158.19533 2.2228177 L 158.9738 2.3730772 L 160.51422 2.7184112 L 162.03159 3.1224282 L 163.5246 3.583886 L 164.99203 4.1015024 L 166.4326 4.674029 L 167.84505 5.3001904 L 169.22812 5.9787297 L 170.58052 6.708389 L 171.90102 7.4878945 L 173.18834 8.315989 L 174.4296 9.18329 L 174.4296 9.18329 L 174.389 9.1489935 L 174.389 9.1489935 L 174.15424 8.958244 L 173.68362 8.579432 L 173.40596 8.363367 L 172.96315 8.024049 L 172.96315 8.024049 L 172.66783 7.8040676 L 172.2266 7.482423 L 171.92542 7.2677846 L 171.92542 7.2677846 L 171.46877 6.951419 L 171.17464 6.7510247 L 171.17464 6.7510247 L 170.67664 6.4233956 L 170.67664 6.4233956 L 170.41371 6.2522826 L 170.41371 6.2522826 L 169.74722 5.8364735 L 169.64272 5.771558 L 169.64272 5.771558 L 168.85992 5.3090186 L 168.85992 5.3090186 L 168.61751 5.1723623 L 168.61751 5.1723623 L 168.06429 4.863271 L 168.06429 4.863271 L 167.75868 4.6994643 L 167.25565 4.434203 L 166.92699 4.2669597 L 166.43253 4.021382 L 166.09627 3.8592334 L 165.5921 3.6239662 L 165.5921 3.6239662 L 165.25992 3.472473 L 165.25992 3.472473 L 164.72289 3.2376783 L 164.41658 3.1058607 L 163.7672 2.8406875 L 163.7672 2.8406875 L 163.5649 2.7587402 L 163.5649 2.7587402 L 162.7044 2.4318 L 162.7044 2.4318 L 162.482 2.3527284 L 161.83351 2.124455 L 161.5106 2.0174885 L 160.95143 1.836041 L 160.59663 1.7270315 L 160.59663 1.7270315 L 160.05774 1.566814 L 159.6912 1.4628836 L 159.6912 1.4628836 L 159.14824 1.3160449 L 158.78467 1.2215037 L 158.78467 1.2215037 L 158.21559 1.0827084 L 158.21559 1.0827084 L 157.87308 1.0016181 L 157.22293 0.86015505 L 156.95561 0.8030346 L 156.95561 0.8030346 L 156.0315 0.62608147 L 156.0315 0.62608147 L 155.87111 0.5991395 L 155.87111 0.5991395 L 155.09967 0.47139168 L 155.09967 0.47139168 L 154.7708 0.42358837 L 154.7708 0.42358837 L 154.15875 0.33800387 L 154.15875 0.33800387 L 153.7867 0.29230756 L 153.7867 0.29230756 L 153.20804 0.22619846 L 153.20804 0.22619846 L 152.82002 0.18724763 L 152.82002 0.18724763 L 152.24565 0.13627186 L 152.24565 0.13627186 L 151.85622 0.1059011 L 151.85622 0.1059011 L 151.26398 0.06839229 L 151.26398 0.06839229 L 150.89124 0.047643077 L 150.89124 0.047643077 L 150.23914 0.022880213 L 149.92233 0.012305325 L 149.92233 0.012305325 L 148.94936 5.684342E-14 Z"/>
		<path style="fill-rule:nonzero;fill:url(#paint-id-7);fill-opacity:1;" d="M 184.67102 39.902065 C 184.67102 59.61965 168.67789 75.60391 148.94936 75.60391 C 129.22084 75.60391 113.2277 59.61965 113.2277 39.902065 C 113.2277 20.18448 129.22084 4.2002177 148.94936 4.2002177 C 168.67789 4.2002177 184.67102 20.18448 184.67102 39.902065 Z"/>
		<path style="fill-rule:nonzero;fill:#ffffff;fill-opacity:1;" d="M 122.06887 27.938776 C 120.43807 31.593466 119.531525 35.641956 119.531525 39.902065 C 119.531525 48.14013 122.9215 55.58686 128.38332 60.92484 L 128.3833 60.92484 C 134.52446 58.76544 141.52264 57.54298 148.94936 57.54298 C 156.37608 57.54298 163.37427 58.76544 169.51541 60.92483 L 169.51541 60.92483 C 174.97722 55.58686 178.3672 48.14013 178.3672 39.902065 C 178.3672 35.641956 177.46066 31.593466 175.82985 27.938776 L 175.82985 27.938776 C 168.38681 31.753555 159.06564 34.021763 148.94936 34.021763 C 138.83308 34.021763 129.51192 31.753555 122.06887 27.938776 Z"/>
		<path style="fill-rule:nonzero;fill:#7c5e21;fill-opacity:1;" d="M 157.25664 33.501534 C 154.56616 33.843033 151.78908 34.021763 148.94936 34.021763 C 146.63538 34.021763 144.36299 33.903084 142.14519 33.67437 L 142.14519 33.67437 C 137.93985 36.261654 135.13611 40.90478 135.13611 46.202393 C 135.13611 51.03898 137.47308 55.330036 141.08003 58.009148 L 141.08003 58.009148 C 143.63358 57.702873 146.26344 57.54298 148.94936 57.54298 C 152.16978 57.54298 155.30965 57.772842 158.33397 58.209286 L 158.33397 58.209286 C 162.09729 55.54671 164.55396 51.16128 164.55396 46.202393 C 164.55396 40.78464 161.62161 36.0514 157.25664 33.501534 Z"/>
		<path style="fill-rule:nonzero;fill:#000000;fill-opacity:1;" d="M 149.84503 38.116978 C 145.3771 38.116978 141.75513 41.736942 141.75513 46.202396 C 141.75513 50.66785 145.3771 54.287815 149.84503 54.287815 C 154.31296 54.287815 157.93494 50.66785 157.93494 46.202396 C 157.93494 41.736942 154.31296 38.116978 149.84503 38.116978 Z"/>
		<path style="fill-rule:nonzero;fill:#ffffff;fill-opacity:0.60784316;" d="M 162.05536 32.703236 L 162.05536 32.703236 C 160.16277 33.09492 158.21559 33.404022 156.22333 33.624195 L 156.22333 33.624195 C 155.6074 34.382465 155.23831 35.3491 155.23831 36.401882 C 155.23831 38.83759 157.21393 40.812115 159.65099 40.812115 C 162.08804 40.812115 164.06366 38.83759 164.06366 36.401882 C 164.06366 34.85259 163.26433 33.489887 162.05536 32.703236 Z"/>
		<path style="fill-rule:nonzero;fill:#000000;fill-opacity:0.15686275;" d="M 130.03789 245.71272 L 130.03789 245.71272 C 170.94998 245.71272 192.93446 229.34906 197.78836 218.0296 C 199.1598 214.83138 202.86568 213.34984 206.06569 214.7205 C 209.2657 216.09119 210.74806 219.795 209.37663 222.99324 L 209.37663 222.99324 C 201.62288 241.0753 173.17677 258.3134 130.03789 258.3134 C 126.55639 258.3134 123.73407 255.49263 123.73407 252.01305 C 123.73407 248.53348 126.55639 245.71272 130.03789 245.71272 Z"/>
		<path style="fill-rule:nonzero;fill:#000000;fill-opacity:0.23529412;" d="M 130.03789 249.91295 L 130.03789 249.91295 C 171.69225 249.91295 195.8306 233.25781 201.65112 219.68414 C 202.10826 218.61807 203.34357 218.12422 204.41023 218.58112 C 205.4769 219.03801 205.97102 220.27263 205.51387 221.3387 L 205.51387 221.3387 C 198.72675 237.16655 172.43451 254.11316 130.03789 254.11316 C 128.8774 254.11316 127.93662 253.17291 127.93662 252.01305 C 127.93662 250.8532 128.8774 249.91295 130.03789 249.91295 Z"/>
	</g>
</svg>
