<?xml version="1.0" encoding="iso-8859-1"?>
<!DOCTYPE svg PUBLIC "-//W3C//DTD SVG 1.1//EN" "http://www.w3.org/Graphics/SVG/1.1/DTD/svg11.dtd">
<svg version="1.1" id="buildings_1" xmlns="http://www.w3.org/2000/svg" xmlns:xlink="http://www.w3.org/1999/xlink"
	x="0px" y="0px" width="300px" height="327px" viewBox="0 0 300 327"
	 xml:space="preserve">
	<defs>
		<linearGradient id="paint-id-0" x1="23.029247283935547" y1="269.7352294921875" x2="23.029247283935547" y2="269.7352294921875">
			offset="0%" style="stop-color:#000000;stop-opacity:0.0;"/>
			offset="100%" style="stop-color:#000000;stop-opacity:0.15686275;"/>
		</linearGradient>
		<linearGradient id="paint-id-1" x1="23.029247283935547" y1="258.2822570800781" x2="23.029247283935547" y2="258.2822570800781">
			offset="0%" style="stop-color:#ffffff;stop-opacity:0.0;"/>
			offset="100%" style="stop-color:#ffffff;stop-opacity:0.078431375;"/>
		</linearGradient>
		<linearGradient id="paint-id-2" x1="23.029247283935547" y1="77.51362609863281" x2="23.029247283935547" y2="77.51362609863281">
			offset="0%" style="stop-color:#000000;stop-opacity:0.078431375;"/>
			offset="100%" style="stop-color:#000000;stop-opacity:0.0;"/>
		</linearGradient>
		<linearGradient id="paint-id-3" x1="23.029247283935547" y1="82.531982421875" x2="23.029247283935547" y2="82.531982421875">
			offset="0%" style="stop-color:#000000;stop-opacity:0.078431375;"/>
			offset="100%" style="stop-color:#000000;stop-opacity:0.0;"/>
		</linearGradient>
		<linearGradient id="paint-id-4" x1="23.029247283935547" y1="47.403480529785156" x2="23.029247283935547" y2="47.403480529785156">
			offset="0%" style="stop-color:#000000;stop-opacity:0.078431375;"/>
			offset="100%" style="stop-color:#000000;stop-opacity:0.0;"/>
		</linearGradient>
	</defs>
	<g>
		<path style="fill-rule:nonzero;fill:#000000;fill-opacity:0.15686275;" d="M 88.10516 302.4021 L 87.49231 302.55426 L 82.44097 303.83063 L 80.38492 304.3919 L 78.61368 304.9292 L 77.10601 305.46298 L 75.84073 306.01376 L 74.796616 306.60205 L 74.35087 306.91663 L 73.95246 307.2483 L 73.59873 307.59955 L 73.28705 307.97296 L 73.01475 308.37112 L 72.779175 308.7966 L 72.57768 309.25192 L 72.40762 309.73965 L 72.1512 310.82263 L 71.98867 312.06598 L 71.89884 313.4902 L 71.860504 315.1158 L 71.85243 316.9633 L 72.48416 316.9633 L 72.48416 317.59058 L 73.11588 317.59058 L 73.11588 316.9633 L 73.1287 313.79587 L 73.17953 312.5045 L 73.29091 311.3814 L 73.48607 310.40668 L 73.62231 309.9687 L 73.78819 309.56033 L 73.98662 309.17908 L 74.2205 308.82248 L 74.49272 308.48798 L 74.8062 308.1731 L 75.16382 307.8754 L 75.5685 307.59232 L 76.530594 307.06015 L 77.715706 306.55667 L 79.14704 306.06192 L 80.8478 305.55597 L 82.8412 305.01886 L 87.79874 303.77136 L 88.4116 303.61923 L 88.10516 302.4021 Z M 210.64265 302.4021 L 210.33624 303.61923 L 210.94908 303.77136 L 215.90663 305.01886 L 217.90002 305.55597 L 219.6008 306.06192 L 221.03212 306.55667 L 222.21724 307.06015 L 223.17934 307.59232 L 223.584 307.8754 L 223.94164 308.1731 L 224.25511 308.48798 L 224.52733 308.82248 L 224.76122 309.17908 L 224.95963 309.56033 L 225.12552 309.9687 L 225.26176 310.40668 L 225.45692 311.3814 L 225.56831 312.5045 L 225.61913 313.79587 L 225.63194 316.9633 L 225.63194 317.59058 L 226.26367 317.59058 L 226.26367 316.9633 L 226.8954 316.9633 L 226.88731 315.1158 L 226.84897 313.4902 L 226.75916 312.06598 L 226.59663 310.82263 L 226.3402 309.73965 L 226.17014 309.25192 L 225.96866 308.7966 L 225.7331 308.37112 L 225.46077 307.97296 L 225.1491 307.59955 L 224.79536 307.2483 L 224.39696 306.91663 L 223.95122 306.60205 L 222.9071 306.01376 L 221.6418 305.46298 L 220.13416 304.9292 L 218.36292 304.3919 L 216.30685 303.83063 L 211.25552 302.55426 L 210.64265 302.4021 Z M 98.17665 307.40005 L 97.57157 307.58032 L 95.10659 308.3077 L 91.50762 309.38443 L 89.96918 309.88272 L 88.5942 310.37643 L 87.374756 310.8821 L 86.30293 311.41638 L 85.3708 311.99588 L 84.57042 312.6371 L 83.89389 313.3567 L 83.33327 314.17123 L 82.88064 315.09732 L 82.52808 316.15155 L 82.26766 317.35052 L 82.09146 318.71082 L 81.991554 320.24896 L 81.96001 321.98163 L 82.59173 321.98163 L 82.59173 322.60895 L 83.22346 322.60895 L 83.22346 321.98163 L 83.246254 320.4081 L 83.32132 319.01538 L 83.45867 317.78738 L 83.6683 316.7081 L 83.96022 315.76144 L 84.344444 314.93137 L 84.83098 314.2018 L 85.429825 313.55673 L 86.150986 312.9801 L 87.004486 312.4558 L 88.00031 311.96783 L 89.14849 311.50012 L 90.459015 311.03662 L 91.9419 310.56128 L 95.46478 309.51083 L 97.934616 308.78198 L 98.5397 308.60175 L 98.17665 307.40005 Z M 200.57117 307.40005 L 200.20813 308.60175 L 200.81322 308.78198 L 203.28304 309.51083 L 206.80592 310.56128 L 208.2888 311.03662 L 209.59933 311.50012 L 210.74751 311.96783 L 211.74335 312.4558 L 212.59683 312.9801 L 213.31801 313.55673 L 213.91684 314.2018 L 214.40338 314.93137 L 214.7876 315.76144 L 215.07953 316.7081 L 215.28915 317.78738 L 215.4265 319.01538 L 215.50157 320.4081 L 215.52438 321.98163 L 215.52438 322.60895 L 216.1561 322.60895 L 216.1561 321.98163 L 216.78783 321.98163 L 216.75629 320.24896 L 216.65636 318.71082 L 216.48015 317.35052 L 216.21974 316.15155 L 215.86719 315.09732 L 215.41457 314.17123 L 214.85394 313.3567 L 214.17741 312.6371 L 213.37704 311.99588 L 212.4449 311.41638 L 211.37306 310.8821 L 210.15363 310.37643 L 208.77866 309.88272 L 207.2402 309.38443 L 203.64124 308.3077 L 201.17627 307.58032 L 200.57117 307.40005 Z"/>
		<path style="fill-rule:nonzero;fill:#5fad41;fill-opacity:1;" d="M 150.33264 24.134214 L 150.33264 24.134214 C 150.12328 16.031746 136.11041 7.949157 122.82411 8.26737 L 128.51314 24.656801 L 128.51314 24.656801 C 128.25575 14.696002 110.02886 4.783596 92.73211 5.1978607 L 96.44903 25.42475 L 96.44903 25.42475 C 96.214806 16.360092 81.52258 7.4803896 67.60688 7.9930973 L 70.31471 26.2909 L 70.31471 26.2909 C 65.53726 16.248507 42.110317 15.620785 24.325518 25.058626 L 45.400986 37.130062 L 45.400986 37.130062 C 38.546078 31.949188 19.54832 44.157997 8.106687 61.097046 L 27.766548 58.82652 L 27.766548 58.82652 C 17.394253 57.561993 4.452666 70.43044 2.3610559 84.08845 L 23.6716 84.21999 L 23.6716 84.21999 C 15.5803 84.184814 7.100281 100.90915 7.024563 117.05136 L 23.535715 113.189354 L 23.535715 113.189354 C 15.189079 113.15307 6.46565 125.24789 6.410841 136.93256 L 23.437683 134.08876 L 23.437683 134.08876 C 15.873117 134.05588 7.967299 144.9672 7.917853 155.50868 L 23.335794 155.81003 L 23.335794 155.81003 C 11.970364 155.76062 0.08308382 174.10065 0.0 191.81314 L 23.180902 188.8314 L 23.180902 188.8314 C 13.645822 188.78995 3.6904862 200.43456 3.637689 211.69083 L 23.08074 210.18489 L 23.08074 210.18489 C 15.0505905 210.53171 7.530334 222.8642 8.317802 234.39462 L 25.821028 235.64069 L 25.821028 235.64069 C 19.639135 239.79465 19.399118 253.64151 25.349855 262.8234 L 41.754982 257.728 L 41.754982 257.728 C 37.618053 266.08337 47.58091 281.6597 61.312958 288.30566 L 70.344444 270.62616 L 70.344444 270.62616 C 70.16801 280.59177 79.34013 291.15952 88.35014 291.37155 L 95.27016 271.16602 L 95.27016 271.16602 C 95.13367 278.8753 104.13699 287.03012 112.944496 287.17465 L 121.25243 271.59238 L 121.25243 271.59238 C 121.11636 279.27786 128.69067 287.3845 136.12149 287.50644 L 147.13698 272.01718 L 147.13702 272.01718 L 147.13704 272.01718 L 147.13704 272.01718 L 160.49654 289.7925 C 170.51219 289.95688 181.06996 281.187 181.22243 272.5765 L 181.22243 272.5765 L 188.5092 292.4905 C 197.24228 292.63382 206.48853 282.70224 206.66042 272.99396 L 206.66042 272.99396 L 213.60268 295.01608 C 226.55475 293.22174 239.53844 280.2092 239.09085 269.47125 L 239.09085 269.47125 L 254.54933 286.8814 C 266.03912 277.33423 270.48276 258.6958 263.27264 250.2925 L 263.27264 250.2925 L 282.50073 257.75037 C 286.92673 245.46466 281.81476 229.24876 272.4655 225.91713 L 272.4655 225.91713 L 290.84244 223.94029 C 291.13623 209.78976 282.10876 194.91733 273.12067 194.74434 L 273.12067 194.74434 L 298.11362 193.05148 C 298.38522 179.97029 285.9588 166.14316 273.71942 165.90761 L 273.71942 165.90761 L 289.79538 169.7313 C 290.13684 153.28705 282.2651 136.05426 274.34244 135.9018 L 274.34244 135.9018 L 297.3128 142.77078 C 297.6368 127.166565 286.2042 110.73781 274.86948 110.51966 L 274.86948 110.51966 L 299.99463 115.84762 C 300.29684 101.29281 287.76065 85.93288 275.38495 85.694695 L 275.38495 85.694695 L 291.02832 87.4048 C 290.8963 75.32695 282.7756 62.632572 275.0866 62.484592 L 275.0866 62.484592 L 299.9405 61.339462 C 291.97098 44.43581 272.5478 32.556675 261.811 38.019657 L 261.811 38.019657 L 283.9827 32.97986 C 265.47766 19.858805 240.91098 14.91218 235.7561 23.269194 L 235.7561 23.269194 L 241.68913 2.4988282 C 224.00323 1.9000944 205.92276 12.239637 206.19553 22.796278 L 206.19553 22.796278 L 215.68518 0.0 C 197.19937 0.44274166 178.30197 12.392014 178.58789 23.45749 L 178.58789 23.45749 L 184.3399 0.36733297 C 167.3652 0.7738838 150.04185 12.880759 150.33264 24.134214 L 150.33264 24.134214 Z"/>
		<path style="fill-rule:nonzero;fill:#ffffff;fill-opacity:0.19607843;" d="M 124.071396 8.261892 L 122.82411 8.26737 L 124.09486 11.928244 L 124.12382 11.928113 L 125.31337 11.968554 L 126.48607 12.052776 L 127.640396 12.178709 L 128.77493 12.344278 L 129.88815 12.547414 L 130.9786 12.786042 L 132.0448 13.058091 L 134.09857 13.694161 L 136.03766 14.439046 L 137.85027 15.276167 L 139.52457 16.188946 L 141.04878 17.160803 L 142.41112 18.17516 L 143.59976 19.21544 L 144.6029 20.265062 L 145.03125 20.788197 L 145.40877 21.307451 L 145.73404 21.820751 L 146.00555 22.326025 L 146.22185 22.821201 L 146.38145 23.304207 L 146.48288 23.77297 L 146.52466 24.225418 L 146.52466 24.225418 L 150.33264 24.134214 L 150.27301 23.374924 L 150.13518 22.617281 L 149.92177 21.862825 L 149.63547 21.11309 L 149.27893 20.36961 L 148.85481 19.633919 L 148.8448 19.619053 L 148.36577 18.90755 L 147.81448 18.192043 L 147.81448 18.192043 L 147.20361 17.488928 L 146.53578 16.79974 L 145.81369 16.126015 L 145.03998 15.469287 L 144.62865 15.150188 L 144.21732 14.831091 L 143.78285 14.522026 L 143.34837 14.21296 L 142.51491 13.668157 L 142.43578 13.616431 L 142.3542 13.567377 L 141.48222 13.043037 L 140.49036 12.494313 L 139.46284 11.971793 L 138.40233 11.477013 L 137.31148 11.011506 L 136.19298 10.576808 L 135.04945 10.174452 L 133.88359 9.805974 L 132.69803 9.472909 L 131.49545 9.17679 L 130.2785 8.919151 L 129.04985 8.7015295 L 127.81215 8.525458 L 126.56807 8.392471 L 125.32027 8.304106 L 124.071396 8.261892 Z"/>
		<path style="fill-rule:nonzero;fill:#000000;fill-opacity:0.1764706;" d="M 124.12382 11.928113 L 124.09486 11.928244 L 126.58959 19.115292 L 126.58959 19.115292 L 128.51314 24.656801 L 132.30357 24.56602 L 132.29582 24.219027 L 132.23068 23.85606 L 132.1259 23.494432 L 128.2278 12.264432 L 127.640396 12.178709 L 126.48607 12.052776 L 125.31337 11.968554 L 124.12382 11.928113 Z"/>
		<path style="fill-rule:nonzero;fill:#ffffff;fill-opacity:0.1764706;" d="M 94.35583 5.1889634 L 92.73211 5.1978607 L 93.40522 8.860791 L 94.42771 8.855089 L 96.01113 8.903707 L 97.57493 9.007379 L 99.11696 9.163605 L 100.63507 9.369895 L 102.127106 9.623754 L 103.590904 9.922686 L 105.024315 10.264196 L 106.42518 10.645792 L 107.79135 11.064976 L 109.12066 11.519255 L 110.41096 12.006133 L 111.66008 12.52312 L 112.86589 13.067715 L 114.02623 13.637426 L 115.13892 14.22976 L 116.201836 14.84222 L 117.21281 15.472314 L 118.16967 16.117544 L 119.07028 16.77542 L 119.91248 17.44344 L 120.694115 18.119116 L 121.41303 18.79995 L 122.06707 19.48345 L 122.654076 20.167118 L 123.171906 20.848463 L 123.61837 21.524986 L 123.99134 22.194197 L 124.288666 22.8536 L 124.50817 23.500696 L 124.64772 24.132996 L 124.705154 24.748003 L 124.705154 24.748003 L 128.51314 24.656801 L 128.43694 23.723433 L 128.25891 22.792227 L 127.98252 21.865072 L 127.6112 20.943844 L 127.14845 20.03043 L 126.597725 19.126707 L 126.58959 19.115292 L 126.58959 19.115292 L 125.96245 18.234562 L 125.246124 17.355873 L 124.45219 16.492525 L 123.58411 15.646398 L 122.64535 14.819374 L 121.63935 14.013336 L 120.5696 13.230166 L 119.43955 12.471746 L 118.25266 11.739957 L 117.01239 11.036682 L 115.72219 10.363803 L 114.38554 9.723201 L 113.69572 9.41998 L 113.00588 9.116759 L 111.58669 8.546358 L 110.131424 8.013883 L 109.72575 7.879554 L 108.64354 7.5212107 L 107.885025 7.2957196 L 107.1265 7.070228 L 105.58377 6.6628146 L 104.0188 6.3008537 L 102.43505 5.986225 L 100.83599 5.7208133 L 99.22508 5.5064993 L 97.605774 5.3451653 L 95.98154 5.2386923 L 94.35583 5.1889634 Z"/>
		<path style="fill-rule:nonzero;fill:#000000;fill-opacity:0.1764706;" d="M 94.42771 8.855089 L 93.40522 8.860791 L 96.44903 25.42475 L 100.25273 25.333649 L 100.24843 25.158388 L 100.19994 24.785864 L 97.29708 8.988958 L 96.01113 8.903707 L 94.42771 8.855089 Z"/>
		<path style="fill-rule:nonzero;fill:#ffffff;fill-opacity:0.14901961;" d="M 68.913284 7.9722667 L 67.60688 7.9930973 L 67.60688 7.9930973 L 68.1476 11.6469345 L 69.33413 11.642724 L 70.552986 11.687536 L 71.75663 11.779445 L 72.94341 11.916349 L 74.111694 12.096159 L 75.25983 12.316779 L 76.386154 12.576115 L 77.48903 12.872071 L 78.56681 13.202555 L 79.61785 13.565471 L 80.6405 13.958725 L 81.633125 14.380222 L 83.52165 15.299571 L 85.27028 16.30676 L 86.86581 17.385036 L 88.29507 18.517645 L 89.54488 19.687828 L 90.09838 20.281775 L 90.60207 20.878832 L 91.05431 21.476906 L 91.45346 22.073902 L 91.79787 22.667725 L 92.08587 23.25628 L 92.31584 23.837477 L 92.48613 24.409216 L 92.59508 24.969406 L 92.64104 25.515951 L 92.643776 25.550863 L 96.44903 25.42475 L 96.38518 24.57576 L 96.2394 23.729542 L 96.01449 22.887777 L 95.713234 22.052156 L 95.33842 21.224361 L 95.33468 21.217506 L 94.89283 20.40608 L 94.63088 19.994411 L 94.37927 19.598999 L 93.80053 18.804802 L 93.80053 18.804802 L 93.15938 18.025177 L 92.45862 17.261808 L 92.07984 16.889095 L 91.70104 16.516384 L 91.29524 16.153486 L 90.889435 15.790587 L 90.026596 15.086106 L 89.115295 14.404626 L 88.15834 13.747832 L 88.15834 13.747832 L 88.15834 13.747832 L 87.15851 13.117412 L 86.11859 12.51505 L 85.04139 11.942432 L 83.92967 11.401245 L 82.786255 10.893175 L 82.06032 10.600119 L 82.06032 10.600119 L 81.61391 10.419908 L 80.41543 9.983128 L 79.193596 9.584521 L 77.95122 9.225777 L 76.69107 8.908579 L 75.41594 8.634612 L 74.128624 8.405562 L 72.83191 8.223119 L 71.528595 8.0889635 L 70.22146 8.004785 L 68.913284 7.9722667 Z"/>
		<path style="fill-rule:nonzero;fill:#000000;fill-opacity:0.1764706;" d="M 69.33413 11.642724 L 68.1476 11.6469345 L 70.31471 26.2909 L 74.12108 26.164747 L 74.12126 26.147507 L 74.08579 25.773624 L 72.019325 11.809748 L 71.75663 11.779445 L 70.552986 11.687536 L 69.33413 11.642724 Z"/>
		<path style="fill-rule:nonzero;fill:#ffffff;fill-opacity:0.1254902;" d="M 50.552616 18.354637 L 48.873703 18.39679 L 47.16558 18.49625 L 45.432693 18.65314 L 43.67949 18.867577 L 41.910416 19.13968 L 40.129925 19.469572 L 38.34246 19.857368 L 36.552475 20.303188 L 35.658443 20.55517 L 34.764412 20.807152 L 33.27554 21.276978 L 32.98272 21.369379 L 31.211847 21.989988 L 29.456244 22.669098 L 27.720356 23.406828 L 26.00863 24.203299 L 24.325518 25.058626 L 28.178759 27.265656 L 28.178759 27.265656 L 29.471857 26.667826 L 31.104195 25.977972 L 32.732025 25.348326 L 34.352802 24.777546 L 35.96398 24.264297 L 37.563023 23.80724 L 39.147377 23.405035 L 40.7145 23.056345 L 42.261856 22.759834 L 43.78689 22.514162 L 45.287064 22.317993 L 46.75983 22.169987 L 48.202652 22.068806 L 49.612976 22.013111 L 50.988262 22.001568 L 52.325966 22.032835 L 53.623543 22.105576 L 54.87845 22.218452 L 56.08814 22.370127 L 57.250072 22.55926 L 58.361702 22.784513 L 59.420483 23.044552 L 60.423874 23.338036 L 61.369328 23.663626 L 62.254303 24.019985 L 63.076252 24.405777 L 63.832634 24.819662 L 64.520905 25.260303 L 65.13852 25.72636 L 65.68293 26.216496 L 66.151596 26.729374 L 66.54197 27.263655 L 66.84236 27.801609 L 70.31471 26.2909 L 69.81293 25.377028 L 69.20632 24.518438 L 68.49934 23.71525 L 68.1012 23.344507 L 67.69642 22.967587 L 66.80202 22.275562 L 65.82059 21.639297 L 64.75656 21.058912 L 63.68671 20.567724 L 63.6144 20.534525 L 62.398552 20.066256 L 61.113457 19.654224 L 59.763565 19.298548 L 58.35333 18.999346 L 56.887196 18.756739 L 55.369606 18.570845 L 53.805016 18.441784 L 52.197872 18.369675 L 50.552616 18.354637 Z"/>
		<path style="fill-rule:nonzero;fill:#000000;fill-opacity:0.1764706;" d="M 32.463062 25.45236 L 31.104195 25.977972 L 29.471857 26.667826 L 28.178759 27.265656 L 28.178759 27.265656 L 44.3393 36.521957 L 44.3393 36.521957 L 45.400986 37.130062 L 48.86747 35.621906 L 48.84627 35.564972 L 48.46976 34.955883 L 47.96875 34.420277 L 47.67322 34.18634 L 47.348568 33.978355 L 32.463062 25.45236 Z"/>
		<path style="fill-rule:nonzero;fill:#ffffff;fill-opacity:0.101960786;" d="M 41.373524 35.92689 L 40.39426 35.96644 L 40.39426 35.96644 L 40.39426 35.96644 L 39.36549 36.09397 L 38.82815 36.20057 L 38.82815 36.20057 L 38.290817 36.307167 L 37.17385 36.603714 L 36.304306 36.887814 L 36.0182 36.98129 L 35.422832 37.209435 L 35.422832 37.209435 L 34.82747 37.43758 L 33.605263 37.970264 L 32.355194 38.577023 L 31.080864 39.255543 L 29.785885 40.0035 L 28.47386 40.818584 L 27.148396 41.698467 L 25.813103 42.640842 L 24.471586 43.643383 L 23.127453 44.703773 L 21.784307 45.8197 L 20.445763 46.988834 L 19.11542 48.20887 L 17.796888 49.47748 L 16.493776 50.792355 L 15.209689 52.151173 L 13.948235 53.551613 L 12.713018 54.99136 L 11.967532 55.90468 L 11.507649 56.468094 L 10.3357315 57.979496 L 9.200876 59.523254 L 8.106687 61.097046 L 8.106687 61.097046 L 13.131167 60.516766 L 13.131167 60.516766 L 13.131676 60.516052 L 15.076568 58.021652 L 16.231852 56.636585 L 17.389204 55.31046 L 18.546608 54.04269 L 19.702042 52.83269 L 21.99891 50.583633 L 24.263645 48.55857 L 26.480078 46.752796 L 28.632038 45.1616 L 30.703362 43.780262 L 32.67788 42.60408 L 34.53942 41.628338 L 36.271824 40.848324 L 37.858917 40.259327 L 39.28453 39.856636 L 40.5325 39.635532 L 41.08482 39.59161 L 41.586662 39.591316 L 42.03601 39.634068 L 42.43084 39.71927 L 42.76914 39.846336 L 43.048874 40.01468 L 43.053738 40.01799 L 45.400986 37.130062 L 44.723362 36.694916 L 43.978203 36.359344 L 43.1691 36.12103 L 42.299675 35.97765 L 41.373524 35.92689 L 41.373524 35.92689 L 41.373524 35.92689 Z"/>
		<path style="fill-rule:nonzero;fill:#000000;fill-opacity:0.1764706;" d="M 27.701895 55.159473 L 27.31286 55.185333 L 16.3983 56.44586 L 16.231852 56.636585 L 15.076568 58.021652 L 13.131676 60.516052 L 13.131167 60.516766 L 21.735107 59.523094 L 21.735107 59.523094 L 21.735106 59.523094 L 21.735106 59.523094 L 27.766548 58.82652 L 30.113527 55.938923 L 29.504923 55.56298 L 28.820658 55.301456 L 28.084291 55.17128 L 27.701895 55.159473 Z M 13.131167 60.516766 L 13.131167 60.516766 L 13.131167 60.516766 L 13.131167 60.516766 Z"/>
		<path style="fill-rule:nonzero;fill:#ffffff;fill-opacity:0.078431375;" d="M 26.787027 58.74897 L 25.79491 58.751785 L 24.792652 58.832523 L 23.782711 58.988747 L 22.767544 59.218002 L 21.749609 59.517857 L 20.731361 59.885857 L 19.71526 60.319565 L 18.70376 60.816544 L 17.699322 61.37434 L 16.7044 61.99051 L 15.721453 62.662617 L 14.752935 63.388218 L 13.801308 64.16486 L 12.869024 64.99012 L 11.958545 65.861534 L 11.072325 66.77667 L 10.212822 67.73308 L 9.382492 68.72831 L 8.583794 69.75994 L 7.819185 70.825516 L 7.09112 71.92259 L 6.4020596 73.04873 L 5.754458 74.20148 L 5.150773 75.3784 L 4.593463 76.57706 L 4.084983 77.79499 L 3.627792 79.02977 L 3.2243474 80.27895 L 2.8771048 81.540085 L 2.5885224 82.81073 L 2.3610559 84.08845 L 6.220522 84.112274 L 6.220522 84.112274 L 6.341716 83.43191 L 6.609387 82.25685 L 6.929847 81.09978 L 7.3004465 79.96226 L 7.7185383 78.84588 L 8.181479 77.75222 L 8.686622 76.68285 L 9.231315 75.63936 L 9.812915 74.62332 L 10.428775 73.63633 L 11.076247 72.67994 L 11.752685 71.75575 L 12.4554405 70.86533 L 13.1818695 70.01027 L 13.929324 69.19213 L 14.695155 68.4125 L 15.476717 67.67297 L 16.271364 66.97511 L 17.076448 66.320496 L 17.889324 65.71071 L 18.707342 65.14732 L 19.527859 64.631935 L 20.348223 64.16611 L 21.16579 63.75143 L 21.977915 63.389473 L 22.781948 63.08183 L 23.575243 62.830063 L 24.355154 62.635754 L 25.119034 62.500492 L 25.864235 62.425854 L 26.58811 62.413418 L 27.18111 62.456913 L 27.766548 58.82652 L 26.787027 58.74897 Z"/>
		<path style="fill-rule:nonzero;fill:#000000;fill-opacity:0.1764706;" d="M 7.1413493 80.450584 L 6.929847 81.09978 L 6.609387 82.25685 L 6.341716 83.43191 L 6.220522 84.112274 L 6.220522 84.112274 L 23.6716 84.21999 L 24.255333 80.60017 L 24.085354 80.57411 L 23.696022 80.55278 L 7.1413493 80.450584 Z"/>
		<path style="fill-rule:nonzero;fill:#ffffff;fill-opacity:0.05490196;" d="M 23.6716 84.21999 L 22.91217 84.265274 L 22.152073 84.40556 L 21.392918 84.63771 L 20.636316 84.958534 L 19.883875 85.36485 L 19.137209 85.8535 L 18.397924 86.42129 L 17.667631 87.065056 L 17.667631 87.065056 L 17.667631 87.065056 L 16.947943 87.78162 L 16.240465 88.5678 L 15.546812 89.42043 L 14.868591 90.33634 L 14.207414 91.31234 L 13.564888 92.34525 L 12.942627 93.431915 L 12.342238 94.56915 L 11.765332 95.753784 L 11.489426 96.36821 L 11.489426 96.36821 L 11.213521 96.982635 L 10.688411 98.252525 L 10.191616 99.56029 L 9.724744 100.90274 L 9.289405 102.27672 L 8.887209 103.67904 L 8.519767 105.106514 L 8.188688 106.555984 L 7.8955836 108.024284 L 7.642063 109.50821 L 7.429735 111.004616 L 7.260212 112.5103 L 7.135101 114.02211 L 7.0560145 115.53685 L 7.024563 117.05136 L 10.85256 116.15597 L 10.865976 115.50768 L 10.946456 113.9745 L 11.072681 112.46985 L 11.242213 110.9952 L 11.452607 109.55204 L 11.701422 108.141846 L 11.986213 106.76608 L 12.30454 105.42625 L 12.653958 104.12381 L 13.032026 102.860245 L 13.864346 100.45564 L 14.781954 98.224266 L 15.765312 96.17793 L 16.794882 94.32846 L 17.851122 92.687675 L 18.914492 91.2674 L 19.965452 90.079445 L 20.480171 89.57628 L 20.984463 89.13563 L 21.475882 88.758965 L 21.951984 88.44778 L 22.41033 88.20353 L 22.848476 88.02772 L 23.26398 87.92179 L 23.654398 87.887245 L 23.6716 84.21999 Z"/>
		<path style="fill-rule:nonzero;fill:#000000;fill-opacity:0.1764706;" d="M 23.400682 109.52364 L 23.019531 109.5556 L 22.636433 109.625725 L 11.089142 112.326675 L 11.072681 112.46985 L 10.946456 113.9745 L 10.865976 115.50768 L 10.85256 116.15597 L 23.535715 113.189354 L 23.552866 109.53284 L 23.400682 109.52364 Z"/>
		<path style="fill-rule:nonzero;fill:#ffffff;fill-opacity:0.02745098;" d="M 23.535715 113.189354 L 22.75239 113.221115 L 21.968513 113.32165 L 21.185741 113.48868 L 20.405731 113.7199 L 19.630138 114.013016 L 19.229752 114.19653 L 19.229752 114.19653 L 19.229752 114.19653 L 19.229752 114.19653 L 18.860619 114.36572 L 18.479723 114.57073 L 18.479723 114.57073 L 18.098827 114.77574 L 17.346424 115.24077 L 16.605062 115.75849 L 15.876399 116.326645 L 15.519245 116.63478 L 15.519245 116.63478 L 15.162091 116.94291 L 14.463795 117.60499 L 13.783164 118.3106 L 13.121859 119.05743 L 13.121859 119.05743 L 13.121859 119.05743 L 12.481534 119.84319 L 11.863843 120.665596 L 11.270446 121.52234 L 10.702997 122.411125 L 10.163154 123.32965 L 9.652571 124.27563 L 9.172906 125.24676 L 8.725815 126.240746 L 8.312954 127.2553 L 7.93598 128.2881 L 7.5965476 129.3369 L 7.38884 130.07191 L 7.38884 130.07191 L 7.2963147 130.39934 L 7.20745 130.76724 L 7.0369363 131.47318 L 6.8200693 132.55608 L 6.64737 133.64577 L 6.5204945 134.73994 L 6.4411 135.8363 L 6.410841 136.93256 L 10.238044 136.29335 L 10.238044 136.29335 L 10.248319 135.92072 L 10.322297 134.90508 L 10.439836 133.90346 L 10.598872 132.91724 L 10.79734 131.94766 L 11.033177 130.99608 L 11.304318 130.06378 L 11.6087 129.15208 L 12.308924 127.39573 L 13.117332 125.7375 L 14.017414 124.18786 L 14.992655 122.75729 L 16.026537 121.45628 L 17.102549 120.29529 L 18.204176 119.2848 L 19.314901 118.435295 L 20.418213 117.75724 L 20.961927 117.48579 L 21.497595 117.26112 L 22.023151 117.084564 L 22.536533 116.957436 L 23.035675 116.881004 L 23.518513 116.85661 L 23.535715 113.189354 Z"/>
		<path style="fill-rule:nonzero;fill:#000000;fill-opacity:0.1764706;" d="M 23.45487 130.4245 L 23.173687 130.43 L 22.786592 130.47543 L 10.684964 132.49664 L 10.598872 132.91724 L 10.439836 133.90346 L 10.322297 134.90508 L 10.248319 135.92072 L 10.238044 136.29335 L 10.238044 136.29335 L 20.638443 134.55627 L 20.638443 134.55627 L 20.638435 134.55629 L 20.638435 134.55629 L 23.437683 134.08876 L 23.45487 130.4245 Z"/>
		<path style="fill-rule:nonzero;fill:#ffffff;fill-opacity:0.011764706;" d="M 23.437683 134.08876 L 22.727755 134.11739 L 22.017328 134.20807 L 21.307905 134.35875 L 20.600985 134.56734 L 19.89807 134.83176 L 19.20066 135.14996 L 18.521517 135.51381 L 18.521517 135.51381 L 18.510258 135.51984 L 17.828362 135.93935 L 17.156475 136.40642 L 16.496098 136.91896 L 15.848732 137.47491 L 15.251365 138.03873 L 15.251365 138.03873 L 15.215878 138.07222 L 14.599035 138.70877 L 13.999708 139.38252 L 12.859598 140.83333 L 11.807556 142.40805 L 10.855591 144.09012 L 10.015709 145.86296 L 9.29992 147.71 L 8.720231 149.61467 L 8.485177 150.58344 L 8.288651 151.56038 L 8.132156 152.54346 L 8.01719 153.53058 L 7.9452553 154.51968 L 7.917853 155.50868 L 7.917853 155.50868 L 7.917853 155.50868 L 11.723673 155.58307 L 11.726977 155.52524 L 11.752432 154.60562 L 11.818843 153.69855 L 11.924308 152.80515 L 12.066926 151.92648 L 12.456009 150.21779 L 12.970872 148.58122 L 13.596297 147.02557 L 14.317065 145.55956 L 15.117958 144.19193 L 15.983756 142.93146 L 16.89924 141.78691 L 17.849194 140.76703 L 18.818396 139.88057 L 19.791628 139.13628 L 20.75367 138.54292 L 21.689306 138.10925 L 22.142466 137.95505 L 22.583317 137.84404 L 23.009954 137.77731 L 23.42048 137.75601 L 23.437683 134.08876 Z"/>
		<path style="fill-rule:nonzero;fill:#000000;fill-opacity:0.1764706;" d="M 12.068004 151.92175 L 12.066926 151.92648 L 11.924308 152.80515 L 11.818843 153.69855 L 11.752432 154.60562 L 11.726977 155.52524 L 11.723673 155.58307 L 23.335794 155.81003 L 23.352999 152.14232 L 12.068004 151.92175 Z"/>
		<path style="fill-rule:nonzero;fill:#000000;fill-opacity:0.0;" d="M 23.335794 155.81003 L 22.269133 155.8587 L 21.736004 155.93507 L 21.736004 155.93507 L 21.201672 156.01163 L 20.135664 156.26535 L 19.073372 156.61636 L 18.017048 157.06122 L 16.968952 157.5964 L 15.93134 158.21844 L 14.906469 158.92386 L 13.896596 159.70917 L 12.903979 160.57089 L 11.930873 161.50554 L 10.979537 162.50964 L 10.052225 163.5797 L 9.151197 164.71225 L 8.278708 165.90381 L 7.437018 167.15088 L 6.628379 168.44998 L 5.8550525 169.79764 L 5.119293 171.19037 L 4.5667195 172.32922 L 4.5667195 172.32922 L 4.4233584 172.6247 L 3.7695045 174.09712 L 3.1599903 175.60417 L 2.5970726 177.14238 L 2.0830069 178.70825 L 1.6200466 180.2983 L 1.2104568 181.90904 L 1.092469 182.45169 L 0.8564909 183.537 L 0.5604043 185.1787 L 0.32445514 186.83063 L 0.15090135 188.48935 L 0.041996166 190.15135 L 0.0 191.81314 L 3.821922 191.32153 L 3.821922 191.32153 L 3.8501532 190.20042 L 3.9560027 188.58829 L 4.123861 186.99554 L 4.3509116 185.42451 L 4.6343446 183.87747 L 4.971345 182.35667 L 5.359102 180.86438 L 5.794796 179.40288 L 6.275619 177.97446 L 6.798755 176.58136 L 7.361391 175.22589 L 7.9607143 173.91031 L 8.593911 172.63689 L 9.258167 171.40791 L 9.95067 170.22563 L 10.668604 169.09233 L 11.409158 168.01031 L 12.169518 166.98181 L 12.94687 166.00912 L 13.7384 165.09453 L 14.541296 164.24026 L 15.352743 163.44864 L 16.16993 162.72192 L 16.99004 162.06238 L 17.81026 161.47229 L 18.62778 160.95392 L 19.439785 160.50955 L 20.24346 160.14146 L 21.03599 159.85191 L 21.814566 159.64319 L 22.57637 159.51756 L 23.318594 159.47728 L 23.335794 155.81003 Z"/>
		<path style="fill-rule:nonzero;fill:#000000;fill-opacity:0.1764706;" d="M 23.065102 185.16554 L 22.676462 185.19644 L 4.061116 187.5909 L 3.9560027 188.58829 L 3.8501532 190.20042 L 3.821922 191.32153 L 3.821922 191.32153 L 20.00985 189.2393 L 20.00985 189.2393 L 20.009844 189.2393 L 20.009844 189.2393 L 23.180902 188.8314 L 23.198088 185.16794 L 23.065102 185.16554 Z"/>
		<path style="fill-rule:nonzero;fill:#000000;fill-opacity:0.011764706;" d="M 23.180902 188.8314 L 22.286074 188.86139 L 21.39067 188.95764 L 20.496586 189.11795 L 19.60571 189.34007 L 18.719933 189.62183 L 17.84114 189.96101 L 17.84114 189.96101 L 17.84114 189.96101 L 16.971231 190.35541 L 16.112087 190.8028 L 15.265604 191.30098 L 14.433669 191.84772 L 13.618174 192.44083 L 12.821009 193.07811 L 12.044061 193.75731 L 11.289225 194.47624 L 10.558387 195.23271 L 9.853439 196.02449 L 9.176272 196.84935 L 8.528774 197.7051 L 7.9128394 198.58955 L 7.330353 199.50043 L 6.7832084 200.4356 L 6.2732935 201.39279 L 5.8025002 202.36984 L 5.3727183 203.36447 L 4.985839 204.37454 L 4.6437497 205.39783 L 4.4016848 206.2453 L 4.348343 206.43207 L 4.101507 207.47511 L 3.905135 208.5247 L 3.7611136 209.57867 L 3.6713352 210.63478 L 3.637689 211.69083 L 7.456889 211.395 L 7.4768763 210.77545 L 7.556953 209.84909 L 7.685014 208.93001 L 7.859034 208.0197 L 8.076989 207.11972 L 8.336848 206.23172 L 8.636588 205.35721 L 8.974183 204.49779 L 9.347604 203.65506 L 9.754826 202.83058 L 10.662562 201.24263 L 11.681188 199.7466 L 12.794483 198.35506 L 13.986241 197.08066 L 15.240251 195.93599 L 16.540297 194.93367 L 17.87017 194.0863 L 18.541227 193.72467 L 19.21366 193.4065 L 19.885443 193.13339 L 20.554552 192.9069 L 21.218958 192.7286 L 21.876637 192.60008 L 22.525558 192.52293 L 23.1637 192.49867 L 23.180902 188.8314 Z"/>
		<path style="fill-rule:nonzero;fill:#000000;fill-opacity:0.1764706;" d="M 23.09793 206.52013 L 22.775282 206.5294 L 7.941708 207.67833 L 7.859034 208.0197 L 7.685014 208.93001 L 7.556953 209.84909 L 7.4768763 210.77545 L 7.456889 211.395 L 23.08074 210.18489 L 23.08074 210.18489 L 23.08074 210.18489 L 23.09793 206.52013 Z"/>
		<path style="fill-rule:nonzero;fill:#000000;fill-opacity:0.019607844;" d="M 23.08074 210.18489 L 22.329645 210.25214 L 21.582966 210.38725 L 20.84213 210.58792 L 20.108566 210.8518 L 19.3837 211.17654 L 18.66896 211.55981 L 17.965776 211.99925 L 17.275574 212.49252 L 16.599783 213.0373 L 15.939829 213.63123 L 15.297141 214.27197 L 14.673147 214.95718 L 14.069275 215.68451 L 14.046093 215.71504 L 14.046093 215.71504 L 13.486951 216.45166 L 12.927606 217.25621 L 12.392664 218.09593 L 11.883556 218.96837 L 11.40171 219.87125 L 10.948549 220.80222 L 10.585723 221.62273 L 10.585723 221.62273 L 10.525508 221.75888 L 10.13401 222.73898 L 9.775484 223.74013 L 9.451358 224.76 L 9.163058 225.79623 L 8.912015 226.84651 L 8.699655 227.90848 L 8.527406 228.97978 L 8.396696 230.0581 L 8.308953 231.1411 L 8.265604 232.2264 L 8.268078 233.31169 L 8.317802 234.39462 L 12.112595 234.66478 L 12.124687 234.5294 L 12.118759 234.15402 L 12.093117 233.7073 L 12.067736 232.69475 L 12.085291 231.69556 L 12.143904 230.71086 L 12.241692 229.74188 L 12.376776 228.78984 L 12.547274 227.85591 L 12.986999 226.04716 L 13.545821 224.32523 L 14.208702 222.69966 L 14.960599 221.18002 L 15.7864685 219.77588 L 16.67127 218.49681 L 17.599962 217.35236 L 18.5575 216.35211 L 19.528849 215.50562 L 20.498959 214.82245 L 21.452791 214.31215 L 21.918903 214.12483 L 22.375305 213.98433 L 22.820118 213.8918 L 23.25146 213.84848 L 23.472929 213.8281 L 23.08074 210.18489 Z"/>
		<path style="fill-rule:nonzero;fill:#000000;fill-opacity:0.1764706;" d="M 12.127377 230.98853 L 12.085291 231.69556 L 12.067736 232.69475 L 12.093117 233.7073 L 12.118759 234.15402 L 12.124687 234.5294 L 12.112595 234.66478 L 25.821028 235.64069 L 25.422113 231.93498 L 12.127377 230.98853 Z"/>
		<path style="fill-rule:nonzero;fill:#000000;fill-opacity:0.03137255;" d="M 25.821028 235.64069 L 25.25889 236.05809 L 24.731615 236.52965 L 24.239246 237.05273 L 23.78183 237.62474 L 23.78183 237.62474 L 23.78183 237.62474 L 23.359411 238.24303 L 23.358109 238.24524 L 23.358109 238.24524 L 22.972036 238.90495 L 22.61975 239.6079 L 22.302599 240.34923 L 22.161613 240.7378 L 22.161613 240.7378 L 22.020628 241.12634 L 21.773882 241.93657 L 21.703392 242.21681 L 21.562408 242.77731 L 21.386251 243.64594 L 21.245459 244.53978 L 21.140072 245.45628 L 21.035706 247.34657 L 21.073519 249.29578 L 21.253876 251.28288 L 21.577143 253.28683 L 22.04368 255.28664 L 22.653856 257.26123 L 23.012922 258.23248 L 23.408035 259.18954 L 23.83924 260.12982 L 24.30658 261.05063 L 24.810104 261.94937 L 25.349855 262.8234 L 28.963823 261.7009 L 28.963823 261.7009 L 28.922256 261.54852 L 28.771015 261.21017 L 28.581532 260.88205 L 28.074707 260.06122 L 27.608606 259.22797 L 27.182312 258.3843 L 26.794903 257.53235 L 26.133066 255.81161 L 25.615736 254.08226 L 25.235558 252.36075 L 24.98517 250.66351 L 24.857216 249.00703 L 24.84434 247.40778 L 24.93918 245.88214 L 25.134382 244.44666 L 25.422588 243.11775 L 25.796438 241.91187 L 26.248575 240.8455 L 26.771643 239.93507 L 27.057476 239.5435 L 27.358282 239.19708 L 27.67314 238.89789 L 27.994267 238.6532 L 25.821028 235.64069 Z"/>
		<path style="fill-rule:nonzero;fill:#000000;fill-opacity:0.1764706;" d="M 39.483955 254.57994 L 27.189514 258.3986 L 27.608606 259.22797 L 28.074707 260.06122 L 28.581532 260.88205 L 28.771015 261.21017 L 28.922256 261.54852 L 28.963823 261.7009 L 28.963823 261.7009 L 41.754982 257.728 L 39.483955 254.57994 Z"/>
		<path style="fill-rule:nonzero;fill:#000000;fill-opacity:0.039215688;" d="M 41.754982 257.728 L 41.408134 258.53198 L 41.142017 259.3753 L 40.95473 260.25504 L 40.844383 261.1682 L 40.809086 262.11185 L 40.84695 263.083 L 40.956078 264.07874 L 41.13458 265.0961 L 41.380566 266.13208 L 41.692142 267.18378 L 42.06742 268.2482 L 42.504505 269.32242 L 43.00151 270.4034 L 43.556538 271.4883 L 44.167698 272.5741 L 44.833103 273.65787 L 45.550858 274.7366 L 46.319073 275.80737 L 47.135853 276.86722 L 47.56758 277.3902 L 47.56758 277.3902 L 47.99931 277.91318 L 48.90755 278.94232 L 49.858685 279.95166 L 50.85082 280.93823 L 51.88206 281.8991 L 52.950523 282.83133 L 54.054314 283.7319 L 55.191536 284.5979 L 56.3603 285.42636 L 57.558716 286.21432 L 58.784893 286.95883 L 60.036938 287.65692 L 61.312958 288.30566 L 62.994423 285.01413 L 61.782948 284.39832 L 60.580154 283.7273 L 59.41604 283.01892 L 58.2912 282.27612 L 57.206245 281.50177 L 56.161777 280.6988 L 55.158398 279.87012 L 54.196712 279.01862 L 53.277325 278.14725 L 52.400837 277.25888 L 51.567852 276.35645 L 50.778976 275.44284 L 50.034813 274.52097 L 49.33596 273.59375 L 48.68303 272.6641 L 48.07662 271.73492 L 47.51733 270.8091 L 47.005775 269.8896 L 46.54255 268.97928 L 46.12826 268.0811 L 45.76351 267.1979 L 45.448902 266.33264 L 45.185043 265.48822 L 44.972534 264.66754 L 44.811974 263.8735 L 44.70398 263.10904 L 44.649136 262.377 L 44.64806 261.68042 L 44.701355 261.0221 L 44.809616 260.405 L 44.973457 259.832 L 45.19347 259.306 L 45.20314 259.28363 L 41.754982 257.728 Z"/>
		<path style="fill-rule:nonzero;fill:#000000;fill-opacity:0.1764706;" d="M 66.8946 269.06976 L 59.6851 283.18265 L 60.580154 283.7273 L 61.782948 284.39832 L 62.994423 285.01413 L 70.344444 270.62616 L 70.344444 270.62616 L 70.344444 270.62616 L 66.8946 269.06976 Z"/>
		<path style="fill-rule:nonzero;fill:#000000;fill-opacity:0.050980393;" d="M 70.344444 270.62616 L 70.35501 271.56186 L 70.4186 272.49908 L 70.533485 273.43582 L 70.533485 273.43582 L 70.69793 274.3701 L 70.809235 274.85773 L 70.91017 275.29984 L 71.16849 276.22308 L 71.340355 276.74255 L 71.47114 277.13785 L 71.816376 278.04205 L 72.202446 278.93375 L 72.62763 279.8109 L 73.09018 280.67157 L 73.58834 281.51364 L 74.120384 282.33517 L 74.68457 283.13416 L 75.279144 283.9086 L 75.902374 284.65643 L 76.55253 285.37573 L 77.227844 286.06442 L 77.92659 286.72052 L 78.64703 287.34204 L 78.76986 287.4391 L 78.76986 287.4391 L 79.38741 287.92694 L 80.146 288.47327 L 80.146 288.47327 L 80.146 288.47327 L 80.92107 288.97894 L 81.71084 289.44202 L 82.5136 289.86047 L 83.32761 290.2323 L 84.15111 290.55548 L 84.98236 290.828 L 85.81963 291.04788 L 86.66119 291.2131 L 87.50527 291.32166 L 88.35014 291.37155 L 89.53748 287.90466 L 89.20878 287.7979 L 88.83209 287.73343 L 88.44322 287.70535 L 87.83479 287.66714 L 87.21906 287.58197 L 86.597786 287.45135 L 85.972755 287.2768 L 85.34574 287.05978 L 84.71852 286.80182 L 83.47056 286.1693 L 82.24305 285.39124 L 81.050224 284.47974 L 79.906265 283.44696 L 78.825386 282.30493 L 77.82177 281.06577 L 76.90964 279.7416 L 76.10317 278.3445 L 75.416595 276.8866 L 74.86408 275.37994 L 74.64255 274.61215 L 74.45986 273.83667 L 74.31779 273.05508 L 74.21812 272.2689 L 74.16261 271.47958 L 74.153305 270.70868 L 70.344444 270.62616 Z"/>
		<path style="fill-rule:nonzero;fill:#000000;fill-opacity:0.1764706;" d="M 91.2888 271.0798 L 85.76612 287.20526 L 85.972755 287.2768 L 86.597786 287.45135 L 87.21906 287.58197 L 87.83479 287.66714 L 88.44322 287.70535 L 88.83209 287.73343 L 89.20878 287.7979 L 89.53748 287.90466 L 95.27016 271.16602 L 91.2888 271.0798 Z"/>
		<path style="fill-rule:nonzero;fill:#000000;fill-opacity:0.05882353;" d="M 95.27016 271.16602 L 95.28385 271.88983 L 95.34939 272.61465 L 95.465065 273.33905 L 95.629166 274.06137 L 95.83998 274.78012 L 96.0958 275.49374 L 96.39492 276.20068 L 96.735634 276.89938 L 97.11622 277.58835 L 97.53498 278.26596 L 98.480156 279.58102 L 99.557495 280.83218 L 100.75333 282.0071 L 102.05397 283.09338 L 103.19771 283.90305 L 103.19771 283.90305 L 103.445755 284.07864 L 104.91499 284.95044 L 106.44803 285.69644 L 107.234184 286.0184 L 108.03116 286.30426 L 108.83725 286.55246 L 109.650734 286.76147 L 110.46991 286.92978 L 111.293076 287.05573 L 112.07911 287.13397 L 112.11851 287.1379 L 112.944496 287.17465 L 114.67755 283.92416 L 114.67755 283.92416 L 114.48679 283.82037 L 113.775665 283.595 L 113.39848 283.5332 L 113.009415 283.5079 L 112.3486 283.4777 L 111.689545 283.40985 L 110.38183 283.16702 L 109.09647 282.79132 L 107.84371 282.29465 L 106.633804 281.68887 L 105.47697 280.98596 L 104.38344 280.19772 L 103.363434 279.3361 L 102.42721 278.41296 L 101.584984 277.44025 L 100.84699 276.42984 L 100.22348 275.3936 L 99.724655 274.34348 L 99.36079 273.2913 L 99.142075 272.24902 L 99.090355 271.73532 L 99.078766 271.22852 L 95.27016 271.16602 Z"/>
		<path style="fill-rule:nonzero;fill:#000000;fill-opacity:0.1764706;" d="M 117.00789 271.52274 L 110.761925 283.2376 L 111.689545 283.40985 L 112.3486 283.4777 L 113.009415 283.5079 L 113.39848 283.5332 L 113.775665 283.595 L 114.48679 283.82037 L 114.67755 283.92416 L 114.67755 283.92416 L 121.25243 271.59238 L 117.00789 271.52274 Z"/>
		<path style="fill-rule:nonzero;fill:#000000;fill-opacity:0.06666667;" d="M 121.25243 271.59238 L 121.262024 272.31387 L 121.31535 273.03632 L 121.41099 273.75812 L 121.54749 274.47778 L 121.72341 275.19376 L 121.937325 275.90448 L 122.47336 277.3041 L 123.14408 278.6644 L 123.937996 279.97293 L 124.843605 281.2175 L 124.843605 281.2175 L 124.843605 281.2175 L 125.84938 282.38574 L 126.94383 283.46533 L 128.11545 284.44397 L 129.35274 285.3094 L 130.64418 286.0492 L 131.97829 286.65112 L 132.65775 286.89655 L 132.65775 286.89655 L 132.65775 286.89655 L 133.34355 287.10284 L 134.03427 287.26852 L 134.72845 287.39206 L 135.42467 287.47186 L 136.12149 287.50644 L 138.27176 284.48288 L 137.66379 284.1522 L 136.95265 283.92676 L 136.57549 283.86502 L 136.18642 283.8397 L 135.22398 283.7541 L 134.247 283.5347 L 133.2662 283.19092 L 132.29234 282.7321 L 131.33618 282.16754 L 130.40846 281.50665 L 129.51994 280.75873 L 128.68137 279.93314 L 127.90347 279.03928 L 127.197044 278.08643 L 126.57282 277.08398 L 126.04155 276.0413 L 125.61399 274.96768 L 125.30087 273.87253 L 125.112976 272.76514 L 125.061035 271.6549 L 121.25243 271.59238 Z"/>
		<path style="fill-rule:nonzero;fill:#000000;fill-opacity:0.1764706;" d="M 142.57378 271.9423 L 134.31822 283.5507 L 135.22398 283.7541 L 136.18642 283.8397 L 136.57549 283.86502 L 136.95265 283.92676 L 137.66379 284.1522 L 138.27176 284.48288 L 147.13698 272.01718 L 142.57378 271.9423 Z"/>
		<path style="fill-rule:nonzero;fill:#ffffff;fill-opacity:0.19607843;" d="M 184.3399 0.36733297 L 182.74805 0.43934128 L 181.15744 0.57761014 L 179.57137 0.77983505 L 177.99312 1.0437236 L 176.426 1.3669715 L 174.87326 1.7472837 L 173.33823 2.182361 L 171.82417 2.6699042 L 170.33438 3.2076144 L 168.87215 3.793193 L 167.44077 4.4243426 L 166.04353 5.098763 L 164.68372 5.814156 L 163.36461 6.5682225 L 162.08951 7.3586655 L 160.86171 8.183186 L 159.6845 9.039482 L 158.56114 9.925259 L 157.49495 10.838215 L 156.48921 11.776054 L 155.54721 12.736477 L 154.67224 13.717185 L 153.86758 14.7158785 L 153.13654 15.73026 L 152.48238 16.758028 L 152.48238 16.758028 L 151.90842 17.796888 L 151.42493 18.829538 L 151.41791 18.84454 L 151.01418 19.898684 L 150.70049 20.957022 L 150.48015 22.017256 L 150.35643 23.077087 L 150.33264 24.134214 L 154.14062 24.043013 L 154.14062 24.043013 L 154.16289 23.274977 L 154.2674 22.489454 L 154.45186 21.689114 L 154.71405 20.876625 L 155.05167 20.054659 L 155.46251 19.225883 L 155.94426 18.392971 L 156.49469 17.558588 L 157.11154 16.725405 L 157.79256 15.8960905 L 158.53545 15.073317 L 159.33801 14.259751 L 160.19794 13.458066 L 161.11298 12.670927 L 162.0809 11.901007 L 163.09941 11.150972 L 164.16628 10.423497 L 165.27922 9.721246 L 166.43599 9.046893 L 167.63435 8.403104 L 168.872 7.792551 L 170.14671 7.217902 L 171.4562 6.6818275 L 172.79825 6.1869974 L 174.17053 5.7360806 L 175.57086 5.331748 L 176.99695 4.976667 L 178.44653 4.6735086 L 179.91734 4.424941 L 181.40714 4.2336364 L 182.91365 4.102263 L 183.41515 4.0795875 L 183.41515 4.0795875 L 184.3399 0.36733297 Z"/>
		<path style="fill-rule:nonzero;fill:#000000;fill-opacity:0.1764706;" d="M 183.41515 4.0795875 L 182.91365 4.102263 L 181.40714 4.2336364 L 179.91734 4.424941 L 179.38971 4.5141106 L 174.88377 22.60221 L 174.81207 22.971245 L 174.78 23.338291 L 174.79433 23.548347 L 178.58789 23.45749 L 179.97633 17.883936 L 179.97633 17.883938 L 183.41515 4.0795875 Z"/>
		<path style="fill-rule:nonzero;fill:#ffffff;fill-opacity:0.16862746;" d="M 215.68518 0.0 L 213.95152 0.07483918 L 212.21906 0.21483092 L 210.49133 0.41770673 L 209.04657 0.6391158 L 208.77199 0.6811957 L 207.06454 1.0030341 L 205.37265 1.3809462 L 203.69989 1.8126708 L 202.04982 2.295932 L 200.42604 2.8284664 L 198.83214 3.4080017 L 197.2717 4.032272 L 195.74832 4.699007 L 194.2656 5.405937 L 192.8271 6.150796 L 191.43642 6.931313 L 190.09715 7.7452197 L 188.81287 8.590248 L 187.58716 9.464129 L 186.42363 10.364594 L 185.32587 11.289373 L 184.29745 12.2362 L 183.34196 13.202805 L 182.46301 14.186917 L 181.66415 15.186271 L 180.949 16.198595 L 180.92596 16.23613 L 180.32115 17.22162 L 179.78415 18.253082 L 179.34161 19.290709 L 178.99715 20.332232 L 178.7543 21.375381 L 178.6167 22.41789 L 178.58789 23.45749 L 182.39587 23.366287 L 182.39587 23.366287 L 182.42259 22.637844 L 182.53825 21.888956 L 182.74052 21.1224 L 183.02705 20.340948 L 183.39552 19.547369 L 183.84358 18.744434 L 184.36891 17.934921 L 184.96918 17.121595 L 185.64201 16.307234 L 186.38512 15.494607 L 187.19614 14.686486 L 188.07274 13.885643 L 189.01259 13.094851 L 190.01334 12.316881 L 191.07268 11.554505 L 192.18826 10.810496 L 193.35773 10.087626 L 194.57877 9.388667 L 195.84904 8.71639 L 197.16623 8.0735655 L 198.52795 7.4629693 L 199.93193 6.8873715 L 201.37576 6.349545 L 202.85713 5.85226 L 204.37376 5.3982906 L 205.92325 4.990407 L 207.5033 4.631381 L 209.11156 4.323988 L 210.74565 4.0709968 L 212.40332 3.8751788 L 214.08218 3.7393088 L 214.12943 3.7372725 L 215.68518 0.0 Z"/>
		<path style="fill-rule:nonzero;fill:#000000;fill-opacity:0.1764706;" d="M 214.12943 3.7372725 L 214.08218 3.7393088 L 212.40332 3.8751788 L 210.74565 4.0709968 L 209.82765 4.2131243 L 202.65976 21.432003 L 202.53313 21.787094 L 202.446 22.145761 L 202.38605 22.864237 L 202.38884 22.88745 L 206.19553 22.796278 L 209.66441 14.463259 L 209.6644 14.463264 L 214.12943 3.7372725 Z"/>
		<path style="fill-rule:nonzero;fill:#ffffff;fill-opacity:0.14509805;" d="M 240.03049 2.4744155 L 238.37299 2.5121305 L 236.7579 2.607768 L 236.72002 2.6100113 L 236.72002 2.6100113 L 235.07504 2.7660944 L 233.44148 2.9784164 L 231.82277 3.245015 L 230.22235 3.5639255 L 228.64366 3.933186 L 227.38148 4.2725015 L 227.09012 4.3508344 L 225.56512 4.814904 L 224.07219 5.323435 L 222.82019 5.796763 L 222.61469 5.874464 L 221.19606 6.4660263 L 219.81976 7.0961604 L 218.4892 7.7629013 L 217.20782 8.464288 L 215.97906 9.198355 L 214.80634 9.963143 L 213.69312 10.756685 L 212.64278 11.57702 L 212.64278 11.57702 L 211.65881 12.422184 L 210.7446 13.290215 L 209.90361 14.179148 L 209.13924 15.087022 L 208.45497 16.011871 L 207.8542 16.951736 L 207.3404 17.904652 L 206.91693 18.868654 L 206.5873 19.84178 L 206.35489 20.82207 L 206.22316 21.807556 L 206.19553 22.796278 L 209.99945 22.857134 L 210.00351 22.705074 L 210.02513 22.081635 L 210.12068 21.442656 L 210.28854 20.790375 L 210.52704 20.127035 L 210.83455 19.454872 L 211.20946 18.776127 L 211.65012 18.093037 L 212.15489 17.40784 L 212.7221 16.722778 L 213.35017 16.04009 L 214.03743 15.362014 L 214.78224 14.690787 L 215.58298 14.028652 L 216.43802 13.377845 L 217.34567 12.740604 L 218.30437 12.119172 L 219.31241 11.515785 L 220.3682 10.932684 L 221.47008 10.372105 L 222.61642 9.836288 L 223.80559 9.327475 L 225.03593 8.847902 L 226.30586 8.39981 L 227.61366 7.985435 L 228.95775 7.607017 L 230.33647 7.2667985 L 231.7482 6.9670134 L 233.19128 6.709903 L 234.66411 6.497708 L 236.16501 6.332664 L 237.69235 6.2170134 L 239.24454 6.1529927 L 240.64343 6.1595674 L 240.64343 6.1595674 L 241.68913 2.4988282 L 240.03049 2.4744155 Z"/>
		<path style="fill-rule:nonzero;fill:#000000;fill-opacity:0.1764706;" d="M 239.24454 6.1529927 L 237.69235 6.2170134 L 236.654 6.295637 L 232.0833 22.296757 L 231.99898 22.663315 L 231.95438 23.029142 L 231.96045 23.20847 L 235.7561 23.269194 L 240.64343 6.1595674 L 240.64343 6.1595674 L 239.24454 6.1529927 Z"/>
		<path style="fill-rule:nonzero;fill:#ffffff;fill-opacity:0.12156863;" d="M 246.9187 19.158716 L 245.49847 19.175512 L 244.14532 19.260868 L 242.86395 19.415722 L 241.659 19.641012 L 240.53516 19.937681 L 240.51299 19.945562 L 239.49706 20.306664 L 238.54936 20.748903 L 237.69678 21.265337 L 236.94392 21.856903 L 236.29549 22.524542 L 235.7561 23.269194 L 239.04094 25.128838 L 239.29187 24.794151 L 239.62885 24.471119 L 240.04022 24.173801 L 240.52405 23.903362 L 241.07834 23.66096 L 241.70113 23.447756 L 242.39047 23.264912 L 243.14436 23.11359 L 243.96083 22.994947 L 244.83794 22.910149 L 245.7737 22.860353 L 246.76614 22.846724 L 247.8133 22.870419 L 248.91318 22.9326 L 251.26326 23.177067 L 253.8007 23.589413 L 256.50967 24.178923 L 257.92358 24.543018 L 259.37445 24.954887 L 260.86035 25.415693 L 262.37927 25.926594 L 263.92926 26.488752 L 265.50836 27.10333 L 267.11453 27.771486 L 268.74594 28.494383 L 270.40048 29.273182 L 272.07623 30.109043 L 273.77127 31.003126 L 275.48355 31.956594 L 277.07657 32.892334 L 278.6499 33.867477 L 279.01822 34.108322 L 283.9827 32.97986 L 282.23087 31.773867 L 280.5295 30.669504 L 280.44818 30.616709 L 278.6393 29.509327 L 276.8089 28.45266 L 274.96167 27.447645 L 273.1022 26.495224 L 271.23523 25.596336 L 269.3654 24.751919 L 269.33105 24.737427 L 267.4973 23.962912 L 265.67242 23.244696 L 265.63574 23.230255 L 263.78528 22.554886 L 261.9506 21.937746 L 260.13638 21.379774 L 258.34726 20.881907 L 256.58795 20.445087 L 254.8631 20.070251 L 253.17732 19.758339 L 251.53534 19.51029 L 249.9418 19.327044 L 248.40137 19.20954 L 246.9187 19.158716 Z"/>
		<path style="fill-rule:nonzero;fill:#000000;fill-opacity:0.1764706;" d="M 274.44684 31.379316 L 260.93573 34.450497 L 260.56122 34.555084 L 260.20636 34.692837 L 259.56146 35.058987 L 259.01245 35.531204 L 258.57068 36.091743 L 258.53357 36.164204 L 261.811 38.019657 L 267.68295 36.684914 L 267.68295 36.684914 L 267.68295 36.684914 L 279.01822 34.108322 L 278.6499 33.867477 L 277.07657 32.892334 L 275.48355 31.956594 L 274.44684 31.379316 Z"/>
		<path style="fill-rule:nonzero;fill:#ffffff;fill-opacity:0.09803922;" d="M 267.40326 36.68207 L 266.20514 36.75989 L 265.04315 36.930305 L 263.92105 37.195568 L 262.8424 37.557934 L 261.811 38.019657 L 263.57443 41.26936 L 263.59085 41.261993 L 264.27884 40.958004 L 265.01755 40.718864 L 265.80386 40.54397 L 266.63474 40.432713 L 267.50702 40.38449 L 268.4176 40.398693 L 269.36343 40.474724 L 270.34137 40.611973 L 271.34827 40.809837 L 272.38107 41.067707 L 273.43668 41.38498 L 274.512 41.76105 L 275.60388 42.19532 L 276.70923 42.687172 L 277.82498 43.23601 L 278.948 43.841225 L 280.0752 44.50221 L 281.20343 45.21837 L 282.32962 45.989086 L 283.45068 46.813766 L 284.5635 47.691795 L 285.66495 48.622574 L 286.75192 49.605495 L 287.82135 50.63995 L 288.87015 51.72534 L 289.89514 52.861057 L 290.89325 54.0465 L 291.8614 55.281055 L 292.79642 56.564125 L 293.69528 57.895103 L 294.55484 59.27338 L 295.372 60.698357 L 295.7963 61.5304 L 299.9405 61.339462 L 299.9405 61.339462 L 299.9405 61.339462 L 299.1604 59.76984 L 298.3169 58.231915 L 297.41367 56.72794 L 296.45438 55.260174 L 295.44272 53.830868 L 294.3824 52.442284 L 293.2771 51.09667 L 292.13046 49.796284 L 290.94626 48.54338 L 289.72812 47.340218 L 288.47974 46.189053 L 287.20483 45.092133 L 285.90707 44.05172 L 284.59012 43.07007 L 283.2577 42.149437 L 281.91348 41.292072 L 280.56113 40.500233 L 279.2044 39.776184 L 279.2044 39.776184 L 277.8469 39.12217 L 276.4924 38.540447 L 275.1445 38.033276 L 273.80695 37.602905 L 272.48343 37.2516 L 271.1776 36.981606 L 269.8932 36.79518 L 268.63382 36.694584 L 267.40326 36.68207 Z"/>
		<path style="fill-rule:nonzero;fill:#000000;fill-opacity:0.1764706;" d="M 293.73203 57.954025 L 274.9045 58.82149 L 274.51645 58.858326 L 274.14142 58.931244 L 273.4378 59.17759 L 273.32715 59.2422 L 275.0866 62.484592 L 295.7963 61.5304 L 295.372 60.698357 L 294.55484 59.27338 L 293.73203 57.954025 Z"/>
		<path style="fill-rule:nonzero;fill:#ffffff;fill-opacity:0.07450981;" d="M 275.0866 62.484592 L 275.13388 66.1617 L 275.41617 66.185814 L 275.84116 66.27376 L 276.28333 66.41372 L 276.7406 66.60443 L 277.69214 67.13311 L 278.6791 67.849724 L 279.68484 68.744194 L 280.69266 69.80647 L 281.6859 71.026474 L 282.64795 72.39415 L 283.56204 73.899414 L 284.4116 75.53221 L 285.1799 77.28248 L 285.85028 79.140144 L 286.40607 81.09512 L 286.63583 82.10597 L 286.83066 83.137375 L 286.98853 84.18808 L 287.1073 85.25682 L 287.18497 86.34235 L 287.2051 86.986855 L 291.02832 87.4048 L 290.99283 86.2711 L 290.91202 85.13619 L 290.7875 84.002495 L 290.6208 82.87242 L 290.41345 81.74837 L 290.16702 80.63276 L 289.88303 79.52799 L 289.56302 78.436485 L 288.8211 76.3029 L 288.38736 75.27708 L 287.95364 74.25127 L 286.97293 72.30087 L 285.89133 70.47099 L 285.31656 69.607285 L 285.31656 69.607285 L 284.7212 68.78093 L 284.10675 67.99435 L 283.47482 67.24995 L 282.8269 66.55013 L 282.16455 65.89732 L 281.4893 65.29393 L 280.80273 64.742355 L 280.10635 64.24502 L 279.4017 63.804317 L 278.6903 63.42267 L 277.97375 63.10249 L 277.25357 62.84618 L 276.76733 62.718254 L 276.53128 62.65615 L 275.80847 62.53482 L 275.0866 62.484592 Z"/>
		<path style="fill-rule:nonzero;fill:#000000;fill-opacity:0.1764706;" d="M 275.42554 82.02733 L 275.33786 82.03057 L 275.38495 85.694695 L 287.2051 86.986855 L 287.18497 86.34235 L 287.1073 85.25682 L 286.98853 84.18808 L 286.84863 83.25703 L 275.81473 82.05082 L 275.42554 82.02733 Z"/>
		<path style="fill-rule:nonzero;fill:#ffffff;fill-opacity:0.050980393;" d="M 275.38495 85.694695 L 275.30884 89.36125 L 276.21368 89.415665 L 277.12753 89.54275 L 278.04782 89.740204 L 278.97202 90.005745 L 279.89764 90.337074 L 280.8221 90.73191 L 281.74292 91.18795 L 282.65756 91.7029 L 283.56348 92.274475 L 284.45816 92.90037 L 285.33908 93.57831 L 286.20374 94.305984 L 287.04953 95.0811 L 287.87402 95.90138 L 288.67462 96.76453 L 289.44885 97.66824 L 290.19418 98.61024 L 290.90805 99.58821 L 291.58795 100.59988 L 292.23135 101.642944 L 292.83575 102.71512 L 293.3986 103.814095 L 293.91736 104.937614 L 294.38953 106.08335 L 294.81256 107.24903 L 295.18396 108.432335 L 295.5012 109.631 L 295.76172 110.84273 L 295.96298 112.06521 L 296.10254 113.29616 L 296.17776 114.5333 L 296.1812 115.038956 L 296.1812 115.038956 L 299.99463 115.84762 L 299.98575 114.48123 L 299.90402 113.113045 L 299.7598 111.81757 L 299.75183 111.74597 L 299.53156 110.38293 L 299.24557 109.02684 L 298.89627 107.68061 L 298.48602 106.34716 L 298.0172 105.0294 L 297.4922 103.73027 L 297.01968 102.687256 L 296.91342 102.45266 L 296.28317 101.19949 L 295.6039 99.97369 L 294.878 98.77817 L 294.10776 97.61584 L 293.29562 96.48961 L 292.444 95.40242 L 291.74283 94.577805 L 291.55524 94.35717 L 290.63168 93.35678 L 289.67575 92.40417 L 288.68982 91.50224 L 287.6763 90.65393 L 286.63748 89.862144 L 285.57584 89.12979 L 284.4937 88.4598 L 283.39346 87.85509 L 282.27753 87.31856 L 281.14822 86.853134 L 280.4865 86.62601 L 280.4865 86.62601 L 280.00797 86.46174 L 279.43356 86.30451 L 278.85913 86.14728 L 278.0831 85.989655 L 278.0831 85.989655 L 278.0831 85.989655 L 277.7041 85.912674 L 276.54526 85.76084 L 275.38495 85.694695 Z"/>
		<path style="fill-rule:nonzero;fill:#000000;fill-opacity:0.1764706;" d="M 274.94562 106.853455 L 274.86948 110.51966 L 279.57767 111.51806 L 279.57767 111.51806 L 279.57767 111.51806 L 279.57767 111.51806 L 279.57767 111.51806 L 279.57767 111.51806 L 279.57767 111.51806 L 279.57767 111.51806 L 296.1812 115.038956 L 296.1812 115.038956 L 296.17776 114.5333 L 296.10254 113.29616 L 295.96298 112.06521 L 295.82178 111.20754 L 275.68884 106.938225 L 275.3043 106.87605 L 274.94562 106.853455 Z"/>
		<path style="fill-rule:nonzero;fill:#ffffff;fill-opacity:0.03137255;" d="M 274.86948 110.51966 L 274.79337 114.18622 L 275.5597 114.239456 L 276.3401 114.36849 L 277.13196 114.571175 L 277.93274 114.84532 L 278.73987 115.18874 L 279.55075 115.599266 L 280.36276 116.07474 L 281.17343 116.612946 L 281.98007 117.211754 L 282.78015 117.86894 L 283.57114 118.582375 L 284.35034 119.34984 L 285.11533 120.16917 L 285.86337 121.038216 L 286.592 121.95477 L 287.29858 122.916664 L 287.98056 123.92173 L 288.63538 124.96778 L 289.2604 126.05264 L 289.8531 127.17415 L 290.41086 128.3301 L 290.93115 129.51834 L 291.41135 130.7367 L 291.8489 131.98297 L 292.24124 133.255 L 292.58572 134.55061 L 292.87985 135.86761 L 293.121 137.20384 L 293.3066 138.55713 L 293.4341 139.92528 L 293.5009 141.30612 L 293.5017 141.63112 L 297.3128 142.77078 L 297.3091 141.306 L 297.23868 139.8395 L 297.1037 138.37439 L 296.90637 136.91382 L 296.64883 135.46089 L 296.33325 134.01874 L 295.96182 132.59047 L 295.53668 131.17918 L 295.06003 129.78804 L 294.53403 128.42014 L 293.96082 127.07859 L 293.34262 125.766525 L 292.68158 124.48705 L 291.9799 123.2433 L 291.2397 122.0384 L 290.46317 120.87544 L 289.6525 119.757576 L 288.8098 118.68789 L 287.93732 117.669525 L 287.03717 116.70559 L 286.1116 115.79921 L 286.1116 115.79921 L 285.1627 114.95351 L 284.19266 114.17159 L 283.20364 113.45659 L 282.19785 112.811615 L 281.17743 112.23979 L 280.14456 111.74424 L 279.10144 111.32807 L 278.0502 110.99441 L 276.993 110.746376 L 275.93207 110.58708 L 274.86948 110.51966 Z"/>
		<path style="fill-rule:nonzero;fill:#000000;fill-opacity:0.1764706;" d="M 274.41824 132.25142 L 274.34244 135.9018 L 293.5017 141.63112 L 293.5017 141.63112 L 293.5009 141.30612 L 293.4341 139.92528 L 293.3066 138.55713 L 293.1887 137.69739 L 275.47235 132.39955 L 275.09457 132.30641 L 274.71628 132.25148 L 274.41824 132.25142 Z"/>
		<path style="fill-rule:nonzero;fill:#ffffff;fill-opacity:0.007843138;" d="M 274.34244 135.9018 L 274.26633 139.56834 L 274.6342 139.6122 L 275.02606 139.72911 L 275.43945 139.91753 L 275.87207 140.17595 L 276.32138 140.50285 L 276.78506 140.89671 L 277.2607 141.356 L 277.74585 141.87921 L 278.7351 143.1113 L 279.73355 144.58081 L 280.722 146.27559 L 281.68106 148.18347 L 282.5916 150.29225 L 283.4343 152.5898 L 284.18988 155.06396 L 284.529 156.36346 L 284.8391 157.70256 L 285.1178 159.07971 L 285.36267 160.49341 L 285.57132 161.94215 L 285.74136 163.4244 L 285.87033 164.93861 L 285.95587 166.4833 L 285.99554 168.05693 L 285.99142 168.8265 L 289.79538 169.7313 L 289.8036 168.18787 L 289.76514 166.64311 L 289.72336 165.87169 L 289.68158 165.10028 L 289.55438 163.56264 L 289.385 162.03346 L 289.17502 160.51602 L 289.17502 160.51602 L 288.92584 159.0136 L 288.63904 157.52945 L 288.4869 156.84058 L 288.4869 156.84058 L 288.31604 156.06686 L 287.95837 154.6291 L 287.56754 153.21944 L 287.14502 151.84116 L 286.6923 150.49751 L 286.4516 149.84465 L 286.21088 149.19177 L 285.70227 147.92722 L 285.16794 146.70712 L 284.6094 145.53477 L 284.0282 144.4134 L 283.4257 143.34631 L 282.8035 142.33678 L 282.1631 141.38805 L 281.50592 140.50342 L 280.83353 139.68614 L 280.14734 138.9395 L 279.44894 138.26677 L 278.73975 137.67122 L 278.02133 137.1561 L 277.49863 136.8456 L 277.49863 136.8456 L 277.49863 136.84561 L 277.49863 136.84561 L 277.2951 136.7247 L 276.56262 136.38031 L 275.82535 136.12617 L 275.0848 135.96559 L 274.34244 135.9018 Z"/>
		<path style="fill-rule:nonzero;fill:#000000;fill-opacity:0.1764706;" d="M 273.8692 162.24242 L 273.79544 162.2466 L 273.71942 165.90761 L 285.99142 168.8265 L 285.99554 168.05693 L 285.95587 166.4833 L 285.8749 165.02126 L 274.63303 162.34735 L 274.2502 162.2758 L 273.8692 162.24242 Z"/>
		<path style="fill-rule:nonzero;fill:#000000;fill-opacity:0.003921569;" d="M 273.71942 165.90761 L 273.64328 169.57416 L 274.563 169.62541 L 275.48825 169.74246 L 276.4168 169.9231 L 277.34634 170.16515 L 278.2745 170.46642 L 279.19894 170.8247 L 280.11737 171.23784 L 281.02747 171.70361 L 281.92682 172.21982 L 282.8132 172.7843 L 283.6842 173.39485 L 284.53754 174.04929 L 285.37088 174.7454 L 286.18185 175.48102 L 286.9682 176.25392 L 287.72754 177.06198 L 288.45755 177.90292 L 289.1559 178.77463 L 289.8203 179.67485 L 290.4484 180.60143 L 291.03784 181.55217 L 291.58627 182.52489 L 292.09146 183.51736 L 292.551 184.52744 L 292.9626 185.5529 L 293.32388 186.59158 L 293.63254 187.64125 L 293.8863 188.69975 L 294.08273 189.76491 L 294.2196 190.83449 L 294.29453 191.90631 L 294.3052 192.9782 L 294.31567 193.30873 L 294.31567 193.30873 L 298.11362 193.05148 L 298.10226 191.82338 L 298.01886 190.59354 L 297.8658 189.36455 L 297.64542 188.13908 L 297.36005 186.91974 L 297.08936 185.97795 L 297.0121 185.70915 L 296.90897 185.40619 L 296.60385 184.50995 L 296.1378 183.32475 L 296.1378 183.32475 L 296.1378 183.32475 L 295.61612 182.15617 L 295.32874 181.58153 L 295.32874 181.58153 L 295.04135 181.00688 L 294.41574 179.87946 L 293.7417 178.77652 L 293.02155 177.70073 L 292.25766 176.65471 L 291.4524 175.64107 L 290.60815 174.66243 L 289.72723 173.72142 L 288.812 172.82068 L 287.86487 171.96281 L 286.88815 171.15047 L 286.88815 171.15047 L 285.88422 170.38625 L 284.8554 169.67279 L 283.80414 169.01273 L 282.7327 168.40866 L 281.64352 167.86325 L 281.64352 167.86325 L 280.53885 167.37907 L 279.42117 166.9588 L 278.29282 166.60504 L 277.15607 166.3204 L 276.01334 166.10754 L 274.86703 165.96907 L 273.71942 165.90761 Z"/>
		<path style="fill-rule:nonzero;fill:#000000;fill-opacity:0.1764706;" d="M 294.0615 189.6496 L 273.1971 191.06282 L 273.12067 194.74434 L 294.31567 193.30873 L 294.31567 193.30873 L 294.3052 192.9782 L 294.29453 191.90631 L 294.2196 190.83449 L 294.08273 189.76491 L 294.0615 189.6496 Z"/>
		<path style="fill-rule:nonzero;fill:#000000;fill-opacity:0.015686275;" d="M 273.12067 194.74434 L 273.0436 198.41084 L 273.04453 198.4109 L 273.56076 198.4535 L 274.09503 198.56078 L 274.64502 198.73111 L 275.20844 198.96289 L 275.78293 199.25447 L 276.36627 199.60431 L 276.95602 200.01076 L 277.55 200.4722 L 278.14575 200.98705 L 278.7411 201.5537 L 279.92105 202.8359 L 281.07135 204.306 L 282.1735 205.95107 L 283.20892 207.75827 L 284.15915 209.7147 L 284.59653 210.74487 L 285.00565 211.80753 L 285.3842 212.90106 L 285.7299 214.02388 L 286.04037 215.17435 L 286.31335 216.35088 L 286.5465 217.55183 L 286.73755 218.77562 L 286.88412 220.02066 L 286.98395 221.2853 L 287.03467 222.56795 L 287.034 223.867 L 287.04587 224.24226 L 287.0603 224.34715 L 287.0603 224.34715 L 290.84244 223.94029 L 290.84296 222.61203 L 290.79056 221.28238 L 290.73685 220.5935 L 290.68698 219.95413 L 290.61047 219.29213 L 290.53394 218.63013 L 290.33313 217.31319 L 290.08627 216.00615 L 289.7951 214.71179 L 289.4613 213.43298 L 289.08658 212.17256 L 288.67267 210.9333 L 288.2213 209.71805 L 287.73416 208.52965 L 287.21295 207.37086 L 286.65945 206.24458 L 286.07532 205.1536 L 285.46225 204.10074 L 284.822 203.08885 L 284.15628 202.1207 L 283.4668 201.19916 L 282.75525 200.32706 L 282.02338 199.50719 L 281.2729 198.74239 L 280.50546 198.03546 L 279.72287 197.38927 L 278.92676 196.80661 L 278.1189 196.29031 L 277.30103 195.84322 L 276.47476 195.46812 L 275.64188 195.16788 L 274.8041 194.94527 L 273.96313 194.80315 L 273.12067 194.74434 Z"/>
		<path style="fill-rule:nonzero;fill:#000000;fill-opacity:0.1764706;" d="M 286.93542 220.67049 L 272.54324 222.21866 L 272.4655 225.91713 L 287.0603 224.34715 L 287.0603 224.34715 L 287.04587 224.24226 L 287.034 223.867 L 287.03467 222.56795 L 286.98395 221.2853 L 286.93542 220.67049 Z"/>
		<path style="fill-rule:nonzero;fill:#000000;fill-opacity:0.02745098;" d="M 272.4655 225.91713 L 271.16507 229.36537 L 271.74945 229.60593 L 272.34747 229.91833 L 272.93576 230.29121 L 273.5128 230.72208 L 274.07703 231.2086 L 274.62698 231.74834 L 275.16113 232.33888 L 275.67786 232.97777 L 276.17575 233.66263 L 276.6532 234.39107 L 277.10873 235.16064 L 277.54083 235.96893 L 277.94788 236.81352 L 278.32843 237.69202 L 278.6809 238.602 L 279.00385 239.54103 L 279.29565 240.50673 L 279.55484 241.49667 L 279.77988 242.5084 L 279.9692 243.53958 L 280.12134 244.58774 L 280.23474 245.65047 L 280.30786 246.72539 L 280.33914 247.81006 L 280.32718 248.90204 L 280.27032 249.99898 L 280.16708 251.09839 L 280.01596 252.19792 L 279.8154 253.29514 L 279.5639 254.38759 L 279.2599 255.47292 L 278.9591 256.3767 L 278.9591 256.3767 L 282.50073 257.75037 L 282.88788 256.58762 L 283.22012 255.40486 L 283.4984 254.20525 L 283.72372 252.99185 L 283.89703 251.76775 L 284.00836 250.64655 L 284.01935 250.536 L 284.02353 250.4643 L 284.09152 249.2997 L 284.11426 248.08488 L 284.1147 248.06192 L 284.0897 246.82573 L 284.01752 245.59425 L 283.8992 244.3705 L 283.73566 243.15761 L 283.5279 241.95863 L 283.27682 240.77664 L 282.9835 239.61473 L 282.6488 238.47598 L 282.2738 237.36348 L 281.8594 236.28024 L 281.40656 235.22943 L 280.9163 234.21408 L 280.38953 233.23727 L 279.82727 232.30211 L 279.23047 231.41162 L 278.60013 230.56892 L 277.9372 229.77711 L 277.2426 229.03923 L 276.8902 228.70834 L 276.51743 228.35838 L 275.7625 227.73761 L 274.97888 227.18002 L 274.16754 226.6887 L 273.32944 226.26671 L 272.4655 225.91713 Z"/>
		<path style="fill-rule:nonzero;fill:#000000;fill-opacity:0.1764706;" d="M 264.57117 246.84935 L 263.27264 250.2925 L 278.9591 256.3767 L 278.9591 256.3767 L 279.2599 255.47292 L 279.5639 254.38759 L 279.8154 253.29514 L 279.9076 252.7909 L 264.69608 246.89088 L 264.57117 246.84935 Z"/>
		<path style="fill-rule:nonzero;fill:#000000;fill-opacity:0.03529412;" d="M 263.27264 250.2925 L 260.3328 252.62408 L 260.33588 252.62807 L 260.80878 253.23642 L 261.2341 253.9013 L 261.6118 254.61954 L 261.94196 255.38786 L 262.22458 256.20303 L 262.45975 257.06186 L 262.6475 257.96106 L 262.78787 258.8974 L 262.88095 259.8677 L 262.9267 260.86862 L 262.92523 261.89703 L 262.87656 262.94968 L 262.78076 264.02325 L 262.63782 265.1146 L 262.4478 266.22046 L 262.21082 267.3376 L 261.92685 268.46274 L 261.59595 269.59268 L 261.21814 270.72424 L 260.7935 271.85413 L 260.32205 272.9791 L 259.8039 274.09592 L 259.239 275.2014 L 258.62744 276.29227 L 257.96927 277.36523 L 257.26453 278.4172 L 256.51328 279.44482 L 255.71552 280.44492 L 254.8713 281.41425 L 253.98073 282.34952 L 253.04378 283.24756 L 252.07391 284.09344 L 254.54933 286.8814 L 255.60571 285.9603 L 256.61996 284.98947 L 257.59125 283.97247 L 258.5187 282.9128 L 259.4015 281.81403 L 260.2388 280.67966 L 260.6343 280.09647 L 261.02975 279.51328 L 261.7735 278.3184 L 262.46924 277.09854 L 263.1161 275.85727 L 263.71323 274.5981 L 264.25977 273.32462 L 264.25977 273.32462 L 264.25977 273.32462 L 264.7549 272.0403 L 264.97635 271.39453 L 265.19778 270.74878 L 265.5876 269.4535 L 265.92343 268.158 L 266.2045 266.8659 L 266.3907 265.8045 L 266.42993 265.58063 L 266.45218 265.41287 L 266.5989 264.30585 L 266.71057 263.045 L 266.76407 261.80167 L 266.75854 260.57938 L 266.69318 259.38168 L 266.56714 258.2121 L 266.37955 257.0742 L 266.12958 255.97145 L 265.8164 254.90747 L 265.43915 253.88576 L 264.997 252.90987 L 264.48907 251.98334 L 263.91458 251.10971 L 263.27264 250.2925 Z"/>
		<path style="fill-rule:nonzero;fill:#000000;fill-opacity:0.1764706;" d="M 242.03137 267.1391 L 239.09085 269.47125 L 252.07391 284.09344 L 253.04378 283.24756 L 253.98073 282.34952 L 254.7859 281.50394 L 242.03137 267.1391 Z"/>
		<path style="fill-rule:nonzero;fill:#000000;fill-opacity:0.043137256;" d="M 239.09085 269.47125 L 235.28468 269.8847 L 235.28453 270.41605 L 235.2195 271.23096 L 235.09166 272.06055 L 234.903 272.9024 L 234.65552 273.754 L 234.35124 274.61288 L 233.99216 275.47653 L 233.58029 276.34253 L 233.1176 277.20834 L 232.60612 278.07156 L 232.04785 278.92966 L 231.44478 279.78018 L 230.79892 280.62067 L 230.11227 281.44858 L 229.38684 282.2615 L 228.6246 283.05695 L 227.82759 283.83246 L 226.9978 284.58548 L 226.13724 285.31363 L 225.2479 286.01437 L 224.3318 286.68527 L 223.3909 287.32385 L 222.42726 287.92758 L 221.44281 288.49405 L 220.43965 289.02072 L 219.41971 289.50516 L 218.38501 289.94492 L 217.33751 290.33746 L 216.27931 290.6803 L 215.21233 290.97107 L 214.13861 291.20715 L 213.06013 291.38617 L 212.67746 291.4583 L 212.49768 291.5108 L 213.60268 295.01608 L 214.81662 294.81543 L 216.02826 294.55148 L 217.23518 294.22675 L 218.43488 293.8437 L 219.62491 293.40482 L 220.8028 292.91254 L 221.9661 292.36935 L 223.11229 291.77774 L 224.23897 291.14017 L 225.34364 290.45908 L 226.42384 289.73697 L 227.47713 288.97632 L 228.50102 288.17957 L 229.49304 287.3492 L 230.45071 286.4877 L 231.37161 285.5975 L 232.25327 284.68115 L 233.0932 283.74103 L 233.88895 282.77966 L 234.63802 281.7995 L 235.33798 280.803 L 235.98637 279.7927 L 236.5807 278.77097 L 236.71758 278.50873 L 236.71758 278.50873 L 237.11853 277.74036 L 237.40262 277.12515 L 237.59737 276.7033 L 238.01477 275.66232 L 238.36829 274.61978 L 238.6554 273.57825 L 238.87367 272.54016 L 239.02066 271.50797 L 239.09387 270.4842 L 239.09085 269.47125 Z"/>
		<path style="fill-rule:nonzero;fill:#000000;fill-opacity:0.1764706;" d="M 210.50935 272.5759 L 206.66042 272.99396 L 212.49768 291.5108 L 212.67746 291.4583 L 213.06013 291.38617 L 214.13861 291.20715 L 215.21233 290.97107 L 216.22156 290.69608 L 210.50935 272.5759 Z"/>
		<path style="fill-rule:nonzero;fill:#000000;fill-opacity:0.05490196;" d="M 202.85182 272.93146 L 202.81549 273.69846 L 202.73492 274.4617 L 202.61194 275.21988 L 202.44824 275.9716 L 202.24565 276.71548 L 202.00592 277.4502 L 201.42229 278.88647 L 200.71147 280.26944 L 199.88782 281.58817 L 198.96548 282.83163 L 197.95876 283.98886 L 196.88184 285.04883 L 195.74896 286.0006 L 194.57437 286.8332 L 193.37231 287.53558 L 192.15706 288.09683 L 191.54889 288.3211 L 190.94275 288.50592 L 190.34042 288.65 L 189.7437 288.7519 L 189.15433 288.81024 L 188.57411 288.82373 L 188.18436 288.8363 L 187.80522 288.88565 L 187.24747 289.04233 L 187.24747 289.04233 L 188.5092 292.4905 L 189.32912 292.47473 L 190.15031 292.4018 L 190.97101 292.27365 L 191.78943 292.09207 L 192.60384 291.85904 L 193.41248 291.5764 L 193.97852 291.343 L 194.21358 291.24603 L 195.00542 290.86984 L 195.78622 290.4497 L 196.55421 289.98752 L 197.30768 289.4851 L 198.04482 288.94446 L 198.76392 288.36737 L 199.46317 287.75577 L 200.14088 287.11154 L 200.79526 286.43658 L 201.42456 285.73273 L 201.72578 285.36734 L 202.02702 285.00192 L 202.60086 284.24603 L 203.1444 283.46692 L 203.6558 282.6665 L 204.13336 281.84662 L 204.57529 281.00922 L 204.97987 280.15613 L 205.34529 279.28928 L 205.66986 278.41055 L 205.83717 277.8831 L 205.95178 277.5218 L 206.18932 276.62494 L 206.38072 275.7218 L 206.52419 274.81436 L 206.618 273.90445 L 206.66042 272.99396 L 202.85182 272.93146 Z"/>
		<path style="fill-rule:nonzero;fill:#000000;fill-opacity:0.1764706;" d="M 181.22243 272.5765 L 187.24747 289.04233 L 187.24747 289.04233 L 187.80522 288.88565 L 188.18436 288.8363 L 188.57411 288.82373 L 189.15433 288.81024 L 189.7437 288.7519 L 190.34042 288.65 L 190.94275 288.50592 L 191.07504 288.46558 L 185.28545 272.6432 L 181.22243 272.5765 Z"/>
		<path style="fill-rule:nonzero;fill:#000000;fill-opacity:0.06666667;" d="M 177.4138 272.514 L 177.37944 273.0995 L 177.29796 273.6911 L 177.17088 274.28726 L 176.99976 274.88632 L 176.78613 275.4866 L 176.53154 276.08646 L 175.90556 277.2783 L 175.13411 278.4486 L 174.22948 279.5842 L 173.20396 280.67188 L 172.06984 281.69843 L 170.8394 282.65067 L 169.52493 283.51535 L 168.1387 284.2793 L 166.69302 284.92932 L 165.20018 285.45215 L 164.4399 285.66177 L 163.67244 285.83466 L 162.89932 285.96915 L 162.1221 286.0636 L 161.3423 286.11633 L 160.56146 286.12573 L 160.17172 286.13828 L 159.79257 286.18765 L 159.07388 286.3896 L 158.42094 286.71704 L 158.27135 286.8318 L 160.49654 289.7925 L 161.43675 289.782 L 162.37816 289.72086 L 163.31873 289.61066 L 164.17711 289.46643 L 164.17711 289.46643 L 164.25644 289.45312 L 164.34866 289.43304 L 164.34866 289.43304 L 165.18932 289.24988 L 166.11536 289.00262 L 167.03255 288.713 L 167.93887 288.3827 L 168.12485 288.30582 L 168.12485 288.30582 L 168.83235 288.01334 L 169.71095 287.60666 L 170.5727 287.16425 L 171.41554 286.68784 L 172.23753 286.17905 L 173.03664 285.63953 L 173.24564 285.48605 L 173.81085 285.07098 L 174.55818 284.4751 L 175.27661 283.85345 L 175.96414 283.2078 L 176.61876 282.53976 L 177.23848 281.851 L 177.82127 281.14322 L 178.36516 280.41803 L 178.86812 279.67712 L 178.86812 279.67712 L 179.32812 278.92218 L 179.74323 278.15485 L 180.11139 277.37677 L 180.2538 277.02563 L 180.43062 276.58966 L 180.69888 275.79517 L 180.9142 274.99493 L 181.07457 274.19064 L 181.17798 273.38394 L 181.22243 272.5765 L 177.4138 272.514 Z"/>
		<path style="fill-rule:nonzero;fill:#000000;fill-opacity:0.1764706;" d="M 147.13704 272.01718 L 147.13704 272.01718 L 147.13704 272.01718 L 158.27135 286.8318 L 158.42094 286.71704 L 159.07388 286.3896 L 159.79257 286.18765 L 160.17172 286.13828 L 160.56146 286.12573 L 161.3423 286.11633 L 162.1221 286.0636 L 162.37285 286.0331 L 151.89752 272.09528 L 147.13704 272.01718 Z"/>
		<path style="fill-rule:nonzero;fill:#5fad41;fill-opacity:1;" d="M 95.2262 250.64697 C 83.227684 267.13678 83.227684 275.38168 95.2262 291.8715 C 67.430374 299.39902 59.849693 294.38068 62.376583 316.9633 L 72.48416 316.9633 L 72.48416 321.98163 L 82.59173 321.98163 L 82.59173 327.0 L 92.6993 327.0 C 123.022026 316.9633 123.022026 316.9633 115.44135 291.8715 C 103.44283 275.38168 103.44283 258.67633 115.44135 250.64697 M 203.52164 250.64697 C 215.52014 267.13678 215.52014 275.38168 203.52164 291.8715 C 231.31746 299.39902 238.89815 294.38068 236.37125 316.9633 L 226.26367 316.9633 L 226.26367 321.98163 L 216.1561 321.98163 L 216.1561 327.0 L 206.04852 327.0 C 175.7258 316.9633 175.7258 316.9633 183.30647 291.8715 C 195.305 275.38168 195.305 258.67633 183.30647 250.64697"/>
		<path style="fill-rule:nonzero;fill:url(#paint-id-0);fill-opacity:1;" d="M 183.30647 250.64697 C 188.78583 254.31374 191.76294 259.78986 192.23778 266.22852 L 192.23778 266.22852 C 192.66035 260.2007 191.10129 254.80795 187.5606 250.64697 Z M 111.187225 250.64697 C 107.64653 254.80795 106.08748 260.2007 106.51005 266.22852 L 106.51005 266.22852 C 106.9849 259.78986 109.962 254.31374 115.44135 250.64697 Z M 86.31971 269.37735 L 86.31971 269.37735 C 85.73081 275.3883 87.95699 281.20322 92.99825 288.6961 L 92.99825 288.6961 C 93.72602 288.50876 94.4686 288.3129 95.2262 288.10773 C 89.83484 280.69827 86.866005 274.95346 86.31971 269.37735 Z M 212.4281 269.37735 C 211.88182 274.95346 208.913 280.69827 203.52164 288.10773 C 204.27922 288.3129 205.0218 288.50876 205.74957 288.6961 L 205.74957 288.6961 C 210.79083 281.20322 213.01701 275.3883 212.4281 269.37735 Z M 61.96897 308.28036 L 61.96897 308.28036 C 61.83515 310.608 61.98369 313.452 62.376583 316.9633 L 72.48416 316.9633 L 72.48416 313.19952 L 62.376583 313.19952 C 62.174034 311.38934 62.03643 309.75653 61.96897 308.28036 Z M 236.77885 308.28033 L 236.77885 308.28033 C 236.7114 309.7565 236.57379 311.38934 236.37125 313.19952 L 226.26367 313.19952 L 226.26367 316.9633 L 236.37125 316.9633 C 236.76414 313.452 236.91267 310.60797 236.77885 308.28033 Z M 72.48416 318.21786 L 72.48416 321.98163 L 82.59173 321.98163 L 82.59173 318.21786 Z M 216.1561 318.21786 L 216.1561 321.98163 L 226.26367 321.98163 L 226.26367 318.21786 Z M 119.53491 307.8903 C 118.55955 314.6766 111.38955 317.04984 92.6993 323.23624 L 82.59173 323.23624 L 82.59173 327.0 L 92.6993 327.0 C 114.47871 319.7911 120.61498 317.76 119.53491 307.8903 Z M 179.2129 307.8903 L 179.2129 307.8903 C 178.13284 317.76 184.26912 319.7911 206.04852 327.0 L 216.1561 327.0 L 216.1561 323.23624 L 206.04852 323.23624 C 187.35828 317.04984 180.18828 314.6766 179.2129 307.8903 Z"/>
		<path style="fill-rule:nonzero;fill:url(#paint-id-1);fill-opacity:1;" d="M 187.5606 250.64697 C 188.23541 251.43999 188.83826 252.27777 189.3691 253.15614 L 205.29698 253.15614 C 204.73767 252.34052 204.14589 251.5049 203.52164 250.64697 Z M 95.2262 250.64697 C 89.83484 258.05643 86.866005 263.80124 86.31971 269.37735 L 86.31971 269.37735 C 86.62398 272.48303 87.67971 275.641 89.48692 279.10977 L 89.486916 279.10977 C 87.28658 270.94586 90.04198 263.75372 97.75309 253.15614 L 109.37874 253.15614 C 109.909584 252.27777 110.51241 251.43999 111.187225 250.64697 Z M 207.16618 292.81866 C 206.80598 293.3312 206.43343 293.8517 206.04852 294.38068 C 221.16621 298.4748 230.30408 298.8577 235.08829 301.9885 L 235.08829 301.9885 C 231.72646 296.72415 223.21196 296.81674 207.16618 292.81866 Z M 235.08829 301.9885 C 235.08829 301.9885 235.08829 301.9885 235.08829 301.9885 L 235.08829 301.9885 C 235.08829 301.9885 235.08829 301.9885 235.08829 301.9885 Z M 191.76814 259.22058 C 192.25331 261.42438 192.40987 263.7738 192.23778 266.22852 L 192.23778 266.22852 C 192.80273 273.88904 189.82564 282.91208 183.30647 291.8715 C 181.17065 298.941 179.6366 304.01874 179.2129 307.8903 L 179.2129 307.8903 C 179.48735 309.79965 180.25215 311.3597 181.62596 312.7536 L 181.62596 312.7536 C 181.5271 308.6343 183.23488 302.9816 185.83337 294.38068 C 195.33333 281.32468 197.31158 268.13354 191.76814 259.22058 Z M 93.78038 288.49295 L 93.78038 288.49295 C 93.51779 288.56177 93.25709 288.62946 92.99825 288.6961 L 92.99825 288.6961 C 93.68817 289.72156 94.430824 290.7784 95.2262 291.8715 C 71.75224 298.2286 62.695797 295.63794 61.96897 308.28036 L 61.96897 308.28036 C 62.03643 309.75653 62.174034 311.38934 62.376583 313.19952 L 64.45309 313.19952 C 64.20112 297.8091 72.88974 301.11407 97.75309 294.38068 C 96.23738 292.2976 94.91315 290.34613 93.78038 288.49295 Z M 183.1404 317.81387 L 183.1404 317.81387 C 183.1404 317.81387 183.1404 317.81387 183.1404 317.81387 L 183.1404 317.81387 C 183.1404 317.81387 183.1404 317.81387 183.1404 317.81387 Z"/>
		<path style="fill-rule:nonzero;fill:#000000;fill-opacity:0.15686275;" d="M 88.10516 302.4021 L 87.49231 302.55426 L 82.44097 303.83063 L 80.38492 304.3919 L 78.61368 304.9292 L 77.10601 305.46298 L 75.84073 306.01376 L 74.796616 306.60205 L 74.35087 306.91663 L 73.95246 307.2483 L 73.59873 307.59955 L 73.28705 307.97296 L 73.01475 308.37112 L 72.779175 308.7966 L 72.57768 309.25192 L 72.40762 309.73965 L 72.1512 310.82263 L 71.98867 312.06598 L 71.89884 313.4902 L 71.860504 315.1158 L 71.85243 316.9633 L 72.48416 316.9633 L 72.48416 317.59058 L 73.11588 317.59058 L 73.11588 316.9633 L 73.1287 313.79587 L 73.17953 312.5045 L 73.29091 311.3814 L 73.48607 310.40668 L 73.62231 309.9687 L 73.78819 309.56033 L 73.98662 309.17908 L 74.2205 308.82248 L 74.49272 308.48798 L 74.8062 308.1731 L 75.16382 307.8754 L 75.5685 307.59232 L 76.530594 307.06015 L 77.715706 306.55667 L 79.14704 306.06192 L 80.8478 305.55597 L 82.8412 305.01886 L 87.79874 303.77136 L 88.4116 303.61923 L 88.10516 302.4021 Z M 210.64265 302.4021 L 210.33624 303.61923 L 210.94908 303.77136 L 215.90663 305.01886 L 217.90002 305.55597 L 219.6008 306.06192 L 221.03212 306.55667 L 222.21724 307.06015 L 223.17934 307.59232 L 223.584 307.8754 L 223.94164 308.1731 L 224.25511 308.48798 L 224.52733 308.82248 L 224.76122 309.17908 L 224.95963 309.56033 L 225.12552 309.9687 L 225.26176 310.40668 L 225.45692 311.3814 L 225.56831 312.5045 L 225.61913 313.79587 L 225.63194 316.9633 L 225.63194 317.59058 L 226.26367 317.59058 L 226.26367 316.9633 L 226.8954 316.9633 L 226.88731 315.1158 L 226.84897 313.4902 L 226.75916 312.06598 L 226.59663 310.82263 L 226.3402 309.73965 L 226.17014 309.25192 L 225.96866 308.7966 L 225.7331 308.37112 L 225.46077 307.97296 L 225.1491 307.59955 L 224.79536 307.2483 L 224.39696 306.91663 L 223.95122 306.60205 L 222.9071 306.01376 L 221.6418 305.46298 L 220.13416 304.9292 L 218.36292 304.3919 L 216.30685 303.83063 L 211.25552 302.55426 L 210.64265 302.4021 Z M 98.17665 307.40005 L 97.57157 307.58032 L 95.10659 308.3077 L 91.50762 309.38443 L 89.96918 309.88272 L 88.5942 310.37643 L 87.374756 310.8821 L 86.30293 311.41638 L 85.3708 311.99588 L 84.57042 312.6371 L 83.89389 313.3567 L 83.33327 314.17123 L 82.88064 315.09732 L 82.52808 316.15155 L 82.26766 317.35052 L 82.09146 318.71082 L 81.991554 320.24896 L 81.96001 321.98163 L 82.59173 321.98163 L 82.59173 322.60895 L 83.22346 322.60895 L 83.22346 321.98163 L 83.246254 320.4081 L 83.32132 319.01538 L 83.45867 317.78738 L 83.6683 316.7081 L 83.96022 315.76144 L 84.344444 314.93137 L 84.83098 314.2018 L 85.429825 313.55673 L 86.150986 312.9801 L 87.004486 312.4558 L 88.00031 311.96783 L 89.14849 311.50012 L 90.459015 311.03662 L 91.9419 310.56128 L 95.46478 309.51083 L 97.934616 308.78198 L 98.5397 308.60175 L 98.17665 307.40005 Z M 200.57117 307.40005 L 200.20813 308.60175 L 200.81322 308.78198 L 203.28304 309.51083 L 206.80592 310.56128 L 208.2888 311.03662 L 209.59933 311.50012 L 210.74751 311.96783 L 211.74335 312.4558 L 212.59683 312.9801 L 213.31801 313.55673 L 213.91684 314.2018 L 214.40338 314.93137 L 214.7876 315.76144 L 215.07953 316.7081 L 215.28915 317.78738 L 215.4265 319.01538 L 215.50157 320.4081 L 215.52438 321.98163 L 215.52438 322.60895 L 216.1561 322.60895 L 216.1561 321.98163 L 216.78783 321.98163 L 216.75629 320.24896 L 216.65636 318.71082 L 216.48015 317.35052 L 216.21974 316.15155 L 215.86719 315.09732 L 215.41457 314.17123 L 214.85394 313.3567 L 214.17741 312.6371 L 213.37704 311.99588 L 212.4449 311.41638 L 211.37306 310.8821 L 210.15363 310.37643 L 208.77866 309.88272 L 207.2402 309.38443 L 203.64124 308.3077 L 201.17627 307.58032 L 200.57117 307.40005 Z"/>
		<path style="fill-rule:nonzero;fill:url(#paint-id-2);fill-opacity:1;" d="M 242.86897 107.62377 C 242.86897 128.41049 225.89903 145.26146 204.96556 145.26146 C 184.0321 145.26146 167.06216 128.41049 167.06216 107.62377 C 167.06216 86.83705 184.0321 69.98609 204.96556 69.98609 C 225.89903 69.98609 242.86897 86.83705 242.86897 107.62377 Z"/>
		<path style="fill-rule:nonzero;fill:url(#paint-id-3);fill-opacity:1;" d="M 134.21255 112.64213 C 134.21255 133.42885 117.24262 150.27982 96.30915 150.27982 C 75.37569 150.27982 58.405754 133.42885 58.405754 112.64213 C 58.405754 91.855415 75.37569 75.00445 96.30915 75.00445 C 117.24262 75.00445 134.21255 91.855415 134.21255 112.64213 Z"/>
		<path style="fill-rule:nonzero;fill:url(#paint-id-4);fill-opacity:1;" d="M 169.58907 69.98609 C 169.58907 86.61546 156.01312 100.09624 139.26634 100.09624 C 122.51956 100.09624 108.94362 86.61546 108.94362 69.98609 C 108.94362 53.356716 122.51956 39.875942 139.26634 39.875942 C 156.01312 39.875942 169.58907 53.356716 169.58907 69.98609 Z"/>
		<path style="fill-rule:nonzero;fill:#ffffff;fill-opacity:1;" d="M 177.25824 95.37215 C 175.57727 99.11492 174.64285 103.26099 174.64285 107.62377 C 174.64285 116.06039 178.1371 123.6866 183.7669 129.15323 L 183.7669 129.15323 C 190.09695 126.94178 197.31041 125.689865 204.96556 125.689865 C 212.62073 125.689865 219.83418 126.94178 226.16422 129.15323 L 226.16422 129.15323 C 231.79402 123.6866 235.28828 116.06039 235.28828 107.62377 C 235.28828 103.26099 234.35385 99.11492 232.6729 95.37215 L 232.6729 95.37215 C 225.0009 99.27887 215.393 101.601746 204.96556 101.601746 C 194.53812 101.601746 184.93024 99.27887 177.25824 95.37215 Z"/>
		<path style="fill-rule:nonzero;fill:#2e541f;fill-opacity:1;" d="M 198.72836 101.320984 C 193.33902 103.629326 189.56665 108.95286 189.56665 115.151306 C 189.56665 119.65591 191.55898 123.69843 194.71635 126.45741 L 194.71635 126.45741 C 198.01038 125.95523 201.44118 125.689865 204.96556 125.689865 C 208.34537 125.689865 211.63905 125.93389 214.80864 126.396805 L 214.80862 126.396805 C 217.92604 123.63939 219.88937 119.623024 219.88937 115.151306 C 219.88937 108.983696 216.15445 103.68231 210.80798 101.35565 L 210.80798 101.35565 C 208.89514 101.51803 206.94511 101.601746 204.96556 101.601746 C 202.84964 101.601746 200.76747 101.506096 198.72836 101.320984 Z"/>
		<path style="fill-rule:nonzero;fill:#000000;fill-opacity:1;" d="M 204.72801 106.87102 C 200.12265 106.87102 196.38927 110.57823 196.38927 115.151306 C 196.38927 119.72439 200.12265 123.43161 204.72801 123.43161 C 209.33337 123.43161 213.06676 119.72439 213.06676 115.151306 C 213.06676 110.57823 209.33337 106.87102 204.72801 106.87102 Z"/>
		<path style="fill-rule:nonzero;fill:#ffffff;fill-opacity:0.60784316;" d="M 215.90887 100.72455 C 214.8215 100.90234 213.7187 101.054245 212.60208 101.17921 L 212.60208 101.17921 C 211.22014 101.954216 210.28717 103.42622 210.28717 105.11459 C 210.28717 107.609 212.32356 109.63111 214.83559 109.63111 C 217.3476 109.63111 219.38399 107.609 219.38399 105.11459 C 219.38399 102.98733 217.90292 101.203545 215.90887 100.72455 Z"/>
		<path style="fill-rule:nonzero;fill:#ffffff;fill-opacity:1;" d="M 68.60182 100.3905 L 68.60182 100.3905 C 66.92086 104.13328 65.986435 108.27934 65.986435 112.64213 C 65.986435 121.07874 69.48069 128.70496 75.110504 134.17159 L 75.1105 134.17159 C 81.440544 131.96014 88.654 130.70822 96.30915 130.70822 C 103.96431 130.70822 111.17776 131.96014 117.50781 134.17159 L 117.50781 134.17159 C 123.13761 128.70496 126.631874 121.07874 126.631874 112.64213 C 126.631874 108.27934 125.69745 104.13328 124.01648 100.3905 L 124.01648 100.3905 C 116.3445 104.297226 106.736595 106.620094 96.30915 106.620094 C 85.88171 106.620094 76.27381 104.297226 68.60182 100.3905 Z"/>
		<path style="fill-rule:nonzero;fill:#2e541f;fill-opacity:1;" d="M 90.07194 106.33934 C 84.6826 108.64768 80.91024 113.971214 80.91024 120.16967 C 80.91024 124.67426 82.902565 128.71678 86.05994 131.47577 L 86.05993 131.47577 C 89.35397 130.97359 92.78475 130.70822 96.30915 130.70822 C 99.68894 130.70822 102.982635 130.95226 106.152214 131.41515 L 106.15221 131.41515 C 109.269615 128.65775 111.23296 124.64138 111.23296 120.16967 C 111.23296 114.00206 107.49803 108.70067 102.15157 106.374016 L 102.15157 106.374016 C 100.23873 106.536385 98.288704 106.620094 96.30915 106.620094 C 94.19323 106.620094 92.111046 106.52446 90.07194 106.33934 Z"/>
		<path style="fill-rule:nonzero;fill:#000000;fill-opacity:1;" d="M 96.0716 111.88938 C 91.46624 111.88938 87.73285 115.59659 87.73285 120.16967 C 87.73285 124.742744 91.46624 128.44997 96.0716 128.44997 C 100.67696 128.44997 104.41035 124.742744 104.41035 120.16967 C 104.41035 115.59659 100.67696 111.88938 96.0716 111.88938 Z"/>
		<path style="fill-rule:nonzero;fill:#ffffff;fill-opacity:0.60784316;" d="M 107.252464 105.742905 L 107.252464 105.742905 C 106.165085 105.9207 105.062294 106.0726 103.94566 106.19756 L 103.94566 106.19756 C 102.56373 106.97258 101.63076 108.44458 101.63076 110.13295 C 101.63076 112.62736 103.66715 114.649475 106.17918 114.649475 C 108.691185 114.649475 110.72758 112.62736 110.72758 110.13295 C 110.72758 108.00568 109.24651 106.2219 107.252464 105.742905 Z"/>
		<path style="fill-rule:nonzero;fill:#ffffff;fill-opacity:1;" d="M 118.48585 60.797367 L 118.48585 60.797367 C 117.22512 63.60445 116.5243 66.714 116.5243 69.98609 C 116.5243 76.313545 119.145 82.0332 123.36735 86.13318 L 123.36735 86.13318 C 128.11488 84.474594 133.52496 83.53565 139.26634 83.53565 C 145.0077 83.53565 150.4178 84.474594 155.16533 86.13318 L 155.16533 86.13318 C 159.38768 82.0332 162.00838 76.313545 162.00838 69.98609 C 162.00838 66.714 161.30756 63.60445 160.04683 60.797367 L 160.04683 60.797367 C 154.29285 63.72741 147.08693 65.46957 139.26634 65.46957 C 131.44576 65.46957 124.23984 63.72741 118.48585 60.797367 Z"/>
		<path style="fill-rule:nonzero;fill:#2e541f;fill-opacity:1;" d="M 133.4806 65.146095 L 133.4806 65.146095 C 130.00621 67.07827 127.65777 70.76903 127.65777 75.00445 C 127.65777 78.689285 129.43533 81.96186 132.18541 84.0228 L 132.1854 84.0228 C 134.46977 83.70356 136.83844 83.53565 139.26634 83.53565 C 141.55183 83.53565 143.78484 83.68444 145.94444 83.968185 L 145.94443 83.968185 C 148.65335 81.90431 150.39981 78.656906 150.39981 75.00445 C 150.39981 70.800514 148.08615 67.13318 144.65428 65.18948 L 144.65428 65.18948 C 142.89928 65.373825 141.09969 65.46957 139.26634 65.46957 C 137.2942 65.46957 135.36115 65.35878 133.4806 65.146095 Z"/>
		<path style="fill-rule:nonzero;fill:#000000;fill-opacity:1;" d="M 139.0288 68.79423 C 135.57477 68.79423 132.77473 71.57464 132.77473 75.00445 C 132.77473 78.43426 135.57477 81.21467 139.0288 81.21467 C 142.48282 81.21467 145.28285 78.43426 145.28285 75.00445 C 145.28285 71.57464 142.48282 68.79423 139.0288 68.79423 Z"/>
		<path style="fill-rule:nonzero;fill:#ffffff;fill-opacity:0.60784316;" d="M 148.47107 64.6379 L 148.47107 64.6379 C 147.02985 64.90463 145.55008 65.11027 144.03857 65.250336 L 144.03857 65.250336 C 143.5152 65.84571 143.19817 66.62454 143.19817 67.47691 C 143.19817 69.34772 144.72546 70.8643 146.60947 70.8643 C 148.49348 70.8643 150.02078 69.34772 150.02078 67.47691 C 150.02078 66.28814 149.4041 65.24239 148.47107 64.6379 Z"/>
		<path style="fill-rule:nonzero;fill:#000000;fill-opacity:0.19607843;" d="M 149.37392 165.33488 L 149.37392 165.33488 C 199.21457 165.33488 232.7614 191.79105 232.7614 223.046 L 225.18071 223.046 L 232.7614 223.046 C 232.7614 239.12451 225.68358 248.21893 213.14128 248.21893 L 213.14128 248.21893 C 205.90085 248.21893 197.92267 244.92082 192.76724 242.86923 L 192.76724 242.86923 C 192.52202 242.77164 192.2812 242.6758 192.04259 242.58104 L 194.85799 235.59189 L 192.04259 242.58104 C 188.56491 241.19972 184.96455 239.49005 181.4851 237.84099 L 181.4851 237.84099 C 177.5634 235.98233 173.69244 234.15048 169.67117 232.55324 L 169.67117 232.55324 C 162.97653 229.89415 156.28513 228.06436 149.37392 228.06436 L 149.37392 220.53682 L 149.37392 228.06436 C 138.15724 228.06436 127.882675 232.80774 117.26272 237.84099 L 117.26272 237.84099 C 113.78327 239.49005 110.1829 241.19972 106.70523 242.58104 L 103.88983 235.59189 L 106.70523 242.58104 C 106.46663 242.6758 106.22581 242.77164 105.9806 242.86923 L 105.9806 242.86923 C 105.73273 242.96785 105.48048 243.06824 105.22627 243.16922 L 105.22627 243.16922 C 98.58687 245.80637 76.023735 256.06122 68.187775 236.60864 L 68.187775 236.60864 C 66.651085 232.79385 65.986435 228.24342 65.986435 223.046 L 73.567116 223.046 L 65.986435 223.046 C 65.986435 191.79105 99.53327 165.33488 149.37392 165.33488 C 153.56061 165.33488 156.95459 168.70508 156.95459 172.86243 C 156.95459 177.01976 153.56061 180.38995 149.37392 180.38995 L 149.37392 180.38995 C 103.19261 180.38995 81.1478 204.11737 81.1478 223.046 L 81.1478 223.046 C 81.1478 227.09474 81.68407 229.57582 82.26474 231.01735 L 82.26474 231.01735 C 83.3614 233.73976 86.041504 234.57451 99.59548 229.19093 L 99.59548 229.19093 C 99.84434 229.09207 100.09201 228.99353 100.340614 228.89459 L 100.340614 228.89459 C 100.58502 228.79733 100.83046 228.69966 101.07444 228.60275 L 101.07444 228.60275 C 104.00965 227.43689 107.14767 225.95296 110.73209 224.25415 L 110.73209 224.25415 C 120.88235 219.44351 134.19211 213.0093 149.37392 213.0093 L 149.37392 213.0093 C 158.97174 213.0093 167.68877 215.55103 175.30196 218.57495 L 175.30196 218.57495 C 179.85153 220.38203 184.15648 222.42508 188.01573 224.25415 L 188.01573 224.25415 C 191.60017 225.95296 194.73817 227.43689 197.67339 228.60275 L 197.67339 228.60275 C 197.91736 228.69966 198.1628 228.79733 198.40721 228.89459 L 198.40721 228.89459 C 204.4554 231.30147 209.44508 233.16386 213.14128 233.16386 L 213.14128 233.16386 C 214.21187 233.16386 217.60004 234.26318 217.60004 223.046 L 217.60004 223.046 C 217.60004 204.11737 195.5552 180.38995 149.37392 180.38995 C 145.18723 180.38995 141.79323 177.01976 141.79323 172.86243 C 141.79323 168.70508 145.18723 165.33488 149.37392 165.33488 Z"/>
		<path style="fill-rule:nonzero;fill:#ffffff;fill-opacity:1;" d="M 149.37392 172.86243 C 197.38489 172.86243 225.18071 197.95421 225.18071 223.046 C 225.18071 248.13779 207.49246 240.61026 194.85799 235.59189 C 182.22353 230.57353 167.06216 220.53682 149.37392 220.53682 C 131.68565 220.53682 116.5243 230.57353 103.88983 235.59189 C 91.25536 240.61026 73.567116 248.13779 73.567116 223.046 C 73.567116 197.95421 101.36294 172.86243 149.37392 172.86243"/>
		<path style="fill-rule:nonzero;fill:#000000;fill-opacity:1;" d="M 149.37392 199.2088 L 146.68256 199.24582 L 143.99063 199.3569 L 141.29756 199.542 L 138.60278 199.80118 L 135.90572 200.13441 L 133.20583 200.54167 L 130.5025 201.02298 L 127.7952 201.57835 L 125.08334 202.20775 L 122.366356 202.9112 L 119.64368 203.6887 L 116.914734 204.54027 L 114.17895 205.46587 L 111.43576 206.46552 L 108.68461 207.5392 L 105.92492 208.68695 L 103.15611 209.90874 L 100.377625 211.20459 L 97.58888 212.57448 L 94.78932 214.01842 L 91.97837 215.5364 L 89.155464 217.12843 L 86.32003 218.79451 L 83.4715 220.53464 L 80.6093 222.34882 L 77.732864 224.23703 L 74.84161 226.19933 L 73.73939 226.97151 L 73.768845 227.37703 L 74.01476 229.27193 L 74.11383 229.77835 L 74.11383 229.77835 L 76.19712 228.31705 L 79.04224 226.38326 L 81.8721 224.5224 L 84.68727 222.73454 L 87.48835 221.01964 L 90.275925 219.37772 L 93.050575 217.80878 L 95.8129 216.3128 L 98.56348 214.88982 L 101.302895 213.5398 L 104.031746 212.26274 L 106.7506 211.05867 L 109.460075 209.92758 L 112.160736 208.86945 L 114.85318 207.8843 L 117.53797 206.9721 L 120.21573 206.13292 L 122.88703 205.3667 L 125.55245 204.67343 L 128.2126 204.05315 L 130.86803 203.50584 L 133.51936 203.03151 L 136.16718 202.63016 L 138.81204 202.30179 L 141.45456 202.04637 L 144.09532 201.86394 L 146.73491 201.75447 L 149.37392 201.71799 L 152.01291 201.75447 L 154.6525 201.86394 L 157.29326 202.04637 L 159.93578 202.30179 L 162.58064 202.63016 L 165.22845 203.03151 L 167.87979 203.50584 L 170.53523 204.05315 L 173.19537 204.67343 L 175.8608 205.3667 L 178.53209 206.13292 L 181.20985 206.9721 L 183.89465 207.8843 L 186.5871 208.86945 L 189.28775 209.92758 L 191.99721 211.05867 L 194.71608 212.26274 L 197.44495 213.5398 L 200.18436 214.88982 L 202.93492 216.3128 L 205.69725 217.80878 L 208.47191 219.37772 L 211.25948 221.01964 L 214.06056 222.73454 L 216.87573 224.5224 L 219.7056 226.38326 L 222.55072 228.31705 L 224.63399 229.77835 L 224.63399 229.77835 L 224.73306 229.27193 L 224.97899 227.37703 L 225.00844 226.97153 L 225.00844 226.97153 L 223.9062 226.19933 L 221.01495 224.23703 L 218.13852 222.34882 L 215.27632 220.53464 L 212.4278 218.79451 L 209.59235 217.12843 L 206.76945 215.5364 L 203.95851 214.01842 L 201.15894 212.57448 L 198.3702 211.20459 L 195.59172 209.90874 L 192.82292 208.68695 L 190.06322 207.5392 L 187.31206 206.46552 L 184.56888 205.46587 L 181.8331 204.54027 L 179.10416 203.6887 L 176.38147 202.9112 L 173.66449 202.20775 L 170.95264 201.57835 L 168.24532 201.02298 L 165.542 200.54167 L 162.8421 200.13441 L 160.14505 199.80118 L 157.45027 199.542 L 154.7572 199.3569 L 152.06528 199.24582 L 149.37392 199.2088 Z"/>
		<path style="fill-rule:nonzero;fill:#000000;fill-opacity:1;" d="M 112.73396 178.65218 L 110.51738 179.4478 L 110.20707 179.57367 L 110.20707 232.82104 L 110.20707 232.82104 L 112.73396 231.63939 L 112.73396 178.65218 Z"/>
		<path style="fill-rule:nonzero;fill:#000000;fill-opacity:1;" d="M 149.37392 172.86243 L 148.11047 172.88312 L 148.11047 172.88312 L 148.11047 220.55898 L 148.11047 220.55898 L 149.37392 220.53682 L 150.63736 220.55898 L 150.63736 220.55898 L 150.63736 172.88312 L 150.63736 172.88312 L 149.37392 172.86243 Z"/>
		<path style="fill-rule:nonzero;fill:#000000;fill-opacity:1;" d="M 186.01387 178.65218 L 186.01387 231.63939 L 188.54076 232.82104 L 188.54076 232.82104 L 188.54076 179.57367 L 188.23045 179.4478 L 186.01387 178.65218 Z"/>
	</g>
</svg>
