<?xml version="1.0" encoding="iso-8859-1"?>
<!DOCTYPE svg PUBLIC "-//W3C//DTD SVG 1.1//EN" "http://www.w3.org/Graphics/SVG/1.1/DTD/svg11.dtd">
<svg version="1.1" id="buildings_1" xmlns="http://www.w3.org/2000/svg" xmlns:xlink="http://www.w3.org/1999/xlink"
	x="0px" y="0px" width="300px" height="442px" viewBox="0 0 300 442"
	 xml:space="preserve">
	<defs>
		<linearGradient id="paint-id-0" x1="9.002934397983609E-9" y1="311.23773193359375" x2="9.002934397983609E-9" y2="311.23773193359375">
			offset="0%" style="stop-color:#000000;stop-opacity:0.0;"/>
			offset="100%" style="stop-color:#000000;stop-opacity:0.15686275;"/>
		</linearGradient>
		<linearGradient id="paint-id-1" x1="9.002934397983609E-9" y1="285.0852355957031" x2="9.002934397983609E-9" y2="285.0852355957031">
			offset="0%" style="stop-color:#ffffff;stop-opacity:0.0;"/>
			offset="100%" style="stop-color:#ffffff;stop-opacity:0.078431375;"/>
		</linearGradient>
		<linearGradient id="paint-id-2" x1="9.002934397983609E-9" y1="74.34729766845703" x2="9.002934397983609E-9" y2="74.34729766845703">
			offset="0%" style="stop-color:#000000;stop-opacity:0.078431375;"/>
			offset="100%" style="stop-color:#000000;stop-opacity:0.0;"/>
		</linearGradient>
		<linearGradient id="paint-id-3" x1="9.002934397983609E-9" y1="80.29508209228516" x2="9.002934397983609E-9" y2="80.29508209228516">
			offset="0%" style="stop-color:#000000;stop-opacity:0.078431375;"/>
			offset="100%" style="stop-color:#000000;stop-opacity:0.0;"/>
		</linearGradient>
	</defs>
	<g>
		<path style="fill-rule:nonzero;fill:#000000;fill-opacity:0.15686275;" d="M 77.259995 409.87256 L 76.53239 410.05286 L 70.5353 411.56567 L 68.0943 412.23087 L 65.991425 412.86765 L 64.201485 413.5003 L 62.699303 414.1531 L 61.4597 414.85034 L 60.930496 415.2232 L 60.457497 415.61627 L 60.037544 416.0326 L 59.6675 416.47516 L 59.344215 416.94708 L 59.064537 417.45132 L 58.82532 417.991 L 58.623425 418.56906 L 58.318985 419.8526 L 58.12603 421.32623 L 58.019382 423.01425 L 57.973866 424.94092 L 57.964287 427.13055 L 58.714287 427.13055 L 58.714287 427.87402 L 59.464287 427.87402 L 59.464287 427.13055 L 59.4795 423.3765 L 59.539845 421.84595 L 59.67209 420.51483 L 59.903778 419.35962 L 60.06553 418.8405 L 60.26247 418.35654 L 60.498055 417.90466 L 60.775723 417.482 L 61.098915 417.08554 L 61.47108 416.7124 L 61.895657 416.35953 L 62.3761 416.02402 L 63.518333 415.3933 L 64.92533 414.79657 L 66.62466 414.2102 L 68.643845 413.61053 L 71.01047 412.97394 L 76.89619 411.49542 L 77.623795 411.3151 L 77.259995 409.87256 Z M 222.74 412.84647 L 222.37622 414.28897 L 223.1038 414.4693 L 228.98955 415.9478 L 231.35617 416.5844 L 233.37537 417.18408 L 235.07468 417.77048 L 236.48167 418.3672 L 237.62392 418.9979 L 238.10434 419.33344 L 238.52893 419.68628 L 238.9011 420.05942 L 239.22427 420.4559 L 239.50195 420.87854 L 239.73752 421.3304 L 239.93448 421.81442 L 240.09622 422.3335 L 240.32793 423.48874 L 240.46017 424.81985 L 240.52051 426.3504 L 240.53572 430.10443 L 240.53572 430.8479 L 241.28572 430.8479 L 241.28572 430.10443 L 242.03572 430.10443 L 242.02614 427.9148 L 241.9806 425.98816 L 241.87398 424.30014 L 241.68103 422.82648 L 241.37657 421.54297 L 241.17467 420.9649 L 240.93547 420.4252 L 240.65579 419.921 L 240.3325 419.44904 L 239.96246 419.00647 L 239.54251 418.59018 L 239.0695 418.1971 L 238.54031 417.82425 L 237.3007 417.127 L 235.79851 416.4742 L 234.00859 415.84155 L 231.90572 415.20474 L 229.4647 414.53955 L 223.46762 413.02673 L 222.74 412.84647 Z M 89.21715 415.79617 L 88.49878 416.0098 L 85.57229 416.8719 L 81.299484 418.14807 L 79.473 418.73862 L 77.84058 419.32376 L 76.39283 419.9231 L 75.12033 420.55637 L 74.01367 421.2431 L 73.063446 422.0031 L 72.26025 422.856 L 71.594666 423.82138 L 71.05729 424.919 L 70.63872 426.1685 L 70.329544 427.5895 L 70.120346 429.2017 L 70.00174 431.02475 L 69.96429 433.07834 L 70.71429 433.07834 L 70.71429 433.8218 L 71.46429 433.8218 L 71.46429 433.07834 L 71.491356 431.21338 L 71.580475 429.5627 L 71.74354 428.10727 L 71.99242 426.8281 L 72.339 425.7061 L 72.79516 424.7223 L 73.37278 423.8576 L 74.08375 423.09308 L 74.93993 422.40964 L 75.95323 421.78824 L 77.135506 421.2099 L 78.49866 420.6556 L 80.05455 420.10626 L 81.81508 419.54285 L 85.997536 418.29785 L 88.929794 417.43402 L 89.64817 417.2204 L 89.21715 415.79617 Z M 210.78285 418.77005 L 210.35184 420.19427 L 211.0702 420.40793 L 214.00246 421.27173 L 218.18494 422.51672 L 219.94545 423.08014 L 221.50134 423.6295 L 222.86449 424.18378 L 224.04678 424.76212 L 225.06006 425.38354 L 225.91626 426.067 L 226.62721 426.8315 L 227.20485 427.69617 L 227.66101 428.67996 L 228.00758 429.802 L 228.25647 431.08115 L 228.41953 432.5366 L 228.50865 434.1873 L 228.53572 436.05222 L 228.53572 436.7957 L 229.28572 436.7957 L 229.28572 436.05222 L 230.03572 436.05222 L 229.99828 433.99863 L 229.87965 432.17557 L 229.67046 430.5634 L 229.36128 429.14236 L 228.94272 427.89288 L 228.40535 426.7953 L 227.73976 425.82986 L 226.93657 424.977 L 225.98634 424.217 L 224.87968 423.53024 L 223.60716 422.897 L 222.15942 422.29764 L 220.52701 421.7125 L 218.70052 421.12195 L 214.42772 419.8458 L 211.50124 418.9837 L 210.78285 418.77005 Z"/>
		<path style="fill-rule:nonzero;fill:#ffc145;fill-opacity:1;" d="M 149.30414 0.32941 L 112.858925 0.0018807624 C 82.77379 -0.2684914 46.26202 28.656717 39.8354 57.8523 L 1.0605801 234.00275 C -5.366046 263.19836 18.288237 292.96323 48.36915 293.53253 L 150.03932 295.45667 L 251.70949 297.38086 C 281.7904 297.95013 305.39746 269.33417 298.92358 240.14888 L 258.86734 59.56825 C 252.39348 30.382967 215.8345 0.9273121 185.74936 0.6569399 L 149.30414 0.32941 Z"/>
		<path style="fill-rule:nonzero;fill:#000000;fill-opacity:0.078431375;" d="M 243.37686 31.00137 L 281.4413 229.95004 L 281.8783 232.68658 L 282.14398 235.41434 L 282.24286 238.12805 L 282.17938 240.82251 L 281.95804 243.49246 L 281.5833 246.13268 L 281.05963 248.73792 L 280.39148 251.3029 L 279.58334 253.82242 L 278.63968 256.29126 L 277.56494 258.70416 L 276.36362 261.05588 L 275.0402 263.34116 L 273.5991 265.5548 L 272.0448 267.69156 L 270.3818 269.74615 L 268.61453 271.71338 L 266.7475 273.58798 L 264.78516 275.36475 L 262.73196 277.03845 L 260.5924 278.60376 L 258.37094 280.05554 L 256.07202 281.3885 L 253.70012 282.5974 L 251.25974 283.67703 L 248.75531 284.62213 L 246.1913 285.42746 L 243.57224 286.0878 L 240.90251 286.59787 L 238.18661 286.95248 L 235.42905 287.14636 L 232.63426 287.1743 L 19.400087 282.86664 L 19.400087 282.86664 L 20.58721 283.80484 L 22.772966 285.35376 L 25.039694 286.7861 L 27.383057 288.09644 L 29.798725 289.27933 L 32.282368 290.32925 L 34.829655 291.24088 L 37.436253 292.0086 L 40.097836 292.6271 L 42.810066 293.0909 L 45.56861 293.39453 L 48.36915 293.53253 L 150.03932 295.45667 L 251.70949 297.38086 L 254.5099 297.34958 L 257.26804 297.15256 L 259.9796 296.79498 L 262.64026 296.28217 L 265.24573 295.61926 L 267.7916 294.81155 L 270.27362 293.8643 L 272.68747 292.78268 L 275.02878 291.57202 L 277.29327 290.23746 L 279.4766 288.78433 L 281.57443 287.2178 L 283.5825 285.54315 L 285.49643 283.76562 L 287.3119 281.8904 L 289.0246 279.92282 L 290.6302 277.86804 L 292.12436 275.73135 L 293.50284 273.51794 L 294.7612 271.2331 L 295.8952 268.88205 L 296.9005 266.47 L 297.77277 264.00223 L 298.50766 261.48395 L 299.10092 258.92044 L 299.54816 256.31693 L 299.84506 253.67862 L 299.98737 251.01077 L 299.97067 248.31863 L 299.79068 245.60744 L 299.4431 242.88245 L 298.92358 240.14888 L 258.86734 59.56825 L 258.17337 56.832233 L 257.30984 54.100033 L 256.28345 51.37703 L 255.1008 48.668625 L 253.76866 45.98021 L 252.29375 43.317177 L 250.6827 40.68492 L 248.94221 38.088837 L 247.07903 35.534317 L 245.0998 33.02675 L 243.37686 31.00137 Z"/>
		<path style="fill-rule:nonzero;fill:#ffffff;fill-opacity:0.19607843;" d="M 112.858925 0.0018807624 L 110.02073 0.06118457 L 107.15156 0.28625986 L 104.25812 0.67181027 L 101.34706 1.2125394 L 98.425095 1.9031509 L 95.4989 2.7383487 L 92.575165 3.712836 L 89.660576 4.8213162 L 86.76181 6.058494 L 83.88555 7.4190717 L 81.038506 8.897755 L 78.22734 10.489244 L 75.45874 12.188246 L 72.739395 13.989463 L 70.07599 15.887599 L 67.47522 17.877357 L 64.943756 19.95344 L 62.48829 22.110554 L 60.115505 24.3434 L 57.832096 26.646685 L 55.644733 29.01511 L 53.560112 31.443377 L 51.58492 33.926193 L 49.725834 36.458263 L 47.989544 39.034286 L 46.38274 41.648964 L 44.912098 44.29701 L 43.584312 46.97312 L 42.406063 49.672 L 41.384037 52.388355 L 40.52492 55.116882 L 39.8354 57.8523 L 1.0605801 234.00275 L 0.5454898 236.7406 L 0.20232344 239.47633 L 0.026749996 242.2045 L 0.014438196 244.91965 L 0.16105682 247.61635 L 0.46227464 250.28911 L 0.9137604 252.93251 L 1.5111829 255.5411 L 2.2502108 258.10944 L 3.126513 260.63205 L 4.1357584 263.1035 L 4.7082634 264.3185 L 4.7082634 264.3185 L 50.397327 72.47072 L 51.1303 69.75758 L 52.0323 67.048584 L 53.096558 64.34907 L 54.316334 61.66437 L 55.684864 58.999832 L 57.195396 56.360786 L 58.84117 53.752567 L 60.61544 51.18051 L 62.511448 48.649963 L 64.52244 46.166256 L 66.64165 43.734726 L 68.86233 41.360706 L 71.17773 39.049538 L 73.581085 36.80656 L 76.06564 34.637104 L 78.62466 32.546513 L 81.25136 30.54012 L 83.939 28.623262 L 86.68083 26.801275 L 89.47009 25.079498 L 92.300026 23.463268 L 95.16387 21.957922 L 98.05489 20.568796 L 100.96632 19.301228 L 103.89139 18.160553 L 106.82336 17.15211 L 109.75548 16.281233 L 112.68098 15.553262 L 115.59311 14.973533 L 118.48512 14.547382 L 121.350266 14.280148 L 124.18176 14.177166 L 223.23422 13.505306 L 223.23422 13.505306 L 223.16975 13.461675 L 220.39838 11.720324 L 217.5846 10.085259 L 214.7351 8.561873 L 211.85663 7.155561 L 208.95583 5.8717146 L 206.03941 4.7157273 L 203.11404 3.6929939 L 200.18646 2.8089063 L 197.26335 2.0688589 L 194.35138 1.4782451 L 191.45726 1.0424584 L 188.58768 0.76689214 L 185.74936 0.6569399 L 149.30414 0.32941 L 112.858925 0.0018807624 Z"/>
		<path style="fill-rule:nonzero;fill:#ffc145;fill-opacity:1;" d="M 85.71429 267.65027 C 71.550095 319.5468 71.550095 345.4951 85.71429 397.39163 C 52.714287 406.3133 43.714287 400.3655 46.714287 427.13055 L 58.714287 427.13055 L 58.714287 433.07834 L 70.71429 433.07834 L 70.71429 439.02612 L 82.71429 439.02612 C 118.714294 427.13055 118.714294 427.13055 109.714294 397.39163 C 95.550095 345.4951 95.550095 277.16672 109.714294 267.65027 M 214.28572 270.62418 C 228.44992 322.5207 228.44992 348.46896 214.28572 400.3655 C 247.28572 409.2872 256.28574 403.33942 253.28572 430.10443 L 241.28572 430.10443 L 241.28572 436.05222 L 229.28572 436.05222 L 229.28572 442.0 L 217.28572 442.0 C 181.2857 430.10443 181.2857 430.10443 190.2857 400.3655 C 204.44992 348.46896 204.44992 280.14062 190.2857 270.62418"/>
		<path style="fill-rule:nonzero;fill:url(#paint-id-0);fill-opacity:1;" d="M 105.93613 267.65027 L 105.93613 267.65027 C 101.20207 276.13895 98.9236 293.53677 99.10072 314.41235 L 99.10072 314.41235 C 99.30702 290.71405 102.84489 272.2656 109.714294 267.65027 Z M 190.2857 270.62418 C 197.15514 275.2395 200.69298 293.68793 200.89928 317.38623 L 200.89928 317.38623 C 201.0764 296.51065 198.79793 279.11282 194.06387 270.62418 Z M 75.10664 330.29053 L 75.10664 330.29053 C 74.840454 349.45007 78.003044 368.36966 84.59441 393.23038 L 84.59441 393.23038 C 84.96459 393.1324 85.337875 393.03256 85.71429 392.9308 C 78.9027 367.97366 75.36682 349.0175 75.10664 330.29053 Z M 224.89337 333.26443 C 224.63318 351.99136 221.09729 370.94754 214.28572 395.90466 C 214.66212 396.00647 215.0354 396.1063 215.4056 396.20425 L 215.4056 396.20425 C 221.99696 371.34354 225.15956 352.42395 224.89337 333.26443 Z M 46.230354 416.8395 L 46.230354 416.8395 C 46.07148 419.5982 46.247826 422.96896 46.714287 427.13055 L 58.714287 427.13055 L 58.714287 422.6697 L 46.714287 422.6697 C 46.473812 420.52426 46.310444 418.58905 46.230354 416.8395 Z M 253.76965 419.81335 L 253.76965 419.81335 C 253.68956 421.56293 253.52618 423.49817 253.28572 425.6436 L 241.28572 425.6436 L 241.28572 430.10443 L 253.28572 430.10443 C 253.75218 425.9428 253.92851 422.57208 253.76965 419.81335 Z M 58.714287 428.6175 L 58.714287 433.07834 L 70.71429 433.07834 L 70.71429 428.6175 Z M 229.28572 431.59137 L 229.28572 436.05222 L 241.28572 436.05222 L 241.28572 431.59137 Z M 114.57429 416.37717 C 113.416306 424.42035 104.903885 427.2331 82.71429 434.56528 L 70.71429 434.56528 L 70.71429 439.02612 L 82.71429 439.02612 C 108.57142 430.48206 115.856575 428.0748 114.57429 416.37717 Z M 185.42572 419.35107 L 185.42572 419.35107 C 184.14343 431.0487 191.42859 433.45596 217.28572 442.0 L 229.28572 442.0 L 229.28572 437.53915 L 217.28572 437.53915 C 195.09613 430.207 186.5837 427.39423 185.42572 419.35107 Z"/>
		<path style="fill-rule:nonzero;fill:url(#paint-id-1);fill-opacity:1;" d="M 194.06387 270.62418 C 194.56273 271.51865 195.03432 272.5121 195.47862 273.59805 L 215.08937 273.59805 C 214.82675 272.61618 214.55887 271.625 214.28572 270.62418 Z M 217.8401 401.2945 C 217.65778 401.97168 217.47299 402.6533 217.28572 403.33942 C 235.23389 408.19177 246.08261 408.6456 251.76256 412.3562 L 251.76256 412.3562 C 247.7177 406.03308 237.38995 406.23074 217.8401 401.2945 Z M 85.71429 267.65027 C 78.9027 292.6074 75.36682 311.56357 75.10664 330.29053 L 75.10664 330.29053 C 75.36682 349.0175 78.9027 367.97366 85.71429 392.9308 C 85.337875 393.03256 84.96459 393.1324 84.59441 393.23038 L 84.59441 393.23038 C 84.95731 394.5991 85.3306 395.98587 85.71429 397.39163 C 57.845337 404.9261 47.093266 401.85562 46.230354 416.8395 L 46.230354 416.8395 C 46.310444 418.58905 46.473812 420.52426 46.714287 422.6697 L 49.179565 422.6697 C 48.880424 404.4289 59.1958 408.34595 88.71429 400.3655 C 74.550095 348.46896 74.550095 322.5207 88.71429 270.62418 L 104.52138 270.62418 C 104.96569 269.53818 105.43728 268.54477 105.93613 267.65027 Z M 196.94777 277.85333 C 199.71838 287.32364 201.03555 301.3257 200.89928 317.38623 L 200.89928 317.38623 C 201.11836 342.552 197.5805 373.63797 190.2857 400.3655 C 187.75 408.74432 185.92871 414.76248 185.42572 419.35107 L 185.42572 419.35107 C 185.75153 421.61407 186.65953 423.46304 188.29056 425.1151 L 188.29056 425.1151 C 188.17319 420.23285 190.20071 413.53326 193.28572 403.33942 C 206.10071 356.38623 207.3214 295.98254 196.94777 277.85333 Z M 190.08853 431.11255 C 190.08853 431.11255 190.08853 431.11255 190.08853 431.11255 L 190.08855 431.11255 C 190.08853 431.11255 190.08853 431.11255 190.08853 431.11255 Z"/>
		<path style="fill-rule:nonzero;fill:#000000;fill-opacity:0.15686275;" d="M 77.259995 409.87256 L 76.53239 410.05286 L 70.5353 411.56567 L 68.0943 412.23087 L 65.991425 412.86765 L 64.201485 413.5003 L 62.699303 414.1531 L 61.4597 414.85034 L 60.930496 415.2232 L 60.457497 415.61627 L 60.037544 416.0326 L 59.6675 416.47516 L 59.344215 416.94708 L 59.064537 417.45132 L 58.82532 417.991 L 58.623425 418.56906 L 58.318985 419.8526 L 58.12603 421.32623 L 58.019382 423.01425 L 57.973866 424.94092 L 57.964287 427.13055 L 58.714287 427.13055 L 58.714287 427.87402 L 59.464287 427.87402 L 59.464287 427.13055 L 59.4795 423.3765 L 59.539845 421.84595 L 59.67209 420.51483 L 59.903778 419.35962 L 60.06553 418.8405 L 60.26247 418.35654 L 60.498055 417.90466 L 60.775723 417.482 L 61.098915 417.08554 L 61.47108 416.7124 L 61.895657 416.35953 L 62.3761 416.02402 L 63.518333 415.3933 L 64.92533 414.79657 L 66.62466 414.2102 L 68.643845 413.61053 L 71.01047 412.97394 L 76.89619 411.49542 L 77.623795 411.3151 L 77.259995 409.87256 Z M 222.74 412.84647 L 222.37622 414.28897 L 223.1038 414.4693 L 228.98955 415.9478 L 231.35617 416.5844 L 233.37537 417.18408 L 235.07468 417.77048 L 236.48167 418.3672 L 237.62392 418.9979 L 238.10434 419.33344 L 238.52893 419.68628 L 238.9011 420.05942 L 239.22427 420.4559 L 239.50195 420.87854 L 239.73752 421.3304 L 239.93448 421.81442 L 240.09622 422.3335 L 240.32793 423.48874 L 240.46017 424.81985 L 240.52051 426.3504 L 240.53572 430.10443 L 240.53572 430.8479 L 241.28572 430.8479 L 241.28572 430.10443 L 242.03572 430.10443 L 242.02614 427.9148 L 241.9806 425.98816 L 241.87398 424.30014 L 241.68103 422.82648 L 241.37657 421.54297 L 241.17467 420.9649 L 240.93547 420.4252 L 240.65579 419.921 L 240.3325 419.44904 L 239.96246 419.00647 L 239.54251 418.59018 L 239.0695 418.1971 L 238.54031 417.82425 L 237.3007 417.127 L 235.79851 416.4742 L 234.00859 415.84155 L 231.90572 415.20474 L 229.4647 414.53955 L 223.46762 413.02673 L 222.74 412.84647 Z M 89.21715 415.79617 L 88.49878 416.0098 L 85.57229 416.8719 L 81.299484 418.14807 L 79.473 418.73862 L 77.84058 419.32376 L 76.39283 419.9231 L 75.12033 420.55637 L 74.01367 421.2431 L 73.063446 422.0031 L 72.26025 422.856 L 71.594666 423.82138 L 71.05729 424.919 L 70.63872 426.1685 L 70.329544 427.5895 L 70.120346 429.2017 L 70.00174 431.02475 L 69.96429 433.07834 L 70.71429 433.07834 L 70.71429 433.8218 L 71.46429 433.8218 L 71.46429 433.07834 L 71.491356 431.21338 L 71.580475 429.5627 L 71.74354 428.10727 L 71.99242 426.8281 L 72.339 425.7061 L 72.79516 424.7223 L 73.37278 423.8576 L 74.08375 423.09308 L 74.93993 422.40964 L 75.95323 421.78824 L 77.135506 421.2099 L 78.49866 420.6556 L 80.05455 420.10626 L 81.81508 419.54285 L 85.997536 418.29785 L 88.929794 417.43402 L 89.64817 417.2204 L 89.21715 415.79617 Z M 210.78285 418.77005 L 210.35184 420.19427 L 211.0702 420.40793 L 214.00246 421.27173 L 218.18494 422.51672 L 219.94545 423.08014 L 221.50134 423.6295 L 222.86449 424.18378 L 224.04678 424.76212 L 225.06006 425.38354 L 225.91626 426.067 L 226.62721 426.8315 L 227.20485 427.69617 L 227.66101 428.67996 L 228.00758 429.802 L 228.25647 431.08115 L 228.41953 432.5366 L 228.50865 434.1873 L 228.53572 436.05222 L 228.53572 436.7957 L 229.28572 436.7957 L 229.28572 436.05222 L 230.03572 436.05222 L 229.99828 433.99863 L 229.87965 432.17557 L 229.67046 430.5634 L 229.36128 429.14236 L 228.94272 427.89288 L 228.40535 426.7953 L 227.73976 425.82986 L 226.93657 424.977 L 225.98634 424.217 L 224.87968 423.53024 L 223.60716 422.897 L 222.15942 422.29764 L 220.52701 421.7125 L 218.70052 421.12195 L 214.42772 419.8458 L 211.50124 418.9837 L 210.78285 418.77005 Z"/>
		<path style="fill-rule:nonzero;fill:url(#paint-id-2);fill-opacity:1;" d="M 246.0 110.034004 C 246.0 134.67053 225.85281 154.64238 201.0 154.64238 C 176.14719 154.64238 156.0 134.67053 156.0 110.034004 C 156.0 85.39748 176.14719 65.42562 201.0 65.42562 C 225.85281 65.42562 246.0 85.39748 246.0 110.034004 Z"/>
		<path style="fill-rule:nonzero;fill:url(#paint-id-3);fill-opacity:1;" d="M 153.0 113.0079 C 153.0 136.00198 134.19597 154.64238 111.0 154.64238 C 87.80404 154.64238 69.0 136.00198 69.0 113.0079 C 69.0 90.0138 87.80404 71.373405 111.0 71.373405 C 134.19597 71.373405 153.0 90.0138 153.0 113.0079 Z"/>
		<path style="fill-rule:nonzero;fill:#ffffff;fill-opacity:1;" d="M 201.0 74.3473 C 181.11775 74.3473 165.0 90.32478 165.0 110.034004 C 165.0 129.74323 181.11775 145.7207 201.0 145.7207 C 220.88226 145.7207 237.0 129.74323 237.0 110.034004 C 237.0 90.32478 220.88226 74.3473 201.0 74.3473 Z"/>
		<path style="fill-rule:nonzero;fill:#7c5e21;fill-opacity:1;" d="M 197.78879 92.19065 C 187.84766 92.19065 179.78877 100.17939 179.78877 110.034004 C 179.78877 119.88862 187.84766 127.87736 197.78879 127.87736 C 207.7299 127.87736 215.78879 119.88862 215.78879 110.034004 C 215.78879 100.17939 207.7299 92.19065 197.78879 92.19065 Z"/>
		<path style="fill-rule:nonzero;fill:#000000;fill-opacity:1;" d="M 197.78879 100.22016 C 192.32117 100.22016 187.88878 104.61397 187.88878 110.034004 C 187.88878 115.45404 192.32117 119.847855 197.78879 119.847855 C 203.25641 119.847855 207.68878 115.45404 207.68878 110.034004 C 207.68878 104.61397 203.25641 100.22016 197.78879 100.22016 Z"/>
		<path style="fill-rule:nonzero;fill:#ffffff;fill-opacity:0.60784316;" d="M 209.78879 92.78543 C 206.80644 92.78543 204.38878 95.18206 204.38878 98.138435 C 204.38878 101.09482 206.80644 103.49144 209.78879 103.49144 C 212.77112 103.49144 215.18878 101.09482 215.18878 98.138435 C 215.18878 95.18206 212.77112 92.78543 209.78879 92.78543 Z"/>
		<path style="fill-rule:nonzero;fill:#ffffff;fill-opacity:1;" d="M 111.0 80.29508 C 92.774605 80.29508 78.0 94.94111 78.0 113.0079 C 78.0 131.07468 92.774605 145.7207 111.0 145.7207 C 129.22539 145.7207 144.0 131.07468 144.0 113.0079 C 144.0 94.94111 129.22539 80.29508 111.0 80.29508 Z"/>
		<path style="fill-rule:nonzero;fill:#7c5e21;fill-opacity:1;" d="M 107.78878 96.65149 C 98.67608 96.65149 91.28878 103.974495 91.28878 113.0079 C 91.28878 122.04129 98.67608 129.3643 107.78878 129.3643 C 116.90148 129.3643 124.28878 122.04129 124.28878 113.0079 C 124.28878 103.974495 116.90148 96.65149 107.78878 96.65149 Z"/>
		<path style="fill-rule:nonzero;fill:#000000;fill-opacity:1;" d="M 107.78878 104.01186 C 102.776794 104.01186 98.713776 108.03953 98.713776 113.0079 C 98.713776 117.97625 102.776794 122.003914 107.78878 122.003914 C 112.80075 122.003914 116.86377 117.97625 116.86377 113.0079 C 116.86377 108.03953 112.80075 104.01186 107.78878 104.01186 Z"/>
		<path style="fill-rule:nonzero;fill:#ffffff;fill-opacity:0.60784316;" d="M 118.78878 97.19669 C 116.05497 97.19669 113.838776 99.3936 113.838776 102.10362 C 113.838776 104.81364 116.05497 107.01054 118.78878 107.01054 C 121.52259 107.01054 123.73878 104.81364 123.73878 102.10362 C 123.73878 99.3936 121.52259 97.19669 118.78878 97.19669 Z"/>
		<path style="fill-rule:nonzero;fill:#000000;fill-opacity:0.15686275;" d="M 81.0 178.43352 L 81.0 178.43352 C 81.0 216.08005 113.63306 236.42441 150.0 236.42441 L 150.0 236.42441 C 186.36694 236.42441 219.0 216.08005 219.0 178.43352 C 219.0 173.50621 223.02945 169.51184 228.0 169.51184 C 232.97057 169.51184 237.0 173.50621 237.0 178.43352 L 237.0 178.43352 C 237.0 230.00374 191.63306 254.26776 150.0 254.26776 L 150.0 254.26776 C 108.36694 254.26776 63.0 230.00374 63.0 178.43352 C 63.0 173.50621 67.029434 169.51184 72.0 169.51184 C 76.970566 169.51184 81.0 173.50621 81.0 178.43352 Z"/>
		<path style="fill-rule:nonzero;fill:#000000;fill-opacity:0.23529412;" d="M 75.0 178.43352 L 75.0 178.43352 C 75.0 220.72128 111.877686 242.3722 150.0 242.3722 L 150.0 242.3722 C 188.12231 242.3722 225.0 220.72128 225.0 178.43352 C 225.0 176.79108 226.34315 175.45963 228.0 175.45963 C 229.65686 175.45963 231.0 176.79108 231.0 178.43352 L 231.0 178.43352 C 231.0 225.3625 189.87769 248.31998 150.0 248.31998 L 150.0 248.31998 C 110.12232 248.31998 69.0 225.3625 69.0 178.43352 C 69.0 176.79108 70.34315 175.45963 72.0 175.45963 C 73.65685 175.45963 75.0 176.79108 75.0 178.43352 Z"/>
	</g>
</svg>
